<?xml version="1.0" encoding="UTF-8"?>
<svg id="_レイヤー_2" data-name="レイヤー 2" xmlns="http://www.w3.org/2000/svg" viewBox="0 0 794.1609628 122.8242188">
  <defs>
    <style>
      .cls-1 {
        fill: none;
      }

      .cls-2 {
        fill: #606060;
      }
    </style>
  </defs>
  <g id="_レイヤー_1-2" data-name="レイヤー 1">
    <g>
      <g>
        <g>
          <path d="m16.3361816,1.2939453c.2382812-.3183594.4375-.6367188.5966797-.6367188.2392578,0,1.7109375,1.2138672,1.7109375,1.5126953-.0390625.21875-.2382812.3183594-.4970703.3183594h-6.0292969v3.3417969h4.0390625l.2792969-.4179688c.1591797-.1982422.2783203-.4169922.4375-.4169922.2382812,0,1.3925781.8955078,1.3925781,1.1933594-.1386719.1591797-.3779297.2783203-.7958984.3583984v6.5664062c.0400391,2.3876953.0800781,3.1835938.1591797,4.6757812-.1591797.1787109-.6162109.5175781-1.2138672.5175781-.1787109,0-.2587891-.1992188-.2587891-.3984375.0400391-.2783203.0400391-.4375.0800781-.875v-.6367188H3.7404785v.5175781c.0400391.5166016.0400391.6953125.0800781.9345703-.0800781.1992188-.4775391.5175781-1.0947266.5175781-.1787109,0-.3974609-.1992188-.3974609-.3984375.1191406-1.7109375.1787109-2.5869141.21875-5.1728516v-3.6210938c0-1.3535156-.0800781-2.9853516-.2587891-4.0800781l1.6914062.7363281h3.3027344v-3.3417969h-2.6259766c-1.0351562.0195312-1.9902344.1191406-2.984375.2783203l-.5175781-1.0146484c.875.0996094,1.7509766.1386719,2.6464844.1582031h12.0976562l.4375-.6162109ZM3.7404785,6.4082031v9.4306641h12.4960938V6.4082031h-4.1191406v4.3964844c0,.2988281.0605469.3583984.4384766.3583984h.8349609c.3984375,0,.6767578,0,.8359375-.0205078.1191406-.0195312.1992188-.0390625.2587891-.1787109.0996094-.2587891.3378906-1.4326172.4775391-2.4072266h.2587891l.0595703,2.4873047c.3378906.1191406.4580078.2783203.4580078.5371094,0,.5166016-.4980469.7763672-2.3681641.7763672h-1.1142578c-1.1142578,0-1.3330078-.3583984-1.3330078-1.234375v-4.7148438h-2.4472656c-.0800781,2.6054688-.6767578,5.4316406-4.4179688,7.2617188l-.21875-.2783203c2.8261719-2.0097656,3.3828125-4.4570312,3.4423828-6.9833984h-3.5419922Zm4.7363281-.578125h2.4472656v-3.3417969h-2.4472656v3.3417969Z"/>
          <path d="m36.3518066,4.7363281c.21875-.2988281.3984375-.5976562.5576172-.5976562.2382812,0,1.6513672,1.1542969,1.6513672,1.453125-.0595703.21875-.21875.3183594-.4980469.3183594h-5.2128906c.3583984,4.3378906,1.453125,8.2177734,3.9599609,10.2275391.2978516.2978516.4179688.2783203.5771484-.0996094.2578125-.4775391.5966797-1.4326172.8154297-2.2285156l.2587891.0400391-.3378906,3.0234375c.5566406.7763672.5966797,1.1152344.4169922,1.3339844-.4775391.5966797-1.6113281,0-2.4267578-.7363281-2.8261719-2.4277344-4.0791016-6.5664062-4.5566406-11.5605469h-7.0439453c-1.0341797.0195312-1.9892578.1191406-2.984375.2783203l-.5175781-1.0146484c.8759766.0996094,1.7509766.1396484,2.6464844.1591797h7.859375c-.1191406-1.5917969-.1787109-3.2832031-.1787109-5.0146484,2.0292969.1601562,2.0292969.359375,1.6708984.5976562l-.3378906.21875c-.0205078,1.4121094.0195312,2.8251953.1191406,4.1982422h3.1435547l.4179688-.5966797Zm-6.6259766,5.0136719c.1992188-.2783203.3583984-.5761719.5175781-.5761719.2392578,0,1.4521484,1.1132812,1.4521484,1.4121094-.0595703.21875-.21875.3183594-.4970703.3183594h-3.5214844v4.6162109c1.3720703-.2587891,2.8447266-.5576172,4.3173828-.8759766l.0595703.3388672c-2.2480469.7558594-5.3320312,1.7109375-9.6103516,2.8857422-.0996094.2382812-.2783203.3974609-.4580078.4570312l-.8554688-1.5917969c.4980469-.0595703,1.1542969-.1796875,1.9501953-.3183594v-3.9394531c0-1.3134766-.0800781-2.9648438-.2587891-4.0390625,2.0292969.5966797,2.0292969.7949219,1.7314453.9941406l-.2792969.1796875v6.5859375c.6572266-.1396484,1.4130859-.2792969,2.1894531-.4375v-5.3330078c0-1.3525391-.0800781-2.984375-.2587891-4.0791016,2.0888672.5976562,2.0888672.7958984,1.7705078,1.015625l-.2978516.1982422v2.765625h1.6708984l.3779297-.5771484Zm-1.2734375-8.078125c.21875-.2783203.3779297-.5771484.5371094-.5771484.2392578,0,1.5126953,1.0947266,1.5126953,1.3935547-.0595703.21875-.2392578.3183594-.5175781.3183594h-3.640625c-1.0351562.0195312-1.9902344.1191406-2.9853516.2783203l-.5166016-1.0146484c.875.0996094,1.75.1386719,2.6455078.1582031h2.5869141l.3779297-.5566406Zm5.4326172-.5966797c4.1777344.4970703,3.5410156,3.3427734,2.2080078,2.5869141-.3779297-.8554688-1.4716797-1.8710938-2.3476562-2.4082031l.1396484-.1787109Z"/>
          <path d="m41.0861816,5.1933594c4.0390625.5175781,3.2832031,3.3828125,1.9101562,2.5869141-.2783203-.875-1.2529297-1.8505859-2.0888672-2.3876953l.1787109-.1992188Zm1.0751953,7.7802734c.21875,0,.2978516-.0195312.4775391-.3974609q.3183594-.7167969,3.6806641-8.7753906l.3583984.0996094c-.8164062,2.4873047-2.4277344,7.1835938-2.6865234,8.1386719-.1787109.6367188-.2978516,1.2333984-.2978516,1.7304688.0195312.875.5566406,1.7910156.4970703,3.4023438-.0400391.8554688-.4179688,1.3730469-1.0742188,1.3730469-.3388672,0-.5576172-.3574219-.5976562-.9941406.2587891-2.0302734.1591797-3.5625-.2587891-3.8613281-.2578125-.1787109-.5371094-.2382812-.9550781-.2773438v-.4384766h.8564453Zm.3574219-12.4755859c4.1386719.6367188,3.4033203,3.5820312,1.9902344,2.7851562-.2783203-.9150391-1.3134766-2.0292969-2.1689453-2.5859375l.1787109-.1992188Zm13.8291016,3.5615234c.1787109-.21875.2988281-.4580078.4580078-.4580078.2382812,0,1.3525391,1.0351562,1.3525391,1.3339844-.1386719.1582031-.3583984.2382812-.7363281.2978516-.0595703,4.875-.2382812,6.8056641-.8359375,7.4814453-.3974609.4179688-.9941406.5976562-1.5712891.5976562,0-.3583984-.0595703-.6972656-.2587891-.8759766-.1992188-.1992188-.6367188-.3388672-1.0947266-.4179688l.0205078-.3583984c.4570312.0400391,1.2138672.1191406,1.5517578.1191406.2587891,0,.3779297-.0390625.4970703-.1787109.3388672-.3974609.4580078-2.2880859.4980469-6.5068359l-3.1640625,1.234375v3.2226562c.0400391,2.3886719.0800781,3.1835938.1591797,4.6767578-.1591797.2587891-.6767578.5566406-1.1142578.5566406-.21875,0-.4179688-.1982422-.4179688-.3974609.0996094-1.6318359.1591797-2.4472656.1992188-4.9150391v-2.6660156l-2.8652344,1.1337891v7.8798828c0,.6162109.21875.8554688,1.4921875.8554688h3.0449219c1.4521484,0,2.4863281-.0400391,2.9248047-.0791016.2978516-.0410156.4169922-.1201172.5371094-.3183594.1787109-.3183594.4375-1.4335938.7158203-2.8652344h.2587891l.0595703,2.984375c.4980469.1582031.6171875.3183594.6171875.5966797,0,.6962891-.8359375.9550781-5.1337891.9550781l-3.0839844-.0205078c-1.9892578,0-2.6259766-.3378906-2.6259766-1.7900391v-7.7402344l-1.9101562.7558594-.3583984-.4970703,2.2685547-.8955078v-2.7255859c0-.9355469-.0605469-2.0498047-.1796875-2.8261719,2.0498047.6171875,2.0498047.8164062,1.7109375,1.0351562l-.3378906.21875v3.8398438l2.8652344-1.1337891v-2.8457031c0-.9550781-.0595703-2.1289062-.1787109-2.9248047,2.0488281.6171875,2.0488281.8164062,1.6904297,1.0351562l-.3378906.21875v4.0585938l2.9648438-1.1738281.0595703-.0195312h-.0400391l.2988281-.4580078Z"/>
          <path d="m76.3244629,9.8691406c.21875-.2978516.3779297-.5957031.5371094-.5957031.2382812,0,1.5917969,1.1337891,1.5917969,1.4316406-.0605469.21875-.2392578.3183594-.4980469.3183594h-7.5410156c.4775391,1.0742188,1.1738281,2.0097656,2.0097656,2.8056641,1.0742188-.7158203,2.2685547-1.8896484,2.8251953-2.8251953,1.6914062,1.2333984,1.6914062,1.4326172,1.3330078,1.453125h-.3378906c-.8359375.5371094-2.1689453,1.2128906-3.4619141,1.7109375,1.5322266,1.3330078,3.5019531,2.2675781,5.6904297,2.8046875l-.0195312.1992188c-.5576172.0996094-.9550781.4775391-1.1542969,1.1347656-3.5214844-1.3134766-6.0683594-3.6015625-7.3222656-7.2832031h-.1591797c-.7558594.7558594-1.671875,1.453125-2.6865234,2.0498047v3.2626953c1.5322266-.2382812,3.2832031-.5166016,5.09375-.7949219l.0400391.3378906c-1.7109375.5371094-4.1191406,1.2734375-7.5810547,2.1884766-.0595703.2392578-.2382812.3779297-.4375.4384766l-.9355469-1.6328125c.6171875-.0585938,1.4921875-.1982422,2.5869141-.3574219v-2.765625c-1.5126953.7363281-3.203125,1.3330078-5.0146484,1.7705078l-.1386719-.3378906c2.9052734-.9550781,5.4716797-2.4277344,7.2226562-4.1591797h-3.7607422c-1.0341797.0205078-1.9892578.1191406-2.984375.2792969l-.5175781-1.015625c.8759766.0996094,1.7509766.1396484,2.6464844.1601562h5.6308594c0-.8164062-.0400391-1.7910156-.1396484-2.4677734,2.0097656.5966797,2.0097656.7958984,1.7119141,1.0146484l-.2988281.1992188v1.2539062h5.6708984l.3984375-.578125Zm-15.3417969-3.3222656l-.1787109-.2587891c.9550781-.7763672,1.8701172-1.7509766,2.6660156-2.7861328.7958984-1.0341797,1.5322266-2.4267578,1.8310547-3.5019531,2.0097656,1.0546875,2.0097656,1.2539062,1.6308594,1.3144531l-.3574219.0585938c-.4375.6972656-1.0351562,1.4335938-1.7509766,2.1894531.875.6367188.875.8359375.5771484.9746094l-.2792969.1191406v1.1943359c.0400391,1.5917969.0605469,2.1289062.1201172,3.0839844-.1396484.1992188-.6572266.5175781-1.1142578.5175781-.21875,0-.3583984-.1992188-.3583984-.3984375.0791016-.9746094.0996094-1.4521484.1396484-2.9248047v-1.671875c-.8759766.7763672-1.8710938,1.5126953-2.9257812,2.0898438Zm15.0029297-4.0195312c.1992188-.2988281.3388672-.5966797.4970703-.5966797.2392578,0,1.6123047.8759766,1.6123047,1.1738281-.0205078.21875-.21875.3583984-.4580078.3779297l-6.2675781.6767578c.8955078,1.6123047,2.328125,2.9443359,4.6367188,3.5224609.3974609.0986328.5566406.0791016.6757812-.1796875.1591797-.3583984.3984375-1.09375.5576172-1.7509766l.2587891.0400391-.0996094,2.0693359c.5771484.3779297.6367188.5371094.5566406.8154297-.2382812.6367188-1.2333984.4580078-2.2880859.1591797-2.8056641-.8154297-4.5361328-2.4267578-5.5908203-4.5361328l-3.9599609.4179688-.1992188-.5576172,3.9003906-.4179688c-.4375-1.0546875-.7558594-2.2080078-.9550781-3.4423828,1.9501953.0400391,1.9501953.2392578,1.6708984.4375l-.2578125.1992188c.1582031.8955078.4169922,1.8105469.8154297,2.6660156l4.5566406-.4970703.3378906-.5771484Zm-4.1982422-1.8701172c4.0390625-.1787109,3.8398438,2.3876953,2.546875,1.9892578-.5566406-.6757812-1.7509766-1.4121094-2.6865234-1.75l.1396484-.2392578Z"/>
          <path d="m82.3518066,4c.4980469-1.2138672.9550781-2.8251953,1.0947266-3.9394531,2.1083984.8154297,2.1083984,1.0146484,1.7509766,1.1337891l-.3583984.1201172c-.6367188,1.0537109-1.3925781,2.2080078-2.109375,3.0634766,1.3730469,1.1738281.6367188,2.5673828-.2783203,1.890625-.21875-.8955078-1.0351562-1.9902344-1.7509766-2.6269531l.1992188-.1591797c.5966797.1796875,1.0546875.3789062,1.4121094.6171875.0205078-.0400391.0205078-.0595703.0400391-.0996094Zm.8955078,8.2373047l-.3183594.1591797c-.4375,1.6318359-1.0742188,3.3427734-1.8701172,4.4570312l-.3183594-.1591797c.1191406-.3378906.2382812-.7158203.3574219-1.1142578.3583984-1.2734375.5771484-3.0644531.5380859-4.1777344l1.09375.3378906c.8554688.1191406.8554688.3183594.5175781.4970703Zm2.984375-3.4814453c-.2783203-.6572266-.6162109-1.2939453-.9150391-1.7714844l.2382812-.1191406c3.3232422,1.9697266,2.1689453,4.4375,1.0751953,3.421875-.0400391-.3378906-.1201172-.7158203-.2392578-1.09375-.4179688.0800781-.8554688.1787109-1.3525391.2783203v3.8203125c.0400391,2.3876953.0791016,3.1835938.1591797,4.6757812-.1591797.1992188-.5771484.4970703-1.1542969.4970703-.1787109,0-.3984375-.1982422-.3984375-.3974609.1201172-1.7109375.1796875-2.5869141.2197266-5.1728516v-3.2041016c-.6171875.1201172-1.2939453.2392578-2.0302734.3583984-.1386719.2587891-.2978516.3779297-.4970703.4179688l-.5371094-1.5117188c.4179688,0,1.0341797-.0205078,1.7910156-.0410156.4775391-.8554688,1.0146484-1.8300781,1.5322266-2.8242188.6162109-1.1542969,1.2529297-2.6669922,1.53125-3.7412109,1.9707031.9550781,1.9707031,1.1533203,1.5917969,1.2529297l-.3779297.0800781c-.9150391,1.453125-2.3671875,3.5419922-3.7607422,5.2128906.9355469-.0390625,2.0097656-.0791016,3.1240234-.1386719Zm-.3183594,2.5859375c2.9453125,2.2490234,1.7119141,4.65625.6767578,3.5820312,0-1.0947266-.4970703-2.546875-.9355469-3.4824219l.2587891-.0996094Zm3.3632812.3388672c-.5175781.0195312-.9951172.1191406-1.4726562.2783203l-.5371094-1.0146484c.6367188.0996094,1.2734375.1396484,1.9101562.1591797h.875l.3183594-.3583984c.1796875-.1787109.2988281-.3779297.4580078-.3779297.2382812,0,1.2539062.875,1.2539062,1.1738281-.1601562.1796875-.3388672.21875-.7568359.2382812-.65625,2.2490234-2.0292969,4.3779297-4.4570312,5.6914062l-.1787109-.2988281c1.7910156-1.3330078,2.9248047-3.3828125,3.421875-5.4912109h-.8349609Zm6.7246094-9.5712891c.1591797-.21875.2587891-.4570312.4179688-.4570312.2392578,0,1.2734375.9355469,1.2734375,1.2333984-.1191406.1396484-.2978516.2392578-.7158203.3183594v1.9892578c.0390625,1.9707031.0595703,2.6269531.1386719,3.8408203-.1386719.1982422-.5761719.4775391-1.1337891.4775391h-.1992188v-.7558594h-2.2880859c.2988281,1.5117188.7763672,2.7460938,1.3730469,3.7402344.7363281-.9150391,1.5322266-2.1689453,1.8701172-3.0839844,1.6513672,1.2333984,1.6513672,1.4326172,1.2939453,1.4726562l-.3388672.0195312c-.5966797.5175781-1.6513672,1.3134766-2.6464844,1.9101562,1.0146484,1.5527344,2.3085938,2.5078125,3.6611328,3.203125l-.0390625.2392578c-.4775391.0996094-.8164062.5175781-1.015625,1.1337891-2.1884766-1.6914062-3.6601562-3.8398438-4.3574219-8.1582031v7.3027344c0,1.015625-.1982422,1.7314453-1.8105469,1.9296875-.0195312-.3769531-.1191406-.7353516-.3378906-.9345703-.2783203-.21875-.7363281-.3974609-1.5126953-.4970703v-.2988281s1.7509766.1386719,2.109375.1386719c.3183594,0,.3984375-.0986328.3984375-.3769531v-7.7402344h-2.3085938v.5371094c0,.1191406-.3974609.3779297-1.0146484.3779297-.1591797,0-.2783203-.1992188-.2783203-.3974609.0595703-.7167969.0791016-1.0947266.1191406-2.1894531v-1.2929688c0-1.2929688-.0791016-2.9257812-.2587891-3.9794922l1.6513672.7353516h1.3535156c.1787109-.7558594.3183594-1.75.3583984-2.4267578,2.1083984.4375,2.1083984.6367188,1.75.8154297l-.3378906.1591797c-.2988281.4179688-.7363281.9755859-1.09375,1.4521484h3.640625l.2783203-.4375Zm-.21875.9951172h-5.9492188v2.2490234h5.9492188v-2.2490234Zm-5.9492188,5.0742188h5.9492188v-2.2490234h-5.9492188v2.2490234Z"/>
        </g>
        <g>
          <path d="m149.3254395,71.2431641c1.6074219,7.8701172-2.9375,7.0380859-1.6347656,4.9326172.7480469-.9140625,1.1914062-2.6875,1.21875-4.9326172h.4160156Zm7.6474609-7.7861328c.25-.3330078.4433594-.6650391.6650391-.6650391.3330078,0,1.8291016,1.3017578,1.8291016,1.7177734-.0830078.3046875-.3320312.4433594-.6650391.4433594h-3.9902344v3.0478516h2.328125l.4150391-.4990234c.2216797-.2490234.3876953-.5253906.6103516-.5253906.3320312,0,1.8007812,1.1914062,1.8007812,1.6064453-.1943359.2216797-.4990234.3330078-1.0253906.4160156-.2773438,5.4580078-.9697266,8.2851562-2.0224609,9.2275391-.6376953.5820312-1.46875.8027344-2.3837891.8027344,0-.4433594-.0830078-.8867188-.3320312-1.1357422-.2773438-.2490234-.9980469-.4433594-1.6904297-.5820312v-.4707031c.8037109.0556641,2.0507812.1660156,2.5214844.1660156.4433594,0,.6376953-.0556641.8867188-.2490234.6650391-.609375,1.1914062-3.1875,1.46875-7.953125h-6.6777344v.8867188c0,.1386719-.4990234.5820312-1.3027344.5820312-.2490234,0-.4990234-.2773438-.4990234-.5546875.1386719-1.8007812.1943359-2.7148438.25-5.4306641v-3.0205078c0-1.8847656-.1113281-4.15625-.3603516-5.6806641l2.2441406.9697266h5.6533203l.5263672-.7207031c.2763672-.359375.4990234-.7197266.7197266-.7197266.3330078,0,2.0507812,1.4130859,2.0507812,1.8291016-.0830078.3046875-.3320312.4433594-.6923828.4433594h-4.4892578v2.9375h1.8291016l.4150391-.6660156c.25-.3320312.4160156-.6923828.6376953-.6923828.3330078,0,1.8564453,1.3017578,1.8564453,1.7177734-.0546875.3046875-.3320312.4433594-.6650391.4433594h-4.0732422v2.9931641h1.7177734l.4433594-.6650391Zm-6.0683594,7.5097656c2.5498047,3.546875.9150391,6.5117188-.1660156,5.1259766.2773438-1.6074219.0830078-3.6855469-.2490234-5.015625l.4150391-.1103516Zm2.3837891-13.578125h-2.5771484v2.9375h2.5771484v-2.9375Zm0,6.7333984v-2.9931641h-2.5771484v2.9931641h2.5771484Zm-2.5771484.8310547v3.0478516h2.5771484v-3.0478516h-2.5771484Zm1.7451172,5.5419922c3.4082031,2.7158203,2.0507812,5.4863281.8867188,4.2675781,0-1.2744141-.6650391-3.0205078-1.21875-4.1015625l.3320312-.1660156Zm1.6904297-.609375c3.7128906,1.3574219,2.5771484,4.15625,1.3300781,3.1308594-.1660156-.9697266-.9423828-2.2167969-1.6621094-2.9091797l.3320312-.2216797Zm15.2958984-13.8828125c.25-.3046875.4160156-.6376953.6376953-.6376953.3320312,0,1.9951172,1.4414062,1.9951172,1.8574219-.1386719.2207031-.5820312.4433594-1.1083984.5253906v3.1591797c.0556641,3.1318359.1103516,4.1845703.2216797,6.1240234-.25.3046875-1.1083984.7207031-1.6347656.7207031-.25,0-.3603516-.2773438-.3603516-.5546875.0556641-.1386719.0556641-.2207031.1103516-.4707031v-.5263672h-4.2119141c1.1367188,5.1533203,3.5751953,9.8925781,7.3984375,11.8320312l-.0546875.3046875c-.6650391.1386719-1.2470703.6923828-1.4970703,1.6074219-3.6855469-2.7431641-5.4589844-7.4541016-6.3730469-13.7441406h-1.6621094c-.1113281,4.7099609-.7763672,10.0585938-4.7382812,13.7714844l-.4160156-.2763672c3.1035156-4.1572266,3.4638672-9.4492188,3.4638672-14.7421875v-4.6269531c0-1.5527344-.0830078-3.4648438-.3046875-4.7392578l2.2998047,1.0253906h5.8183594l.4160156-.609375Zm-6.5390625,8.9228516v.4433594h6.4003906v-7.953125h-6.4003906v7.5097656Z"/>
          <path d="m192.9934082,78.3095703c-.3876953.1660156-.859375-.2216797-1.1914062-.5263672-.3330078-.3046875-1.4414062-1.46875-2.9931641-2.4394531-.2763672,1.4414062-1.3017578,3.2978516-4.4052734,3.2705078-2.1621094,0-4.1572266-.9970703-4.1572266-2.7431641,0-1.71875,2.0507812-2.8818359,4.4619141-2.8544922.6650391,0,1.5791016.0830078,2.6044922.3046875-.1660156-1.5791016-.2773438-3.1591797-.3330078-4.765625-1.2744141.2490234-2.5761719.3876953-3.6015625.2763672-2.1894531-.2490234-3.0761719-1.5234375-3.3808594-2.1328125-.1113281-.25-.1113281-.3603516-.0556641-.4160156.1113281-.0830078.2773438.0556641.4433594.1660156.2773438.1943359,1.9121094,1.2470703,3.9628906,1.0810547.7207031-.0556641,1.6621094-.1386719,2.6044922-.3046875,0-1.6074219.0273438-3.2148438.1386719-4.8212891-.6650391.0546875-1.3027344,0-1.8291016-.2226562-.7753906-.3046875-1.6904297-1.1074219-2.0224609-1.5507812-.1113281-.1669922-.25-.3886719-.1660156-.4990234.0546875-.0556641.2216797-.1113281.5263672.0830078.4150391.3046875.9970703.7753906,2.0224609.859375.3876953.0273438.9697266-.0556641,1.6347656-.1943359.1943359-1.2197266.4433594-2.5214844-.0546875-3.6572266-.2226562-.5-.9423828-1.109375-.8867188-1.3583984.0546875-.3046875.4707031-.4433594.9414062-.3603516.4990234.1113281,1.8564453.6933594,1.8564453,1.9121094,0,.7753906-.4980469,2.1894531-.6650391,2.9375-.0273438.0830078-.0273438.1660156-.0546875.2490234.7197266-.1943359,1.3574219-.3876953,1.6064453-.4707031.6376953-.1943359,1.0810547,0,1.1640625.3320312.0556641.3330078-.0830078.8310547-.8037109,1.1357422-.4707031.1943359-1.2744141.4716797-2.1884766.6660156-.1113281,1.0800781-.1386719,2.4658203-.1113281,4.3779297v.3330078c.8310547-.2226562,1.6074219-.5,2.1337891-.859375.9980469-.6933594,0-1.3574219-.4160156-2.0507812-.0546875-.0830078-.0830078-.1660156-.1103516-.2773438-.1943359-.4980469.2773438-.1386719.4990234.0839844.4433594.3867188.9140625.5810547,1.4960938.7197266.5263672.1386719.9970703.0830078,1.3027344.3876953.3046875.3330078.359375,1.4960938-.9423828,2.1064453-.6650391.3046875-2.1894531.8310547-3.8798828,1.2197266.1660156,2.3271484.5546875,4.1835938.6933594,5.4306641,1.6347656.5263672,3.296875,1.4130859,4.2666016,2.8261719.7490234,1.0810547.0556641,1.6904297-.1103516,1.7460938Zm-5.625-3.7412109c-.8867188-.3876953-1.8564453-.6367188-2.9101562-.6650391-2.1054688-.0273438-3.2138672.8310547-3.2138672,2.0224609,0,.5546875,1.1357422,1.3027344,2.8544922,1.3027344,1.1357422,0,3.1308594-.4980469,3.2695312-2.6601562Z"/>
          <path d="m219.9797363,59.7441406c-1.5517578-.2226562-3.1308594.359375-3.4082031.5253906-.5263672.2773438-2.0224609,1.9404297-2.7431641,4.1015625-1.8017578,5.3203125-1.2197266,8.8398438-.1943359,10.3359375.9423828,1.3574219,3.1035156.9140625,4.3232422.8867188,1.4130859-.0556641,2.6318359.1386719,2.6044922,1.0253906-.0273438.8037109-1.4960938.9697266-2.0507812.9980469-2.3828125.1660156-4.4335938.1933594-5.8740234-1.6074219-1.2744141-1.5800781-1.46875-3.2421875-1.4970703-5.1816406-.0830078-6.5683594,4.2402344-10.4199219,4.1572266-10.5859375-.0556641-.1386719-.3876953.0556641-.6933594.1113281-1.1630859.3046875-5.2089844,2.078125-6.3730469,2.5214844-.4990234.1933594-1.6347656.9697266-2.2724609,1.0527344-1.2460938.1660156-2.7431641-1.7460938-2.8535156-1.9121094-.1386719-.1660156-.1660156-.3876953-.0556641-.5263672.1660156-.1660156.3046875-.0830078.5537109.0283203.25.1103516.9980469.6640625,1.9677734.4433594.9697266-.2226562,7.703125-2.7158203,12.1650391-3.4082031.8583984-.1113281,1.2744141-.5546875,2.4658203-.8046875.859375-.1660156,2.4111328.5273438,2.6884766,1.0537109.3046875.5537109.359375.9970703-.2226562,1.2470703-.1933594.1103516-1.8007812-.1943359-2.6875-.3046875Zm2.9931641-3.8242188c.3876953.1103516,2.9365234.8867188,2.9648438,2.6044922,0,.5537109-.1669922.8037109-.4990234.9150391-.3320312.1103516-.9697266-.0566406-1.2744141-.7207031-.3330078-.7207031-.9423828-1.8291016-1.6074219-2.2451172-.2773438-.1660156-.6376953-.3603516-.5820312-.5537109.0830078-.2216797.609375-.0839844.9980469,0Zm2.9091797-1.4414062c.3876953.0556641,3.0478516.6933594,3.1035156,2.4667969.0273438.4707031-.2216797.609375-.4160156.6923828-.3320312.1386719-.8867188.0283203-1.2744141-.609375-.3876953-.6650391-1.0810547-1.6630859-1.7734375-1.9951172-.2773438-.1386719-.6923828-.3046875-.6376953-.4990234.0556641-.2216797.6103516-.1386719.9980469-.0556641Z"/>
          <path d="m230.8391113,70.3564453l-.3046875-.3330078c1.3300781-1.4960938,2.6601562-3.3798828,3.8242188-5.2363281.9697266-1.5517578,1.828125-3.4365234,2.2167969-4.9326172,2.8261719,1.4404297,2.8261719,1.7177734,2.2998047,1.8017578l-.5263672.0820312c-.5820312.9707031-1.3857422,2.078125-2.2724609,3.2148438l.7207031.3046875c-.0830078.25-.3603516.4160156-.7763672.4990234v6.9267578c.0556641,3.3261719.1113281,4.4335938.2216797,6.5126953-.2490234.3046875-.9423828.7753906-1.6064453.7753906-.3330078,0-.6376953-.2763672-.6376953-.5537109.1660156-2.3828125.2490234-3.6025391.3046875-7.2050781v-5.1816406c-1.0810547,1.1914062-2.2441406,2.3554688-3.4638672,3.3251953Zm7.5097656-14.1591797l-.4990234.0546875c-1.4960938,1.8007812-4.15625,4.2402344-6.8447266,5.7636719l-.2763672-.359375c.8583984-.7490234,1.7451172-1.6914062,2.5771484-2.6328125,1.1914062-1.3857422,2.3828125-3.2695312,2.8535156-4.7109375l1.46875.9980469c1.21875.5537109,1.21875.8310547.7207031.8867188Zm13.2177734,12.8574219c.3046875-.3886719.5263672-.8046875.7480469-.8046875.3320312,0,2.1884766,1.5527344,2.1884766,1.9677734-.0830078.3056641-.359375.4433594-.7197266.4433594h-6.0966797v6.2900391c1.2197266.3330078,2.6328125.4716797,4.2675781.4716797.859375,0,2.7158203,0,3.7402344-.0283203v.3886719c-.609375.1103516-.9140625.7207031-.9414062,1.46875h-2.9931641c-5.1259766,0-8.0908203-1.5527344-9.78125-7.4824219-.8037109,3.0488281-2.1894531,6.0966797-4.6552734,8.1464844l-.3046875-.3046875c1.5517578-1.8564453,2.5488281-4.4052734,3.1308594-7.09375.4160156-1.7734375.5546875-4.2675781.3603516-5.7910156,3.1308594.5263672,3.1308594.8037109,2.6601562,1.0527344l-.4707031.25c-.1386719.9140625-.3056641,1.8837891-.5263672,2.8535156.9140625,2.7441406,2.1328125,4.40625,3.8232422,5.3759766v-5.7636719c0-1.8837891-.1103516-4.15625-.3603516-5.6806641,2.9101562.8320312,2.9101562,1.1083984,2.4667969,1.4130859l-.4160156.2773438v3.3525391h3.3251953l.5546875-.8027344Zm.8867188-5.9023438c.3046875-.3886719.5263672-.8037109.7480469-.8037109.3320312,0,2.1884766,1.5791016,2.1884766,1.9951172-.0546875.3046875-.3046875.4433594-.6923828.4433594h-11.5273438c-1.4404297.0273438-2.7705078.1660156-4.15625.3876953l-.7207031-1.4404297c1.2197266.1386719,2.4384766.1933594,3.6855469.2207031h3.5185547v-4.2949219h-1.828125c-1.1640625.0283203-2.2167969.1660156-3.3251953.3886719l-.6933594-1.4414062c1.2197266.1386719,2.4384766.1943359,3.6855469.2216797h2.1611328c0-1.3574219-.0830078-3.0751953-.2490234-4.2119141,2.8544922.8320312,2.8544922,1.1083984,2.4111328,1.4130859l-.4160156.2773438v2.5214844h3.4912109l.5546875-.7763672c.3046875-.3867188.5537109-.8027344.7753906-.8027344.3330078,0,2.1621094,1.5517578,2.1621094,1.9667969-.0830078.3046875-.3056641.4433594-.6933594.4433594h-6.2900391v4.2949219h4.6552734l.5546875-.8027344Z"/>
          <path d="m276.8352051,57.9150391c.3320312-.4160156.5820312-.859375.8027344-.859375.3330078,0,2.3007812,1.6347656,2.3007812,2.0507812-.0556641.3046875-.3330078.4433594-.7207031.4433594h-7.5371094v3.7958984h7.4541016l.609375-.859375c.3330078-.4150391.609375-.8583984.8310547-.8583984.3330078,0,2.3828125,1.6904297,2.3828125,2.1064453-.0830078.3046875-.3320312.4433594-.7197266.4433594h-18.9814453c-1.4414062.0273438-2.7714844.1660156-4.15625.3876953l-.7207031-1.4414062c1.1914062.1386719,2.3828125.1943359,3.6025391.2216797h1.7451172v-1.1357422c0-1.8837891-.1103516-4.1572266-.3603516-5.6806641,2.9101562.8310547,2.9101562,1.1083984,2.4667969,1.4130859l-.4433594.2773438v5.1259766h4.5166016v-3.2421875c0-1.8837891-.1113281-4.15625-.3603516-5.6796875,3.0761719.8583984,3.0761719,1.1357422,2.6044922,1.4404297l-.4707031.3046875v2.5771484h4.5722656l.5820312-.8310547Zm-9.7539062,9.0048828l-.4990234.0566406c-1.5517578,2.1884766-4.4619141,4.8769531-7.6484375,6.4833984l-.2490234-.3603516c1.1914062-.9140625,2.3828125-2.078125,3.4355469-3.296875,1.1923828-1.3857422,2.2724609-3.2695312,2.7158203-4.7382812l1.4970703.96875c1.2460938.5273438,1.2460938.8046875.7480469.8867188Zm10.9169922,4.2958984l-.5537109.0273438c-4.8212891,6.0126953-10.3085938,7.7861328-17.6787109,8.7011719l-.1113281-.5263672c4.8769531-.9980469,9.0058594-2.328125,12.5253906-5.2929688,1.4130859-1.1640625,3.1582031-3.4355469,3.7958984-4.8212891l1.3857422,1.0253906c1.1914062.5810547,1.1914062.8583984.6367188.8867188Zm-8.3125-7.0380859c2.8544922.8583984,2.8544922,1.1357422,2.4111328,1.4121094l-.4160156.25v5.7080078c0,1.4414062-.3330078,2.328125-2.7431641,2.5771484-.0830078-.5263672-.2216797-.9980469-.5820312-1.2744141-.3876953-.3046875-.9980469-.5263672-2.1611328-.6650391v-.4160156s2.6318359.1943359,3.1582031.1943359c.4160156,0,.5546875-.1386719.5546875-.5263672v-3.546875c0-1.1914062-.0556641-2.6875-.2216797-3.7128906Zm5.2919922,1.5791016c8.2304688,2.2441406,7.7597656,6.9550781,5.5976562,5.9023438-.9697266-1.9404297-3.7685547-4.2958984-5.8466797-5.5976562l.2490234-.3046875Z"/>
        </g>
        <path d="m370.8059082,58.2470703l-.4990234.1113281c-1.5234375,2.9921875-4.3505859,6.8447266-7.9521484,9.2548828l-.2773438-.3320312c1.6621094-1.5244141,3.1591797-3.546875,4.3505859-5.5976562.9423828-1.5800781,1.7177734-3.5742188,2.0224609-5.0986328l1.5800781.8310547c1.3017578.4433594,1.3017578.7207031.7753906.8310547Zm-1.2470703,8.3964844c-1.1083984.0273438-2.1611328.1660156-3.2138672.3876953l-.7480469-1.4414062c1.21875.1386719,2.4384766.1943359,3.6855469.2226562h10.3349609l.4433594-.5546875c.25-.2773438.4433594-.5820312.6650391-.5820312.3330078,0,1.9404297,1.3574219,1.9404297,1.7734375-.1943359.1943359-.5263672.3603516-1.0537109.4160156-.2490234,6.3457031-.9140625,10.8066406-2.1328125,12.0253906-.7207031.7207031-1.7734375,1.0537109-2.9931641,1.0537109.0273438-.5263672-.1103516-1.0537109-.5263672-1.3027344-.4707031-.3320312-1.7177734-.6376953-2.7988281-.8037109l.0273438-.4980469c1.2470703.1386719,3.4365234.3320312,4.0458984.3320312.4990234,0,.7480469-.0546875.9980469-.3320312.8310547-.7763672,1.3847656-4.9882812,1.6347656-10.6962891h-6.6503906c-.4716797,4.4052734-1.8564453,9.5048828-9.6152344,13.328125l-.3056641-.4707031c6.734375-4.0458984,7.7597656-8.9228516,8.0087891-12.8574219h-1.7460938Zm17.4580078-1.2470703l-.0556641.2773438c-.7763672.1660156-1.4130859.7753906-1.6347656,1.46875-3.546875-2.4941406-6.4013672-6.3183594-7.7587891-10.5019531h-1.9677734c-1.2744141.0273438-2.4384766.1660156-3.6572266.3876953l-.7490234-1.4130859c1.2197266.1386719,2.4384766.1933594,3.6855469.2207031h2.0507812l.8310547-1.3017578,2.328125,1.6630859c-.2216797.3320312-.8867188.5253906-1.7460938.5820312,1.3857422,3.1855469,4.7382812,6.7050781,8.6738281,8.6171875Z"/>
        <g>
          <path d="m7.2619629,39.9853516h14.1572266v1.6191406h-12.4453125v28.453125h-1.7119141v-30.0722656Z"/>
          <path d="m26.3283691,64.2285156l-.6015625-.4169922c2.4980469-3.6552734,5.0429688-8.6513672,7.2167969-14.1103516,1.1113281-2.8222656,2.40625-7.3105469,2.6376953-9.8544922,5.2275391,1.7578125,5.2275391,2.2207031,4.3486328,2.5439453l-.8789062.2783203c-1.203125,3.5166016-2.7294922,6.8935547-4.4414062,9.9931641,1.8046875,1.3876953,1.8046875,1.8505859,1.1103516,2.1279297l-.6943359.2783203v15.2666016c.0927734,5.5517578.1855469,7.4023438.3701172,10.8720703-.4619141.5097656-1.6650391,1.2958984-2.7753906,1.2958984-.5556641,0-1.0644531-.4628906-1.0644531-.9257812.2783203-3.9785156.4169922-6.0146484.5087891-12.0283203v-12.5380859c-1.8037109,2.7763672-3.7470703,5.1816406-5.7363281,7.2177734Zm35.2539062,9.3916016c-1.6660156-4.3955078-4.1181641-8.9287109-6.2001953-12.3525391l.6484375-.3242188c13.6015625,13.046875,11.4267578,23.7802734,7.6337891,20.2177734-.2314453-2.0361328-.8798828-4.3027344-1.7119141-6.6162109-5.2744141,1.4345703-12.3525391,3.0996094-21.8369141,5.1816406-.2314453.6015625-.7402344.9257812-1.1572266,1.0175781l-1.8037109-4.3027344c1.3417969-.0917969,3.1914062-.2773438,5.4121094-.5078125,2.2675781-7.7734375,4.4414062-17.2578125,6.0146484-25.7695312.6015625-3.0078125.9257812-6.4316406.9257812-8.9755859l5.5976562,1.6191406c-.1845703.6015625-.6474609,1.0634766-1.7119141,1.0634766-1.8505859,9.0224609-5.4589844,21.6992188-9.6689453,31.9238281,4.8574219-.5556641,11.1962891-1.3417969,17.8583984-2.1748047Z"/>
          <path d="m104.1506348,42.9921875c.5546875-.6015625.9707031-1.2021484,1.3417969-1.2021484.5546875,0,3.4228516,2.9609375,3.4228516,3.6552734-.3701172.3232422-.9716797.4160156-1.9892578.5078125-3.0537109,2.2675781-7.6337891,5.2744141-11.9365234,7.2636719l.7871094.0927734c-.1386719.6943359-.5087891,1.0185547-1.5273438,1.203125v5.921875h11.9365234l1.1103516-1.5263672c.6015625-.7402344,1.0644531-1.5273438,1.4345703-1.5273438.5546875,0,4.1171875,3.0078125,4.1171875,3.7011719-.0927734.5087891-.5087891.6943359-1.15625.6943359h-17.4423828v16.0996094c0,2.5449219-.6005859,4.2099609-5.5976562,4.6728516-.2314453-.9716797-.6015625-1.7578125-1.3876953-2.1738281-.8789062-.5556641-2.4980469-.9726562-5.2285156-1.2958984v-.7402344s6.6162109.4628906,7.8652344.4628906c1.0175781,0,1.3417969-.2783203,1.3417969-1.1572266v-15.8681641h-11.1035156c-2.40625.0458984-4.6269531.2773438-6.9394531.6474609l-1.1572266-2.359375c2.0361328.2314453,4.0712891.3242188,6.1533203.3701172h13.046875c0-2.5449219-.1386719-5.7373047-.5087891-7.8652344l3.0537109.5087891c3.1455078-2.1279297,6.5234375-5.2275391,8.7441406-7.5869141h-17.8583984c-2.40625.0458984-4.6269531.2773438-6.9404297.6474609l-1.2490234-2.359375c2.0361328.2314453,4.0712891.3242188,6.1533203.3701172h20.5419922l.9716797-1.1572266Z"/>
          <path d="m131.5441895,82.8261719h-14.1572266v-1.6191406h12.4453125v-28.453125h1.7119141v30.0722656Z"/>
        </g>
        <g>
          <path d="m294.6594238,80.5957031c-.4033203,0-.8056641-.3457031-.8056641-.8066406s.5751953-.9794922,1.0361328-1.3828125c11.5205078-10.2529297,20.1035156-18.2021484,20.1035156-29.2617188,0-8.2373047-5.2998047-10.65625-9.1591797-10.65625-2.7646484,0-4.4921875.6337891-6.1630859,2.1884766-1.3828125,1.3251953-2.0732422,3.3408203-2.0732422,5.5878906,0,.5185547-.1728516.8642578-.4609375.8642578-.2304688,0-.4033203-.2304688-.4609375-.7490234s-.3457031-5.2998047-.3457031-7.0849609c0-.3457031.0576172-.5185547.5761719-.8642578,2.1308594-.9794922,5.4716797-2.0166016,10.1376953-2.0166016,8.6982422,0,13.0175781,5.5302734,13.0175781,11.6357422,0,11.9238281-12.9023438,22.5800781-20.0449219,28.6865234-.2880859.2304688-.1728516.4023438.1152344.4023438h4.2050781c.9785156,0,7.7763672-.0566406,9.8496094-.2871094,4.2050781-.4042969,6.0478516-2.1318359,6.796875-5.5302734.1152344-.6337891.2880859-.8642578.6337891-.8642578.2880859,0,.3457031.3457031.3457031.6914062,0,1.0947266-1.1523438,5.7597656-1.7285156,7.71875-.4599609,1.5546875-1.3242188,1.7851562-3.7441406,1.7851562-11.9228516.0585938-19.5263672-.0566406-21.8310547-.0566406Z"/>
          <path d="m335.0930176,44.3056641c0-1.1513672-.1152344-1.8427734-.8632812-1.8427734-1.4404297,0-5.2998047,1.7851562-5.5878906,1.7851562-.1728516,0-.5185547-.0566406-.5185547-.2871094,0-.1738281.1728516-.4042969.4033203-.5761719,3.6865234-2.4775391,5.875-3.8027344,9.5615234-6.2792969.5185547-.3457031.9794922-.6914062,1.3828125-.6914062.4609375,0,.4609375.6337891.4609375,1.2099609,0,.1728516-.3457031,12.5-.3457031,25.6328125,0,5.7607422.1152344,10.8867188.2880859,13.4208984.1152344,1.7861328.5185547,2.765625,2.4189453,2.9384766.6914062.0576172,1.1523438.1152344,1.5556641.1728516.5761719.0576172.921875.2304688.921875.5761719,0,.2871094-.2880859.4023438-.9794922.4023438-4.3203125,0-6.2783203-.171875-6.5664062-.171875s-3.3984375.171875-7.0849609.171875c-.6337891,0-.9794922-.1152344-.9794922-.4023438,0-.2304688.2304688-.4609375.8066406-.4609375.9208984,0,1.5546875-.1152344,2.1884766-.1728516,2.1318359-.1728516,2.5917969-1.1523438,2.7646484-3.3984375.1728516-2.5351562.1728516-7.3154297.1728516-13.0761719v-18.9511719Z"/>
        </g>
        <g>
          <path class="cls-2" d="m9.5568848,101.5292969l.3867188.4550781c-2.6386719,2.1376953-5.0048828,5.4140625-5.0048828,10.1914062,0,4.7783203,2.3662109,8.0546875,5.0048828,10.1933594l-.3867188.4550781c-3.0712891-1.9570312-6.1201172-5.1650391-6.1201172-10.6484375,0-5.4824219,3.0488281-8.6904297,6.1201172-10.6464844Z"/>
          <path class="cls-2" d="m28.5090332,107.125c.2041016-.2724609.3632812-.5449219.5458984-.5449219.2724609,0,1.6601562,1.2509766,1.6601562,1.5917969-.1357422.1816406-.5.3642578-.9326172.4326172v2.4345703c.0458984,2.4335938.0683594,3.2529297.1591797,4.7548828-.1816406.25-.8867188.6142578-1.3652344.6142578h-.2041016v-1.046875h-4.9375v2.7070312h6.1435547l.5224609-.7275391c.2734375-.3642578.5009766-.7285156.6826172-.7285156.2734375,0,1.9794922,1.4111328,1.9794922,1.7519531-.0683594.2509766-.2724609.3642578-.5683594.3642578h-8.7597656v1.1152344c.0458984,1.0917969.0458984,1.4550781.1142578,2.0703125-.1142578.3183594-.7509766.6816406-1.296875.6816406-.3183594,0-.4550781-.2265625-.4550781-.4550781.0683594-.7050781.0908203-1.0458984.1367188-2.1152344v-1.296875h-5.3242188c-1.1826172.0224609-2.2744141.1367188-3.4121094.3183594l-.5917969-1.1601562c1.0009766.1132812,2.0019531.1591797,3.0263672.1816406h6.3017578v-2.7070312h-4.8232422v.9101562c0,.1367188-.5917969.5-1.1601562.5-.2275391,0-.3867188-.2265625-.3867188-.4550781.0908203-1.0234375.1132812-1.5234375.1591797-3.0703125v-1.7753906c0-1.546875-.0908203-3.4121094-.2958984-4.6640625l1.8427734.8417969h4.6640625v-2.2744141h-4.7324219c-1.1826172.0224609-2.2753906.1357422-3.4130859.3183594l-.6142578-1.1601562c1.0019531.1132812,2.0029297.1591797,3.0263672.1816406h5.7333984c0-1.0234375-.0458984-2.2519531-.1826172-3.09375,2.4345703.7275391,2.4345703.9550781,2.0478516,1.2285156l-.3642578.25v1.6152344h5.5058594l.5009766-.7050781c.2724609-.3408203.5-.7050781.6826172-.7050781.2724609,0,2.0244141,1.3642578,2.0244141,1.7060547-.0683594.25-.2958984.3642578-.5917969.3642578h-8.1220703v2.2744141h4.7099609l.3642578-.5234375Zm-6.5751953,1.2060547h-4.8232422v2.7529297h4.8232422v-2.7529297Zm-4.8232422,6.3701172h4.8232422v-2.9345703h-4.8232422v2.9345703Zm11.2617188-6.3701172h-4.9375v2.7529297h4.9375v-2.7529297Zm-4.9375,6.3701172h4.9375v-2.9345703h-4.9375v2.9345703Z"/>
          <path class="cls-2" d="m49.3029785,105.9882812c-1.2744141-.1826172-2.5712891.2949219-2.7988281.4316406-.4316406.2275391-1.6601562,1.5927734-2.2519531,3.3671875-1.4785156,4.3681641-1.0009766,7.2578125-.1591797,8.4863281.7734375,1.1152344,2.5478516.7509766,3.5488281.7285156,1.1601562-.0458984,2.1621094.1132812,2.1386719.8417969-.0224609.6591797-1.2285156.7958984-1.6835938.8183594-1.9560547.1367188-3.6396484.1591797-4.8232422-1.3193359-1.0458984-1.296875-1.2050781-2.6621094-1.2285156-4.2548828-.0683594-5.3916016,3.4814453-8.5537109,3.4130859-8.6904297-.0458984-.1142578-.3183594.0458984-.5693359.0908203-.9550781.25-4.2763672,1.7070312-5.2324219,2.0703125-.4091797.1591797-1.3417969.796875-1.8652344.8652344-1.0244141.1357422-2.2529297-1.4335938-2.34375-1.5703125-.1132812-.1367188-.1367188-.3183594-.0449219-.4316406.1357422-.1367188.25-.0683594.4550781.0224609.2041016.0908203.8183594.5458984,1.6152344.3642578.7958984-.1826172,6.3242188-2.2304688,9.9873047-2.7988281.7050781-.0908203,1.046875-.4550781,2.0244141-.6601562.7060547-.1367188,1.9794922.4326172,2.2070312.8652344.25.4550781.2958984.8183594-.1816406,1.0234375-.1591797.0908203-1.4785156-.1591797-2.2070312-.25Zm2.4570312-3.1396484c.3183594.0908203,2.4121094.7275391,2.4345703,2.1376953,0,.4550781-.1367188.6601562-.4091797.7519531-.2734375.0898438-.796875-.0458984-1.046875-.5917969-.2734375-.5917969-.7734375-1.5019531-1.3193359-1.8427734-.2275391-.1367188-.5234375-.2958984-.4785156-.4550781.0683594-.1826172.5009766-.0683594.8193359,0Zm2.3886719-1.1835938c.3183594.0458984,2.5029297.5693359,2.5488281,2.0253906.0224609.3867188-.1826172.5-.3417969.5683594-.2734375.1142578-.7275391.0224609-1.046875-.5009766-.3183594-.5449219-.8867188-1.3642578-1.4560547-1.6376953-.2275391-.1132812-.5683594-.25-.5224609-.4091797.0449219-.1816406.5-.1132812.8183594-.0458984Z"/>
          <path class="cls-2" d="m75.2619629,112.9042969c.3408203.6601562.3408203,2.7753906-1.7519531,4.5498047-1.8427734,1.5703125-3.7314453,2.2753906-4.8916016,1.5019531-.7509766-.4775391-1.296875-1.9111328.4101562-4.4589844,0,0,.2949219-.3642578.4091797-.1826172.0449219.0683594-.1367188.4101562-.25.6376953-.0683594.1357422-1.0693359,2.5244141,0,3.0029297.3632812.1591797,1.7509766-.1142578,2.9804688-1.2285156,1.2050781-1.1152344,2.6611328-2.8896484,1.4785156-4.0957031-1.2285156-1.2285156-3.5498047-.1816406-5.3007812.5234375-.7509766.2958984-1.5927734.7509766-2.4804688,1.296875.0458984.9101562.0683594,1.7070312.1367188,2.2519531.0908203.8417969-.1591797,2.2988281-.3183594,2.5488281-.1591797.2724609-.6142578.6826172-.7509766.6826172-.1591797,0-.3642578-.0224609-.5458984-.4775391-.2050781-.4785156-.5234375-1.0244141-.9101562-1.4570312-.3642578-.4091797-1.3876953-.8867188-1.3876953-.8867188-.7050781.4316406-1.0234375.7509766-1.3193359.7509766-1.1376953.0449219-1.9335938-1.9794922-.7285156-2.2529297.1591797-.0449219.5234375.1142578.8876953.2958984.9550781-.25,2.4570312-1.0917969,3.9355469-1.8876953.0224609-1.2744141.0224609-2.7080078.0224609-3.7998047-.8642578.2958984-1.6376953.5683594-1.9101562.6367188-.4550781.1142578-1.3203125-.0458984-1.6835938-.3183594-.5693359-.3867188-1.0927734-.9101562-1.1835938-1.0234375-.1132812-.1142578-.2050781-.2509766-.1591797-.3417969.0683594-.1591797.5917969.1367188.7734375.2050781.3183594.1367188,1.1601562.3408203,2.0019531.25.4550781-.0458984,1.3652344-.3183594,2.1611328-.5908203-.0224609-.3417969-.0224609-.5693359-.0224609-.6601562-.0449219-.6601562.0224609-1.6835938-.25-2.4121094-.2734375-.7050781-1.046875-.9101562-1.4785156-1.0917969-.1367188-.0683594-.2958984-.0908203-.2958984-.1816406,0-.1367188.25-.25.4091797-.2958984.8417969-.3183594,1.9335938.0908203,2.4121094.4775391.5.3867188.3867188,1.2744141.3408203,1.4785156-.0224609.0917969-.0224609.1826172-.0224609.4550781.1367188.2050781.3183594.4101562.5234375.546875.4316406.2949219.7958984.5,1.1142578.5683594.2958984.0449219.8417969.0683594.8193359.5234375-.0224609.4316406-.1591797.5458984-.5234375.6826172-.1591797.0673828-1.0693359.3867188-2.0703125.7509766-.0224609,1.0458984-.0224609,2.3652344,0,3.6171875.7509766-.3867188,1.4560547-.7509766,2.0244141-.9560547,1.4794922-.5683594,5.9160156-2.6386719,7.3945312.3642578Zm-10.3974609,2.2070312c-.7958984.5234375-1.5693359,1.0693359-2.3427734,1.6376953.7734375.4091797,1.7060547.8876953,1.8652344.9326172.2734375.0683594.3408203-.0224609.4091797-.2724609.0234375-.0683594.0458984-1.0244141.0683594-2.2978516Zm1.0009766-6.4609375c.2050781-.0917969.3417969-.1601562.3867188-.2050781.2509766-.2275391.3417969-.3183594.0234375-.6142578-.1142578-.1142578-.2275391-.2958984-.3193359-.4775391l-.0673828,1.0234375c0,.0908203,0,.1816406-.0234375.2734375Zm12.1035156,1.6601562c-.3867188.2958984-.9785156.0908203-1.1601562-.1132812-.5458984-.6826172-1.0693359-1.2060547-1.9335938-1.3652344-.8642578-.1816406-1.6835938.6826172-1.7744141.75-.0917969.0458984-.1591797.0458984-.2509766-.0224609-.0673828-.0449219-.0224609-.2041016.0683594-.3183594.7050781-.8417969,1.3203125-1.4326172,2.6396484-1.5244141,1.3193359-.1132812,2.1835938.7050781,2.4570312,1.0693359.2724609.3642578.3408203,1.2285156-.0458984,1.5244141Z"/>
          <path class="cls-2" d="m96.7160645,120.5029297c-.2734375.3642578-.7050781.4326172-1.5244141-.1591797-.9785156-.6826172-1.8886719-1.2285156-2.7070312-1.6376953-.0234375.1357422-.0234375.25-.0458984.3867188-.2724609,2.5927734-3.4355469,2.3886719-4.3222656,2.4111328-.8876953.0234375-4.1640625-.5917969-4.1640625-2.3886719,0-1.8203125,2.2978516-2.4121094,3.8681641-2.5029297,1.1142578-.0908203,2.1835938.0224609,3.1621094.2275391-.2050781-1.4560547-.8642578-4.2539062-.8417969-7.2578125.0224609-2.1152344.5009766-3.9355469.3417969-4.9589844-.1826172-1.0234375-.7060547-1.1152344-1.3652344-1.3427734-.2050781-.0673828-.4775391-.0908203-.3642578-.3183594.0908203-.2041016.8876953-.2041016,1.1601562-.2041016.8642578.0449219,1.7744141.1357422,2.1611328,1.1601562.3867188.9550781-.3632812,1.6835938-.6142578,2.7753906-.0449219.25-.1357422.8417969-.2041016,1.5244141.8417969.0458984,2.4570312-.1367188,3.09375-.3867188.7050781-.2958984,1.5927734-.0908203,1.7978516.4775391.2041016.5683594-.2509766.7509766-.6376953.8642578-.3867188.1142578-2.4345703.7285156-4.3222656-.3408203,0,.3183594-.0224609.6601562-.0224609.9785156.0449219,1.296875.1591797,2.4794922.5224609,4.1855469.2509766,1.1601562.5693359,2.1386719.7285156,3.2080078,1.7744141.5458984,3.0712891,1.3193359,3.5712891,1.6152344.8417969.5458984,1.0244141,1.3193359.7285156,1.6835938Zm-5.6875-2.3886719c-1.4111328-.5009766-2.5253906-.5917969-3.1855469-.5458984-.7958984.0449219-3.0488281.25-3.0029297,1.4101562s2.4794922,1.4101562,3.2080078,1.3876953c3.0253906-.0673828,2.9570312-1.3642578,2.9804688-2.2519531Z"/>
          <path class="cls-2" d="m109.411377,103.8945312c.1132812-.1367188.2958984-.0224609.5908203.1367188.2958984.1591797.7285156.2275391,1.1835938.1367188.4550781-.1132812,2.2978516-.9101562,2.7529297-1.1601562.4550781-.2734375.9550781-.3183594,1.5693359-.0234375.8193359.4101562,1.5019531,1.2060547,1.5244141,1.7978516.0458984.5693359-.5234375.8876953-.9785156,1.3427734s-6.8017578,6.2333984-7.5527344,7.5302734c-.1142578.2041016-.25.4091797-.1142578.6367188.1142578.1591797.2958984.3183594.9560547.0224609.6367188-.2949219,4.3457031-2.1611328,5.8466797-2.9345703,1.0693359-.5917969,2.3886719-1.1826172,3.2539062-1.0917969.8642578.0683594,1.8193359.5224609,1.7285156,1.2285156-.0683594.6826172-1.046875.5458984-1.5244141.5234375-.5-.0234375-3.7539062.1357422-5.2324219,1.6826172-1.5019531,1.5478516-1.5693359,2.59375-1.5019531,3.6640625.0917969,1.0917969,1.3427734,2.2060547,4.7783203,2.4794922,1.0234375.0683594,1.5009766.6826172,1.3652344,1.2509766-.1367188.5458984-.9785156.5009766-1.7519531.3642578-.796875-.1367188-5.1416016-.7050781-5.2558594-3.8447266-.0449219-1.3652344.6601562-3.1621094,1.6835938-4.2773438,0,0-3.2529297,2.1152344-3.6396484,2.3886719-.5693359.4326172-1.1835938.25-1.5703125-.1132812-.5-.4785156-.6601562-1.0927734-.2050781-1.84375.546875-.9091797,5.8925781-5.9824219,7.3720703-8.5996094.3408203-.5683594.5-1.1601562.1816406-1.4335938-.3408203-.2724609-1.0009766.1367188-1.3876953.4326172s-.8193359.8417969-1.3876953,1.2744141c-.2734375.2275391-.8652344.4775391-1.5244141.0683594-.4091797-.2275391-.8193359-.7285156-1.0917969-1.1835938-.1591797-.2724609-.0917969-.4316406-.0683594-.4550781Z"/>
          <path class="cls-2" d="m141.9445801,117c0,2.4570312-2.1152344,4.140625-4.9824219,4.140625-3.0029297,0-5.0048828-1.4111328-5.0048828-3.9589844,0-1.8886719,1.2509766-3.1171875,3.6396484-4.2998047-2.1835938-1.1611328-3.09375-2.6396484-3.09375-4.3457031,0-2.5253906,2.0019531-4.0722656,4.5048828-4.0722656,2.5478516,0,4.1630859,1.5693359,4.1630859,3.8222656,0,1.2509766-.7275391,2.7070312-3.0253906,4.0039062,2.6386719,1.2509766,3.7988281,2.5712891,3.7988281,4.7099609Zm-1.7285156.1582031c0-1.5009766-.9335938-2.5478516-3.8681641-3.9121094-1.796875,1.0683594-2.6845703,2.046875-2.6845703,3.7539062,0,1.9335938,1.3193359,3.2529297,3.3447266,3.2529297,1.9560547,0,3.2080078-1.3193359,3.2080078-3.0947266Zm-2.8212891-5.2089844c1.6152344-1.1152344,2.2519531-2.1386719,2.2519531-3.6181641,0-1.6152344-.9550781-2.9345703-2.6845703-2.9345703-1.5009766,0-2.8212891,1.0234375-2.8212891,2.6845703,0,1.3876953.6826172,2.6621094,3.2539062,3.8681641Z"/>
          <path class="cls-2" d="m157.2102051,104.7597656l-.4091797.0908203c-1.2519531,2.4570312-3.5722656,5.6191406-6.5292969,7.5986328l-.2275391-.2734375c1.3642578-1.2509766,2.5927734-2.9121094,3.5712891-4.5957031.7734375-1.296875,1.4111328-2.9345703,1.6611328-4.1855469l1.296875.6826172c1.0693359.3642578,1.0693359.5908203.6367188.6826172Zm-1.0234375,6.8925781c-.9101562.0234375-1.7744141.1367188-2.6396484.3193359l-.6142578-1.1835938c1.0009766.1142578,2.0019531.1591797,3.0263672.1826172h8.4863281l.3632812-.4550781c.2050781-.2275391.3642578-.4785156.5458984-.4785156.2734375,0,1.5927734,1.1152344,1.5927734,1.4570312-.1591797.1582031-.4316406.2949219-.8642578.3408203-.2050781,5.2099609-.7509766,8.8730469-1.7519531,9.8740234-.5917969.5917969-1.4560547.8642578-2.4570312.8642578.0224609-.4326172-.0908203-.8642578-.4326172-1.0693359-.3867188-.2734375-1.4101562-.5234375-2.2978516-.6601562l.0234375-.4091797c1.0234375.1142578,2.8203125.2734375,3.3212891.2734375.4091797,0,.6142578-.0458984.8193359-.2734375.6826172-.6367188,1.1376953-4.0947266,1.3417969-8.7822266h-5.4599609c-.3867188,3.6181641-1.5244141,7.8046875-7.8945312,10.9433594l-.25-.3867188c5.5283203-3.3212891,6.3701172-7.3251953,6.5742188-10.5566406h-1.4326172Zm14.3330078-1.0234375l-.0458984.2275391c-.6367188.1367188-1.1601562.6376953-1.3417969,1.2060547-2.9121094-2.0478516-5.2558594-5.1875-6.3701172-8.6230469h-1.6152344c-1.046875.0234375-2.0029297.1367188-3.0039062.3183594l-.6142578-1.1601562c1.0009766.1142578,2.0019531.1601562,3.0263672.1826172h1.6835938l.6826172-1.0693359,1.9111328,1.3652344c-.1826172.2724609-.7285156.4316406-1.4335938.4775391,1.1376953,2.6162109,3.890625,5.5058594,7.1210938,7.0751953Z"/>
          <path class="cls-2" d="m173.3410645,101.5292969c3.0712891,1.9560547,6.1201172,5.1640625,6.1201172,10.6464844,0,5.4833984-3.0488281,8.6914062-6.1201172,10.6484375l-.3867188-.4550781c2.6386719-2.1386719,5.0048828-5.4150391,5.0048828-10.1933594,0-4.7773438-2.3662109-8.0537109-5.0048828-10.1914062l.3867188-.4550781Z"/>
        </g>
      </g>
      <rect class="cls-1" y=".0004883" width="794.1609628" height="122.8232422"/>
    </g>
  </g>
</svg>