<?xml version="1.0" encoding="UTF-8"?>
<svg id="_レイヤー_2" data-name="レイヤー 2" xmlns="http://www.w3.org/2000/svg" viewBox="0 0 198.6767578 19.409668">
  <g id="_レイヤー_1-2" data-name="レイヤー 1">
    <g>
      <path d="m8.6220703,6.7944336c.21875-.2783203.3774414-.5761719.5366211-.5761719.2382812,0,1.4902344,1.1125488,1.4902344,1.4106445-.0200195.1984863-.21875.2978516-.4770508.2978516h-5.7016602c-1.0332031.0200195-1.9868164.1191406-2.9799805.2780762l-.5166016-.9931641c.8740234.0993652,1.7480469.138916,2.6420898.1589355h2.6425781c.4169922-1.2319336.7348633-2.8410645.7548828-3.9338379,2.105957.6357422,2.105957.8344727,1.7480469.9736328l-.3574219.138916c-.4174805.8146973-1.0532227,1.9272461-1.7285156,2.8212891h1.5693359l.3774414-.5761719Zm-.1987305,3.0991211c.1987305-.2583008.3579102-.536377.5166016-.536377.2387695,0,1.4106445,1.0529785,1.4106445,1.3510742-.0595703.2185059-.2182617.3178711-.496582.3178711h-3.5957031v.9138184l.0195312-.0200195c4.1918945,1.112793,3.3574219,3.9338379,2.0664062,3.0795898-.2583008-.9536133-1.2119141-2.0861816-2.0859375-2.7814941v1.9470215c.0395508,1.927002.0595703,2.5827637.1386719,3.7548828-.1386719.2583008-.6552734.5561523-1.0922852.5561523-.2583008,0-.4174805-.1987305-.4174805-.3972168.0795898-1.1125488.1191406-1.6689453.1591797-3.3376465v-1.8874512c-.934082,1.5893555-2.1855469,3-3.715332,4.1125488l-.2182617-.2980957c1.5097656-1.5495605,2.7016602-3.5561523,3.4169922-5.6420898h-1.0131836c-.6357422.0197754-1.2319336.1191406-1.828125.2780762l-.5161133-1.0332031c.8740234.0993652,1.7480469.1391602,2.6220703.1589355h1.2519531c0-.7548828-.0400391-1.6687012-.1391602-2.3244629,1.9467773.6159668,1.9467773.8146973,1.6489258,1.0134277l-.2978516.1984863v1.1125488h1.7875977l.3774414-.536377Zm-.2578125-7.529541c.1982422-.2780762.3574219-.5761719.5161133-.5761719.2387695,0,1.4902344,1.072998,1.4902344,1.3708496-.0595703.2185059-.2382812.3178711-.496582.3178711h-4.8476562c-1.0332031.0200195-1.9868164.1191406-2.9799805.2780762l-.496582-.9931641c.8344727.0993652,1.6689453.138916,2.5029297.1589355h1.1923828c0-.8742676-.0400391-1.9667969-.1591797-2.7219238,2.0263672.5959473,2.0263672.7946777,1.7084961,1.0131836l-.3178711.1987305v1.5100098h1.5097656l.3779297-.5563965Zm-5.1259766,1.251709c2.9604492,2.0065918,1.6889648,4.3508301.6953125,3.2978516-.0195312-1.0131836-.496582-2.3442383-.9135742-3.1787109l.2182617-.1191406Zm13.3310547,3.5561523l.4169922-.5959473c.2382812-.2980957.4169922-.6159668.5761719-.6159668.2382812,0,1.5693359,1.1918945,1.5693359,1.4899902-.0395508.2185059-.2182617.3178711-.4765625.3178711h-2.0859375v5.5031738c.0395508,2.3840332.0791016,3.1787109.1586914,4.6687012-.1586914.1987305-.5761719.536377-1.1723633.536377-.2182617,0-.4370117-.1987305-.4370117-.3972168.1191406-1.7087402.1791992-2.5827637.21875-5.1655273v-5.1455078h-2.8408203v.5959473c0,3.5761719-.4375,7.5097656-4.3115234,10.0925293l-.2583008-.2583008c2.9008789-2.6821289,3.3774414-6.0991211,3.3774414-9.8342285v-3.2580566c0-1.1125488-.0595703-2.4436035-.1987305-3.357666l1.609375.6159668c.2978516-.0993652.5961914-.2185059.9140625-.3376465,1.2119141-.4768066,2.6220703-1.251709,3.4169922-2.0263672,1.5693359,1.4699707,1.5693359,1.6687012,1.0927734,1.6289062l-.4570312-.0395508c-1.2915039.4765625-3.3574219,1.0131836-5.1850586,1.2912598v4.2912598h4.0727539Z"/>
      <path d="m28.3510742,1.9467773c.1982422-.2583008.3374023-.536377.496582-.536377.2382812,0,1.3706055,1.0131836,1.3706055,1.3112793-.0395508.1987305-.2182617.2978516-.496582.2978516h-3.7548828c1.8276367,1.1921387.7949219,2.8212891-.0991211,1.9868164-.0200195-.6357422-.3178711-1.4304199-.6557617-1.9868164h-1.1323242c-.8544922,1.1325684-1.8676758,2.0463867-2.9008789,2.6623535l-.2182617-.2583008c.4169922-.3774414.8344727-.8742676,1.2314453-1.4304199.7749023-1.0529785,1.5698242-2.8210449,1.7880859-3.9335938,1.9072266.894043,1.9072266,1.0925293,1.5297852,1.1721191l-.3574219.0793457c-.21875.3974609-.4370117.7946777-.6953125,1.1523438h3.5561523l.3378906-.5166016Zm7.8671875,10.529541c.2182617-.2780762.3974609-.5563965.5561523-.5563965.2382812,0,1.609375,1.0529785,1.609375,1.3510742-.0400391.2185059-.2387695.3178711-.5166016.3178711h-6.7548828c1.8276367,1.5097656,4.9072266,2.6225586,7.5893555,3.0595703l-.0400391.2185059c-.496582.0993652-.9335938.536377-1.0727539,1.1323242-2.78125-.7746582-5.4829102-2.3044434-7.1123047-4.4104004h-.0595703v1.5097656c.0395508,1.4902344.0595703,1.9868164.1191406,2.8808594-.1191406.2583008-.675293.536377-1.1523438.536377-.2382812,0-.3774414-.1987305-.3774414-.3972168.0795898-.8544922.0996094-1.2915039.1391602-2.5827637v-1.5100098c-1.9272461,1.9667969-4.7880859,3.357666-8.0458984,4.1721191l-.1391602-.3376465c2.78125-.9736328,5.2446289-2.4833984,6.8339844-4.2714844h-3.1787109c-1.0327148.0197754-1.9863281.1191406-2.9799805.2780762l-.5361328-1.0131836c.8740234.0993652,1.7480469.1391602,2.6420898.1589355h5.4038086c0-.6555176-.0395508-1.4304199-.1191406-1.9865723,1.9868164.5959473,1.9868164.7946777,1.6884766,1.0131836l-.2978516.1984863v.7749023h5.4038086l.3974609-.536377Zm-9.3374023-6.8540039c.1987305-.2385254.3374023-.4968262.496582-.4968262.2382812,0,1.390625.9338379,1.390625,1.2319336-.0595703.2185059-.21875.3178711-.496582.3178711h-2.5629883v2.9401855c.894043-.1589355,1.8476562-.3376465,2.8012695-.536377l.0795898.3178711c-1.4106445.5166016-3.3774414,1.2119141-6.1191406,2.0859375-.0595703.2385254-.21875.3974609-.4169922.4370117l-.8149414-1.5097656c.6958008-.0993652,1.8676758-.2980957,3.2583008-.5561523v-3.1787109h-.8540039c-.5166016.0197754-1.0131836.1191406-1.5102539.2780762l-.496582-1.0131836c.8740234.0993652,1.7485352.138916,2.6425781.1589355h2.2646484l.3378906-.4768066Zm7.7480469-.4372559c.1787109-.1984863.2978516-.4169922.4570312-.4169922.2382812,0,1.2119141,1.0131836,1.2119141,1.3110352-.1196289.1191406-.3178711.2185059-.6357422.2783203v3.5759277c0,.1987305.0395508.2583008.3178711.2583008h.7348633c.2583008,0,.5366211,0,.6357422-.0197754.1391602,0,.1787109-.0200195.2583008-.1591797.0795898-.2382812.2783203-1.032959.4370117-1.8276367h.21875l.0595703,1.8476562c.3374023.1589355.4169922.2780762.4169922.5166016,0,.496582-.4570312.7548828-2.065918.7548828h-.9736328c-1.0131836,0-1.1918945-.2980957-1.1918945-1.0927734v-4.0131836h-3.7749023v1.2915039c0,1.6489258-.4570312,3.5959473-4.4897461,4.6687012l-.1591797-.2980957c2.9404297-1.1721191,3.4770508-2.7019043,3.4770508-4.3508301v-1.2912598c0-.4370117-.0200195-.9536133-.0795898-1.3708496l1.4897461.7548828h3.3574219l.2983398-.4172363Zm1.8276367-3.277832c.1987305-.2783203.3574219-.5761719.5166016-.5761719.2382812,0,1.5498047,1.0925293,1.5498047,1.390625-.0595703.1987305-.2387695.2978516-.4970703.2978516h-4.2709961c1.9863281,1.112793,1.0131836,2.8410645.0195312,2.0463867-.0795898-.6555176-.5166016-1.4899902-.9536133-2.0463867h-1.390625c-.7348633.8742676-1.5297852,1.609375-2.3442383,2.105957l-.2382812-.2583008c.277832-.2780762.5561523-.5959473.8144531-.9733887.7944336-1.0529785,1.5693359-2.7416992,1.8081055-3.854248,1.9072266.8344727,1.9072266,1.0332031,1.5292969,1.1325684l-.3574219.0993652c-.2382812.4169922-.496582.8144531-.7749023,1.1918945h4.2119141l.3774414-.5561523Zm-5.3046875,5.2844238c3.6757812.6357422,2.9404297,3.1589355,1.7485352,2.4040527-.2382812-.7946777-1.1323242-1.748291-1.9272461-2.2250977l.1787109-.1789551Z"/>
      <path d="m47.105957,2.9003906l-.3574219.0795898c-1.0927734,2.1455078-3.1191406,4.9069824-5.7021484,6.635498l-.1982422-.2385254c1.1918945-1.0925293,2.2646484-2.5429688,3.1186523-4.0129395.6757812-1.1325684,1.2319336-2.5629883,1.4506836-3.6555176l1.1323242.5959473c.9335938.3178711.9335938.5166016.5561523.5959473Zm-.894043,6.0197754c-.7944336.0197754-1.5493164.1191406-2.3046875.2780762l-.5361328-1.032959c.8740234.0993652,1.7480469.138916,2.6420898.1589355h7.4106445l.3178711-.3974609c.1787109-.1987305.3178711-.4172363.4765625-.4172363.2382812,0,1.390625.9736328,1.390625,1.2714844-.1386719.1391602-.3774414.2583008-.7548828.2980957-.1787109,4.5495605-.6552734,7.7480469-1.5297852,8.6223145-.5166016.5163574-1.2714844.7548828-2.1455078.7548828.0200195-.3774414-.0795898-.7548828-.3774414-.9338379-.3378906-.2382812-1.2319336-.4567871-2.0068359-.5761719l.0200195-.3574219c.894043.0991211,2.4633789.2382812,2.9008789.2382812.3574219,0,.5361328-.0397949.7148438-.2382812.5961914-.5563965.9936523-3.5761719,1.1723633-7.6687012h-4.7680664c-.3378906,3.1589355-1.3310547,6.814209-6.894043,9.5559082l-.2182617-.3376465c4.8276367-2.9006348,5.5625-6.3972168,5.7412109-9.2182617h-1.2514648Zm12.5161133-.894043l-.0395508.1987305c-.5561523.1191406-1.0131836.5561523-1.1723633,1.0529785-2.5429688-1.7880859-4.5888672-4.5297852-5.5625-7.5297852h-1.4106445c-.9140625.0200195-1.7485352.1193848-2.6225586.2783203l-.5361328-1.0131836c.8740234.0991211,1.7480469.138916,2.6420898.1589355h1.4702148l.5961914-.9338379,1.668457,1.1918945c-.1586914.2385254-.6357422.3776855-1.2514648.4172363.9931641,2.2849121,3.3974609,4.8078613,6.2182617,6.1787109Z"/>
      <path d="m62.9008789,4.708252c-.6357422.0200195-1.2514648.1193848-1.8671875.2783203l-.4970703-.9934082c.8745117.0993652,1.7485352.1391602,2.6425781.1589355h2.1254883l.3579102-.536377c.1987305-.2783203.3374023-.5563965.496582-.5563965.2382812,0,1.4301758,1.0529785,1.4301758,1.3510742-.0595703.1984863-.2182617.2978516-.4765625.2978516h-4.2119141Zm-.1987305,12.4367676c.0400391.4570312.0400391.6159668.0795898.8144531-.0795898.21875-.5561523.5166016-1.0527344.5166016-.1791992,0-.2983398-.1987305-.2983398-.3972168.0595703-.6755371.0795898-1.0131836.1191406-2.0266113v-1.2316895c0-1.2316895-.0791016-2.7414551-.2382812-3.7548828l1.4902344.6955566h2.2050781l.2783203-.3776855c.1586914-.1787109.277832-.3774414.4370117-.3774414.2382812,0,1.4501953.894043,1.4501953,1.1921387-.1391602.138916-.4169922.2978516-.7949219.3774414v1.5893555c.0400391,1.5693359.0595703,2.105957.1196289,3.0395508-.1391602.2385254-.7353516.5166016-1.112793.5166016-.1787109,0-.2583008-.1987305-.2583008-.3974609.0395508-.0991211.0395508-.138916.0795898-.2978516v-.357666h-2.503418v.4768066Zm2.2250977-16.0126953c.1987305-.2583008.3579102-.536377.5166016-.536377.2382812,0,1.4306641,1.0131836,1.4306641,1.3112793-.0595703.2185059-.2583008.3178711-.5166016.3178711h-1.5698242c-.9931641.0197754-1.9667969.1191406-2.9399414.2780762l-.5166016-1.0131836c.715332.0993652,1.4301758.138916,2.1850586.1589355h1.0532227l.3574219-.5166016Zm.0795898,5.0461426c.1987305-.2382812.3378906-.4768066.496582-.4768066.2382812,0,1.2915039.9338379,1.2915039,1.2316895-.0395508.2185059-.21875.3178711-.4770508.3178711h-1.5693359c-.9931641.0200195-1.9467773.1193848-2.9003906.2783203l-.5166016-1.0332031c.7548828.0993652,1.5097656.1391602,2.2646484.1589355h1.0727539l.3378906-.4768066Zm0,2.5429688c.1987305-.2382812.3378906-.496582.496582-.496582.2382812,0,1.2915039.9335938,1.2915039,1.2316895-.0395508.2185059-.21875.3178711-.4770508.3178711h-1.5693359c-.9931641.0197754-1.9467773.1191406-2.9003906.2780762l-.5166016-.9934082c.7548828.0993652,1.5097656.1391602,2.2646484.1591797h1.0727539l.3378906-.4968262Zm-2.3046875,7.3706055h2.503418v-3.7348633h-2.503418v3.7348633Zm13.7875977-5.0063477c.1987305-.2583008.3378906-.5166016.4970703-.5166016.2382812,0,1.4101562.9934082,1.4101562,1.2912598-.0395508.21875-.2182617.3178711-.4765625.3178711h-4.887207c.3178711.8344727.7749023,1.5893555,1.3510742,2.2250977.7944336-.5959473,1.668457-1.5097656,2.1455078-2.2250977,1.3505859,1.251709,1.3505859,1.4504395,1.0927734,1.4304199l-.2583008-.0395508c-.5761719.3376465-1.6489258.8144531-2.6821289,1.1918945.9931641,1.0131836,2.2451172,1.7683105,3.7148438,2.145752l-.0195312.2185059c-.4970703.1191406-.8745117.5163574-.9936523,1.1721191-2.5429688-1.0727539-3.9931641-3.0595703-4.7680664-6.1191406h-.0595703c-.4765625.4768066-1.0527344.9338379-1.7084961,1.3310547v2.8410645c.9140625-.1787109,1.9072266-.3774414,2.9008789-.5959473l.0595703.2780762c-1.0927734.4968262-2.6425781,1.1721191-4.828125,1.9868164-.0791016.2580566-.2182617.4172363-.3774414.4567871l-.8540039-1.5693359c.4370117-.0595703,1.1123047-.1789551,1.9467773-.3378906v-2.4238281c-.8740234.4372559-1.8276367.8146973-2.78125,1.112793l-.1987305-.357666c1.609375-.6953125,3.0595703-1.6489258,4.0927734-2.7219238h-1.2319336c-.7548828.0200195-1.4702148.1193848-2.1850586.2783203l-.4970703-1.0332031c.6953125.0993652,1.390625.1391602,2.105957.1589355h.9936523v-1.5695801h-.6557617c-.3579102.0200195-.6953125.1193848-1.0332031.2783203l-.5166016-1.0131836c.496582.0991211.9936523.138916,1.5102539.1589355h.6953125v-1.5100098h-.7949219c-.4765625.0200195-.9335938.1191406-1.390625.2780762l-.5166016-.9931641c.5961914.0993652,1.1918945.138916,1.8276367.1589355h.8745117c0-.6557617-.0400391-1.4504395-.1196289-2.0266113,1.9272461.6159668,1.9272461.8146973,1.5893555,1.0332031l-.3178711.1987305v.7946777h2.6425781c0-.6557617-.0395508-1.4504395-.1191406-2.0266113,1.9267578.6159668,1.9267578.8146973,1.6088867,1.0332031l-.3178711.1987305v.7946777h.7353516l.3378906-.4968262c.1982422-.2583008.3374023-.5163574.496582-.5163574.2382812,0,1.3706055.9733887,1.3706055,1.2714844-.0395508.1984863-.2182617.2978516-.496582.2978516h-2.4438477v1.5100098h.5166016l.3378906-.4768066c.1787109-.2385254.3178711-.4968262.4770508-.4968262.2382812,0,1.3310547.9338379,1.3310547,1.2316895-.0595703.21875-.21875.3178711-.4970703.3178711h-2.1655273v1.5695801h1.1923828l.3374023-.496582Zm-4.9667969-6.675293l-.3374023.0197754c-.9140625.7548828-2.5429688,1.5695801-4.0927734,1.9667969l-.1987305-.2583008c.1391602-.0793457.2783203-.138916.4174805-.2185059,1.1323242-.6755371,2.3642578-1.8276367,2.8408203-2.8408203l.9335938.7150879c.7749023.3774414.7749023.5761719.4370117.6159668Zm4.6689453-2.4833984c.1987305-.2780762.3574219-.5761719.5166016-.5761719.2382812,0,1.5498047,1.1125488,1.5498047,1.4106445-.0595703.1984863-.21875.2978516-.4770508.2978516h-7.1123047c-1.0332031.0200195-1.9868164.1193848-2.9799805.2780762l-.496582-1.0131836c.8740234.0993652,1.7480469.1391602,2.6420898.1589355h2.0068359c0-.7150879-.0400391-1.5893555-.1391602-2.2050781,2.0463867.5959473,2.0463867.7946777,1.7084961,1.0131836l-.3378906.2185059v.9733887h2.7416992l.3774414-.5561523Zm-5.0463867,5.9997559v1.5100098h2.6425781v-1.5100098h-2.6425781Zm0,2.0859375v1.5695801h2.6425781v-1.5695801h-2.6425781Zm2.6225586-6.4963379c4.8276367.2583008,4.7880859,2.9997559,3.3774414,2.6223145-.6953125-.8144531-2.3242188-1.8674316-3.5361328-2.3840332l.1586914-.2382812Z"/>
      <path d="m80.7421875,10.5690918l-.2783203-.1987305c1.0927734-1.5297852,2.2055664-3.6555176,3.1391602-5.9997559.496582-1.2119141,1.0332031-3.1589355,1.1323242-4.2514648,2.2250977.7150879,2.2250977.9138184,1.8476562,1.0529785l-.3774414.138916c-.6357422,1.8078613-1.4301758,3.5166016-2.3046875,5.0463867,1.112793.7348633,1.112793.9335938.8144531,1.0727539l-.2978516.1191406v5.7216797c.0400391,2.3840332.0795898,3.1787109.1591797,4.6687012-.1787109.1987305-.6557617.536377-1.1523438.536377-.2382812,0-.4570312-.1987305-.4570312-.3972168.1191406-1.7087402.1787109-2.5827637.21875-5.1655273v-5.4038086c-.7553711,1.1721191-1.5893555,2.2053223-2.4438477,3.0595703Zm14.6020508-.7150879c.21875-.2783203.3974609-.5761719.5566406-.5761719.2382812,0,1.5693359,1.1125488,1.5693359,1.4104004-.0400391.2185059-.21875.3178711-.496582.3178711h-4.8676758v5.9997559h3.5166016l.4370117-.6357422c.2382812-.3178711.4174805-.6357422.5761719-.6357422.2382812,0,1.7285156,1.251709,1.7285156,1.5498047-.0595703.2185059-.21875.3178711-.496582.3178711h-9.2978516c-1.0332031.0197754-1.9868164.1191406-2.9799805.2780762l-.496582-1.032959c.8740234.0991211,1.7480469.138916,2.6420898.1586914h3.0795898v-5.9997559h-1.4902344c-.9140625.0200195-1.8081055.1193848-2.7021484.2780762l-.496582-1.0131836c.8745117.0993652,1.7485352.1391602,2.6425781.1589355h2.0463867v-5.0461426h-1.8081055c-1.0332031.0200195-1.9868164.1191406-2.9799805.2780762l-.496582-1.0131836c.8740234.0993652,1.7480469.1391602,2.6420898.1589355h7.1123047l.4174805-.5959473c.2382812-.2980957.4169922-.6159668.5761719-.6159668.2382812,0,1.6489258,1.1723633,1.6489258,1.4702148-.0595703.2185059-.2387695.3178711-.5166016.3178711h-5.3046875v5.0461426h2.8413086l.3969727-.5759277ZM89.2055664.4567871c4.8276367,1.3310547,4.171875,4.4304199,2.7416992,3.6157227-.4370117-1.1721191-1.8276367-2.6223145-2.9404297-3.4367676l.1987305-.1789551Z"/>
      <path d="m102.7158203,8.4831543l-.0795898-.3776855c2.3046875-.4169922,4.887207-1.1721191,7.0332031-1.9667969,1.2314453-.4567871,2.2646484-.9931641,3.1386719-1.6687012,1.5498047,1.4702148,1.5498047,1.6687012,1.0532227,1.6291504l-.4770508-.0595703c-1.2119141.4567871-2.7617188.9138184-4.4501953,1.3310547v3.5163574l6.2583008-.9138184.3374023-.6557617c.1787109-.3376465.3178711-.675293.4770508-.675293.2382812,0,1.8276367.894043,1.8276367,1.1918945-.0200195.2185059-.21875.3774414-.4570312.3974609l-8.4433594,1.2316895v4.8474121c0,.4570312.1391602.6159668,1.2119141.6159668h2.7416992c1.2714844,0,2.1850586-.0197754,2.5825195-.0595703.2983398-.0397949.3974609-.1191406.496582-.3178711.1791992-.3774414.3974609-1.5495605.6757812-2.9799805h.2583008l.0395508,3.0991211c.4770508.1589355.6357422.2980957.6357422.5959473,0,.6357422-.7548828.8544922-4.7280273.8544922h-2.8212891c-1.8676758,0-2.3442383-.3378906-2.3442383-1.5498047v-4.927002l-6.8740234.9934082-.1987305-.5561523,7.0727539-1.0134277v-3.4169922c-1.609375.357666-3.3378906.6555176-4.9667969.8344727Zm13.4101562-5.8806152c.1987305-.2385254.3574219-.4968262.5166016-.4968262.2382812,0,1.4106445,1.3112793,1.4106445,1.609375-.1391602.138916-.3774414.1984863-.7353516.2185059-.5761719.7351074-1.609375,1.8078613-2.4238281,2.4238281l-.2182617-.1591797c.3374023-.6555176.7944336-1.7084961,1.0927734-2.5229492h-12.5361328c.0195312,1.3708496-.5166016,2.284668-1.0727539,2.6821289-.4970703.3774414-1.2119141.4370117-1.4306641-.0200195-.1987305-.4172363.0595703-.8144531.4370117-1.0927734.8344727-.496582,1.5698242-1.7878418,1.4702148-3.2580566l.3178711-.0197754c.1191406.3972168.1987305.7746582.2382812,1.1323242h5.4238281c0-.9733887-.0595703-2.1455078-.1787109-2.9404297,2.1455078.5961914,2.1455078.7949219,1.8076172,1.0332031l-.3374023.2185059v1.6887207h5.8408203l.3774414-.496582Z"/>
      <path d="m125.9208984,7.3308105c.0400391.0793457,0,.1191406-.0595703.3178711-.0991211.4172363-1.6489258,4.7878418-1.7880859,5.8605957-.0791016.7949219.3579102,2.3642578.3178711,2.642334-.0195312.2783203-.1787109.5563965-.3969727.5761719-.21875.0397949-.6557617,0-.9536133-.496582-.2783203-.5166016-1.2119141-1.8476562-.8344727-5.7019043.1191406-1.2119141.3374023-2.4238281.5761719-3.6157227.1987305-1.0131836.4570312-2.0065918.4169922-3.0595703-.0200195-.536377-.3374023-.9733887-.3974609-1.0925293-.0791016-.1391602-.0595703-.2583008-.0195312-.2980957.0991211-.1391602.2978516-.0595703.4765625.0993652.2983398.2780762,1.3710938,1.4304199,1.2519531,2.4436035-.0996094.894043-.5366211,1.7680664-.8149414,2.6025391-.3774414,1.0727539-.6953125,2.1655273-.7148438,3.3178711,0,.1787109-.0795898,1.5495605.3374023,1.4104004.496582-.1589355,2.105957-4.4301758,2.3442383-4.8474121.0996094-.1589355.1987305-.2385254.2583008-.1589355Zm10.8276367,8.423584c-.21875.2978516-.496582.2978516-.8544922.0793457-.1787109-.0993652-.5361328-.496582-1.0131836-.9536133-.4370117-.3972168-.9731445-.7548828-1.5693359-1.0529785,0,1.2119141-.277832,2.7021484-2.4038086,2.7617188-2.3046875.0595703-3.3378906-.7946777-3.3774414-2.105957-.0595703-1.3112793,1.0532227-1.9667969,2.6420898-2.1853027.7353516-.0993652,1.3911133-.0795898,2.0068359,0-.0200195-.854248-.0595703-3.0197754-.0996094-4.9470215-.7148438.1589355-1.4697266.2385254-2.1650391.1191406-.8344727-.138916-1.6494141-1.1323242-1.7485352-1.3310547-.0991211-.2185059-.1191406-.2978516-.0395508-.3774414.0991211-.0595703.277832.0993652.3969727.1789551.1391602.1191406.7553711.6157227,1.7685547.536377.5761719-.0397949,1.1918945-.1589355,1.7480469-.3178711-.0200195-1.1721191-.0395508-2.0861816-.0595703-2.3442383-.0595703-.8344727-.8144531-1.1723633-.9931641-1.251709-.1591797-.0595703-.1791992-.1987305-.1391602-.2780762.0395508-.0993652.2583008-.2385254,1.0927734-.21875.8344727.0200195,1.3505859.755127,1.3706055,1.0134277.0395508.2382812-.1391602.3972168-.2978516.8740234.2978516.2980957.8144531.7548828,1.2314453.854248.6162109.1391602.9536133.1191406,1.0532227.4370117.0991211.3178711.0595703.7351074-.6953125,1.1325684-.3178711.1787109-.9335938.4768066-1.6689453.7150879,0,.4768066.0200195.894043.0200195,1.1523438.0195312.6755371.1787109,2.8012695.277832,4.2714844,1.4702148.4370117,2.4833984,1.2316895,2.9404297,1.6687012.2783203.2583008.9736328,1.0332031.5761719,1.5695801Zm-4.5297852-2.3642578c-.6953125-.2185059-1.4301758-.3178711-2.1455078-.3178711-1.7880859.0397949-1.887207.9736328-1.9072266,1.3310547-.1391602,1.2915039,1.9868164,1.3310547,2.5825195,1.251709,1.2319336-.1589355,1.4506836-1.390625,1.4702148-2.2648926Zm.6953125-7.5097656c.21875-.0793457.4174805-.1586914.5761719-.2382812.1791992-.0795898.4570312-.2185059.2583008-.4768066-.1191406-.1391602-.496582-.5166016-.7944336-.8344727-.0400391.357666-.0400391.9338379-.0400391,1.5495605Z"/>
      <path d="m143.9609375,13.3305664c0-.6953125.1987305-1.2912598.3579102-1.2912598.1586914,0,.1787109.0595703.1586914.4172363-.1191406,1.2119141.6357422,1.7282715,1.4501953,2.0461426,1.7084961.6357422,4.0332031.2780762,5.9799805-.0397949.6953125-.1191406,1.9272461-.3376465,2.0664062.4968262.0991211.536377-.4970703.8344727-.9736328.9733887-1.6489258.4570312-6.2182617.854248-8.1254883-.6357422-.715332-.5561523-.9140625-1.2714844-.9140625-1.9667969Zm4.0927734-6.9731445c-.0400391-.0795898.0395508-.1789551.1191406-.2385254.5561523-.536377.9135742-.9934082.894043-1.1323242-.0200195-.1589355-.3178711-.2783203-.8144531-.357666-1.0732422-.2185059-2.0263672-.8144531-2.3642578-1.2119141-.1591797-.1787109-.2583008-.4768066-.1987305-.5561523.0595703-.0598145.2783203.138916.6557617.3178711.2978516.1586914,1.4101562.5959473,2.6420898.5561523.9140625-.0197754,2.0263672-.2780762,2.4633789-.1191406.3178711.1191406.9140625.3774414.8344727.9931641-.0395508.2385254-.5561523.3378906-1.1123047.4172363-.7548828.1193848-1.1323242,0-2.722168,1.251709-.2182617.1589355-.3574219.1191406-.3969727.0795898Z"/>
      <path d="m174.5766602,13.3703613c-.1586914,2.7416992-2.8212891,4.3706055-7.3505859,4.6489258-.0996094,0-.3774414.0395508-.3774414-.0993652-.0200195-.1391602.2182617-.1789551.3178711-.1789551,2.6025391-.3178711,5.9399414-1.390625,6.0791016-4.7480469.0991211-2.284668-1.2915039-2.9204102-2.6420898-2.7019043-1.8876953.3376465-3.1591797,2.3442383-3.3774414,2.78125-.21875.4570312-.3774414.6557617-.6162109.6755371-.2182617.0397949-.4765625-.1191406-.6157227-.2980957-.4765625-.6157227-.496582-1.1520996-.5366211-1.7680664-.0791016-1.0727539.3579102-3.675293.7353516-5.9401855-.3974609-.0197754-.7949219-.0595703-1.1523438-.1191406-.9536133-.1987305-1.7480469-1.0332031-2.0263672-1.5695801-.0595703-.1191406-.1591797-.2980957-.0200195-.3774414.1591797-.0795898.2983398.0197754.4570312.1787109.0991211.0993652,1.0131836.7749023,1.9072266.8146973.2583008.0197754.6157227.0197754,1.0131836-.0200195.1391602-.9335938.2583008-1.7680664.2978516-2.284668.0400391-.5761719-.3178711-.8740234-.456543-1.0131836-.1591797-.1391602-.3579102-.1987305-.3378906-.3178711.0200195-.1391602.1586914-.1987305.3974609-.2583008.3969727-.0793457,1.3110352-.0993652,1.7084961.3178711.2382812.2385254.1787109.6357422.1191406.854248-.0795898.1789551-.1391602.3774414-.21875.5761719.3974609.2583008,1.2119141.7749023,1.8081055.8344727.8144531.0595703,1.1523438.1191406,1.1918945.5166016.0595703.3972168-.5561523,1.0727539-1.4501953,1.390625-.5366211.1787109-1.4501953.3774414-2.4038086.4370117-.2583008,1.4702148-.6757812,3.9931641-.4770508,5.244873.0595703.3376465.0595703.4570312.2387695.4968262.1586914.0395508.3178711-.0598145.5561523-.2783203s1.8476562-1.2714844,3.3374023-1.4899902c1.5297852-.2185059,4.112793.4570312,3.894043,3.6953125Zm-7.3310547-8.78125c.715332-.0993652,1.4306641-.2583008,1.7285156-.4768066.0996094-.0793457.21875-.1589355.0400391-.357666-.1391602-.1589355-.8344727-.675293-1.2714844-.854248-.1987305.5761719-.3974609,1.1523438-.4970703,1.6887207Z"/>
      <path d="m194.1264648,13.5292969c-.1987305,1.9072266-2.1259766,3.3972168-7.8671875,4.1123047-.1787109.0200195-.3178711.0200195-.3178711-.138916-.0200195-.1589355.2382812-.1789551.4370117-.1987305.2382812-.0397949,5.5825195-.6755371,6.3574219-3.8740234.1191406-.5563965.3378906-2.6821289-1.2915039-3.138916-1.6489258-.4370117-2.7216797.8344727-4.0327148,2.78125-.2583008.3974609-.8344727.715332-1.0927734.715332-.2382812-.0200195-1.7084961-.1391602-1.8081055-1.5893555-.0791016-1.1523438.1191406-3.5959473.3178711-5.5627441.0595703-.715332-.2382812-1.072998-.0791016-1.5695801.1191406-.3972168.5161133-.7150879.7148438-.8740234.6557617-.5761719,2.324707-1.1723633,2.4833984-1.2915039.1787109-.138916.3378906-.2780762.0996094-.5561523-.3178711-.3974609-.5566406-.5761719-.9140625-.7548828-.1391602-.0795898-.2978516-.1591797-.2783203-.21875.0200195-.0991211.4970703-.1191406.6162109-.0991211.3374023,0,1.9072266-.0795898,2.4833984,1.6489258.2583008.7548828-.3579102,1.1721191-.4770508,1.1918945-.1191406.0200195-.2978516-.0197754-.496582-.1391602-.1787109-.138916-.9335938-.9536133-2.9799805.357666-.2978516.1789551-.4174805.4372559-.4770508.7946777-.0791016.4370117.3974609.5961914.3378906,1.4504395-.0395508.3774414-.4169922,2.9003906-.4169922,3.9733887,0,.4768066.0791016.7946777.2182617,1.0925293.1391602.2780762.21875.357666.3774414.357666.1591797.0197754.4174805-.0595703.7353516-.3178711s3.1586914-2.4633789,4.9467773-1.9072266c1.7880859.536377,2.6025391,2.0263672,2.4038086,3.7548828Z"/>
      <path d="m0,19.409668v-.9931641h198.6767578v.9931641H0Z"/>
    </g>
  </g>
</svg>