<?xml version="1.0" encoding="UTF-8"?>
<svg id="_レイヤー_2" data-name=" レイヤー 2" xmlns="http://www.w3.org/2000/svg" viewBox="0 0 458.1600037 119.3131857">
  <defs>
    <style>
      .cls-1 {
        isolation: isolate;
      }

      .cls-2 {
        fill: #d0b580;
      }

      .cls-3 {
        fill: none;
      }
    </style>
  </defs>
  <rect class="cls-3" width="458.1600037" height="119.3131857"/>
  <g class="cls-1">
    <g class="cls-1">
      <path d="m20.0424805,13.0868291c1.0131836.78125,1.8110352,1.4208984,2.3930664,1.9199219.199707-.7978516.3491211-1.5957031.4487305-2.3935547h-14.5839844c.0161133.7646484-.0996094,1.4248047-.3491211,1.9814453-.2490234.5576172-.5820312.96875-.9970703,1.234375-.2661133.1835938-.5571289.2744141-.8725586.2744141-.3823242,0-.7148438-.1201172-.9970703-.3613281-.2832031-.2412109-.4238281-.5771484-.4238281-1.0097656,0-.2998047.0952148-.5771484.2866211-.8349609.190918-.2578125.4443359-.4619141.7602539-.6113281.4819336-.265625.9013672-.6806641,1.2587891-1.2460938s.527832-1.1630859.5112305-1.7949219h.3491211c.1826172.5478516.3154297,1.0966797.3989258,1.6455078h5.7836914c0-1.1806641-.0585938-2.1445312-.1743164-2.8925781,1.3789062.2832031,2.3344727.5117188,2.8666992.6855469.5317383.1748047.7978516.3203125.7978516.4365234,0,.0664062-.0585938.1416016-.1748047.2246094l-.3984375.2744141v1.2714844h5.7836914l.6479492-.7480469c.0664062-.0664062.1660156-.1708984.2993164-.3115234.1328125-.1416016.2407227-.25.3242188-.3242188.0830078-.0751953.1577148-.1123047.2241211-.1123047.0996094,0,.3491211.1826172.7480469.5478516.3989258.3662109.7729492.7480469,1.121582,1.1474609.3491211.3984375.5239258.65625.5239258.7724609-.0834961.0996094-.1914062.1660156-.3242188.1992188-.1333008.0341797-.3325195.0673828-.5986328.1005859-.4155273.4150391-.9140625.8515625-1.4956055,1.3085938-.5820312.4570312-1.1220703.8271484-1.6206055,1.109375l-.1992188-.1494141.0249023-.2001953c-.0834961.1337891-.2661133.2001953-.5483398.2001953h-9.0498047c-1.1801758.0166016-2.4267578.1328125-3.7392578.3486328l-.6235352-1.2460938c.9140625.0996094,2.0195312.1660156,3.315918.1992188h6.9804688l1.3212891-1.6455078Zm-10.1713867,18.5478516c0,.0996094-.1210938.2197266-.3618164.3613281-.2412109.1416016-.5483398.265625-.9223633.3740234s-.7353516.1621094-1.0844727.1621094c-.1831055,0-.3203125-.0498047-.4111328-.1494141-.0917969-.0996094-.137207-.2167969-.137207-.3496094.0830078-.7470703.1411133-1.7529297.1743164-3.015625v-1.7705078c0-2.09375-.1079102-3.7978516-.3237305-5.1103516l3.2905273,1.3710938h10.8696289l.5732422-.7480469c.0664062-.0830078.1577148-.1953125.2744141-.3369141.1157227-.140625.2119141-.2451172.2866211-.3115234s.1450195-.0996094.2119141-.0996094c.0996094,0,.3696289.1582031.8100586.4736328.4404297.3164062.8515625.6445312,1.2338867.984375.3823242.3408203.5737305.5703125.5737305.6865234-.1831055.2490234-.4985352.4316406-.9472656.5478516v2.3183594c.0498047,1.9443359.1079102,3.4492188.1743164,4.5126953-.0996094.1494141-.4365234.3193359-1.0097656.5107422s-1.0678711.2871094-1.4833984.2871094c-.3823242,0-.5732422-.1669922-.5732422-.4990234l.0996094-.4980469v-.5234375h-11.3178711v.8222656Zm9.7475586-14.9833984c.0498047-.0654297.1328125-.1650391.2490234-.2988281.1162109-.1328125.2119141-.2324219.2866211-.2988281.0751953-.0664062.1455078-.0996094.2119141-.0996094.1000977,0,.3657227.1455078.7978516.4355469.4321289.2910156.8354492.5986328,1.2089844.9228516.3740234.3242188.5610352.5449219.5610352.6601562-.2163086.25-.5068359.4160156-.8725586.4990234v1.046875l.0498047.8730469c0,.2158203.0166016.5732422.0498047,1.0712891-.0664062.1503906-.3779297.3164062-.9345703.4990234-.5571289.1826172-1.043457.2744141-1.4584961.2744141h-.4736328v-.8974609h-7.3544922v.3984375c0,.0839844-.1245117.1953125-.3740234.3369141-.2490234.1416016-.5566406.2617188-.9223633.3613281s-.7226562.1494141-1.0717773.1494141c-.1665039,0-.2866211-.0498047-.3613281-.1494141-.0751953-.0996094-.1123047-.2158203-.1123047-.3486328.0498047-.3994141.0830078-.7734375.0996094-1.1220703l.0249023-.5234375v-1.0722656c0-1.3964844-.0664062-2.5009766-.1992188-3.3154297l3.0664062,1.2958984h6.9550781l.5737305-.6982422Zm-5.5595703,10.1474609v-2.5927734h-4.1879883v2.5927734h4.1879883Zm0,.6728516h-4.1879883v2.6425781h4.1879883v-2.6425781Zm-2.1191406-9.4238281v2.5927734h7.3544922v-2.5927734h-7.3544922Zm9.2490234,8.7509766v-2.5927734h-4.362793v2.5927734h4.362793Zm-4.362793.6728516v2.6425781h4.362793v-2.6425781h-4.362793Z"/>
      <path d="m47.6147461,29.366126c.0996094-.1328125.2280273-.3076172.3862305-.5234375.1577148-.2158203.2866211-.3740234.3867188-.4736328.0996094-.0996094.1826172-.1494141.2490234-.1494141.0996094,0,.402832.1953125.9101562.5859375.5068359.390625.984375.7929688,1.4331055,1.2089844.4487305.4150391.6733398.6806641.6733398.7978516-.0664062.265625-.2993164.3984375-.6982422.3984375h-14.8579102c-1.1806641.0166016-2.4267578.1328125-3.7397461.3486328l-.6479492-1.2460938c.9135742.0996094,2.019043.1660156,3.3154297.1992188h5.0859375v-11.4921875h-5.3100586c-1.1806641.0166016-2.4267578.1328125-3.7397461.3486328l-.6479492-1.2714844c.9135742.0996094,2.019043.1660156,3.3154297.1992188h6.3823242v-3.8134766c0-2.0947266-.1083984-3.7978516-.3242188-5.1113281l4.2880859.5234375c-.0336914.2001953-.1123047.3574219-.2368164.4736328-.125.1171875-.3452148.2001953-.6606445.25v7.6777344h4.7866211l.8222656-1.1210938c.0664062-.1005859.1831055-.2617188.3491211-.4863281s.2993164-.390625.3989258-.4990234c.0996094-.1074219.1826172-.1621094.2495117-.1621094.0996094,0,.3989258.1962891.8974609.5859375.4985352.390625.972168.7939453,1.4208984,1.2089844.4487305.4160156.6733398.6816406.6733398.7978516-.050293.2666016-.2744141.3994141-.6733398.3994141h-8.9248047v11.4921875h3.6147461l.8227539-1.1464844Z"/>
      <path d="m72.7944336,10.0204229c.065918-.0830078.1616211-.1953125.2866211-.3369141.1245117-.140625.2241211-.2490234.2988281-.3242188.0751953-.0742188.1455078-.1113281.2119141-.1113281.1000977,0,.3696289.1621094.8105469.4853516.4399414.3242188.8554688.6611328,1.246582,1.0097656.3901367.3496094.5854492.5820312.5854492.6982422-.1992188.2490234-.5317383.4326172-.9970703.5488281v6.0332031c.0332031,2.0605469.0996094,4.0136719.199707,5.8583984-.1166992.1826172-.4575195.3818359-1.0224609.5976562-.5649414.2167969-1.0717773.3242188-1.5205078.3242188-.3828125,0-.5737305-.1660156-.5737305-.4980469.0166016-.0498047.0288086-.1035156.0375977-.1621094.0083008-.0585938.0205078-.1210938.0375977-.1875v-.4238281h-1.0473633v5.3603516c0,.1826172.0498047.3037109.1499023.3613281.0996094.0585938.3320312.0869141.6977539.0869141h2.144043c.9804688,0,1.5786133-.0078125,1.7949219-.0244141.1660156-.0166016.2827148-.0458984.3491211-.0869141.0664062-.0419922.1494141-.1376953.2490234-.2871094.1162109-.2324219.3989258-1.0722656.8476562-2.5175781l.2246094-.7978516h.2993164l.0498047,3.4648438c.3652344.1494141.6108398.3076172.7353516.4736328s.1870117.3994141.1870117.6982422c0,.4150391-.1416016.7431641-.4238281.984375-.2827148.2412109-.7895508.4238281-1.5209961.5488281s-1.753418.1865234-3.0664062.1865234h-2.4926758c-.8144531,0-1.425293-.0664062-1.8325195-.1992188s-.6899414-.3701172-.8476562-.7099609c-.1582031-.3408203-.2368164-.84375-.2368164-1.5087891v-6.0332031h-1.8198242c-.1831055,1.7294922-.644043,3.1835938-1.3837891,4.3632812s-1.8115234,2.1396484-3.2158203,2.8789062c-1.4047852.7392578-3.2119141,1.3007812-5.4223633,1.6826172l-.074707-.2988281c1.628418-.5986328,2.9375-1.2919922,3.9262695-2.0820312.9887695-.7890625,1.7202148-1.7158203,2.1938477-2.7792969.4741211-1.0634766.7685547-2.3183594.8852539-3.7646484h-.4487305v.4990234c0,.1162109-.1166992.2539062-.3491211.4111328-.2329102.1582031-.5322266.2949219-.8974609.4111328-.3657227.1171875-.7314453.1748047-1.0966797.1748047-.2163086,0-.3911133-.0498047-.5239258-.1494141s-.1992188-.2158203-.1992188-.3496094c.0664062-.9804688.1245117-1.9316406.1743164-2.8544922.0498047-.921875.0830078-2.1308594.1000977-3.6269531v-3.5146484c0-2.0947266-.1083984-3.7978516-.3242188-5.1113281l3.2905273,1.3710938h8.7006836l.6235352-.7724609Zm-.3989258,4.7119141v-3.2412109h-9.0996094v3.2412109h9.0996094Zm-9.0996094,4.0380859h9.0996094v-3.3398438h-9.0996094v3.3398438Zm9.0996094.6982422h-9.0996094v3.3408203h9.0996094v-3.3408203Z"/>
      <path d="m89.8710938,12.2391729c1.1298828.3984375,1.6953125.6894531,1.6953125.8720703,0,.0839844-.0917969.1503906-.2744141.2001953l-.4736328.1494141c-1.9443359,3.8388672-4.5620117,6.7060547-7.8530273,8.6005859l-.2241211-.2246094c1.1630859-1.3955078,2.2597656-3.1738281,3.2905273-5.3349609.3652344-.7304688.7104492-1.6201172,1.034668-2.6669922s.5273438-1.9199219.6108398-2.6181641l2.1938477,1.0224609Zm8.8999023,15.1826172c-.78125-1.4794922-1.7617188-2.9501953-2.9418945-4.4130859l.2495117-.1494141c1.6953125.6982422,3.0825195,1.4921875,4.1630859,2.3808594,1.0805664.8896484,1.8574219,1.7744141,2.3310547,2.6552734s.7104492,1.703125.7104492,2.4677734c0,.6142578-.1411133,1.1132812-.4238281,1.4960938-.2827148.3818359-.6479492.5732422-1.0966797.5732422s-.8974609-.1914062-1.3461914-.5732422c-.199707-1.0966797-.6318359-2.3515625-1.2963867-3.7646484-2.7421875.9306641-6.9555664,2.09375-12.6396484,3.4902344-.1831055.2988281-.4321289.4902344-.7480469.5732422l-1.4458008-3.8388672c.8476562-.0166016,2.3432617-.0830078,4.4873047-.1992188.6484375-1.8115234,1.2714844-3.8642578,1.8701172-6.1582031.1992188-.8144531.3652344-1.6660156.4985352-2.5556641.1328125-.8886719.2075195-1.6660156.2241211-2.3310547,1.4960938.3828125,2.5307617.6777344,3.1040039.8857422s.8598633.3701172.8598633.4863281c0,.0664062-.0664062.1240234-.1992188.1738281l-.4487305.2246094c-.5654297,1.3964844-1.2841797,2.9257812-2.1567383,4.5869141-.8725586,1.6621094-1.7988281,3.2001953-2.7792969,4.6123047,2.3930664-.1328125,5.4008789-.3408203,9.0244141-.6230469Zm1.6328125-11.6796875c1.5039062,1.3710938,3.2368164,2.4140625,5.1982422,3.1289062l-.0751953.2734375c-.5649414.2001953-1.0678711.5410156-1.5078125,1.0224609-.440918.4824219-.7358398,1.0058594-.8852539,1.5703125-1.6621094-1.1962891-3.0581055-2.7050781-4.1884766-4.5244141-1.1303711-1.8203125-1.9360352-3.8603516-2.4179688-6.1201172h-1.9443359c-1.1308594.0166016-2.3105469.1328125-3.5400391.3486328l-.6484375-1.2460938c.9140625.0996094,2.0195312.1660156,3.315918.1992188h2.1689453l.8974609-1.4707031,2.4179688,1.7197266c-.2827148.3330078-.9638672.5400391-2.0444336.6230469.6645508,1.6123047,1.7490234,3.1044922,3.253418,4.4755859Z"/>
      <path d="m112.7817383,31.4852666c0,.1328125-.1079102.2822266-.3237305.4482422-.2163086.1660156-.4907227.3115234-.8227539.4365234-.3325195.125-.6733398.1875-1.0219727.1875-.2163086,0-.3911133-.0507812-.5239258-.1503906-.1333008-.0996094-.1992188-.2158203-.1992188-.3486328.065918-.9804688.1245117-1.9316406.1743164-2.8544922s.0830078-2.1318359.0996094-3.6269531v-11.0195312c0-2.09375-.1079102-3.7978516-.3237305-5.1103516l3.1660156,1.3710938h14.3349609l.5981445-.7480469c.0830078-.0996094.1699219-.2080078.2617188-.3242188.0913086-.1162109.1826172-.2197266.2744141-.3115234.0908203-.0908203.1699219-.1367188.2368164-.1367188.0996094,0,.3613281.1582031.7851562.4736328s.8183594.6474609,1.184082.9970703c.3652344.3486328.5483398.5820312.5483398.6982422-.1992188.2490234-.5317383.4238281-.9970703.5234375v13.3623047c.0332031,2.0605469.0996094,4.0136719.199707,5.8583984-.1499023.1992188-.4824219.4199219-.9975586.6611328-.5151367.2402344-.9970703.3613281-1.4458008.3613281-.3325195,0-.4985352-.1669922-.4985352-.4990234l.0996094-.3984375v-.4492188h-14.8085938v.5986328Zm0-19.9443359v18.6230469h14.8085938V11.5409307h-14.8085938Zm10.7202148,1.9697266c.0498047-.0664062.1245117-.1699219.2241211-.3115234.1000977-.1416016.1870117-.2490234.2617188-.3242188.0751953-.0751953.1455078-.1123047.2119141-.1123047.1000977,0,.3242188.125.6733398.3740234s.6728516.5195312.972168.8105469.4487305.4941406.4487305.6103516c-.0498047.2490234-.2578125.3740234-.6230469.3740234h-4.3129883v1.8203125h2.3681641l.5488281-.7734375c.0498047-.0664062.1328125-.1777344.2490234-.3359375s.2119141-.2744141.2866211-.3496094c.074707-.0742188.1455078-.1123047.2119141-.1123047.0996094,0,.328125.1337891.6855469.3994141s.6938477.5478516,1.0097656.8476562c.3154297.2988281.4736328.5068359.4736328.6230469-.0664062.265625-.2827148.3984375-.6479492.3984375h-9.0996094c-1.1801758.0175781-2.4267578.1337891-3.7392578.3496094l-.6235352-1.2470703c.9140625.0996094,2.0195312.1669922,3.315918.2001953h2.4428711v-1.8203125h-1.4707031c-.831543.0166016-1.6953125.1328125-2.5927734.3486328l-.6230469-1.2207031c.8803711.0996094,1.9443359.1660156,3.190918.1992188h1.4956055c0-.9970703-.0415039-1.7783203-.1245117-2.34375,2.0771484.4990234,3.1162109.8642578,3.1162109,1.0966797,0,.0498047-.0498047.1083984-.1494141.1748047l-.3242188.2246094v.8476562h1.6206055l.5234375-.7480469Zm-.3242188,4.8115234c.0498047-.0498047.1206055-.1416016.2119141-.2744141s.1704102-.2285156.2368164-.2871094c.0664062-.0576172.1328125-.0869141.199707-.0869141.0996094,0,.3237305.1289062.6728516.3867188s.6733398.5361328.972168.8349609c.2993164.2988281.4487305.5068359.4487305.6230469-.0332031.0839844-.1118164.1621094-.2368164.2373047-.1245117.0742188-.2700195.1289062-.4360352.1621094v2.5429688c.9970703.78125,1.4956055,1.2626953,1.4956055,1.4453125,0,.0839844-.074707.125-.2241211.125l-.3989258-.0253906c-.3330078.1835938-.7568359.3828125-1.2714844.5986328l-.7729492.3740234c.8310547.3154297,1.4624023.7226562,1.8945312,1.2216797.2827148.3320312.4238281.6816406.4238281,1.046875,0,.2988281-.0869141.5566406-.2617188.7724609-.1743164.2167969-.3950195.3242188-.6606445.3242188-.3325195,0-.6567383-.1904297-.972168-.5732422-.2827148-.5146484-.7104492-1.0595703-1.2836914-1.6328125-.5737305-.5732422-1.1928711-1.0429688-1.8574219-1.4082031v1.3710938l.0249023.8222656c.0161133.6318359.0498047,1.2216797.0996094,1.7705078-.0834961.1826172-.3242188.3652344-.7226562.5478516-.3989258.1835938-.8813477.2744141-1.4462891.2744141-.1992188,0-.3491211-.0498047-.4487305-.1494141s-.1494141-.2158203-.1494141-.3486328c.0664062-.6152344.1162109-1.3964844.1494141-2.34375v-1.4208984c-1.3793945,1.2460938-3.0996094,2.2773438-5.1601562,3.0908203l-.2246094-.3486328c.9638672-.6484375,1.8486328-1.4335938,2.6552734-2.3564453.8056641-.921875,1.4829102-1.8984375,2.0317383-2.9287109h-.8227539v.0996094c0,.0664062-.1040039.1582031-.3115234.2744141-.2080078.1162109-.4614258.2158203-.7607422.2988281-.2988281.0830078-.5981445.125-.8974609.125h-.2988281v-2.7675781c0-1.1796875-.0585938-2.1435547-.1748047-2.8916016l2.5678711,1.1220703h5.2602539l.4487305-.6484375Zm-5.8334961,1.3710938v2.3183594h5.559082v-2.3183594h-5.559082Zm5.9580078,3.5898438h-.3989258v-.5732422h-1.5454102v1.6699219c.6645508.0664062,1.3710938.1992188,2.1191406.3994141.2988281-.4824219.6313477-1.0556641.9970703-1.7207031-.4487305.1494141-.8393555.2246094-1.171875.2246094Z"/>
    </g>
  </g>
  <g class="cls-1">
    <g class="cls-1">
      <path d="m20.3540039,58.3758916c.8227539.6474609,1.2338867,1.3378906,1.2338867,2.0683594,0,.3496094-.0957031.6357422-.2866211.8603516-.1914062.2246094-.4111328.3369141-.6606445.3369141-.4326172,0-.980957-.3164062-1.6455078-.9472656-.7646484-.7314453-1.362793-1.2636719-1.7949219-1.5957031-.2490234.8808594-.7563477,1.5703125-1.5205078,2.0693359-.7646484.4980469-1.6704102.7480469-2.7172852.7480469-1.1137695,0-2.0820312-.25-2.9047852-.7480469-.8222656-.4990234-1.2338867-1.2216797-1.2338867-2.1689453,0-.5986328.199707-1.1259766.5981445-1.5830078.3989258-.4570312.918457-.8105469,1.5585938-1.0595703.6391602-.25,1.2998047-.3740234,1.9819336-.3740234.581543,0,1.2460938.0664062,1.9941406.1992188l-.2241211-2.9912109c-.4824219.0664062-1.0224609.0996094-1.6206055.0996094-1.0639648,0-2.0234375-.2539062-2.8793945-.7607422-.8564453-.5068359-1.4418945-1.1757812-1.7578125-2.0068359-.0498047-.1494141-.074707-.2402344-.074707-.2744141,0-.0664062.0332031-.0996094.0996094-.0996094.050293,0,.1079102.0253906.1748047.0751953.065918.0498047.1162109.0830078.1494141.0996094.0996094.0830078.3447266.1992188.7353516.3486328s.8476562.2832031,1.3710938.3994141c.5239258.1162109,1.0512695.1738281,1.5834961.1738281.6645508,0,1.3789062-.0498047,2.1435547-.1494141,0-.9804688.0581055-2.1347656.1748047-3.4648438-.6650391-.0332031-1.171875-.1416016-1.5209961-.3242188-.3989258-.2158203-.7895508-.5068359-1.1713867-.8730469-.3828125-.3652344-.6650391-.6894531-.8476562-.9716797-.1665039-.2158203-.2495117-.3740234-.2495117-.4736328,0-.0498047.0249023-.0751953.074707-.0751953s.2246094.0664062.5239258.1992188c.3154297.1503906.6606445.2792969,1.0341797.3867188.3740234.1083984.7021484.1621094.9848633.1621094.3491211,0,.8310547-.0576172,1.4458008-.1748047.0830078-.53125.125-.9882812.125-1.3710938,0-.6806641-.1416016-1.2958984-.4238281-1.8447266-.1166992-.2490234-.2290039-.4404297-.3369141-.5732422s-.2329102-.2617188-.3735352-.3867188c-.1416016-.1240234-.2119141-.2363281-.2119141-.3359375s.0908203-.1826172.2739258-.25c.1826172-.0654297.3823242-.0996094.5986328-.0996094.3818359,0,.793457.0839844,1.2338867.25.4399414.1660156.8139648.4072266,1.121582.7226562s.4614258.6816406.4614258,1.0966797c0,.1669922-.0375977.3535156-.1123047.5615234s-.1621094.4199219-.2617188.6357422c-.2163086.4316406-.3740234.8388672-.4736328,1.2207031.5151367-.1152344.9057617-.2236328,1.171875-.3232422.2490234-.0830078.4570312-.125.6230469-.125.2827148,0,.5112305.0751953.6855469.2246094.1748047.1494141.2617188.3486328.2617188.5976562,0,.2666016-.1079102.5361328-.3237305.8105469-.2163086.2744141-.4736328.4775391-.7729492.6103516-.5654297.2666016-1.2299805.4658203-1.9946289.5986328-.0332031.3164062-.0664062.7734375-.0996094,1.3710938-.0166016.4160156-.0249023,1.046875-.0249023,1.8945312.7480469-.1992188,1.3212891-.4394531,1.7202148-.7226562.2324219-.1660156.3491211-.3320312.3491211-.4980469,0-.1162109-.0498047-.25-.1499023-.3994141-.0996094-.1494141-.2080078-.2910156-.3237305-.4238281-.1166992-.1328125-.2163086-.2578125-.2993164-.3740234-.1665039-.2158203-.2495117-.3486328-.2495117-.3984375s.0249023-.0751953.0751953-.0751953c.0327148,0,.0952148.0371094.1865234.1123047s.1621094.1289062.2119141.1621094c.2661133.1992188.5693359.3574219.9101562.4736328.340332.1162109.6772461.1826172,1.0097656.1992188.1328125.0166016.2451172.0214844.3364258.0126953.0913086-.0078125.1782227-.0039062.2617188.0126953.3325195,0,.5986328.1083984.7978516.3242188.1162109.1162109.1743164.3408203.1743164.6728516,0,.3828125-.1040039.7558594-.3115234,1.1220703-.2080078.3652344-.5361328.6474609-.9848633.8476562-.9472656.4482422-2.1435547.8144531-3.5898438,1.0966797.0830078.6152344.265625,1.4794922.5488281,2.5927734.1328125.4824219.2324219.8974609.2988281,1.2460938,1.2631836.4326172,2.3061523.9726562,3.1289062,1.6210938Zm-6.1079102,1.1337891c.5068359-.4570312.7768555-1.0263672.8100586-1.7080078-.6977539-.2822266-1.4458008-.4238281-2.2436523-.4238281-.8642578,0-1.5791016.1289062-2.144043.3867188s-.8476562.6191406-.8476562,1.0849609c0,.3154297.1831055.6191406.5488281.9091797.3652344.2910156,1.0219727.4365234,1.9692383.4365234.7641602,0,1.3999023-.2285156,1.9072266-.6855469Z"/>
      <path d="m48.8735352,42.6571416c.4238281.1914062.7768555.4365234,1.0595703.7353516.2822266.2988281.4238281.6152344.4238281.9472656,0,.2988281-.0996094.5488281-.2993164.7480469-.1992188.1992188-.4487305.2988281-.7475586.2988281-.1831055,0-.5239258-.0498047-1.0224609-.1494141-.2490234-.0498047-.527832-.0996094-.8349609-.1494141-.3076172-.0498047-.6274414-.0751953-.9599609-.0751953-.4819336,0-1.0883789.0917969-1.8198242.2744141-.7480469.2333984-1.4169922.8564453-2.0068359,1.8701172-.590332,1.0136719-1.0512695,2.1777344-1.3837891,3.4902344s-.4985352,2.484375-.4985352,3.5146484c0,1.0644531.0830078,1.890625.2495117,2.4804688.1660156.5908203.4487305,1.0146484.8476562,1.2714844.3989258.2578125.9633789.3867188,1.6953125.3867188l.6230469-.0498047c.7480469-.0498047,1.1630859-.0751953,1.246582-.0751953.7143555,0,1.2626953.1416016,1.6455078.4238281.3818359.2832031.5732422.6318359.5732422,1.046875,0,.9482422-1.0722656,1.421875-3.2158203,1.421875-2.1108398,0-3.644043-.5322266-4.5996094-1.5957031-.9560547-1.0634766-1.4335938-2.7011719-1.4335938-4.9111328,0-2.1445312.5112305-4.0429688,1.5332031-5.6972656,1.0219727-1.6533203,2.3222656-2.9619141,3.9013672-3.9257812h-.3491211c-.6147461.0332031-1.4541016.2578125-2.5175781.6728516-1.0639648.4160156-2.1606445.9638672-3.2910156,1.6455078-.4155273.2490234-.7978516.5234375-1.1464844.8222656-.4658203.3662109-.8603516.6357422-1.1845703.8105469-.3237305.1748047-.7104492.2617188-1.1591797.2617188-.4321289,0-.855957-.1533203-1.2714844-.4609375s-.7724609-.6816406-1.0717773-1.1220703-.4902344-.8349609-.5732422-1.1845703c-.0336914-.1992188-.0498047-.3154297-.0498047-.3486328,0-.0664062.0161133-.1201172.0498047-.1621094.0332031-.0410156.074707-.0625.1245117-.0625.0830078,0,.190918.0419922.3242188.125.3491211.2324219.7475586.3486328,1.1962891.3486328.1499023,0,.3242188-.015625.5239258-.0498047.2490234-.0498047.9472656-.265625,2.09375-.6484375,1.6289062-.5478516,3.1328125-1.0214844,4.5126953-1.4208984,1.3793945-.3984375,2.6503906-.6894531,3.8139648-.8720703.3989258-.0498047.793457-.1376953,1.184082-.2617188.390625-.125.6357422-.203125.7358398-.2373047.4150391-.1494141.7558594-.2568359,1.0219727-.3242188.265625-.0654297.5317383-.0996094.7978516-.0996094.4150391,0,.8349609.0957031,1.2587891.2871094Zm-1.4833984,9.3857422c-.2329102-.1660156-.3989258-.40625-.4985352-.7226562-.2329102-.6640625-.4448242-1.1923828-.6357422-1.5830078s-.4946289-.7763672-.909668-1.1591797c-.0668945-.0498047-.1665039-.125-.2993164-.2246094-.1333008-.0996094-.1992188-.1826172-.1992188-.2490234,0-.0830078.0576172-.125.1743164-.125.2822266,0,.7729492.1123047,1.4707031.3369141.6982422.2246094,1.3378906.5693359,1.9199219,1.0341797.581543.4658203.8725586,1.046875.8725586,1.7451172,0,.3994141-.1210938.6982422-.3618164.8974609-.2412109.2001953-.5029297.2998047-.7851562.2998047-.2661133,0-.5151367-.0830078-.7480469-.25Zm2.9418945-1.6953125c-.2329102-.1660156-.4072266-.3818359-.5234375-.6474609-.315918-.6484375-.5820312-1.1259766-.7978516-1.4335938-.2163086-.3076172-.590332-.6523438-1.1220703-1.0351562-.0830078-.0498047-.1953125-.1240234-.3364258-.2236328-.1411133-.1005859-.2119141-.1748047-.2119141-.2246094,0-.0996094.1245117-.1494141.3740234-.1494141.3491211,0,.8764648.0830078,1.5830078.2490234.7060547.1660156,1.3544922.4609375,1.9448242.8847656.5893555.4238281.8847656.9853516.8847656,1.6826172,0,.3662109-.1162109.6484375-.3491211.8476562-.2329102.2001953-.4819336.2998047-.7475586.2998047-.2329102,0-.4658203-.0830078-.6982422-.25Z"/>
      <path d="m63.7944336,42.0712041c-.8642578.9140625-1.9282227,1.8369141-3.190918,2.7675781-1.2631836.9306641-2.5512695,1.7119141-3.8642578,2.3427734l-.2241211-.2744141c.8803711-.8798828,1.703125-1.8691406,2.4677734-2.9658203.4985352-.6982422.9511719-1.4501953,1.3588867-2.2568359.4067383-.8056641.7016602-1.5332031.8847656-2.1806641l1.8701172,1.2958984c.9472656.515625,1.4208984.8564453,1.4208984,1.0224609,0,.0830078-.0917969.1416016-.2744141.1738281l-.4487305.0751953Zm-1.4208984,14.2597656c.0332031,2.0615234.0996094,4.0136719.1992188,5.8583984-.1333008.2158203-.4404297.4443359-.9223633.6855469s-.980957.3623047-1.4956055.3623047c-.2329102,0-.4199219-.0507812-.5610352-.1503906-.1416016-.0996094-.2119141-.2158203-.2119141-.3486328.0664062-.9804688.1245117-1.9316406.1743164-2.8544922.050293-.9228516.0830078-2.1318359.1000977-3.6269531v-3.8398438c-.980957.9472656-1.953125,1.7539062-2.9169922,2.4189453l-.2241211-.25c1.1630859-1.4951172,2.2685547-3.3232422,3.3154297-5.484375.3652344-.7480469.6894531-1.5244141.972168-2.3310547.2827148-.8056641.4819336-1.5498047.5986328-2.2314453,1.2963867.6650391,2.1977539,1.1552734,2.7045898,1.4707031.5068359.3164062.7607422.5322266.7607422.6484375,0,.0664062-.0751953.1162109-.2246094.1494141l-.4487305.0996094c-.5820312.8818359-1.2216797,1.7539062-1.9194336,2.6181641l.8476562.3242188c-.1000977.2158203-.3491211.3740234-.7480469.4736328v6.0078125Zm17.0771484,3.3154297v.2744141c-.3989258.0996094-.7026367.390625-.9101562.8730469-.2080078.4814453-.3032227,1.0634766-.2866211,1.7451172h-2.3183594c-1.5791016,0-2.9086914-.1914062-3.9887695-.5732422-1.0805664-.3828125-1.9863281-1.0517578-2.7177734-2.0068359-.7314453-.9560547-1.3046875-2.2724609-1.7197266-3.9521484-.9643555,3.1748047-2.4848633,5.5683594-4.5625,7.1796875l-.2241211-.2236328c1.1298828-1.7792969,1.9106445-4.0722656,2.3432617-6.8808594.1494141-.9472656.2241211-1.9697266.2241211-3.0664062,0-.6982422-.0415039-1.3623047-.1245117-1.9941406,1.4291992.2158203,2.4140625.3945312,2.9541016.5361328.5400391.140625.8105469.2695312.8105469.3857422,0,.0498047-.0668945.1162109-.199707.1992188l-.4487305.25c-.1162109.8476562-.3076172,1.7949219-.5732422,2.8417969.5981445,1.4130859,1.4208984,2.4677734,2.4682617,3.1660156v-4.1386719c0-2.0771484-.1083984-3.7724609-.3242188-5.0849609h-1.7949219c-1.1801758.0166016-2.4267578.1328125-3.7397461.3486328l-.6230469-1.2714844c.9135742.0996094,2.019043.1660156,3.3154297.1992188h2.6928711v-3.7890625h-1.5957031c-.9311523.0166016-1.8945312.1328125-2.8920898.3486328l-.6230469-1.2714844c.9135742.1005859,2.019043.1669922,3.3154297.2001953h1.7954102c0-1.7119141-.0834961-3.1162109-.2495117-4.2138672,1.3295898.2998047,2.2519531.5361328,2.7670898.7109375s.7729492.3203125.7729492.4365234c0,.0498047-.0585938.1162109-.1743164.1992188l-.3740234.2490234v2.6181641h2.21875l.6230469-.9228516c.0830078-.0996094.1870117-.2402344.3115234-.4238281.125-.1826172.2246094-.3154297.2993164-.3984375s.1455078-.125.2119141-.125c.0996094,0,.3574219.1582031.7729492.4736328.4150391.3164062.8017578.6523438,1.1591797,1.0097656s.5361328.5947266.5361328.7099609c-.0668945.2666016-.2827148.3994141-.6484375.3994141h-5.484375v3.7890625h2.8168945l.6484375-.9716797c.065918-.0830078.1655273-.2246094.2988281-.4238281.1328125-.2001953.2407227-.3447266.3242188-.4365234.0830078-.0908203.1577148-.1367188.2246094-.1367188.0996094,0,.3652344.1699219.7973633.5107422s.8354492.6943359,1.2094727,1.0595703c.3735352.3652344.5605469.6064453.5605469.7226562-.0664062.2666016-.2910156.3994141-.6728516.3994141h-8.7006836c2.3598633.5146484,3.5400391.9052734,3.5400391,1.1708984,0,.0498047-.0585938.1171875-.1743164.2001953l-.3740234.2490234v2.9667969h1.6206055l.6230469-.9472656c.0830078-.0996094.1870117-.2412109.3115234-.4238281s.2246094-.3154297.2993164-.3994141c.074707-.0830078.1450195-.1240234.2119141-.1240234.0996094,0,.3569336.1582031.7729492.4736328.4150391.3154297.8012695.6523438,1.1591797,1.0097656.3569336.3574219.5356445.59375.5356445.7099609-.0664062.2666016-.2827148.3994141-.6479492.3994141h-4.8862305v4.9609375c.9472656.1494141,2.019043.2236328,3.2158203.2236328h3.2910156Z"/>
      <path d="m103.1835938,46.2840948c.4819336.3662109.9350586.7441406,1.3588867,1.1347656s.6357422.6445312.6357422.7597656c-.0668945.2666016-.2910156.3994141-.6733398.3994141h-11.9165039c2.2768555.4980469,3.4155273.8642578,3.4155273,1.0966797,0,.0839844-.0498047.1494141-.1499023.1992188l-.3735352.25v4.4121094c0,.7148438-.0874023,1.2880859-.2617188,1.7207031-.1748047.4316406-.527832.7763672-1.0595703,1.0341797-.5322266.2578125-1.3134766.4277344-2.34375.5107422-.0498047-.4814453-.1118164-.8681641-.1870117-1.1591797-.074707-.2900391-.2036133-.5273438-.3862305-.7099609-.1992188-.1992188-.453125-.3740234-.7602539-.5234375-.3076172-.1503906-.7441406-.2744141-1.309082-.3740234v-.3242188c1.6953125.1162109,2.7006836.1748047,3.0166016.1748047.1660156,0,.2827148-.0292969.3491211-.0878906.0664062-.0576172.0996094-.1621094.0996094-.3115234v-2.8916016c0-1.2128906-.0585938-2.21875-.1743164-3.0166016h-5.3847656c-1.1806641.0166016-2.4272461.1328125-3.7397461.3486328l-.6479492-1.2714844c.8139648.0996094,1.7949219.1669922,2.9414062.2001953h1.3959961v-1.1972656c0-2.09375-.1079102-3.796875-.3237305-5.1103516,2.3764648.515625,3.5649414.8896484,3.5649414,1.1220703,0,.0664062-.0585938.1328125-.1748047.1992188l-.3989258.2490234v4.7373047h2.9418945v-3.0664062c0-2.0947266-.1083984-3.7978516-.3242188-5.1113281,1.4462891.2998047,2.4433594.5361328,2.9916992.7109375s.8227539.3203125.8227539.4365234c0,.0664062-.0585938.140625-.1743164.2236328l-.4238281.2744141v2.4433594h2.6176758l.7475586-1.046875c.0830078-.1162109.199707-.2744141.3491211-.4736328.1499023-.2001953.2700195-.3496094.3613281-.4492188s.1704102-.1494141.2373047-.1494141c.0996094,0,.3945312.1787109.8847656.5361328s.9511719.7314453,1.3837891,1.1220703c.4316406.390625.6479492.6435547.6479492.7597656-.0498047.2666016-.2739258.3994141-.6728516.3994141h-6.5566406v3.390625h5.0605469l.7729492-1.0478516c.0830078-.1152344.1992188-.2734375.3491211-.4736328.1494141-.1992188.2700195-.3486328.3613281-.4482422s.1704102-.1494141.2368164-.1494141c.0996094,0,.3901367.1826172.8725586.5478516Zm-12.5893555,5.1113281c-.8979492,1.1132812-2.0073242,2.1767578-3.3286133,3.1904297-1.3212891,1.0146484-2.7382812,1.8203125-4.2504883,2.4179688l-.1992188-.2734375c1.0136719-.8310547,2.0107422-1.9199219,2.9916992-3.2666016.4814453-.6474609.9179688-1.3828125,1.3085938-2.2060547.3901367-.8222656.6689453-1.5742188.8349609-2.2558594l1.8701172,1.171875c.9633789.4648438,1.4458008.7890625,1.4458008.9716797,0,.0839844-.0834961.1416016-.2495117.1748047l-.4233398.0751953Zm9.5976562,2.5419922c.9638672.4990234,1.4462891.8320312,1.4462891.9980469,0,.0664062-.1083984.1162109-.3242188.1494141l-.5483398.0498047c-1.4628906,1.8613281-3.0209961,3.3447266-4.6748047,4.4501953s-3.4194336,1.9277344-5.2973633,2.4677734c-1.878418.5400391-4.0385742.9257812-6.4819336,1.1591797l-.0996094-.3984375c2.3432617-.5820312,4.4082031-1.296875,6.1953125-2.1445312,1.7861328-.8476562,3.3862305-1.9609375,4.7988281-3.3408203.581543-.5644531,1.184082-1.3125,1.8076172-2.2431641.6230469-.9306641,1.0507812-1.7207031,1.2836914-2.3681641l1.8945312,1.2207031Zm-2.6923828-4.0878906c1.6118164.1660156,2.9375.4902344,3.9765625.9716797,1.0385742.4824219,1.7949219,1.0263672,2.2685547,1.6337891.4736328.6064453.7104492,1.1923828.7104492,1.7568359,0,.4160156-.1206055.7607422-.3613281,1.0351562-.2412109.2744141-.5610352.4111328-.9599609.4111328-.2827148,0-.5571289-.0664062-.8227539-.1992188-.4487305-.8974609-1.1464844-1.8447266-2.0942383-2.8427734-.9472656-.9970703-1.9111328-1.8447266-2.8916016-2.5419922l.1743164-.2246094Z"/>
    </g>
  </g>
  <g class="cls-1">
    <g class="cls-1">
      <path d="m209.4106445,97.3592901c1.046875.4658203,1.5703125.7900391,1.5703125.9726562,0,.0664062-.0830078.125-.2490234.1748047l-.4487305.1240234c-.9311523,1.5458984-2.1030273,3.0712891-3.5151367,4.5751953-1.4130859,1.5039062-2.9584961,2.7382812-4.637207,3.7021484l-.1992188-.2490234c1.4291992-1.5126953,2.7255859-3.4404297,3.8891602-5.7841797.3818359-.7480469.7104492-1.5332031.984375-2.3554688.2744141-.8232422.4614258-1.5839844.5610352-2.28125l2.0444336,1.1210938Zm-1.246582,8.6259766c-.7480469.0166016-1.5458984.1337891-2.3935547.3496094l-.6728516-1.2714844c.9140625.0996094,2.0195312.1660156,3.315918.1992188h8.4262695l.6728516-.7480469c.0996094-.0996094.2451172-.2529297.4365234-.4609375.190918-.2080078.3364258-.3115234.4360352-.3115234s.3574219.1660156.7729492.4980469c.4150391.3330078.8056641.6816406,1.171875,1.046875.3652344.3662109.5483398.6074219.5483398.7236328-.2163086.2324219-.5483398.3818359-.9970703.4482422-.1333008,3.125-.3662109,5.53125-.6982422,7.2177734-.3325195,1.6865234-.8061523,2.8046875-1.4208984,3.3525391-.3989258.3496094-.8603516.6064453-1.3837891.7734375-.5234375.1660156-1.1757812.2490234-1.9570312.2490234.0332031-.9306641-.1494141-1.5957031-.5483398-1.9941406-.2163086-.2158203-.5654297-.4199219-1.046875-.6113281-.4824219-.1904297-1.0141602-.3359375-1.5957031-.4355469v-.3496094c1.828125.1494141,3.0498047.2246094,3.6645508.2246094.2158203,0,.3867188-.0166016.5112305-.0498047s.2451172-.0996094.3613281-.1992188c.3325195-.2832031.6025391-1.1552734.8105469-2.6181641.2075195-1.4619141.3696289-3.4736328.4858398-6.0332031h-4.4624023c-.1992188,1.6455078-.5732422,3.1582031-1.1220703,4.5371094-.5483398,1.3798828-1.5,2.7265625-2.8544922,4.0390625-1.3544922,1.3134766-3.2202148,2.484375-5.5966797,3.5146484l-.2490234-.3232422c1.8110352-1.2138672,3.1992188-2.4892578,4.1630859-3.8271484s1.6118164-2.6298828,1.9448242-3.8769531c.3320312-1.2460938.5395508-2.6005859.6230469-4.0634766h-1.3461914Zm11.6547852-5.2353516c1.5371094,1.2470703,3.1865234,2.203125,4.9487305,2.8671875l-.0249023.3242188c-.5488281.1660156-1.043457.4736328-1.4833984.921875-.440918.4492188-.7353516.9482422-.8852539,1.4960938-1.4794922-1.1630859-2.8007812-2.5878906-3.9638672-4.2753906-1.1635742-1.6865234-2.019043-3.4609375-2.5678711-5.3222656h-1.6948242c-.980957.0166016-1.9946289.1328125-3.0415039.3486328l-.6733398-1.2714844c.8974609.0996094,1.9775391.1669922,3.2407227.1992188h1.5209961l.8476562-1.4208984,2.3432617,1.6708984c-.2163086.2988281-.855957.5068359-1.9194336.6230469.6977539,1.3134766,1.8154297,2.5927734,3.3530273,3.8388672Z"/>
    </g>
  </g>
  <g class="cls-1">
    <g class="cls-1">
      <path d="m442.8007812,97.3592901c1.046875.4658203,1.5703125.7900391,1.5703125.9726562,0,.0664062-.0830078.125-.2490234.1748047l-.4492188.1240234c-.9306641,1.5458984-2.1025391,3.0712891-3.5146484,4.5751953-1.4130859,1.5039062-2.9589844,2.7382812-4.6376953,3.7021484l-.1992188-.2490234c1.4296875-1.5126953,2.7255859-3.4404297,3.8896484-5.7841797.3818359-.7480469.7099609-1.5332031.984375-2.3554688.2744141-.8232422.4609375-1.5839844.5605469-2.28125l2.0449219,1.1210938Zm-1.2470703,8.6259766c-.7480469.0166016-1.5458984.1337891-2.3935547.3496094l-.6728516-1.2714844c.9140625.0996094,2.0195312.1660156,3.3164062.1992188h8.4257812l.6728516-.7480469c.0996094-.0996094.2451172-.2529297.4365234-.4609375s.3369141-.3115234.4365234-.3115234.3574219.1660156.7724609.4980469c.4150391.3330078.8056641.6816406,1.171875,1.046875.3652344.3662109.5488281.6074219.5488281.7236328-.2167969.2324219-.5488281.3818359-.9970703.4482422-.1337891,3.125-.3662109,5.53125-.6982422,7.2177734-.3330078,1.6865234-.8066406,2.8046875-1.4208984,3.3525391-.3994141.3496094-.8603516.6064453-1.3837891.7734375-.5234375.1660156-1.1757812.2490234-1.9570312.2490234.0332031-.9306641-.1494141-1.5957031-.5488281-1.9941406-.2158203-.2158203-.5654297-.4199219-1.046875-.6113281-.4824219-.1904297-1.0136719-.3359375-1.5957031-.4355469v-.3496094c1.828125.1494141,3.0498047.2246094,3.6650391.2246094.2158203,0,.3867188-.0166016.5107422-.0498047.125-.0332031.2451172-.0996094.3613281-.1992188.3330078-.2832031.6025391-1.1552734.8105469-2.6181641.2080078-1.4619141.3701172-3.4736328.4863281-6.0332031h-4.4628906c-.1992188,1.6455078-.5732422,3.1582031-1.1220703,4.5371094-.5478516,1.3798828-1.5,2.7265625-2.8544922,4.0390625-1.3544922,1.3134766-3.2197266,2.484375-5.5966797,3.5146484l-.2490234-.3232422c1.8115234-1.2138672,3.1992188-2.4892578,4.1630859-3.8271484s1.6123047-2.6298828,1.9453125-3.8769531c.3320312-1.2460938.5390625-2.6005859.6230469-4.0634766h-1.3466797Zm11.6552734-5.2353516c1.5371094,1.2470703,3.1865234,2.203125,4.9482422,2.8671875l-.0244141.3242188c-.5488281.1660156-1.0439453.4736328-1.4833984.921875-.4414062.4492188-.7353516.9482422-.8857422,1.4960938-1.4794922-1.1630859-2.8007812-2.5878906-3.9638672-4.2753906-1.1630859-1.6865234-2.0185547-3.4609375-2.5673828-5.3222656h-1.6953125c-.9804688.0166016-1.9941406.1328125-3.0410156.3486328l-.6738281-1.2714844c.8974609.0996094,1.9775391.1669922,3.2412109.1992188h1.5205078l.8476562-1.4208984,2.34375,1.6708984c-.2167969.2988281-.8564453.5068359-1.9199219.6230469.6982422,1.3134766,1.8154297,2.5927734,3.3535156,3.8388672Z"/>
    </g>
  </g>
  <g class="cls-1">
    <g class="cls-1">
      <path d="m249.7724609,20.2919073c.0664062-.0996094.1621094-.2373047.2871094-.4121094.125-.1738281.2246094-.3027344.2988281-.3857422.0751953-.0830078.1455078-.125.2119141-.125.0996094,0,.3496094.1542969.7480469.4609375.3994141.3076172.7763672.6357422,1.1347656.9853516.3564453.3486328.5351562.5820312.5351562.6982422-.0498047.265625-.265625.3984375-.6474609.3984375h-4.5625v1.4960938c1.5957031.265625,2.7753906.71875,3.5400391,1.3583984s1.1464844,1.3173828,1.1464844,2.0322266c0,.4150391-.1289062.7646484-.3857422,1.046875-.2578125.2822266-.578125.4238281-.9599609.4238281-.3496094,0-.7070312-.1328125-1.0722656-.3994141-.1328125-.6484375-.4111328-1.3339844-.8349609-2.0566406s-.9013672-1.3916016-1.4335938-2.0068359v2.6679688c.0498047,2.2265625.1083984,3.9462891.1748047,5.1601562-.0996094.1992188-.4033203.4023438-.9101562.6103516s-1.0019531.3125-1.4833984.3125c-.2490234,0-.4326172-.0507812-.5488281-.1503906s-.1738281-.2158203-.1738281-.3486328c.0996094-1.3134766.1660156-2.6503906.1992188-4.0136719v-2.2685547c-1.3964844,1.8613281-3.2158203,3.4570312-5.4599609,4.7861328l-.2490234-.2988281c1.0634766-1.0302734,1.9902344-2.2724609,2.7792969-3.7275391.7890625-1.4541016,1.4335938-2.9951172,1.9326172-4.6240234h-1.3466797c-.7480469.0166016-1.5449219.1328125-2.3925781.3486328l-.6484375-1.2460938c.9140625.0996094,2.0195312.1660156,3.3154297.1992188h2.0693359c0-1.3291016-.0664062-2.3847656-.1992188-3.1660156,1.3291016.2988281,2.2470703.5400391,2.7548828.7226562.5068359.1835938.7597656.3330078.7597656.4492188,0,.0498047-.0585938.1162109-.1748047.1992188l-.3984375.2490234v1.5458984h1.3710938l.6230469-.921875Zm2.9921875-8.4511719c-.1494141.1162109-.3496094.1738281-.5986328.1738281s-.5732422-.0742188-.9726562-.2246094c-1.4794922.3496094-3.2402344.640625-5.2851562.8730469-2.0439453.2324219-4.0136719.3574219-5.9082031.3740234l-.0742188-.3496094c1.7783203-.3818359,3.7392578-.9628906,5.8828125-1.7451172,1.6787109-.6142578,3.0498047-1.3369141,4.1132812-2.1679688l1.4462891,1.6943359,1.3964844,1.3720703Zm-12.3408203,1.9443359c1.0966797.3818359,1.9033203.8554688,2.4179688,1.4208984.515625.5654297.7734375,1.1386719.7734375,1.7197266,0,.4160156-.1210938.7646484-.3613281,1.046875-.2412109.2832031-.5361328.4238281-.8857422.4238281-.3818359,0-.7392578-.1650391-1.0712891-.4980469.0332031-.6484375-.0585938-1.3339844-.2744141-2.0566406-.2167969-.7236328-.4902344-1.3671875-.8232422-1.9326172l.2246094-.1240234Zm3.6894531-.5986328c1.0800781.3662109,1.8740234.8271484,2.3808594,1.3837891s.7607422,1.109375.7607422,1.6572266c0,.4160156-.1210938.765625-.3613281,1.0478516-.2412109.2822266-.5361328.4238281-.8847656.4238281-.3828125,0-.7324219-.1582031-1.0478516-.4736328.0332031-.6318359-.0576172-1.3007812-.2734375-2.0068359-.2167969-.7070312-.4912109-1.3339844-.8232422-1.8828125l.2490234-.1494141Zm7.1806641.4492188c.9628906.3320312,1.4453125.5898438,1.4453125.7724609,0,.0830078-.0917969.1494141-.2744141.1992188l-.4736328.125c-.5478516.7314453-1.1630859,1.4208984-1.8447266,2.0693359-.6816406.6474609-1.3623047,1.1796875-2.0439453,1.5947266l-.2744141-.2236328c.0498047-.0830078.0869141-.1582031.1123047-.2246094s.0537109-.1328125.0869141-.1992188c.3330078-.7314453.6240234-1.5751953.8730469-2.5302734.2490234-.9560547.3984375-1.7910156.4482422-2.5058594l1.9453125.9228516Zm9.2734375,9.7226562c1.0634766.4648438,1.5957031.7978516,1.5957031.9970703,0,.0830078-.0996094.1416016-.2988281.1738281l-.4990234.0751953c-1.4296875,2.0283203-3.0458984,3.6767578-4.8486328,4.9482422-1.8037109,1.2714844-3.8935547,2.2724609-6.2705078,3.0048828l-.1240234-.3496094c2.3427734-1.3457031,4.3125-3.0576172,5.9082031-5.1357422.4814453-.6474609.9638672-1.4580078,1.4462891-2.4306641.4814453-.9716797.8222656-1.7988281,1.0214844-2.4804688l2.0693359,1.1972656Zm-.4238281-6.90625c1.0136719.5488281,1.5205078.9140625,1.5205078,1.0976562,0,.0664062-.0908203.1162109-.2734375.1494141l-.4746094.0498047c-1.1962891,1.2792969-2.5546875,2.3974609-4.0751953,3.3525391-1.5214844.9560547-3.1376953,1.7412109-4.8496094,2.3564453l-.1738281-.3496094c1.3125-.9130859,2.5507812-2.0517578,3.7138672-3.4150391.5322266-.6142578,1.0556641-1.3583984,1.5712891-2.2314453.5146484-.8720703.8886719-1.640625,1.1210938-2.3056641l1.9199219,1.2958984Zm-.1992188-5.9326172c.9638672.5644531,1.4462891.9306641,1.4462891,1.0966797,0,.0664062-.1005859.1162109-.2998047.1494141l-.4736328.0244141c-1.1962891,1.0810547-2.5341797,2.0576172-4.0136719,2.9296875-1.4794922.8730469-3,1.5996094-4.5625,2.1816406l-.1738281-.3496094c1.1298828-.8134766,2.2431641-1.828125,3.3398438-3.0410156.5488281-.5986328,1.0976562-1.3125,1.6455078-2.1445312.5488281-.8300781.9638672-1.5703125,1.2470703-2.21875l1.8447266,1.3720703Z"/>
      <path d="m281.7705078,13.6971807c1.4375.5908203,2.6259766,1.5292969,3.5644531,2.8173828.9394531,1.2880859,1.4091797,2.9208984,1.4091797,4.8984375,0,2.078125-.5820312,3.8066406-1.7451172,5.1855469-1.1640625,1.3798828-2.6767578,2.3935547-4.5380859,3.0419922-1.8613281.6474609-3.8554688.9716797-5.9824219.9716797-.4990234,0-.7480469-.0410156-.7480469-.1240234,0-.0839844.1455078-.1494141.4365234-.2001953.2900391-.0498047.4521484-.0742188.4853516-.0742188,1.7617188-.2988281,3.3447266-.8271484,4.7490234-1.5830078s2.5185547-1.7578125,3.3408203-3.0039062c.8232422-1.2470703,1.234375-2.7011719,1.234375-4.3632812,0-2.0439453-.4160156-3.6357422-1.2460938-4.7734375-.8320312-1.1386719-1.7744141-1.9033203-2.8300781-2.2939453s-2.0068359-.5859375-2.8544922-.5859375c-.2158203,0-.3740234.0087891-.4736328.0253906.1992188.4150391.3740234.9589844.5234375,1.6328125.1494141.6728516.2246094,1.3173828.2246094,1.9316406,0,1.7119141-.2988281,3.3076172-.8974609,4.7871094-.515625,1.2626953-1.1181641,2.4091797-1.8076172,3.4394531-.6894531,1.03125-1.375,1.8330078-2.0566406,2.40625s-1.2548828.8603516-1.7207031.8603516c-.6142578,0-1.2128906-.3330078-1.7949219-.9970703-.5810547-.6650391-1.0556641-1.5087891-1.4208984-2.53125-.3652344-1.0214844-.5478516-2.0146484-.5478516-2.9785156,0-1.8779297.5068359-3.53125,1.5205078-4.9609375s2.3095703-2.5224609,3.8886719-3.2783203c1.5791016-.7568359,3.1992188-1.1347656,4.8613281-1.1347656,1.5126953,0,2.9873047.2949219,4.4257812.8847656Zm-5.671875-.0371094c-1.3134766.1494141-2.5058594.5947266-3.5771484,1.3339844-1.0722656.7392578-1.9121094,1.6660156-2.5185547,2.7792969-.6064453,1.1142578-.9091797,2.2851562-.9091797,3.515625,0,.8808594.1152344,1.6289062.3486328,2.2431641.2324219.6152344.5068359,1.0810547.8222656,1.3964844s.5732422.4736328.7734375.4736328c.6982422,0,1.6953125-.9638672,2.9912109-2.8916016.8310547-1.2802734,1.4296875-2.4599609,1.7949219-3.5400391s.5488281-2.2519531.5488281-3.515625c0-.6816406-.0917969-1.2792969-.2744141-1.7949219Z"/>
      <path d="m311.0009766,21.7128057c.0830078-.1162109.1865234-.265625.3115234-.4492188.125-.1826172.2246094-.3193359.2988281-.4111328.0751953-.0908203.1455078-.1367188.2119141-.1367188.0996094,0,.3447266.1660156.7353516.4980469.390625.3330078.7607422.6855469,1.109375,1.0595703.3496094.3740234.5244141.6191406.5244141.7353516-.0507812.2666016-.2587891.3994141-.6240234.3994141h-4.1875c.5478516,1.0800781,1.2919922,2.03125,2.2304688,2.8544922.9394531.8222656,1.9492188,1.4501953,3.0292969,1.8818359l-.0498047.2744141c-.9970703.2490234-1.6787109,1.1054688-2.0439453,2.5673828-.8476562-.7636719-1.5585938-1.703125-2.1318359-2.8164062s-1.0429688-2.4345703-1.4082031-3.9638672v2.5175781c.0498047,2.1279297.1074219,3.7646484.1738281,4.9111328-.0830078.1992188-.3740234.390625-.8720703.5732422-.4990234.1826172-.9892578.2744141-1.4707031.2744141-.2333984,0-.4033203-.0498047-.5117188-.1494141s-.1621094-.2167969-.1621094-.3496094c.0664062-.8808594.125-2.0605469.1748047-3.5400391v-2.0439453c-1.4960938,1.8613281-3.4736328,3.4072266-5.9335938,4.6367188l-.2236328-.3242188c1.1464844-.9130859,2.1513672-2.0019531,3.0166016-3.265625.8632812-1.2626953,1.5615234-2.6083984,2.09375-4.0380859h-2.4931641v-.125c-.1328125.0830078-.2988281.125-.4980469.125h-3.515625v.6230469c1.2460938.1992188,2.1601562.5361328,2.7421875,1.0097656s.8730469.9765625.8730469,1.5078125c0,.3662109-.1210938.6728516-.3623047.9228516-.2402344.2490234-.5351562.3740234-.8847656.3740234-.3486328,0-.6894531-.1328125-1.0214844-.3994141-.0507812-.4648438-.2001953-.9638672-.4492188-1.4951172-.2490234-.5322266-.5488281-1.0224609-.8974609-1.4716797v2.4189453c.0498047,2.0439453.1083984,3.6142578.1748047,4.7109375-.0996094.1835938-.390625.3779297-.8730469.5859375s-.9472656.3115234-1.3955078.3115234c-.2333984,0-.4033203-.0498047-.5117188-.1494141s-.1621094-.2158203-.1621094-.3486328c.0830078-.7480469.1416016-1.7451172.1748047-2.9912109v-1.7705078c-1.1630859,1.4130859-2.5849609,2.6347656-4.2626953,3.6650391l-.25-.3242188c.8642578-.8974609,1.6210938-1.9658203,2.2695312-3.2041016.6474609-1.2373047,1.1875-2.5634766,1.6201172-3.9755859h-1.1220703c-.6152344.0166016-1.2626953.1328125-1.9443359.3486328l-.6484375-1.2714844c.8144531.0996094,1.7949219.1660156,2.9414062.1992188h1.3964844c0-1.4287109-.0751953-2.6259766-.2246094-3.5898438,1.296875.2998047,2.1894531.5322266,2.6806641.6982422.4892578.1660156.7353516.3076172.7353516.4238281,0,.0498047-.0673828.125-.2001953.2246094l-.3984375.2490234v1.9941406h.7480469l1.1962891-1.7695312c.7646484.6650391,1.4042969,1.2548828,1.9199219,1.7695312h3.6894531c0-1.3955078-.0742188-2.5751953-.2246094-3.5400391,2.3105469.5488281,3.4658203.9316406,3.4658203,1.1474609,0,.0664062-.0585938.1328125-.1748047.1992188l-.3984375.2490234v1.9443359h1.3710938l.6230469-.9716797Zm-1.4707031-10.5205078c.0830078-.0996094.1904297-.25.3242188-.4492188.1328125-.1992188.2441406-.3447266.3359375-.4355469.0917969-.0917969.1708984-.1376953.2373047-.1376953.0996094,0,.3652344.1708984.7978516.5107422.4316406.3408203.8388672.703125,1.2216797,1.0849609.3818359.3828125.5732422.6318359.5732422.7480469-.0498047.265625-.2666016.3984375-.6484375.3984375h-7.2050781c.9638672.9472656,2.2392578,1.7744141,3.8271484,2.4804688,1.5869141.7070312,3.1943359,1.2089844,4.8242188,1.5087891l-.0253906.2744141c-.4990234.1328125-.9267578.4111328-1.2841797.8349609s-.59375.9677734-.7099609,1.6328125c-1.6123047-.6650391-3.0380859-1.5664062-4.2753906-2.7050781-1.2382812-1.1376953-2.2402344-2.4804688-3.0039062-4.0263672h-.125v2.21875c.0332031,1.7792969.0830078,3.2080078.1494141,4.2880859-.0830078.1660156-.3945312.3457031-.9345703.5361328-.5410156.1914062-1.0761719.2871094-1.6083984.2871094-.2324219,0-.4033203-.0498047-.5107422-.1503906-.1083984-.0996094-.1621094-.2158203-.1621094-.3486328.0830078-.78125.140625-1.828125.1748047-3.1416016v-1.8193359c-2.1113281,2.1601562-4.9951172,3.8056641-8.6513672,4.9355469l-.1992188-.3232422c1.4794922-.7646484,2.8212891-1.7158203,4.0263672-2.8544922s2.1894531-2.3476562,2.9541016-3.6279297h-2.09375c-1.1806641.0166016-2.4267578.1337891-3.7402344.3496094l-.6474609-1.2470703c.9130859.0996094,2.0185547.1669922,3.3154297.1992188h5.0361328c0-1.3457031-.0673828-2.4179688-.2001953-3.2158203,1.4130859.2998047,2.3847656.5361328,2.9169922.7109375s.7978516.328125.7978516.4609375c0,.0664062-.0664062.1416016-.1992188.2246094l-.4238281.2744141v1.5449219h4.4375l.6982422-1.0214844Z"/>
      <path d="m325.1113281,12.2391729c1.1298828.3984375,1.6953125.6894531,1.6953125.8720703,0,.0839844-.0917969.1503906-.2744141.2001953l-.4736328.1494141c-1.9443359,3.8388672-4.5625,6.7060547-7.8535156,8.6005859l-.2236328-.2246094c1.1630859-1.3955078,2.2597656-3.1738281,3.2900391-5.3349609.3652344-.7304688.7109375-1.6201172,1.0351562-2.6669922s.5273438-1.9199219.6103516-2.6181641l2.1943359,1.0224609Zm8.8994141,15.1826172c-.78125-1.4794922-1.7617188-2.9501953-2.9414062-4.4130859l.2490234-.1494141c1.6953125.6982422,3.0830078,1.4921875,4.1630859,2.3808594,1.0810547.8896484,1.8574219,1.7744141,2.3310547,2.6552734s.7109375,1.703125.7109375,2.4677734c0,.6142578-.1416016,1.1132812-.4238281,1.4960938-.2832031.3818359-.6484375.5732422-1.0966797.5732422-.4492188,0-.8974609-.1914062-1.3466797-.5732422-.1992188-1.0966797-.6318359-2.3515625-1.2958984-3.7646484-2.7421875.9306641-6.9560547,2.09375-12.6396484,3.4902344-.1835938.2988281-.4326172.4902344-.7480469.5732422l-1.4462891-3.8388672c.8476562-.0166016,2.34375-.0830078,4.4873047-.1992188.6484375-1.8115234,1.2714844-3.8642578,1.8701172-6.1582031.1992188-.8144531.3652344-1.6660156.4990234-2.5556641.1328125-.8886719.2070312-1.6660156.2236328-2.3310547,1.4960938.3828125,2.53125.6777344,3.1044922.8857422s.859375.3701172.859375.4863281c0,.0664062-.0664062.1240234-.1992188.1738281l-.4482422.2246094c-.5654297,1.3964844-1.2841797,2.9257812-2.1572266,4.5869141-.8720703,1.6621094-1.7988281,3.2001953-2.7792969,4.6123047,2.3935547-.1328125,5.4013672-.3408203,9.0244141-.6230469Zm1.6328125-11.6796875c1.5039062,1.3710938,3.2373047,2.4140625,5.1982422,3.1289062l-.0751953.2734375c-.5644531.2001953-1.0673828.5410156-1.5078125,1.0224609-.4404297.4824219-.7353516,1.0058594-.8847656,1.5703125-1.6621094-1.1962891-3.0585938-2.7050781-4.1884766-4.5244141-1.1308594-1.8203125-1.9365234-3.8603516-2.4179688-6.1201172h-1.9443359c-1.1308594.0166016-2.3105469.1328125-3.5400391.3486328l-.6484375-1.2460938c.9140625.0996094,2.0195312.1660156,3.3154297.1992188h2.1689453l.8974609-1.4707031,2.4179688,1.7197266c-.2822266.3330078-.9638672.5400391-2.0439453.6230469.6640625,1.6123047,1.7490234,3.1044922,3.2529297,4.4755859Z"/>
      <path d="m348.0214844,31.4852666c0,.1328125-.1074219.2822266-.3232422.4482422-.2167969.1660156-.4912109.3115234-.8232422.4365234s-.6728516.1875-1.0214844.1875c-.2167969,0-.3916016-.0507812-.5244141-.1503906s-.1992188-.2158203-.1992188-.3486328c.0664062-.9804688.125-1.9316406.1748047-2.8544922s.0830078-2.1318359.0996094-3.6269531v-11.0195312c0-2.09375-.1083984-3.7978516-.3242188-5.1103516l3.1660156,1.3710938h14.3349609l.5986328-.7480469c.0830078-.0996094.1699219-.2080078.2617188-.3242188.0908203-.1162109.1826172-.2197266.2744141-.3115234.0908203-.0908203.1699219-.1367188.2363281-.1367188.0996094,0,.3613281.1582031.7851562.4736328s.8183594.6474609,1.1845703.9970703c.3652344.3486328.5478516.5820312.5478516.6982422-.1992188.2490234-.53125.4238281-.9970703.5234375v13.3623047c.0332031,2.0605469.0996094,4.0136719.2001953,5.8583984-.1503906.1992188-.4824219.4199219-.9980469.6611328-.5146484.2402344-.9970703.3613281-1.4453125.3613281-.3330078,0-.4990234-.1669922-.4990234-.4990234l.0996094-.3984375v-.4492188h-14.8085938v.5986328Zm0-19.9443359v18.6230469h14.8085938V11.5409307h-14.8085938Zm10.7207031,1.9697266c.0498047-.0664062.1240234-.1699219.2236328-.3115234.1005859-.1416016.1875-.2490234.2617188-.3242188.0751953-.0751953.1455078-.1123047.2119141-.1123047.1005859,0,.3242188.125.6738281.3740234.3486328.2490234.6728516.5195312.9716797.8105469.2998047.2910156.4492188.4941406.4492188.6103516-.0498047.2490234-.2578125.3740234-.6230469.3740234h-4.3134766v1.8203125h2.3681641l.5488281-.7734375c.0498047-.0664062.1328125-.1777344.2490234-.3359375s.2119141-.2744141.2871094-.3496094c.0742188-.0742188.1455078-.1123047.2119141-.1123047.0996094,0,.328125.1337891.6855469.3994141s.6933594.5478516,1.0097656.8476562c.3154297.2988281.4736328.5068359.4736328.6230469-.0664062.265625-.2832031.3984375-.6484375.3984375h-9.0996094c-1.1796875.0175781-2.4267578.1337891-3.7392578.3496094l-.6230469-1.2470703c.9140625.0996094,2.0195312.1669922,3.3154297.2001953h2.4433594v-1.8203125h-1.4707031c-.8320312.0166016-1.6953125.1328125-2.5927734.3486328l-.6230469-1.2207031c.8798828.0996094,1.9443359.1660156,3.1904297.1992188h1.4960938c0-.9970703-.0419922-1.7783203-.125-2.34375,2.0771484.4990234,3.1162109.8642578,3.1162109,1.0966797,0,.0498047-.0498047.1083984-.1494141.1748047l-.3242188.2246094v.8476562h1.6210938l.5234375-.7480469Zm-.3242188,4.8115234c.0498047-.0498047.1201172-.1416016.2119141-.2744141.0908203-.1328125.1699219-.2285156.2363281-.2871094.0664062-.0576172.1328125-.0869141.2001953-.0869141.0996094,0,.3232422.1289062.6728516.3867188.3486328.2578125.6728516.5361328.9716797.8349609.2998047.2988281.4492188.5068359.4492188.6230469-.0332031.0839844-.1123047.1621094-.2373047.2373047-.1240234.0742188-.2695312.1289062-.4355469.1621094v2.5429688c.9970703.78125,1.4951172,1.2626953,1.4951172,1.4453125,0,.0839844-.0742188.125-.2236328.125l-.3994141-.0253906c-.3330078.1835938-.7568359.3828125-1.2714844.5986328l-.7724609.3740234c.8310547.3154297,1.4619141.7226562,1.8945312,1.2216797.2822266.3320312.4238281.6816406.4238281,1.046875,0,.2988281-.0869141.5566406-.2617188.7724609-.1748047.2167969-.3955078.3242188-.6611328.3242188-.3320312,0-.65625-.1904297-.9716797-.5732422-.2832031-.5146484-.7109375-1.0595703-1.2841797-1.6328125s-1.1923828-1.0429688-1.8574219-1.4082031v1.3710938l.0253906.8222656c.015625.6318359.0498047,1.2216797.0996094,1.7705078-.0839844.1826172-.3242188.3652344-.7226562.5478516-.3994141.1835938-.8818359.2744141-1.4462891.2744141-.1992188,0-.3496094-.0498047-.4492188-.1494141s-.1494141-.2158203-.1494141-.3486328c.0664062-.6152344.1162109-1.3964844.1494141-2.34375v-1.4208984c-1.3789062,1.2460938-3.0996094,2.2773438-5.1601562,3.0908203l-.2246094-.3486328c.9638672-.6484375,1.8486328-1.4335938,2.6552734-2.3564453.8056641-.921875,1.4833984-1.8984375,2.0322266-2.9287109h-.8232422v.0996094c0,.0664062-.1035156.1582031-.3115234.2744141s-.4609375.2158203-.7607422.2988281c-.2988281.0830078-.5976562.125-.8974609.125h-.2988281v-2.7675781c0-1.1796875-.0585938-2.1435547-.1748047-2.8916016l2.5683594,1.1220703h5.2597656l.4492188-.6484375Zm-5.8339844,1.3710938v2.3183594h5.5595703v-2.3183594h-5.5595703Zm5.9580078,3.5898438h-.3984375v-.5732422h-1.5458984v1.6699219c.6650391.0664062,1.3710938.1992188,2.1191406.3994141.2988281-.4824219.6318359-1.0556641.9970703-1.7207031-.4482422.1494141-.8388672.2246094-1.171875.2246094Z"/>
    </g>
  </g>
  <g class="cls-1">
    <g class="cls-1">
      <path d="m255.59375,58.3758916c.8232422.6474609,1.234375,1.3378906,1.234375,2.0683594,0,.3496094-.0957031.6357422-.2871094.8603516s-.4111328.3369141-.6601562.3369141c-.4326172,0-.9814453-.3164062-1.6455078-.9472656-.7646484-.7314453-1.3632812-1.2636719-1.7949219-1.5957031-.2490234.8808594-.7568359,1.5703125-1.5205078,2.0693359-.7646484.4980469-1.6708984.7480469-2.7177734.7480469-1.1132812,0-2.0820312-.25-2.9042969-.7480469-.8222656-.4990234-1.234375-1.2216797-1.234375-2.1689453,0-.5986328.2001953-1.1259766.5986328-1.5830078s.9179688-.8105469,1.5585938-1.0595703c.6386719-.25,1.2998047-.3740234,1.9814453-.3740234.5820312,0,1.2460938.0664062,1.9941406.1992188l-.2236328-2.9912109c-.4824219.0664062-1.0224609.0996094-1.6210938.0996094-1.0634766,0-2.0234375-.2539062-2.8789062-.7607422-.8564453-.5068359-1.4423828-1.1757812-1.7578125-2.0068359-.0498047-.1494141-.0751953-.2402344-.0751953-.2744141,0-.0664062.0332031-.0996094.0996094-.0996094.0507812,0,.1083984.0253906.1748047.0751953s.1162109.0830078.1494141.0996094c.0996094.0830078.3447266.1992188.7353516.3486328s.8476562.2832031,1.3710938.3994141c.5244141.1162109,1.0517578.1738281,1.5839844.1738281.6640625,0,1.3789062-.0498047,2.1435547-.1494141,0-.9804688.0576172-2.1347656.1748047-3.4648438-.6650391-.0332031-1.171875-.1416016-1.5214844-.3242188-.3984375-.2158203-.7890625-.5068359-1.1708984-.8730469-.3828125-.3652344-.6650391-.6894531-.8476562-.9716797-.1669922-.2158203-.25-.3740234-.25-.4736328,0-.0498047.0253906-.0751953.0751953-.0751953s.2246094.0664062.5234375.1992188c.3154297.1503906.6611328.2792969,1.0341797.3867188.3740234.1083984.7021484.1621094.9853516.1621094.3486328,0,.8310547-.0576172,1.4453125-.1748047.0830078-.53125.125-.9882812.125-1.3710938,0-.6806641-.1416016-1.2958984-.4238281-1.8447266-.1162109-.2490234-.2285156-.4404297-.3369141-.5732422-.1074219-.1328125-.2324219-.2617188-.3730469-.3867188-.1416016-.1240234-.2119141-.2363281-.2119141-.3359375s.0908203-.1826172.2734375-.25c.1826172-.0654297.3828125-.0996094.5986328-.0996094.3818359,0,.7939453.0839844,1.234375.25.4394531.1660156.8134766.4072266,1.1210938.7226562s.4619141.6816406.4619141,1.0966797c0,.1669922-.0380859.3535156-.1123047.5615234-.0751953.2080078-.1621094.4199219-.2617188.6357422-.2167969.4316406-.3740234.8388672-.4736328,1.2207031.5146484-.1152344.9052734-.2236328,1.171875-.3232422.2490234-.0830078.4570312-.125.6230469-.125.2822266,0,.5107422.0751953.6855469.2246094s.2617188.3486328.2617188.5976562c0,.2666016-.1083984.5361328-.3242188.8105469s-.4736328.4775391-.7724609.6103516c-.5654297.2666016-1.2304688.4658203-1.9951172.5986328-.0332031.3164062-.0664062.7734375-.0996094,1.3710938-.0166016.4160156-.0244141,1.046875-.0244141,1.8945312.7480469-.1992188,1.3212891-.4394531,1.7197266-.7226562.2324219-.1660156.3496094-.3320312.3496094-.4980469,0-.1162109-.0498047-.25-.1503906-.3994141-.0996094-.1494141-.2080078-.2910156-.3232422-.4238281-.1171875-.1328125-.2167969-.2578125-.2998047-.3740234-.1660156-.2158203-.2490234-.3486328-.2490234-.3984375s.0244141-.0751953.0751953-.0751953c.0322266,0,.0947266.0371094.1865234.1123047.0908203.0751953.1621094.1289062.2119141.1621094.265625.1992188.5693359.3574219.9101562.4736328.3398438.1162109.6767578.1826172,1.0097656.1992188.1328125.0166016.2451172.0214844.3359375.0126953.0917969-.0078125.1787109-.0039062.2617188.0126953.3330078,0,.5986328.1083984.7978516.3242188.1162109.1162109.1748047.3408203.1748047.6728516,0,.3828125-.1044922.7558594-.3115234,1.1220703-.2080078.3652344-.5361328.6474609-.9853516.8476562-.9472656.4482422-2.1435547.8144531-3.5898438,1.0966797.0830078.6152344.265625,1.4794922.5488281,2.5927734.1328125.4824219.2324219.8974609.2988281,1.2460938,1.2636719.4326172,2.3066406.9726562,3.1289062,1.6210938Zm-6.1074219,1.1337891c.5068359-.4570312.7763672-1.0263672.8095703-1.7080078-.6972656-.2822266-1.4453125-.4238281-2.2431641-.4238281-.8642578,0-1.5791016.1289062-2.1445312.3867188-.5644531.2578125-.8476562.6191406-.8476562,1.0849609,0,.3154297.1835938.6191406.5488281.9091797.3652344.2910156,1.0224609.4365234,1.9697266.4365234.7636719,0,1.3994141-.2285156,1.9072266-.6855469Z"/>
      <path d="m284.1132812,42.6571416c.4238281.1914062.7773438.4365234,1.0595703.7353516s.4238281.6152344.4238281.9472656c0,.2988281-.0996094.5488281-.2988281.7480469s-.4492188.2988281-.7480469.2988281c-.1826172,0-.5234375-.0498047-1.0224609-.1494141-.2490234-.0498047-.5273438-.0996094-.8349609-.1494141s-.6269531-.0751953-.9599609-.0751953c-.4814453,0-1.0878906.0917969-1.8193359.2744141-.7480469.2333984-1.4169922.8564453-2.0068359,1.8701172-.5908203,1.0136719-1.0517578,2.1777344-1.3837891,3.4902344-.3330078,1.3125-.4990234,2.484375-.4990234,3.5146484,0,1.0644531.0830078,1.890625.25,2.4804688.1660156.5908203.4482422,1.0146484.8476562,1.2714844.3984375.2578125.9628906.3867188,1.6953125.3867188l.6230469-.0498047c.7480469-.0498047,1.1630859-.0751953,1.2460938-.0751953.7148438,0,1.2626953.1416016,1.6455078.4238281.3818359.2832031.5732422.6318359.5732422,1.046875,0,.9482422-1.0722656,1.421875-3.2158203,1.421875-2.1103516,0-3.6435547-.5322266-4.5996094-1.5957031s-1.4335938-2.7011719-1.4335938-4.9111328c0-2.1445312.5117188-4.0429688,1.5332031-5.6972656,1.0224609-1.6533203,2.3222656-2.9619141,3.9013672-3.9257812h-.3486328c-.6152344.0332031-1.4541016.2578125-2.5175781.6728516-1.0644531.4160156-2.1611328.9638672-3.2910156,1.6455078-.4160156.2490234-.7978516.5234375-1.1464844.8222656-.4658203.3662109-.8603516.6357422-1.1845703.8105469s-.7109375.2617188-1.1591797.2617188c-.4326172,0-.8564453-.1533203-1.2714844-.4609375-.4160156-.3076172-.7724609-.6816406-1.0722656-1.1220703-.2988281-.4404297-.4902344-.8349609-.5732422-1.1845703-.0332031-.1992188-.0498047-.3154297-.0498047-.3486328,0-.0664062.0166016-.1201172.0498047-.1621094.0332031-.0410156.0751953-.0625.125-.0625.0830078,0,.1904297.0419922.3242188.125.3486328.2324219.7470703.3486328,1.1962891.3486328.1494141,0,.3242188-.015625.5234375-.0498047.2490234-.0498047.9472656-.265625,2.09375-.6484375,1.6289062-.5478516,3.1328125-1.0214844,4.5126953-1.4208984,1.3798828-.3984375,2.6503906-.6894531,3.8144531-.8720703.3984375-.0498047.7929688-.1376953,1.1835938-.2617188.390625-.125.6357422-.203125.7363281-.2373047.4150391-.1494141.7558594-.2568359,1.0214844-.3242188.265625-.0654297.5322266-.0996094.7978516-.0996094.4150391,0,.8349609.0957031,1.2587891.2871094Zm-1.4833984,9.3857422c-.2324219-.1660156-.3984375-.40625-.4980469-.7226562-.2333984-.6640625-.4453125-1.1923828-.6357422-1.5830078-.1914062-.390625-.4951172-.7763672-.9101562-1.1591797-.0664062-.0498047-.1660156-.125-.2988281-.2246094-.1337891-.0996094-.1992188-.1826172-.1992188-.2490234,0-.0830078.0576172-.125.1738281-.125.2822266,0,.7734375.1123047,1.4707031.3369141.6982422.2246094,1.3378906.5693359,1.9199219,1.0341797.5820312.4658203.8730469,1.046875.8730469,1.7451172,0,.3994141-.1210938.6982422-.3623047.8974609-.2412109.2001953-.5029297.2998047-.7851562.2998047-.265625,0-.5146484-.0830078-.7480469-.25Zm2.9423828-1.6953125c-.2333984-.1660156-.4072266-.3818359-.5234375-.6474609-.3164062-.6484375-.5820312-1.1259766-.7978516-1.4335938-.2167969-.3076172-.5908203-.6523438-1.1220703-1.0351562-.0830078-.0498047-.1953125-.1240234-.3369141-.2236328-.140625-.1005859-.2119141-.1748047-.2119141-.2246094,0-.0996094.125-.1494141.3740234-.1494141.3496094,0,.8769531.0830078,1.5830078.2490234s1.3544922.4609375,1.9453125.8847656c.5888672.4238281.8847656.9853516.8847656,1.6826172,0,.3662109-.1162109.6484375-.3496094.8476562-.2324219.2001953-.4814453.2998047-.7470703.2998047-.2333984,0-.4658203-.0830078-.6982422-.25Z"/>
      <path d="m299.0341797,42.0712041c-.8642578.9140625-1.9277344,1.8369141-3.1904297,2.7675781-1.2636719.9306641-2.5517578,1.7119141-3.8642578,2.3427734l-.2246094-.2744141c.8808594-.8798828,1.703125-1.8691406,2.4677734-2.9658203.4990234-.6982422.9511719-1.4501953,1.359375-2.2568359.40625-.8056641.7011719-1.5332031.8847656-2.1806641l1.8701172,1.2958984c.9472656.515625,1.4208984.8564453,1.4208984,1.0224609,0,.0830078-.0917969.1416016-.2744141.1738281l-.4492188.0751953Zm-1.4208984,14.2597656c.0332031,2.0615234.0996094,4.0136719.1992188,5.8583984-.1328125.2158203-.4404297.4443359-.921875.6855469-.4824219.2412109-.9814453.3623047-1.4960938.3623047-.2324219,0-.4199219-.0507812-.5605469-.1503906-.1416016-.0996094-.2119141-.2158203-.2119141-.3486328.0664062-.9804688.1240234-1.9316406.1738281-2.8544922.0507812-.9228516.0830078-2.1318359.1005859-3.6269531v-3.8398438c-.9814453.9472656-1.953125,1.7539062-2.9169922,2.4189453l-.2246094-.25c1.1630859-1.4951172,2.2685547-3.3232422,3.3154297-5.484375.3652344-.7480469.6894531-1.5244141.9726562-2.3310547.2822266-.8056641.4814453-1.5498047.5986328-2.2314453,1.2958984.6650391,2.1972656,1.1552734,2.7041016,1.4707031.5068359.3164062.7607422.5322266.7607422.6484375,0,.0664062-.0751953.1162109-.2246094.1494141l-.4482422.0996094c-.5820312.8818359-1.2216797,1.7539062-1.9199219,2.6181641l.8476562.3242188c-.0996094.2158203-.3486328.3740234-.7480469.4736328v6.0078125Zm17.0771484,3.3154297v.2744141c-.3984375.0996094-.7021484.390625-.9101562.8730469-.2080078.4814453-.3027344,1.0634766-.2861328,1.7451172h-2.3183594c-1.5791016,0-2.9091797-.1914062-3.9892578-.5732422-1.0800781-.3828125-1.9863281-1.0517578-2.7177734-2.0068359-.7314453-.9560547-1.3046875-2.2724609-1.7197266-3.9521484-.9638672,3.1748047-2.484375,5.5683594-4.5625,7.1796875l-.2236328-.2236328c1.1298828-1.7792969,1.9101562-4.0722656,2.3427734-6.8808594.1494141-.9472656.2246094-1.9697266.2246094-3.0664062,0-.6982422-.0419922-1.3623047-.125-1.9941406,1.4296875.2158203,2.4140625.3945312,2.9541016.5361328.5400391.140625.8105469.2695312.8105469.3857422,0,.0498047-.0664062.1162109-.1992188.1992188l-.4492188.25c-.1162109.8476562-.3076172,1.7949219-.5732422,2.8417969.5986328,1.4130859,1.4208984,2.4677734,2.46875,3.1660156v-4.1386719c0-2.0771484-.1083984-3.7724609-.3242188-5.0849609h-1.7949219c-1.1806641.0166016-2.4267578.1328125-3.7402344.3486328l-.6230469-1.2714844c.9140625.0996094,2.0195312.1660156,3.3154297.1992188h2.6933594v-3.7890625h-1.5957031c-.9316406.0166016-1.8945312.1328125-2.8925781.3486328l-.6230469-1.2714844c.9140625.1005859,2.0195312.1669922,3.3154297.2001953h1.7958984c0-1.7119141-.0839844-3.1162109-.25-4.2138672,1.3300781.2998047,2.2519531.5361328,2.7675781.7109375.5146484.1748047.7724609.3203125.7724609.4365234,0,.0498047-.0585938.1162109-.1738281.1992188l-.3740234.2490234v2.6181641h2.21875l.6230469-.9228516c.0830078-.0996094.1865234-.2402344.3115234-.4238281.125-.1826172.2246094-.3154297.2988281-.3984375.0751953-.0830078.1455078-.125.2119141-.125.0996094,0,.3574219.1582031.7734375.4736328.4150391.3164062.8017578.6523438,1.1591797,1.0097656s.5361328.5947266.5361328.7099609c-.0673828.2666016-.2832031.3994141-.6484375.3994141h-5.484375v3.7890625h2.8164062l.6484375-.9716797c.0664062-.0830078.1660156-.2246094.2988281-.4238281.1328125-.2001953.2412109-.3447266.3242188-.4365234.0830078-.0908203.1582031-.1367188.2246094-.1367188.0996094,0,.3652344.1699219.7978516.5107422.4316406.3408203.8349609.6943359,1.2089844,1.0595703s.5605469.6064453.5605469.7226562c-.0664062.2666016-.2910156.3994141-.6728516.3994141h-8.7001953c2.359375.5146484,3.5400391.9052734,3.5400391,1.1708984,0,.0498047-.0585938.1171875-.1748047.2001953l-.3740234.2490234v2.9667969h1.6210938l.6230469-.9472656c.0830078-.0996094.1865234-.2412109.3115234-.4238281.1240234-.1826172.2246094-.3154297.2988281-.3994141.0751953-.0830078.1455078-.1240234.2119141-.1240234.0996094,0,.3574219.1582031.7734375.4736328.4150391.3154297.8007812.6523438,1.1591797,1.0097656.3564453.3574219.5351562.59375.5351562.7099609-.0664062.2666016-.2822266.3994141-.6474609.3994141h-4.8867188v4.9609375c.9472656.1494141,2.0195312.2236328,3.2158203.2236328h3.2910156Z"/>
      <path d="m338.4238281,46.2840948c.4814453.3662109.9345703.7441406,1.3583984,1.1347656s.6357422.6445312.6357422.7597656c-.0664062.2666016-.2910156.3994141-.6728516.3994141h-11.9169922c2.2773438.4980469,3.4160156.8642578,3.4160156,1.0966797,0,.0839844-.0498047.1494141-.1503906.1992188l-.3730469.25v4.4121094c0,.7148438-.0878906,1.2880859-.2617188,1.7207031-.1748047.4316406-.5283203.7763672-1.0595703,1.0341797-.5322266.2578125-1.3134766.4277344-2.34375.5107422-.0498047-.4814453-.1123047-.8681641-.1875-1.1591797-.0742188-.2900391-.203125-.5273438-.3857422-.7099609-.1992188-.1992188-.453125-.3740234-.7607422-.5234375-.3076172-.1503906-.7441406-.2744141-1.3085938-.3740234v-.3242188c1.6953125.1162109,2.7001953.1748047,3.0166016.1748047.1660156,0,.2822266-.0292969.3486328-.0878906.0664062-.0576172.0996094-.1621094.0996094-.3115234v-2.8916016c0-1.2128906-.0585938-2.21875-.1738281-3.0166016h-5.3847656c-1.1806641.0166016-2.4277344.1328125-3.7402344.3486328l-.6474609-1.2714844c.8134766.0996094,1.7949219.1669922,2.9414062.2001953h1.3955078v-1.1972656c0-2.09375-.1074219-3.796875-.3232422-5.1103516,2.3759766.515625,3.5644531.8896484,3.5644531,1.1220703,0,.0664062-.0585938.1328125-.1748047.1992188l-.3984375.2490234v4.7373047h2.9414062v-3.0664062c0-2.0947266-.1083984-3.7978516-.3242188-5.1113281,1.4462891.2998047,2.4433594.5361328,2.9921875.7109375.5478516.1748047.8222656.3203125.8222656.4365234,0,.0664062-.0585938.140625-.1738281.2236328l-.4238281.2744141v2.4433594h2.6171875l.7480469-1.046875c.0830078-.1162109.1992188-.2744141.3486328-.4736328.1503906-.2001953.2705078-.3496094.3613281-.4492188.0917969-.0996094.1708984-.1494141.2373047-.1494141.0996094,0,.3945312.1787109.8847656.5361328s.9511719.7314453,1.3837891,1.1220703c.4316406.390625.6484375.6435547.6484375.7597656-.0498047.2666016-.2744141.3994141-.6728516.3994141h-6.5566406v3.390625h5.0605469l.7724609-1.0478516c.0830078-.1152344.1992188-.2734375.3496094-.4736328.1494141-.1992188.2695312-.3486328.3613281-.4482422.0908203-.0996094.1699219-.1494141.2363281-.1494141.0996094,0,.390625.1826172.8730469.5478516Zm-12.5898438,5.1113281c-.8974609,1.1132812-2.0068359,2.1767578-3.328125,3.1904297-1.3212891,1.0146484-2.7382812,1.8203125-4.2509766,2.4179688l-.1992188-.2734375c1.0136719-.8310547,2.0107422-1.9199219,2.9921875-3.2666016.4814453-.6474609.9179688-1.3828125,1.3085938-2.2060547.3896484-.8222656.6689453-1.5742188.8349609-2.2558594l1.8701172,1.171875c.9628906.4648438,1.4453125.7890625,1.4453125.9716797,0,.0839844-.0830078.1416016-.2490234.1748047l-.4238281.0751953Zm9.5976562,2.5419922c.9638672.4990234,1.4462891.8320312,1.4462891.9980469,0,.0664062-.1083984.1162109-.3242188.1494141l-.5478516.0498047c-1.4628906,1.8613281-3.0214844,3.3447266-4.6748047,4.4501953-1.6542969,1.1054688-3.4199219,1.9277344-5.2978516,2.4677734s-4.0380859.9257812-6.4814453,1.1591797l-.0996094-.3984375c2.3427734-.5820312,4.4082031-1.296875,6.1953125-2.1445312,1.7861328-.8476562,3.3857422-1.9609375,4.7988281-3.3408203.5810547-.5644531,1.1835938-1.3125,1.8076172-2.2431641.6230469-.9306641,1.0507812-1.7207031,1.2832031-2.3681641l1.8945312,1.2207031Zm-2.6923828-4.0878906c1.6123047.1660156,2.9375.4902344,3.9765625.9716797,1.0390625.4824219,1.7949219,1.0263672,2.2685547,1.6337891.4736328.6064453.7109375,1.1923828.7109375,1.7568359,0,.4160156-.1210938.7607422-.3613281,1.0351562-.2412109.2744141-.5615234.4111328-.9599609.4111328-.2832031,0-.5576172-.0664062-.8232422-.1992188-.4482422-.8974609-1.1464844-1.8447266-2.09375-2.8427734-.9472656-.9970703-1.9111328-1.8447266-2.8916016-2.5419922l.1738281-.2246094Z"/>
    </g>
  </g>
  <g class="cls-1">
    <g class="cls-1">
      <path class="cls-2" d="m158.8583984,53.7377081l16.8671875-49.7055664,7.496582-.1630859c2.3349609,0,5.7304688.0981445,10.1855469.2929688,2.6606445.1308594,4.3720703.1958008,5.1333008.1958008,5.7041016,0,9.2890625-.1625977,10.7558594-.4887695.7602539-.2163086,1.4389648-.7460938,2.0371094-1.5888672.597168-.8417969,1.4121094-1.2631836,2.4448242-1.2631836h1.5478516l-3.0986328,10.4111328c-.4892578,1.6396484-.9790039,2.7324219-1.4682617,3.2783203-2.7182617.4355469-5.4912109.6518555-8.3178711.6518555-2.9355469,0-8.1826172-.1347656-15.7387695-.4072266-3.9140625-.1630859-7.2573242-.2446289-10.0302734-.2446289l-8.5180664,25.0996094c3.0952148-.9243164,5.7016602-1.3876953,7.8203125-1.3876953,6.2998047,0,11.5415039,2.078125,15.7226562,6.2338867,4.1811523,4.1552734,6.2729492,9.4658203,6.2729492,15.9301758,0,8.0405273-2.7578125,16.0805664-8.2705078,24.1196289-5.5141602,8.0400391-13.8666992,14.5322266-25.0566406,19.4746094-7.659668,3.3691406-17.628418,5.2421875-29.9047852,5.6230469-.109375-.7617188-.1630859-1.4140625-.1630859-1.9560547,0-.5966797.1899414-1.1679688.5703125-1.7109375,3.5307617,0,8.4199219-.7197266,14.6674805-2.1591797,6.2460938-1.4394531,12.0722656-3.9648438,17.4785156-7.578125,5.4042969-3.6123047,9.9941406-8.6376953,13.7705078-15.0751953,3.7753906-6.4365234,5.6630859-12.3710938,5.6630859-17.8037109,0-4.3461914-1.3173828-7.9047852-3.9516602-10.675293-2.6357422-2.7705078-5.9892578-4.1557617-10.0634766-4.1557617-3.8027344,0-8.4208984,1.6845703-13.8520508,5.0522461Z"/>
    </g>
  </g>
  <g class="cls-1">
    <g class="cls-1">
      <path class="cls-2" d="m368.4462891,108.741126c.0537109-1.4648438.2851562-2.4287109.6923828-2.8896484s1.453125-.9091797,3.1367188-1.3447266c6.8447266-1.7363281,14.2050781-5.8212891,22.0830078-12.2529297,7.8759766-6.4326172,14.3535156-13.2705078,19.4335938-20.5175781,5.0791016-7.2470703,9.859375-16.2993164,14.3417969-27.1552734,4.4814453-10.8554688,6.7216797-19.1337891,6.7216797-24.8325195,0-4.2880859-.9775391-7.5717773-2.9326172-9.8520508-1.9560547-2.2788086-4.265625-3.4199219-6.9267578-3.4199219-4.1289062,0-8.6240234,1.8041992-13.4853516,5.4111328-4.8623047,3.6069336-9.0449219,9.1391602-12.5488281,16.5961914-3.5039062,7.4584961-5.2558594,13.9794922-5.2558594,19.5649414,0,2.8217773.8154297,5.1542969,2.4443359,6.9975586,1.6298828,1.84375,3.4492188,2.765625,5.4599609,2.765625,1.3574219,0,2.9189453-.2578125,4.6855469-.7744141,1.7646484-.515625,3.4082031-1.2900391,4.9296875-2.3222656.3261719,0,.5703125.1367188.7333984.4072266.3251953.4892578.4882812,1.1962891.4882812,2.1191406,0,1.1953125-.7607422,2.2548828-2.28125,3.1777344-3.0429688,1.902832-6.8730469,2.8520508-11.4892578,2.8520508-2.6074219,0-5.1474609-.6914062-7.6191406-2.0756836-2.4726562-1.3828125-4.4140625-3.5664062-5.8261719-6.550293-1.4130859-2.9833984-2.1181641-6.2109375-2.1181641-9.684082,0-11.2827148,4.8613281-21.5908203,14.5859375-30.921875,8.3642578-7.9204102,16.7578125-11.8813477,25.1787109-11.8813477,6.2460938,0,11.2441406,2.0498047,14.9931641,6.1479492,3.7480469,4.0986328,5.6220703,10.2724609,5.6220703,18.5224609,0,4.7773438-.5166016,9.2827148-1.5478516,13.5161133-1.9023438,7.5463867-5.0117188,15.050293-9.3300781,22.5146484-4.3193359,7.4628906-9.8466797,14.3984375-16.5820312,20.8037109-5.1074219,4.8857422-10.7841797,9.3916016-17.0302734,13.5166016-8.0947266,5.265625-14.7773438,8.6572266-20.0449219,10.1767578-3.5322266.9775391-5.5410156,1.5742188-6.0302734,1.7910156-1.0322266.4345703-1.7392578.6523438-2.1181641.6523438-.5439453,0-1.3320312-.3535156-2.3632812-1.0585938Z"/>
    </g>
  </g>
</svg>