<?xml version="1.0" encoding="UTF-8"?>
<svg id="_レイヤー_2" data-name="レイヤー 2" xmlns="http://www.w3.org/2000/svg" viewBox="0 0 428.3709453 144.5765076">
  <defs>
    <style>
      .cls-1 {
        fill: #e1dcd6;
      }

      .cls-2 {
        fill: #002a37;
      }

      .cls-3 {
        fill: none;
        stroke: #000;
        stroke-linecap: round;
        stroke-linejoin: round;
        stroke-width: 1.063095px;
      }
    </style>
  </defs>
  <g id="_レイヤー_3" data-name="レイヤー 3">
    <g>
      <path class="cls-1" d="m303.4547968,114.2430692c.8784593,0,1.5356273,1.2551015,1.3143361,2.510203-.1106456.6275508-.4727586,1.2551015-1.1662497,1.6317437-5.5082528,2.7605528-10.5213942,4.141388-14.7885159,4.141388-8.9120031,0-15.4479191-5.6479568-20.6700579-15.1863931-.0597933-.3766422-.1402629-.6275508-.3917303-.6275508-.1251749,0-.2503497,0-.5465224.2509085-1.9860333,2.0078271-15.9463833,15.688769-31.8871785,15.688769-13.9335268,0-22.5962979-10.6683629-20.3833851-23.2188193,1.4383933-8.1581599,7.4255516-17.1953379,19.3998684-24.6002133,1.9793275-1.2551015,3.4708083-1.8826523,5.4266656-3.0120201.4207887-.2509085.7164026-.5018171.7387552-.6275508.0441465-.2514674-.1849682-.3766422-.3911714-.6281096-3.7295403-3.7653046-6.7136196-8.9108855-5.4076658-16.3157609,1.4160406-8.0324262,9.4115849-14.9354846,19.3283399-14.9354846,10.5437469,0,14.657194,7.2791418,13.6395894,13.0528323-1.5495977,8.7857106-8.0234851,14.1822001-16.1889096,17.0696042l-.0223527.1251749c-.0664991.3766422.2218501.8784593.657168,1.2551015,6.9047348,6.4012413,13.2037127,14.8103097,19.5479547,25.1020304.2073209.2509085.4364356.3760834.5616104.3760834s.2514674,0,.3989949-.1251749c8.3051286-8.659977,22.65665-25.9804897,23.2098782-29.1188023.5308755-3.0114613-4.89579-2.1335608-7.3394939-2.5096442-.8572243-.1257337-1.2852776-1.2551015-1.086339-2.3844694.1771448-1.004193.9812815-2.008386,2.3626755-2.008386.1251749,0,3.3445158.2509085,7.8642225.2509085,4.3922965,0,9.9597838-.2509085,15.408802-1.2545427h.2514674c1.1299267,0,1.5574212,1.1293678,1.3584825,2.2587357-.1547921.8784593-.7085791,1.8826523-1.8815346,2.1335608-5.0734936,1.004193-6.6750613,2.2592945-10.0782529,5.8994242-9.3836441,9.7893448-17.3339243,20.7086163-27.1523276,30.1218777-.170439.2509085-.3403192.5018171-.362113.6275508-.0441465.2509085.0363231.5018171.2436439.7527256,4.4833836,8.0324262,10.3615727,14.5594012,20.0268603,14.5594012,2.3850282,0,4.9617304-.3766422,7.753018-1.2551015h.2514674Zm-60.0146406-39.7866064c-.1262925,0-.2514674,0-.3984361.1257337-3.3674273,2.0078271-15.9480598,9.2875277-18.1833252,21.9637178-1.792124,10.1665458,5.3707839,17.9480635,15.9156484,17.9480635,11.9240233,0,24.2090419-11.2959137,24.3861866-12.3001067.486729-2.7605528-15.4216548-23.5954615-20.5532653-27.2355912-.3101431-.3760834-.7901663-.5018171-1.1668085-.5018171Zm5.2629324-7.7815177s8.2620997-2.008386,10.2760738-13.4289157c.9958107-5.6485157-.6364918-9.9156373-6.0335401-9.9156373-5.2718734,0-9.228852,4.6437639-10.2246627,10.2917207-1.040516,5.8988654,2.6515836,11.2953549,5.6066044,13.0528323h.3755246Z"/>
      <g>
        <path d="m15.3275493,1.7915344h-5.1924438v2.5810242h2.6569824l.4402466-.4554749c.0151978-.0151978.1062622-.091095.1670532-.091095.0303345,0,.0606689.0151672.2125244.12146l.6983643.5010071c.0303955.0303955.1670532.1366577.1670532.2429199,0,.06073-.0303955.1062927-.1062622.1670227-.12146.091095-.3340454.2580872-.4555054.3492126-.0303345.5161743-.0455322,1.0324097-.0455322,1.8826294,0,1.7004395.0758667,3.7348633.1669922,5.4353027,0,.0759277.0151978.3947754.0151978.4706726,0,.5465698-.5921631.5617371-.6832275.5617371-.3339844,0-.3643799-.2277222-.3643799-.3947144v-.3947754H4.2442973c0,.1366577,0,.5010376-.0303345.6072998-.06073.1973877-.3492432.3795776-.6376953.3795776-.3339844,0-.3339844-.2429199-.3339844-.3340149,0-.0455627.0910645-1.1083069.1062622-1.3208923.0303345-.8502197.0455322-3.780426.0455322-4.5699158,0-2.353302,0-2.8846741-.2277222-3.8563538l1.2753296.6983948h2.1710815V1.7915344h-2.5354614c-.3036499,0-1.2297974.030365-1.9433594.1821899l-.3643799-.6680298c.7894897.0759277,1.7307739.12146,2.5203247.12146h9.2157593l.5465698-.6983948c.12146-.1670227.1821899-.1973572.2277222-.1973572.0759277,0,.2277222.12146.2884521.1669922l.8502197.6983948c.06073.06073.1518555.12146.1518555.2277527,0,.1669922-.1670532.1669922-.2429199.1669922Zm-2.322937,2.9454041h-2.8695068v3.8108215c0,.2884521,0,.3188171.0303955.3643799.0759277.1669922.5313721.1821899.6983643.1821899.5162354,0,.713623,0,.8502197-.3036499.1669922-.3795776.2429199-.9565125.2884521-1.2753296h.1366577c.1821899.9868469.1973877,1.0931396.4251099,1.366394.1669922.1973877.2125854.2884827.2125854.3643799,0,.1670227-.1821899.3795776-.3491821.4706726-.4099731.2125549-1.1083374.2125549-1.3512573.2125549-1.609375,0-1.7915649-.1973877-1.7915649-.835022v-4.3573914h-1.8218994c-.06073,2.8543091-.774292,4.3877258-2.7631836,5.7086182l-.12146-.1062927c1.3815918-1.366394,2.0344238-2.8087463,2.0344238-5.6023254h-2.3684692v7.6671448h8.7603149v-7.6671448Zm-3.7197266-2.9454041h-1.8218994v2.5810242h1.8218994V1.7915344Z"/>
        <path d="m30.4004863,13.8768005c-.4555054,0-1.6853027-.6224976-2.4747925-1.5486145-2.0648193-2.3684692-2.4291992-5.0102234-2.6265259-7.4697876h-3.21875l.4251709.091095c.12146.030365.2125244.06073.2125244.151825,0,.1670227-.2429199.3340149-.4251099.3795471v2.322937h1.1842651l.3643799-.6376648c.0910645-.151825.1365967-.1821899.1973267-.1821899.0759277,0,.1062622.0151672.3036499.1973572l.652832.5921326c.0911255.091095.1518555.1366272.1518555.2429199,0,.1366272-.1366577.151825-.2429199.151825h-2.6113892v3.7804565c.1062622-.0151978.1821899-.0303955.4706421-.0759277,1.0476074-.1973877,2.0952148-.3947449,3.1428223-.5769348v.091095c-.7591553.3795776-5.9364014,1.7156372-7.151001,2.0040894-.1517944.3188477-.1669922.3491821-.3339844.3491821-.0759277,0-.1518555-.0303345-.1973877-.12146l-.6680298-1.1690369c.2125854.0455627.3036499.06073.5161743.06073.2429199,0,.4555054-.0151672,1.0172729-.091095-.0455933-2.5658569-.0455933-2.8239441-.06073-5.2227783,0-.5313721-.0455322-.6983948-.1366577-.9868774l1.2905273.4251099c.1517944.0455627.2125244.06073.2125244.1518555,0,.0455322-.0758667.2884521-.5313721.3947144-.0151978.2733154-.0151978.4858398-.0151978.6376953,0,.5161743-.0151367,4.3573608-.0151367,4.5091858.2580566-.030365.6983643-.091095,1.7004395-.2429199v-7.2268677h-1.9433594c-.5314331,0-1.3664551.06073-1.9433594.1821899l-.3643799-.6680298c1.1386719.1062927,2.2469482.12146,2.5202637.12146h5.4656982c-.0910645-1.1235046-.1669922-2.0951843-.2125244-2.9909363-.0303955-.7439575-.0911255-.9868774-.1366577-1.1842651l1.4575195.4099426c.0910645.030365.1973267.0758972.1973267.2125549,0,.1973877-.2277222.3188477-.5313721.4706421-.0303345.3492126-.0455322.8350525-.0455322,1.5182495,0,.7591553.0303955,1.3057251.0455322,1.5638123h2.8239746l.4251099-.7591248c.0455322-.0759277.12146-.1973877.2125244-.1973877.12146,0,.1973877.0759277.3036499.1821899l.7591553.7287598c.12146.12146.1517944.1821899.1517944.2429199,0,.1670227-.1669922.1670227-.2277222.1670227h-4.4180908c.2125244,2.6872864.6680298,4.4332886,1.7155762,6.0274353.6984253,1.0628052,1.609375,1.4575195,1.8674927,1.4575195.1821899,0,.2732544-.1517944.3795776-.3339844.0303345-.0759277.4554443-.8654175.6072998-1.2449951l.1062622.0151978c-.1062622.7894897-.1670532,1.6700745-.1670532,1.7915344,0,.1973572.0151978.2125549.182251.4706726.0606689.0910645.1365967.2884521.1365967.3947144,0,.0151978,0,.4403076-.5009766.4403076Zm-6.315918-11.3717041h-3.036499c-.5466309,0-1.3816528.06073-1.9585571.1670227l-.3643799-.6528625c1.1386719.0911255,2.2470093.12146,2.5354614.12146h1.3967896l.3947144-.5161743c.1366577-.1821899.1518555-.1973877.2277832-.1973877s.2277222.1062622.2884521.151825l.5921021.5314026c.0911255.0758972.1518555.12146.1518555.2277222,0,.1366577-.12146.1669922-.2277222.1669922Zm4.6761475.6832275c-.2429199,0-.4402466-.1973877-.6831665-.6072998-.3188477-.5162048-.6072998-.9413147-1.1842651-1.3664246v-.091095c1.5638428.1821899,2.2926025.9109497,2.2926025,1.5182495,0,.2732849-.1518555.5465698-.4251709.5465698Z"/>
        <path d="m33.7980693,5.9819031c-.3340454,0-.3795776-.12146-.6376953-.7287598-.3947754-.895752-.5617676-1.0172119-.9412842-1.3056946v-.1062927c.5161743.1062927,2.0799561.5010376,2.0799561,1.5638123,0,.1973572-.0910645.5769348-.5009766.5769348Zm.8046265,2.8087769c-.3643799,1.0779419-.4099121,1.1842041-.4099121,1.6245117,0,.3795776.0303345.5617676.2125854,1.2753296.12146.4554749.2580566,1.0172119.2580566,1.4271545,0,.6983948-.5009766.7894897-.6376343.7894897-.2125854,0-.5769653-.151825-.5769653-.865387,0-.2429199.12146-1.3057251.12146-1.5334473,0-.8046875-.1062622-1.2905273-1.1842041-1.6700745v-.091095c.2429199-.030365.5313721-.091095.7894897-.151825.2429199-.06073.4554443-.3947449.774292-1.0172424.4858398-.9564819,1.0628052-2.4291992,2.0800171-4.9646606l.0759277.06073c-.2885132,1.1235046-.774353,3.006134-1.5031128,5.1165161Zm.4858398-6.1792908c-.2884521,0-.3187866-.030365-.8046265-.9868469-.3643799-.6984253-.5010376-.8198853-.8046875-1.1235352l.0303345-.0758972c.6528931.1821899,2.0952148.6376648,2.0952148,1.5941467,0,.2733154-.1366577.5921326-.5162354.5921326Zm9.0791626,10.7795715c-.5313721.06073-1.5334473.06073-3.7956543.06073h-.8502197c-2.0799561,0-2.2166138-.7439575-2.2166138-2.6417542,0-.4402771.0151978-2.4443665.0151978-2.8391418,0-.2580872.0151367-1.609314.0151367-1.7763367-.4706421.1973572-.6072998.2580872-1.0172119.4858398l-.5465698-.5010071c.713562-.1821899,1.4575195-.3947754,1.5637817-.4251099,0-.4251099.0151978-2.2774048,0-2.6569519-.06073-.8957825-.1062622-1.0931396-.1973877-1.3208923l1.3816528.4706726c.12146.0455627.1973267.0758972.1973267.1973572,0,.1670227-.0910645.2277527-.4858398.5314026,0,.4099426-.0455322,2.1559143-.0455322,2.5202942l2.0952148-.6983948c0-.5314026.0151367-3.036499,0-3.3705139-.0303955-.774292-.0911255-.9868774-.1821899-1.2601318l1.3815918.4251099c.1517944.0455322.2429199.0758972.2429199.1821899,0,.1517944-.3491821.4099121-.5313721.5313721-.0151978.3643799-.0151978.4403076-.0151978,1.1538696v2.0344543l2.1103516-.7135925.3492432-.5010071c.0910645-.12146.1517944-.2125549.2125244-.2125549.0759277,0,.1973877.0759277.2429199.1062622l.6983643.4251099c.0911255.0455627.1670532.1062927.1670532.1973877,0,.0759277-.0759277.151825-.12146.1973877-.06073.0758972-.2733154.2580872-.3643799.3643799,0,.0910645.0758667,3.3856812-.0759277,4.3269958-.0759277.4099426-.2732544.8805847-.6072998,1.1994324-.2125854.1973572-.3340454.2580872-.8046875.4858398-.3187866-.6376953-.7590942-1.0020752-1.2449341-1.1994324v-.1062927c.2732544.0455627.8805542.0759277,1.1690674.0759277.2277222,0,.5161743,0,.652832-.6224976.1365967-.5617371.12146-2.0192566.12146-2.7024536,0-1.1235352-.0151978-1.4271851-.0455322-1.7611694l-2.4595947.8198242c0,.12146-.0151978,1.1994324-.0151978,1.3664551,0,.2732544.0759277,4.1599731.0759277,4.4332886,0,.5617371-.6832275.6680298-.713562.6680298-.2581177,0-.3188477-.2429199-.3188477-.4706726,0-.091095.0151978-.2580872.0303955-.3947449.0455322-.6072998.0455322-1.8067017.0455322-2.4595642v-2.8391418l-2.1103516.6984253c-.0455933,1.8674316-.060791,2.6265564-.060791,3.2034912,0,2.0344543.0303955,2.5354614.0759277,2.8087769.0911255.4706421.2733154.622467.6072998.683197.2733154.06073,2.6417847.0758972,3.036499.0758972,1.9282227,0,2.3381348-.1062622,2.6873169-.4858398.3036499-.3339844.3947144-.683197.7894897-2.1862793h.0910645c.1518555,1.4119873.1973877,1.8674622.3037109,1.9585571.2429199.2125549.2884521.2732849.2884521.4251099,0,.3643799-.6832275.895752-1.8218994,1.0324097Z"/>
        <path d="m51.8771098,1.3967896c-.3036499.3947449-.6832275.8957825-1.0931396,1.3816223l.3947144.1669922c.1821899.0759277.2277832.12146.2277832.1821899,0,.0759277-.0303955.1062622-.3795776.4251099v1.6852417c0,.2733154.0303345,1.5334473,0,1.7004395-.0303955.2581177-.2885132.4099426-.5465698.4099426-.2884521,0-.2884521-.1973572-.2884521-.2732849,0-.1973877.0455322-1.5941772.0606689-1.8978271.0151978-.3188171.0151978-.6072998.0151978-1.7915039-.713562.804657-1.487854,1.548584-2.8694458,2.3532715l-.060791-.151825c.6680908-.5921326,1.7612305-1.6397095,2.9150391-3.3857117.9716797-1.4423218.9868774-1.6548767,1.0324707-1.9281616l1.0323486.6072998c.1063232.06073.1973877.12146.1973877.2277222,0,.1973877-.1821899.2125854-.6376343.2884827Zm9.4890747,11.2654114c-.7439575.3188477-1.0020752.4251099-1.2753906.9109497-3.1275635-1.2297974-4.8583984-2.9454041-5.6174927-5.2227783h-.4403076c-.3339844.3340149-.6831665.6832275-1.2297974,1.1386719v3.0213318c1.3816528-.2429199,2.444397-.4554749,3.7804565-.7894897v.12146c-.5313721.2429199-1.0324097.4099426-2.9605713,1.0020447-.1062622.030365-2.9605713.9261475-3.0061646.9413147-.0303345.2277527-.0758667.3492126-.1669922.3492126-.0759277,0-.1821899-.12146-.2580566-.2429199l-.5769653-1.0172424c.8654175.030365.9716797.0151672,2.3380737-.1973572v-2.5203247c-1.1994019.9109497-2.7479858,1.8826294-4.5091553,2.444397l-.0455322-.1366577c1.609314-.7287598,4.6761475-2.975769,5.4049072-4.1144409h-2.9150391c-.4858398,0-1.3360596.0455322-1.9584961.1669922l-.2884521-.652832c.8198242.091095,1.6396484.12146,2.4595337.12146h3.5982666c.06073-1.3815918-.0151978-1.7308044-.2733154-2.2470093l1.3664551.3340149c.1062622.030365.2277222.06073.2277222.2125549s-.1821899.2884521-.4706421.5010376c.0151978.1973572.0151978,1.0324097.0151978,1.1994019h4.463623l.3643799-.5010376c.0759277-.1062622.1366577-.2277222.2429199-.2277222s.2125244.091095.2884521.151825l.6680298.5465698c.06073.06073.1518555.12146.1518555.2277527,0,.1366272-.1366577.1669922-.2429199.1669922h-5.7693481c.1365967.3340149.4706421,1.1235046,1.3511963,1.9888916.2885132-.2125244.5617676-.4402771.835083-.683197.713562-.6680298.7590942-.804657.8198242-1.0020447l.895752.7894897c.0911255.0759277.1670532.1366577.1670532.2429199,0,.12146-.12146.151825-.2125854.151825-.1365967,0-.3188477,0-.5161743-.0151672-.1821899.0758972-1.0020752.3643799-1.1690674.4251099-.4251099.1669922-.4858398.1821899-.6680298.2429199,1.1083374,1.0020142,2.8239746,1.8218994,5.1468506,2.0951538l-.0151367.0759277Zm-.8806152-5.7541504c-.2733154,0-1.427124-.1062927-2.5202637-.6680298-1.1235352-.5921326-2.0041504-1.5638123-2.505127-2.7328491l-1.1538696.0758972c-.6376953.0455627-1.4575195.1821899-1.9281616.3036499l-.4099731-.622467c1.4119873.0151672,2.4140015-.06073,2.5354614-.06073l.8046875-.0455627c-.1669922-.4554749-.2125244-.7135925-.7438965-3.036499l1.2449341.2884827c.1366577.0303345.2732544.0758972.2732544.2277222s-.1517944.2429199-.4402466.3795776c.0455322.4099121.12146,1.1538696.4706421,2.0799866l3.157959-.2125549.3339844-.5617676c.0759277-.1366272.1670532-.1973572.2277832-.1973572.0759277,0,.1669922.0455627.2884521.1366272l.6983643.5010376c.0759277.06073.1670532.12146.1670532.2429199,0,.1366577-.1670532.151825-.2277222.151825l-4.4940186.3036499c.2884521.5769348.5769043,1.0172424,1.0172119,1.4119568,1.0476074.9565125,2.3077393,1.0628052,2.4595337,1.0628052.3491821,0,.4555054-.1821899.6376953-.6528625.1366577-.3340149.2125244-.5465698.3036499-.8198547h.1669922c0,.1669922-.0151978.9413147,0,1.1083374.0151978.0910645.0303955.3947144.12146.4554443.1821899.1518555.2581177.2125854.2581177.3643799,0,.1366577-.1518555.5162354-.7439575.5162354Zm-2.3532715-4.645874c-.1973877,0-.2429199-.0758972-.4403076-.3795471-.2125244-.3340149-.5769043-.6983948-1.0324097-1.0627747l.06073-.12146c1.3512573.06073,1.8826294.6376648,1.8826294,1.1083374,0,.2732544-.2581177.4554443-.4706421.4554443Z"/>
        <path d="m64.4449199,9.261322c-.7439575,2.1862793-1.0931396,2.9454041-1.9282227,4.0081787l-.12146-.0455322c.5769653-1.3664551,1.1690674-3.7197266,1.1690674-4.5395813,0-.1366272-.0303345-.3492126-.06073-.4858398l1.2145996.4706726c.1062622.0455322.1670532.1062622.1670532.1973572,0,.1973572-.182251.2732849-.4403076.3947449Zm3.4160156-6.0274658c-.8046265,1.2145996-2.5961914,3.3098145-2.7024536,3.4312744.2125854-.0151978,1.7156372-.12146,2.0951538-.1518555-.2429199-.713562-.4402466-1.0020142-.5617065-1.1690369l.06073-.0758972c.3339844.1821899,1.6852417.895752,1.6852417,1.7611694,0,.3188171-.1973877.6072998-.4555054.6072998-.3795166,0-.4706421-.3036499-.6679688-.9413452l-1.2905273.3036499c-.0303955,1.5030823-.0151978,2.2166748-.0151978,2.6265869.0151978.5465698.0911255,3.4312439.0911255,3.5830688,0,.5769348-.3492432.7287598-.5921631.7287598-.3339844,0-.3339844-.2429199-.3339844-.3491821,0-.5465698.0759277-2.8998718.0759277-3.3857117s.0455322-2.5962219.0606689-3.036499c-.9260864.2125549-1.5181885.3188171-1.9888916.3643799-.1365967.2429199-.1973877.3188171-.3339844.3188171-.06073,0-.1821899-.0455322-.2125854-.1821899l-.2581177-1.1690369c.6832275.2429199,1.5789795.2125549,2.383667.1821899.9413452-1.3512268,2.4291992-4.0689087,2.2774048-4.6610413l1.1690063.7135925c.12146.0758972.1366577.151825.1366577.2277527,0,.1669922-.1517944.2125244-.6224976.2732544Zm-1.7763062-1.8674316c-.7287598,1.0324097-.9716797,1.3664246-1.4119873,1.9281616.3188477.2429199.6376343.4858398.6376343.9109497,0,.3036499-.1821289.6224976-.4706421.6224976-.2884521,0-.4251099-.2125549-.774292-.895752-.2884521-.5465698-.4403076-.8198853-1.0020142-1.2297974l.0303345-.06073c.2125854.030365.652832.091095,1.4119873.5465698.1366577-.3491821.8046265-1.9585571.8046265-2.6569214,0-.1062927-.0303345-.2733154-.0455322-.3795776l1.2905273.652832c.0910645.0455627.1518555.1062927.1518555.2125854,0,.1517944-.1063232.2125244-.6224976.3491821Zm1.6548462,9.352417c-.3491821,0-.4099121-.1821899-.6072998-.835022-.0303345-.1062927-.2429199-.7591553-.5769043-1.2145996l.0303955-.06073c.8653564.4858398,1.609314.9412842,1.609314,1.5789795,0,.2580872-.1517944.5313721-.4555054.5313721Zm2.7480469-1.5789795c-1.1082764,2.2925415-2.0799561,3.3249512-3.3856812,3.932251l-.0151978-.1062622c1.2297974-.9868774,2.2470093-2.8087769,2.6265869-4.2966309h-.835022c-.2429199,0-.5921021.0303345-.835022.0758972l-.1518555-.5010071c.2733154.0303345.8502197.06073,1.0779419.06073h.7287598l.1670532-.2429199c.0455322-.0759277.1062622-.12146.1669922-.12146.0759277,0,.1365967.06073.1821899.0910645l.6831665.5769653c.0759277.06073.1063232.12146.1063232.1973572,0,.2732849-.3036499.3188171-.5162354.3340149Zm5.0253906,4.0537109c-1.5941162-1.2904968-2.6265259-2.5961914-3.2490234-4.585083,0,.2580872.0151978.5465698.0151978.804657.0151978.4858398.0758667,3.0213318.0758667,3.066864,0,.6376648-.2732544.8805847-.4402466,1.0020447-.1973877.1670227-.4858398.3643799-.9261475.4402771-.1821899-.4099121-.3188477-.743927-1.548645-1.2601318l.0303955-.06073c.2884521.0151978,1.2753296.0455322,1.4119873.0455322.4706421,0,.652832,0,.652832-.3188171v-4.8583984c0-.5465698,0-.6072998-.0151978-.7287598h-1.5333862c0,.1670227.0151367.4858398-.5162354.4858398-.3643799,0-.3795776-.1670227-.3795776-.3036499,0-.3492126.0455933-1.9281921.0455933-2.2470093,0-.3947449-.0303955-2.0951843-.0303955-2.4443665,0-.2277527-.0151978-.5921326-.06073-.8502197l1.0476074.5465698h1.1994019c.1062622-.4251099.1518555-.9716797.1518555-1.2449951,0-.2277222-.0303955-.5010071-.0911255-.683197l1.3360596.3795471c.1366577.0455627.1973877.1366577.1973877.2429199,0,.2581177-.2733154.2884827-.6072998.3188477-.1062622.151825-.6072998.8502197-.713562.9868774h2.2166138l.4251099-.4555054c.06073-.06073.1669922-.1366272.2581177-.1366272.0910645,0,.1669922.0455627.2277222.091095l.6224976.4554749c.0910645.06073.1517944.151825.1517944.2580872,0,.1821899-.1973877.2884827-.5313721.4706726,0,.151825.0303955,1.9281921.0303955,1.9737244.0151367.3188477.0758667,1.7915344.0758667,1.9888916,0,.4555054-.2732544.6224976-.5921021.6224976-.2733154,0-.3491821-.1366577-.2884521-.4554749h-2.0952148l.2581177.06073c.1669922.0455627.2732544.1366272.2732544.2125549,0,.151825-.1821289.2884521-.3491821.3795776,0,.1062622.2277222,1.1386719.8502197,2.2014465.2581177-.2125549,1.0779419-1.1387024,1.3057251-1.8977966l.9564819.652832c.12146.0759277.1517944.151825.1517944.2732849,0,.1973572-.2429199.2125549-.5921021.1821899-.5769043.3188171-1.1690063.622467-1.7459717.9109497.12146.2125549.3795776.622467.8654175,1.0779724.835022.7894897,1.7307739,1.2145996,2.9301758,1.5182495v.06073c-1.0627441.1517944-1.2904663.5313721-1.4575195.8198242Zm-1.3360596-10.901001h-4.1903076v1.8826294h4.1903076v-1.8826294Zm0,2.2470093h-4.1903076v1.8370667h4.1903076v-1.8370667Z"/>
      </g>
      <g>
        <path d="m117.3052715,60.2271423c-.2884521,0-.4099121-.1973877-.4099121-.4555054,0-.2429199.0758667-.4251099.3035889-.9716797.0759277-.1821899.3340454-.8198853.2581177-1.366394h.1518555c.0151978.0606689.0455322.1365967.2732544.7894287.06073.1670532.1366577.4251709.1366577.8046875,0,.1366577,0,1.1994629-.713562,1.1994629Zm5.6022949-4.5244141c-.1365967,1.3360596-.5009766,3.3249512-.8805542,4.2510986-.2125854.5313721-.5313721.9109497-1.5182495,1.3056641-.3036499-.7438965-.8806152-1.1234741-1.1690674-1.2449341v-.1062622c.4251099.0759277,1.2601318.12146,1.3209229.12146.3187866,0,.5313721-.0151978.7438965-.5921631.4251099-1.1538086.6832275-3.0061035.6680298-3.992981h-3.6741333c.06073.5617676-.3492432.6680298-.5010376.6680298-.3491821,0-.3491821-.2580566-.3188477-.652832.12146-1.2145996.06073-6.2248535.0455933-6.3766479-.060791-.713562-.0759277-.7439575-.12146-.9413147l1.0323486.5010071h3.0820923l.3339844-.3491821c.1670532-.1821899.1973877-.1821899.2581177-.1821899s.0759277.0151978.2733154.151825l.5009766.3492126c.0455322.0455322.1518555.12146.1518555.2277222,0,.1517944-.1366577.1669922-.2277832.1669922h-2.2469482v1.7763672h.9564819l.2732544-.2732544c.1669922-.1670532.1821899-.1973877.2581177-.1973877.06073,0,.0911255.0151367.2581177.1669922l.3643799.2733154c.06073.0606689.1517944.1365967.1517944.2277222,0,.1517944-.1366577.1669922-.2277222.1669922h-2.0344238v1.8067017h1.0172119l.2884521-.3188477c.1518555-.1669922.1669922-.1821289.2429199-.1821289.0910645,0,.2125244.1062622.2581177.1517944l.3187866.3188477c.1366577.1366577.1366577.1973267.1366577.2277222,0,.1366577-.12146.1669922-.2277222.1669922h-2.0344238v1.7611694h1.2145996l.3339844-.3491821c.1518555-.1669922.1669922-.1821899.2429199-.1821899s.0759277,0,.2733154.1821899l.4554443.4251099c.0455322.0303345.12146.12146.12146.2125854,0,.1821289-.2125244.2580566-.3947754.3339844Zm-2.9909058-6.6954956h-1.5334473v1.7763672h1.5334473v-1.7763672Zm0,2.1407471h-1.5334473v1.8067017h1.5334473v-1.8067017Zm0,2.1710815h-1.5334473v1.7611694h1.5334473v-1.7611694Zm-.8046875,6.2399902c-.3947144,0-.3947144-.2580566-.4251099-1.2752686-.0151978-.4403076-.0303955-.895813-.2125244-1.1994629l.0758667-.0455322c.0911255.12146.5617676.6224976.6528931.7439575.2732544.3947144.4402466.895752.4402466,1.1234741,0,.3643799-.2429199.652832-.5313721.652832Zm1.2905273-1.0323486c-.3188477,0-.3643799-.2277832-.4251099-.713623-.0455322-.2884521-.12146-.7894897-.3947754-1.3360596l.06073-.0455322c.12146.1366577.713562.6224976.8046875.7439575.3036499.3339844.3947144.652832.3947144.835022,0,.1518555-.0910645.5162354-.4402466.5162354Zm.895752-1.1539307c-.2884521,0-.3491821-.1669922-.5010376-.7287598-.06073-.2277222-.1821899-.4554443-.3339844-.6679688l.12146-.060791c.7287598.4099731,1.0779419.6072998,1.0779419,1.0476074,0,.1366577-.0759277.4099121-.3643799.4099121Zm8.6843872,3.7197266c-.5617676-.5465698-1.6245117-1.6549072-2.2925415-3.4768066-.4858398-1.3511963-.7287598-2.7783813-.7287598-4.2055054h-1.7460327c-.0910645,2.2318115-.1365967,3.4616089-.8805542,5.1620483-.7439575,1.7307739-1.609314,2.3988037-1.9888916,2.6872559l-.12146-.0758667c.5769043-.6072998,1.0020142-1.4119873,1.366394-2.4291992.5313721-1.5182495.8198853-2.5810547.8198853-7.9404907,0-.6983643-.0455933-1.4119263-.0911255-1.6852417,0-.1366577-.1365967-.743927-.1517944-.8805542l1.2145996.5769043h3.3856812l.4554443-.4554443c.0303955-.0303955.1367188-.1366577.2126465-.1366577.0606689,0,.0758057.0151978.1972656.1366577l.5466309.5161743c.0910645.0759277.12146.1366577.12146.1973877,0,.0759277-.0455322.1062622-.1518555.1821899-.0606689.0303955-.3339844.2277222-.3795166.2581177,0,.8046265-.0152588,2.1103516.0302734,3.2490234,0,.1518555.0456543.8046875.0456543.9564819,0,.4251709-.3643799.5466309-.5314941.5466309-.4401855,0-.4099121-.3947754-.3795166-.8654175h-1.7307739c.2581177,4.3421631,3.1731567,6.4981079,4.0993042,6.8928223v.1062622c-.652832.12146-.9869385.3795776-1.3209229.6832275Zm-1.0476074-11.9030762h-3.7197266c.060791.8198853.0303955,2.9302368.0151978,3.8563843h3.7045288v-3.8563843Z"/>
        <path d="m136.4015849,51.6641541c.0606689.060791.1062012.1063232.1062012.1670532,0,.1821899-.0759277.1821899-.652832.2277222-.2884521.4251099-.5617676.8046875-1.1082764,1.548584.2276611.1366577.2884521.1670532.2884521.3037109,0,.2125244-.3037109.3795166-.4251709.4402466v3.6741943c0,.3187866.0152588,1.7156372.0152588,2.0040894,0,.9412842,0,1.0324097-.1669922,1.2145996-.0455322.0455322-.1973877.1973877-.4403076.1973877s-.3492432-.060791-.3492432-.2733154c0-.4403076.060791-1.1386719.0759277-1.5789795.0455322-.9716797.0455322-1.3664551.0606689-4.8280029-.9868164,1.1386719-1.8066406,1.6700439-2.2165527,1.9281616l-.0303955-.0759277c1.1994629-1.1842651,2.7327881-3.4008789,3.4768066-4.9646606.1063232-.2125854.1365967-.3036499.2733154-.8046875l1.0931396.8198242Zm-.3643799-3.3401184c.0455322.030365.1062012.091095.1062012.1821594,0,.1518555-.1365967.182251-.6376953.2733154-.7438965,1.0172119-1.9433594,2.322937-3.9169922,3.4008789l-.0152588-.0910645c1.5334473-1.3512573,3.3250732-3.6893921,3.4616699-4.4636841l1.0020752.6983948Zm9.0031738,12.7684631c-2.0041504.1063232-3.7803955-.5617676-4.4788818-.9109497-1.5637207-.7894897-2.2773438-2.4899292-2.5050049-3.036499-.8046875,2.383667-2.0345459,3.4616089-3.0213623,3.9626465l-.0455322-.06073c.3947754-.4099121,1.2297363-1.3056641,1.8370361-2.6417236.4858398-1.0476074.835083-2.4291992.835083-3.5679321,0-.1973267-.0455322-.3491821-.0759277-.5010376l1.3360596.4251709c.0759277.0303345.1669922.0606689.1669922.1821289,0,.1366577-.0606689.1518555-.5769043.3795776-.060791.3795776-.1367188.7894897-.3492432,1.5182495.2884521.6224976,1.1994629,2.0192871,2.201416,2.5810547-.0151367-.7439575-.0151367-4.0233765-.0302734-4.6914062,0-.6072998-.0759277-.9868774-.12146-1.2753296l1.2297363.4251099c.12146.0303955.182251.06073.182251.1821899,0,.1366577-.0456543.1669922-.4707031.4706421v1.4271851h1.7763672l.5313721-.5769653c.1518555-.1669922.182251-.1821899.2580566-.1821899.0455322,0,.0911865,0,.2733154.1670532l.652832.5617065c.0759277.06073.1518555.12146.1518555.2277222,0,.1366577-.12146.1670532-.2277832.1670532h-3.4311523v3.3704834c1.0323486.2581177,2.0950928.2733154,2.6113281.2733154,1.2449951,0,1.8218994-.1518555,2.2470703-.2581177v.06073c-.5770264.4706421-.895752.9868774-.956543,1.3208618Zm.4858398-7.682312h-6.84729c-.5313721,0-1.3815918.06073-1.9433594.1669922l-.3643799-.652832c1.1386719.0910645,2.2469482.12146,2.5202637.12146h1.4423828v-2.7177124h-1.0931396c-.5313721,0-1.3815918.060791-1.9586182.1670532l-.3491211-.6528931c1.1386719.0911255,2.2318115.12146,2.5202637.12146h.8806152c-.0152588-1.0779419-.0303955-1.5637817-.2733154-2.3077087l1.3360596.3643799c.1518555.0455627.2277832.0758972.2277832.1973572s-.0456543.1518555-.5010986.4858398v1.2601318h1.8067627l.5009766-.6376343c.1518555-.1973877.2126465-.1973877.2581787-.1973877.0910645,0,.2429199.1366577.2731934.1670532l.6984863.6376343c.0910645.06073.1517334.1366577.1517334.2277222,0,.1366577-.1365967.1669922-.2276611.1669922h-3.4616699v2.7177124h2.6114502l.5313721-.7287598c.0606689-.1062622.1365967-.2125854.2429199-.2125854.0759277,0,.1063232.0151978.2733154.1669922l.8198242.7287598c.12146.1063232.1518555.182251.1518555.2429199,0,.1366577-.1367188.1670532-.2277832.1670532Z"/>
        <path d="m160.6750224,53.2279968h-6.6802979l.4707031.0910645c.1062012.0151978.2429199.06073.2429199.1669922,0,.12146-.2884521.3340454-.3947754.4099731,0,.4858398.0303955,2.6113892.0151367,3.036499-.0302734.895752-.1517334,1.1386719-1.4575195,1.5333862-.0302734-.3187866-.0606689-.774292-1.2601318-1.1690063v-.0759277c.182251,0,1.0172119.0455322,1.1843262.0455322.6679688,0,.6832275-.06073.713501-.5617065.0303955-.3037109.0152588-.3947754.0152588-3.4768066h-4.053833c-.5313721,0-1.3815918.06073-1.9584961.1669922l-.3491211-.652832c1.1386719.0910645,2.2318115.12146,2.5202637.12146h.6072998c0-1.4119873,0-1.9585571-.0303955-2.7025146-.0303955-.6072998-.0910645-.8198242-.1821289-1.1082764l1.3359375.3643799c.060791.0151367.2277832.0758667.2277832.2277222,0,.1366577-.0455322.1669922-.4858398.4554443,0,.4706421,0,.6984253-.0303955,2.7632446h2.3989258c.0151367-3.932251-.060791-4.4332886-.182251-5.2987061l1.2297363.3643799c.1063232.030365.2429199.091095.2429199.2125549,0,.1062927-.0455322.1973572-.5009766.4402771v1.487915h2.4899902l.5465088-.7439575c.0759277-.0911255.1518555-.1973877.2429199-.1973877.0759277,0,.2125244.1062622.2733154.1670532l.8653564.7438965c.0911865.0759277.1518555.1366577.1518555.2429199,0,.1366577-.12146.1518555-.2277832.1518555h-4.3421631v2.4291992h4.4333496l.6679688-.8046875c.1063232-.1366577.1669922-.1973877.2429199-.1973877.0910645,0,.2277832.1063232.2884521.1669922l.8046875.8046875c.0910645.0911255.1518555.1366577.1518555.2277832,0,.1365967-.12146.1669922-.2277832.1669922Zm-9.2005615,1.9433594c-1.2905273,1.7611694-2.2166748,2.8087158-3.9626465,3.9626465l-.0910645-.0911255c1.0323486-1.0172119,1.8674316-2.2014771,2.6113281-3.4312134.6072998-.9868774.652832-1.2297974.6832275-1.5941772l1.0324707.5617065c.0910645.0455933.2429199.1366577.2429199.2885132,0,.1517944-.1367188.1973267-.5162354.3036499Zm5.6479492,2.6417236c-.1367188.0303955-.182251.0303955-.6074219.0455322-2.9908447,2.2926025-4.8886719,3.4160767-8.3048096,3.6437988l-.0455322-.1365967c2.1407471-.5921631,4.4333496-1.4575195,6.1337891-2.8239746.6072998-.4858398,1.487793-1.3056641,1.9584961-2.0344238l.895752.8653564c.0910645.0911255.1518555.1670532.1518555.2733154,0,.12146-.12146.1518555-.1821289.1669922Zm2.1862793.5010376c-.3947754,0-.5466309-.2732544-.8046875-.7439575-.3947754-.713562-1.4119873-2.1407471-2.6569824-3.0668335l.0759277-.1062622c.5009766.2429199,1.7915039.835022,2.6569824,1.5637817.3491211.2884521,1.2297363,1.0779419,1.2297363,1.8218994,0,.0455322-.0303955.5313721-.5009766.5313721Z"/>
      </g>
      <path d="m232.2983135,49.7815857c-1.1235352,2.1558838-2.8391113,4.1599731-4.585083,5.2834473l-.060791-.1062622c.8806152-.9868774,2.322998-2.9150391,3.2490234-4.6002808.5617676-1.0324097.6225586-1.427124.6376953-1.8826294l1.1539307.7590942c.1517334.0911255.2125244.1366577.2125244.2125854,0,.1973877-.3795166.2884521-.6072998.3340454Zm5.9970703,4.5395508c-.0151367.0151367-.1518555.12146-.3339844.2580566-.0303955.5466309-.12146,2.9758301-.1669922,3.4616699-.1973877,1.7763062-.4251709,3.2186279-2.7935791,3.3856812-.0455322-.713562-.5313721-1.1387329-1.1539307-1.3512573v-.1366577c.2277832.0303955.3341064.0455933,1.2145996.1366577.2125244.0303955.3947754.0303955.5010986.0303955.2580566,0,.8653564,0,1.0476074-.5010376.3795166-1.0020752.5161133-3.9474487.5161133-5.0557861,0-.2429199,0-.2732544-.0302734-.5313721h-3.4008789c-.0456543.9412842-.1973877,1.8674316-.4403076,2.7631836-.6984863,2.5810547-2.565918,4.0993042-5.2227783,4.767334l-.0303955-.12146c3.87146-1.7915649,4.6761475-4.5699463,4.7976074-7.4090576h-.2580566c-.5313721,0-1.3815918.0758667-1.9584961.1821899l-.3492432-.652832c1.1386719.0910645,2.2318115.1062622,2.5202637.1062622h4.2510986l.3492432-.3188477c.1062012-.0911255.1518555-.1366577.2277832-.1366577.0758057,0,.1213379.0455322.1972656.12146l.5466309.5769653c.0455322.0455322.12146.1366577.12146.2125244,0,.0911255-.0455322.1366577-.1518555.2125854Zm2.383667.1062622c-2.2318115-1.0020142-3.7652588-3.097229-4.6154785-5.602356h-1.6245117c-.2429199,0-.5921631.0303955-.835083.0911255l-.1517334-.5010376c.2731934.0151978.8500977.0455322,1.0778809.0455322h1.4423828l.3491211-.3795471c.1518555-.1670227.2126465-.1670227.2733154-.1670227.1063232,0,.2125244.0911255.2581787.1518555l.5313721.5010376c.0606689.0606689.12146.12146.12146.2277222,0,.2884521-.4251709.3491821-1.017334.4099121.895874,2.444397,3.8411865,4.0689087,5.6328125,4.1296387v.12146c-.7744141.1821899-1.1235352.6072998-1.4423828.9716797Z"/>
      <g>
        <path d="m28.3577617,29.7947083c-.7171631,1.4342651-1.8326416,3.6653442-3.7052002,6.5737305l1.4342651.796814c.3187256.1593628.4382935.2788696.4382935.5179138,0,.358551-.3984375.7171326-1.0757446,1.0757141,0,.6772766-.0796509,10.2390137-.0796509,10.3585815,0,2.0318604.0397949,3.6254883.1593628,6.7728882.039856.9960327.1195068,2.6295166.1195068,3.6254883,0,1.1952515-.756958,2.0717773-1.553772,2.0717773-1.0358887,0-1.0358887-.7171631-1.0358887-1.1553955,0-.2789307.1195068-1.5936279.1195068-1.8725586.0797119-1.5936279.1195679-8.0477905.1594238-11.6732788,0-1.3546143.0397949-7.4502258.0397949-8.6853027-3.1075439,4.4223328-6.175293,6.6932373-7.7689209,7.8087769l-.0797119-.1991882c2.4302979-2.2709045,6.7330933-9.1235046,9.0040283-13.6653748,1.7131348-3.4661255,1.8326416-4.4223022,1.8724976-5.6175232l3.1872559,1.8326721c.2788696.1593628.3984375.3585815.3984375.6374512,0,.5975952-.8366699.7171326-1.6334839.796814Zm21.6334839,29.7211304c-1.2749023,0-1.6334839-1.4740601-1.8724976-2.3505859-.3984375-1.6334229-.5179443-2.1912231-.756958-2.9083252-1.5139771.4780273-3.6653442.9959717-7.9681396,1.8326416-2.9482422.5975952-4.5020142.9561768-8.0478516,1.8326416-.1992188.6773071-.3585205,1.1553955-.7171021,1.1553955-.1992188,0-.3984375-.2788696-.4780884-.4382324l-1.5936279-3.6254883c.7171021.1593628,1.1951904.2390137,2.1513672.2390137.756958,0,1.9522095-.0796509,3.2669678-.1593628,1.513916-7.4103394,3.0278931-14.9003906,3.1872559-15.6972046.8764648-5.0199585,1.3146973-9.2032166,1.3146973-10.5179443,0-.3187256-.0796509-.9561768-.1593018-1.3944397l4.2230835,1.5538025c.2788696.1195068.4780884.2390137.4780884.4780884,0,.6772766-1.0358887.9561768-1.7131348,1.155365-1.8327026,9.243042-4.5020142,18.4064026-6.6534424,24.3426819,1.2749023-.0797119,2.310791-.1992188,4.661377-.4382324,2.1912842-.2390747,5.6972656-.5976562,7.8486328-.8366699-.5577393-1.3944092-1.9920654-4.7410889-4.1832886-7.68927l.2788696-.1992188c4.1832886,3.9840698,6.3745117,7.1713257,7.0119629,8.3267212.4382935.796814,1.1553955,2.1912231,1.1553955,3.6254883,0,1.5139771-1.1155396,1.7131348-1.4342651,1.7131348Z"/>
        <path d="m90.9825786,44.1772156h-16.3346558v13.3067627c0,.9561768.0796509,1.7928467-.6374512,2.5896606-.3585815.4382324-1.3944702,1.4741211-4.0637817,1.9123535-.1195068-.8765259-.2788696-1.4342651-.8366699-1.9522095-.2390137-.1992188-1.3545532-1.1951904-4.1434326-1.9920044l.0797119-.2788696c1.3147583.1593018,3.7449951.5178833,5.0996094.5178833,1.6732788,0,2.2709351-.3585815,2.2709351-1.7529907v-12.3505859h-10.6375122c-1.3944092,0-3.6254883.1991882-5.1394653.4780884l-.9163208-1.7131653c2.9880981.2390442,5.8566284.2789001,6.6135864.2789001h10.0797119v-4.0239258c0-2.6294861-.3187256-3.7052002-.5179443-4.3426514l2.9880371.7569885c2.4700928-3.0278931,2.5896606-3.2270813,4.4621582-6.0557861h-13.107605c-1.3944092,0-3.5856323.1593628-5.0996094.4382629l-.9561768-1.7131653c2.9880981.2390442,5.8964233.3187256,6.6135864.3187256h12.9482422l1.2350464-1.0757141c.2390137-.2390137.4382324-.3983765.756958-.3983765s.6374512.2390137.796814.358551l2.310791,1.6334534c.1593018.1195374.4382324.3585815.4382324.6773071,0,.4780884-.5578003.5975952-.8366699.6374512-.5577393.1195068-1.3944092.1593628-2.1115723.2390442-.4382324.2789001-.796814.5976257-4.0239258,3.1474304-1.3146973,1.0756836-2.2310791,1.6334534-2.7489624,1.952179.2788696.1593628.4382324.4382629.4382324.6374512,0,.6374512-.9163208,1.2749023-1.3545532,1.5538025v5.2589722h10.9561768l1.7928467-1.9522095c.3983765-.4382324.4382324-.4780884.6374512-.4780884.1991577,0,.5577393.2788696.7171021.398407l2.4302979,1.952179c.1991577.1593628.3983765.3585815.3983765.6374512,0,.3585815-.3187256.3984375-.5975952.3984375Z"/>
      </g>
      <polyline class="cls-3" points="12.5459286 26.4200546 .5315475 26.4200546 .5315475 60.3181255"/>
      <polyline class="cls-3" points="94.5484647 61.7327158 106.5628458 61.7327158 106.5628458 27.8346448"/>
      <g>
        <path d="m94.630894,83.9040222h-5.1924438v2.5809937h2.6569824l.4402466-.4555054c.0151978-.0151367.1062622-.0910645.1670532-.0910645.0303345,0,.0606689.0151978.2125244.12146l.6983643.5010376c.0303955.0303345.1670532.1366577.1670532.2429199,0,.06073-.0303955.1062622-.1062622.1669922-.12146.0911255-.3340454.2581177-.4555054.3491821-.0303345.5162354-.0455322,1.0324097-.0455322,1.8826294,0,1.7004395.0758667,3.7349243.1669922,5.4353638,0,.0759277.0151978.3947144.0151978.4706421,0,.5465698-.5921631.5617676-.6832275.5617676-.3339844,0-.3643799-.2277222-.3643799-.3947754v-.3947144h-8.7603149c0,.1365967,0,.5009766-.0303345.6072998-.06073.1973877-.3492432.3795166-.6376953.3795166-.3339844,0-.3339844-.2429199-.3339844-.3339844,0-.0455322.0910645-1.1083374.1062622-1.3208618.0303345-.8502197.0455322-3.7804565.0455322-4.5699463,0-2.3532715,0-2.8847046-.2277222-3.8563843l1.2753296.6984253h2.1710815v-2.5809937h-2.5354614c-.3036499,0-1.2297974.0303345-1.9433594.1821289l-.3643799-.6679688c.7894897.0758667,1.7307739.12146,2.5203247.12146h9.2157593l.5465698-.6984253c.12146-.1669922.1821899-.1973877.2277222-.1973877.0759277,0,.2277222.12146.2884521.1670532l.8502197.6983643c.06073.06073.1518555.12146.1518555.2277222,0,.1670532-.1670532.1670532-.2429199.1670532Zm-2.322937,2.9453735h-2.8695068v3.810791c0,.2885132,0,.3188477.0303955.3643799.0759277.1670532.5313721.1821899.6983643.1821899.5162354,0,.713623,0,.8502197-.3036499.1669922-.3795776.2429199-.9564819.2884521-1.2753296h.1366577c.1821899.9868774.1973877,1.0931396.4251099,1.3664551.1669922.1973877.2125854.2884521.2125854.3643799,0,.1669922-.1821899.3795166-.3491821.4706421-.4099731.2125854-1.1083374.2125854-1.3512573.2125854-1.609375,0-1.7915649-.1973877-1.7915649-.835083v-4.3573608h-1.8218994c-.06073,2.8543091-.774292,4.3877563-2.7631836,5.7086182l-.12146-.1062622c1.3815918-1.3664551,2.0344238-2.8087769,2.0344238-5.602356h-2.3684692v7.6671753h8.7603149v-7.6671753Zm-3.7197266-2.9453735h-1.8218994v2.5809937h1.8218994v-2.5809937Z"/>
        <path d="m109.703831,95.9892273c-.4555054,0-1.6853027-.6224365-2.4747925-1.548584-2.0648193-2.3684692-2.4291992-5.0102539-2.6265259-7.4697876h-3.21875l.4251709.0911255c.12146.0303345.2125244.0606689.2125244.1517944,0,.1669922-.2429199.3340454-.4251099.3795776v2.322876h1.1842651l.3643799-.6376343c.0910645-.1517944.1365967-.1821899.1973267-.1821899.0759277,0,.1062622.0151978.3036499.1973877l.652832.5921021c.0911255.0911255.1518555.1366577.1518555.2429199,0,.1366577-.1366577.1517944-.2429199.1517944h-2.6113892v3.7804565c.1062622-.0151978.1821899-.0303345.4706421-.0758667,1.0476074-.1973877,2.0952148-.3947754,3.1428223-.5769653v.0911255c-.7591553.3795166-5.9364014,1.7155762-7.151001,2.0040283-.1517944.3188477-.1669922.3492432-.3339844.3492432-.0759277,0-.1518555-.0303955-.1973877-.12146l-.6680298-1.1690674c.2125854.0455322.3036499.06073.5161743.06073.2429199,0,.4555054-.0151978,1.0172729-.0911255-.0455933-2.5657959-.0455933-2.8239136-.06073-5.2227783,0-.5313721-.0455322-.6983643-.1366577-.9868164l1.2905273.4251099c.1517944.0455322.2125244.06073.2125244.1517944,0,.0455322-.0758667.2884521-.5313721.3947754-.0151978.2732544-.0151978.4858398-.0151978.6376343,0,.5162354-.0151367,4.3573608-.0151367,4.5092163.2580566-.0303955.6983643-.0910645,1.7004395-.2429199v-7.2268677h-1.9433594c-.5314331,0-1.3664551.06073-1.9433594.1821899l-.3643799-.6680298c1.1386719.1062622,2.2469482.12146,2.5202637.12146h5.4656982c-.0910645-1.1234741-.1669922-2.0951538-.2125244-2.9909668-.0303955-.7439575-.0911255-.9868774-.1366577-1.1842041l1.4575195.4099121c.0910645.0303345.1973267.0759277.1973267.2125854,0,.1973267-.2277222.3187866-.5313721.4706421-.0303345.3491821-.0455322.835022-.0455322,1.5182495,0,.7590942.0303955,1.3056641.0455322,1.5637817h2.8239746l.4251099-.7590942c.0455322-.0759277.12146-.1973877.2125244-.1973877.12146,0,.1973877.0759277.3036499.1821899l.7591553.7287598c.12146.12146.1517944.1821899.1517944.2429199,0,.1669922-.1669922.1669922-.2277222.1669922h-4.4180908c.2125244,2.6873169.6680298,4.4332886,1.7155762,6.0274658.6984253,1.0627441,1.609375,1.4575195,1.8674927,1.4575195.1821899,0,.2732544-.1518555.3795776-.3340454.0303345-.0759277.4554443-.8653564.6072998-1.2449341l.1062622.0151978c-.1062622.7894287-.1670532,1.6700439-.1670532,1.7915039,0,.1973877.0151978.2125244.182251.4706421.0606689.0911255.1365967.2885132.1365967.3947754,0,.0151978,0,.4402466-.5009766.4402466Zm-6.315918-11.3716431h-3.036499c-.5466309,0-1.3816528.06073-1.9585571.1669922l-.3643799-.652832c1.1386719.0910645,2.2470093.12146,2.5354614.12146h1.3967896l.3947144-.5162354c.1366577-.1821899.1518555-.1973267.2277832-.1973267s.2277222.1062622.2884521.1517944l.5921021.5313721c.0911255.0759277.1518555.12146.1518555.2277222,0,.1366577-.12146.1670532-.2277222.1670532Zm4.6761475.6831665c-.2429199,0-.4402466-.1973267-.6831665-.6072998-.3188477-.5161743-.6072998-.9412842-1.1842651-1.366394v-.0911255c1.5638428.182251,2.2926025.9110107,2.2926025,1.5183105,0,.2732544-.1518555.5465088-.4251709.5465088Z"/>
        <path d="m113.101414,88.0943298c-.3340454,0-.3795776-.12146-.6376953-.7287598-.3947754-.895752-.5617676-1.0172119-.9412842-1.3056641v-.1062622c.5161743.1062622,2.0799561.5010376,2.0799561,1.5637817,0,.1973877-.0910645.5769043-.5009766.5769043Zm.8046265,2.8087769c-.3643799,1.0779419-.4099121,1.1842651-.4099121,1.6245728,0,.3795166.0303345.5617065.2125854,1.2752686.12146.4555054.2580566,1.0172729.2580566,1.4271851,0,.6984253-.5009766.7894897-.6376343.7894897-.2125854,0-.5769653-.1518555-.5769653-.8654175,0-.2429199.12146-1.3056641.12146-1.5333862,0-.8046875-.1062622-1.2905273-1.1842041-1.670105v-.0911255c.2429199-.0303345.5313721-.0910645.7894897-.1517944.2429199-.06073.4554443-.3947144.774292-1.0172119.4858398-.9564819,1.0628052-2.4291992,2.0800171-4.9646606l.0759277.0606689c-.2885132,1.1235352-.774353,3.0061646-1.5031128,5.1165161Zm.4858398-6.1792603c-.2884521,0-.3187866-.0303955-.8046265-.9868774-.3643799-.6983643-.5010376-.8198242-.8046875-1.1234741l.0303345-.0759277c.6528931.1821899,2.0952148.6376953,2.0952148,1.5941772,0,.2732544-.1366577.5921021-.5162354.5921021Zm9.0791626,10.779541c-.5313721.060791-1.5334473.060791-3.7956543.060791h-.8502197c-2.0799561,0-2.2166138-.7439575-2.2166138-2.6417847,0-.4403076.0151978-2.444397.0151978-2.8391113,0-.2581177.0151367-1.609375.0151367-1.7763672-.4706421.1973877-.6072998.2581177-1.0172119.4858398l-.5465698-.5010376c.713562-.1821899,1.4575195-.3947144,1.5637817-.4251099,0-.4251099.0151978-2.2773438,0-2.6569214-.06073-.895752-.1062622-1.0931396-.1973877-1.3208618l1.3816528.4706421c.12146.0455322.1973267.0759277.1973267.1973877,0,.1669922-.0910645.2277222-.4858398.5313721,0,.4099121-.0455322,2.1558838-.0455322,2.5202637l2.0952148-.6983643c0-.5313721.0151367-3.036499,0-3.3704834-.0303955-.774353-.0911255-.9868774-.1821899-1.2601929l1.3815918.4251099c.1517944.0455322.2429199.0759277.2429199.1821899,0,.1518555-.3491821.4099731-.5313721.5314331-.0151978.3643799-.0151978.4402466-.0151978,1.1538086v2.0344849l2.1103516-.713562.3492432-.5010376c.0910645-.12146.1517944-.2125854.2125244-.2125854.0759277,0,.1973877.0759277.2429199.1063232l.6983643.4251099c.0911255.0455322.1670532.1062622.1670532.1973267,0,.0759277-.0759277.1518555-.12146.1973877-.06073.0759277-.2733154.2581177-.3643799.3643799,0,.0911255.0758667,3.3857422-.0759277,4.3270264-.0759277.4099121-.2732544.8806152-.6072998,1.1994019-.2125854.1973877-.3340454.2581177-.8046875.4858398-.3187866-.6376343-.7590942-1.0020142-1.2449341-1.1994019v-.1062622c.2732544.0455322.8805542.0758667,1.1690674.0758667.2277222,0,.5161743,0,.652832-.6224365.1365967-.5617676.12146-2.0192871.12146-2.7025146,0-1.1234741-.0151978-1.427124-.0455322-1.7611694l-2.4595947.8198853c0,.12146-.0151978,1.1994019-.0151978,1.366394,0,.2733154.0759277,4.1600342.0759277,4.4332886,0,.5617676-.6832275.6680298-.713562.6680298-.2581177,0-.3188477-.2429199-.3188477-.4706421,0-.0910645.0151978-.2581177.0303955-.3947754.0455322-.6072998.0455322-1.8067017.0455322-2.4595337v-2.8391113l-2.1103516.6983643c-.0455933,1.8674927-.060791,2.6265869-.060791,3.2035522,0,2.0344238.0303955,2.5354614.0759277,2.8087158.0911255.4707031.2733154.6224976.6072998.6832275.2733154.06073,2.6417847.0759277,3.036499.0759277,1.9282227,0,2.3381348-.1063232,2.6873169-.4858398.3036499-.3340454.3947144-.6832275.7894897-2.1862793h.0910645c.1518555,1.4119873.1973877,1.8674316.3037109,1.9584961.2429199.2125854.2884521.2733154.2884521.4251709,0,.3643799-.6832275.895752-1.8218994,1.0323486Z"/>
        <path d="m131.1803935,83.5092468c-.3035889.3947754-.6832275.895752-1.0931396,1.3815918l.3947754.1669922c.182251.0759277.2277832.12146.2277832.182251,0,.0758667-.0303955.1062622-.3796387.4250488v1.6853027c0,.2732544.0303955,1.5334473,0,1.7004395-.0302734.2580566-.2884521.4099121-.5465088.4099121-.2884521,0-.2884521-.1973877-.2884521-.2733154,0-.1973267.0455322-1.5941162.0606689-1.8977661.0152588-.3188477.0152588-.6072998.0152588-1.7915649-.713623.8046875-1.487915,1.548645-2.8695068,2.3532715l-.060791-.1517944c.6680908-.5921021,1.7612305-1.6397095,2.9150391-3.3856812.9716797-1.4423828.9869385-1.6549072,1.0324707-1.9282227l1.0323486.6072998c.1063232.060791.1973877.12146.1973877.2277832,0,.1973877-.1821289.2125244-.6376953.2884521Zm9.4891357,11.2653809c-.7440186.3188477-1.0020752.4251709-1.2753906.9110107-3.1275635-1.2297974-4.8583984-2.9454346-5.6174316-5.2227783h-.4403076c-.3341064.3339844-.6832275.6831665-1.2298584,1.1386719v3.0213013c1.3815918-.2429199,2.444458-.4555054,3.7805176-.7894897v.12146c-.5314941.2429199-1.0324707.4099121-2.9606934,1.0020752-.1062012.0303345-2.9605713.9260864-3.0061035.9412842-.0302734.2277222-.0759277.3491821-.1669922.3491821-.0759277,0-.1821289-.12146-.2580566-.2429199l-.5769043-1.0172119c.8653564.0303345.9716797.0151978,2.3380127-.1973877v-2.5202637c-1.1993408.9109497-2.7480469,1.8826294-4.5091553,2.444397l-.0455322-.1366577c1.6092529-.7287598,4.6761475-2.975769,5.4049072-4.1144409h-2.9150391c-.4858398,0-1.3360596.0455322-1.9584961.1669922l-.2884521-.652832c.8198242.0910645,1.6396484.12146,2.4595947.12146h3.5981445c.060791-1.3816528-.0151367-1.730835-.2731934-2.2470703l1.366333.3340454c.1063232.0303345.2277832.06073.2277832.2125854,0,.1517944-.182251.2884521-.4707031.5009766.0152588.1973877.0152588,1.0324097.0152588,1.1994629h4.463623l.3643799-.5010376c.0759277-.1062622.1365967-.2277222.2429199-.2277222s.2125244.0910645.2884521.1517944l.6680908.5465698c.0606689.06073.1517334.12146.1517334.2277222,0,.1366577-.1365967.1670532-.2429199.1670532h-5.7692871c.1365967.3339844.4707031,1.1234741,1.3511963,1.9888916.2884521-.2125854.5617676-.4403076.835083-.6832275.713623-.6680298.7591553-.8046875.8198242-1.0020752l.895752.7895508c.0910645.0758667.1669922.1365967.1669922.2429199,0,.12146-.12146.1517944-.2125244.1517944-.1365967,0-.3188477,0-.5162354-.0151978-.1821289.0759277-1.0019531.3643799-1.1689453.4251099-.4251709.1670532-.4858398.1821899-.6680908.2429199,1.1082764,1.0020752,2.8239746,1.8218994,5.1468506,2.0952148l-.0151367.0758667Zm-.8806152-5.7541504c-.2733154,0-1.427124-.1062622-2.5202637-.6680298-1.1235352-.5921021-2.0041504-1.5637817-2.505127-2.7328491l-1.1539307.0759277c-.6375732.0455322-1.4575195.1821899-1.9281006.3036499l-.4099121-.6224976c1.4118652.0151978,2.4139404-.06073,2.5354004-.06073l.8046875-.0455322c-.1669922-.4555054-.2125244-.713562-.7438965-3.036499l1.244873.2884521c.1367188.0303955.2733154.0759277.2733154.2277222,0,.1518555-.1517334.2429199-.4403076.3795776.0456543.4099731.12146,1.1538696.4707031,2.0800171l3.157959-.2125244.3339844-.5617676c.0759277-.1366577.1669922-.1973877.2277832-.1973877.0759277,0,.1669922.0455322.2884521.1366577l.6983643.5010376c.0759277.0606689.1669922.12146.1669922.2429199,0,.1365967-.1669922.1517944-.2276611.1517944l-4.4940186.3036499c.2884521.5769043.5769043,1.0172119,1.0172119,1.4119873,1.0476074.9564819,2.3077393,1.0627441,2.4595947,1.0627441.3491211,0,.4554443-.1821899.6375732-.652832.1367188-.3339844.2126465-.5465698.3037109-.8198242h.1669922c0,.1669922-.0151367.9412842,0,1.1082764.0151367.0911255.0303955.3947754.12146.4555054.1821289.1517944.2580566.2125244.2580566.3643799,0,.1366577-.1517334.5161743-.7438965.5161743Zm-2.3532715-4.645813c-.1973877,0-.2429199-.0759277-.4403076-.3795776-.2125244-.3339844-.5769043-.6983643-1.0323486-1.0627441l.0606689-.12146c1.3511963.0606689,1.8826904.6376343,1.8826904,1.1082764,0,.2733154-.2581787.4555054-.4707031.4555054Z"/>
        <path d="m143.7482646,91.3737488c-.7440186,2.1862793-1.0931396,2.9454346-1.9282227,4.0081787l-.12146-.0455322c.5769043-1.366394,1.1690674-3.7197266,1.1690674-4.5395508,0-.1366577-.0303955-.3491821-.0606689-.4858398l1.2145996.4706421c.1062012.0455933.1669922.1062622.1669922.1973877,0,.1973877-.182251.2732544-.4403076.3947144Zm3.4160156-6.0274048c-.8046875,1.2145996-2.5961914,3.3097534-2.7025146,3.4312134.2126465-.0151367,1.7156982-.12146,2.0952148-.1517944-.2429199-.713562-.4403076-1.0020752-.5617676-1.1690674l.060791-.0759277c.3339844.1821899,1.6853027.895813,1.6853027,1.7611694,0,.3188477-.1973877.6072998-.4555664.6072998-.3795166,0-.4705811-.3036499-.6679688-.9412842l-1.2905273.3036499c-.0303955,1.5030518-.0151367,2.2166138-.0151367,2.6265259.0151367.5466309.0910645,3.4312744.0910645,3.5831299,0,.5769043-.3492432.7287598-.5921631.7287598-.3339844,0-.3339844-.2429199-.3339844-.3492432,0-.5465698.0759277-2.8998413.0759277-3.3856812s.0455322-2.5961914.0606689-3.036499c-.9261475.2125854-1.5181885.3188477-1.9888916.3643799-.1365967.2429199-.1973877.3188477-.3339844.3188477-.060791,0-.182251-.0455933-.2125244-.1821899l-.2581787-1.1690674c.6832275.2429199,1.5789795.2125244,2.383667.1821899.9412842-1.3512573,2.4291992-4.0689087,2.2773438-4.6610107l1.1690674.713562c.12146.0759277.1367188.1518555.1367188.2277222,0,.1670532-.1518555.2125854-.6225586.2733154Zm-1.7763672-1.8674927c-.7287598,1.0324707-.9716797,1.3664551-1.4119873,1.9282227.3188477.2429199.6376953.4858398.6376953.9109497,0,.3036499-.1821289.6224976-.4705811.6224976s-.4251709-.2125854-.774292-.895813c-.2885742-.5465698-.4403076-.8198242-1.0020752-1.2297974l.0303955-.0606689c.2125244.0303345.652832.0910645,1.4118652.5465088.1367188-.3491821.8046875-1.9584961.8046875-2.6569214,0-.1062622-.0302734-.2732544-.0455322-.3795776l1.2905273.6528931c.0910645.0455322.1518555.1062622.1518555.2125244,0,.1518555-.1063232.2125854-.6225586.3491821Zm1.6549072,9.352417c-.3491211,0-.4099121-.1821289-.6072998-.835022-.0303955-.1062622-.2429199-.7590942-.5769043-1.2145996l.0303955-.06073c.8653564.4858398,1.609375.9413452,1.609375,1.5789795,0,.2581177-.1518555.5313721-.4555664.5313721Zm2.7480469-1.5789795c-1.1082764,2.2926025-2.0799561,3.3250122-3.3857422,3.932312l-.0151367-.1062622c1.2297363-.9868774,2.2470703-2.8087769,2.6265869-4.2966919h-.835083c-.2429199,0-.592041.0303955-.8349609.0759277l-.1518555-.5010376c.2733154.0303955.8502197.06073,1.0780029.06073h.7287598l.1669922-.2429199c.0455322-.0758667.1062012-.12146.1669922-.12146.0759277,0,.1365967.06073.1821289.0911255l.6832275.5769043c.0759277.06073.1063232.12146.1063232.1973877,0,.2733154-.3037109.3188477-.5162354.3339844Zm5.0253906,4.053772c-1.5941162-1.2905273-2.6265869-2.5962524-3.2490234-4.585144,0,.2581177.0151367.5465698.0151367.8046875.0152588.4858398.0759277,3.0213013.0759277,3.0668945,0,.6376343-.2731934.8805542-.4403076,1.0020142-.1973877.1669922-.4858398.3643799-.9261475.4403076-.1821289-.4099731-.3187256-.7439575-1.548584-1.2601929l.0303955-.0606689c.2884521.0151367,1.2752686.0455322,1.4119873.0455322.4707031,0,.652832,0,.652832-.3188477v-4.8583984c0-.5465698,0-.6072998-.0151367-.7287598h-1.5334473c0,.1669922.0151367.4858398-.5162354.4858398-.3643799,0-.3795166-.1669922-.3795166-.3036499,0-.3491821.0455322-1.9281616.0455322-2.2470093,0-.3947754-.0303955-2.0952148-.0303955-2.444397,0-.2277222-.0151367-.5921021-.060791-.8502197l1.0476074.5465698h1.1994629c.1063232-.4251099.1518555-.9716797.1518555-1.2449341,0-.2277222-.0303955-.5010376-.0910645-.6832275l1.3359375.3795776c.1367188.0455322.1973877.1365967.1973877.2429199,0,.2580566-.2731934.2884521-.6072998.3188477-.1062012.1517944-.6072998.8502197-.713501.9868164h2.2166748l.4250488-.4554443c.060791-.06073.1669922-.1366577.2580566-.1366577.0911865,0,.1669922.0455322.2277832.0911255l.6224365.4554443c.0911865.06073.1518555.1518555.1518555.2581177,0,.1821899-.1973877.2884521-.5313721.4706421,0,.1518555.0303955,1.9281616.0303955,1.9737549.0151367.3187866.0759277,1.7915039.0759277,1.9888916,0,.4554443-.2733154.6224365-.5921631.6224365-.2733154,0-.3492432-.1365967-.2884521-.4554443h-2.0952148l.2581787.06073c.1669922.0455322.2731934.1366577.2731934.2125854,0,.1517944-.1821289.2884521-.3491211.3795166,0,.1063232.2276611,1.1386719.8502197,2.2014771.2580566-.2125854,1.0778809-1.1386719,1.3056641-1.8978271l.9564209.6528931c.121582.0758667.1518555.1517944.1518555.2732544,0,.1973877-.2429199.2125854-.592041.1821899-.5770264.3188477-1.1690674.6224976-1.7460938.9109497.121582.2125854.3796387.6224976.8654785,1.0779419.8349609.7894897,1.730835,1.2145996,2.9301758,1.5182495v.06073c-1.0627441.1518555-1.2905273.5313721-1.4575195.8198853Zm-1.3360596-10.901062h-4.1903076v1.8826294h4.1903076v-1.8826294Zm0,2.2470093h-4.1903076v1.8370972h4.1903076v-1.8370972Z"/>
      </g>
      <g>
        <path d="m237.7217754,125.3905945c-.2884521,0-.4099121-.1973877-.4099121-.4555054,0-.2429199.0759277-.4251099.3035889-.9716797.0759277-.1821899.3341064-.8198853.2581787-1.366394h.1517334c.0152588.0606689.0455322.1365967.2733154.7894287.060791.1670532.1367188.4251709.1367188.8046875,0,.1366577,0,1.1994629-.713623,1.1994629Zm5.6022949-4.5244141c-.1365967,1.3360596-.5009766,3.3249512-.8806152,4.2510986-.2125244.5313721-.5313721.9109497-1.5181885,1.3056641-.3035889-.7438965-.8806152-1.1234741-1.1690674-1.2449341v-.1062622c.4251709.0759277,1.2601318.12146,1.3209229.12146.3188477,0,.5313721-.0151978.7438965-.5921631.4251709-1.1538086.6832275-3.0061035.6680908-3.992981h-3.6741943c.0606689.5617676-.3492432.6680298-.5010986.6680298-.3491211,0-.3491211-.2580566-.3187256-.652832.12146-1.2145996.0606689-6.2248535.0455322-6.3766479-.060791-.713562-.0759277-.7439575-.12146-.9413452l1.0323486.5010376h3.0820312l.3341064-.3491821c.1669922-.1821899.1973877-.1821899.2580566-.1821899s.0759277.0151978.2733154.1517944l.5009766.3492432c.0455322.0455322.1518555.12146.1518555.2277222,0,.1517944-.1367188.1669922-.2277832.1669922h-2.2469482v1.7763672h.9564209l.2733154-.2732544c.1669922-.1670532.182251-.1973877.2581787-.1973877.0606689,0,.0910645.0151367.2580566.1669922l.3643799.2733154c.0606689.0606689.1518555.1365967.1518555.2277222,0,.1517944-.1367188.1669922-.2277832.1669922h-2.0344238v1.8067017h1.0172119l.2884521-.3188477c.1518555-.1669922.1669922-.1821289.2429199-.1821289.0910645,0,.2125244.1062622.2580566.1517944l.3188477.3188477c.1367188.1366577.1367188.1973267.1367188.2277222,0,.1366577-.12146.1669922-.2277832.1669922h-2.0344238v1.7611694h1.2145996l.3339844-.3491821c.1518555-.1669922.1669922-.1821899.2429199-.1821899s.0759277,0,.2733154.1821899l.4554443.4251099c.0455322.0303345.12146.12146.12146.2125854,0,.1821289-.2125244.2580566-.3947754.3339844Zm-2.9909668-6.6954956h-1.5334473v1.7763672h1.5334473v-1.7763672Zm0,2.1407471h-1.5334473v1.8067017h1.5334473v-1.8067017Zm0,2.1710815h-1.5334473v1.7611694h1.5334473v-1.7611694Zm-.8046875,6.2399902c-.3946533,0-.3946533-.2580566-.4250488-1.2752686-.0151367-.4403076-.0303955-.895813-.2125244-1.1994629l.0759277-.0455322c.0910645.12146.5616455.6224976.652832.7439575.2733154.3947144.4403076.895752.4403076,1.1234741,0,.3643799-.2429199.652832-.5314941.652832Zm1.2905273-1.0323486c-.3188477,0-.3643799-.2277832-.4250488-.713623-.0455322-.2884521-.12146-.7894897-.3947754-1.3360596l.060791-.0455322c.12146.1366577.713501.6224976.8046875.7439575.3035889.3339844.3946533.652832.3946533.835022,0,.1518555-.0910645.5162354-.4403076.5162354Zm.895752-1.1539307c-.2884521,0-.3491211-.1669922-.5009766-.7287598-.0606689-.2277222-.1821289-.4554443-.3339844-.6679688l.12146-.060791c.7287598.4099731,1.0780029.6072998,1.0780029,1.0476074,0,.1366577-.0759277.4099121-.364502.4099121Zm8.6844482,3.7197266c-.5617676-.5465698-1.6245117-1.6549072-2.2926025-3.4768066-.4858398-1.3511963-.7287598-2.7783813-.7287598-4.2055054h-1.7459717c-.0910645,2.2318115-.1365967,3.4616089-.8804932,5.1620483-.7440186,1.7307739-1.609375,2.3988037-1.9890137,2.6872559l-.12146-.0758667c.5770264-.6072998,1.0020752-1.4119873,1.3664551-2.4291992.5313721-1.5182495.8198242-2.5810547.8198242-7.9404907,0-.6983643-.0455322-1.4119263-.0910645-1.6852417,0-.1366577-.1365967-.7439575-.1518555-.8805542l1.2145996.5769043h3.3857422l.4554443-.4554443c.0303955-.0303955.1367188-.1366577.2126465-.1366577.0606689,0,.0758057.0151978.1972656.1366577l.5466309.5161743c.0910645.0759277.12146.1366577.12146.1973877,0,.0759277-.0455322.1062622-.1518555.1821899-.0606689.0303955-.3339844.2277222-.3795166.2581177,0,.8046265-.0152588,2.1103516.0302734,3.2490234,0,.1518555.0456543.8046875.0456543.9564819,0,.4251709-.3643799.5466309-.5314941.5466309-.4401855,0-.4099121-.3947754-.3795166-.8654175h-1.730835c.2581787,4.3421631,3.1732178,6.4981079,4.0993652,6.8928223v.1062622c-.652832.12146-.9869385.3795776-1.3209229.6832275Zm-1.0476074-11.9030762h-3.7197266c.060791.8198853.0303955,2.9302368.0152588,3.8563843h3.7044678v-3.8563843Z"/>
        <path d="m259.4749492,114.459198c0-.6376953-.12146-.6984253-1.1235352-1.1690674.1367188-.0911255.3037109-.2277832.7591553-.2277832.7895508,0,1.427124.5466309,1.427124.9110107,0,.0303345-.0758057.3491821-.1517334.6679688-.0759277.3188477-.12146.6680908-.182251,1.1235352,1.0476074-.2277222,1.5030518-.3947754,2.3685303-.6983643.1062012-.0303955.2580566-.0911255.3795166-.0911255.2733154,0,.8198242.2732544.8198242.4858398,0,.1821899-.1972656.2732544-.2731934.3036499-.4707031.1973877-1.791626.5465698-3.3706055.7591553-.0455322.6376343-.0606689,1.5789795-.0455322,2.4291992.9869385-.2429199,1.3360596-.3643799,2.0041504-.6224976.0759277-.0303955.1973877-.0759277.2733154-.0759277.2731934,0,.7894287.1821899.7894287.4403076,0,.2125244-.182251.3187866-.3339844.3795776-.2733154.0910645-1.6549072.3795166-2.7176514.5769043.0302734.6224976.1669922,2.7176514.2125244,3.4768066,1.730835.4099121,3.2338867,1.1386719,3.2338867,1.8826294,0,.2732544-.182251.4251099-.3341064.4251099-.1213379,0-.1821289-.0455322-.6983643-.3947754-.1517334-.1062622-1.1386719-.713562-2.1407471-1.0020142-.0151367.8805542-.3795166,1.2297974-.592041,1.3967896-.6832275.5009766-1.6397705.5161743-1.8522949.5161743-1.548584,0-2.5657959-.7590942-2.5657959-1.5030518,0-.4706421.3187256-.7894897.7590332-1.0476074.8502197-.4706421,2.3077393-.4706421,2.5963135-.4706421.3491211,0,.5769043.0151978.8045654.0303955-.0151367-.5010376-.1365967-2.7329102-.1517334-3.1883545-.7744141.1062622-1.5334473.1821899-2.2926025.1821899-.9110107,0-1.4726562-.1669922-1.4726562-.6984253,0-.2580566.2731934-.6376343.7438965-.7438965-.1063232.12146-.2429199.2884521-.2429199.4706421,0,.2884521.3188477.3340454,1.0931396.3340454.5921631,0,1.3056641-.060791,2.1558838-.2125854,0-.835022.0152588-1.2753296.060791-2.4899292-.6072998.06073-2.6265869.2733154-3.0668945.2733154-.3947754,0-1.5941162-.1063232-2.0040283-1.0172729.2580566.1062622.895752.3795776,1.9584961.3795776.3035889,0,1.548584-.0759277,3.1275635-.3339844,0-.2277832.0455322-1.2449951.0455322-1.4575195Zm-1.5941162,9.1550293c-1.0020752,0-2.0041504.2580566-2.0041504.8653564,0,.4403076.6680908.7895508,1.8218994.7895508.6376953,0,1.9890137-.182251,1.8218994-1.5031128-.2580566-.06073-.6832275-.1517944-1.6396484-.1517944Z"/>
        <path d="m269.5983623,116.4784241c.4251709,0,.835083-.1062622,2.505127-.5617065,2.262207-.6072998,6.7866211-1.5638428,6.9840088-1.5638428.2429199,0,1.0778809.2733154,1.0778809.713623,0,.3643799-.3795166.3947144-.5769043.3947144-.1365967,0-.7894287-.0455322-.9108887-.0455322-1.7156982,0-2.5355225.4099121-3.4008789,1.1690063-1.5487061,1.3512573-2.0345459,2.9758301-2.0345459,4.0841064,0,2.6569824,2.6873779,3.4008789,3.8564453,3.6134644.4099121.0758667.6375732.1062622.8502197.3795776.1062012.1365967.1669922.2884521.1669922.4099121,0,.2429199-.2126465.2884521-.3796387.2884521-1.5637207,0-5.1164551-1.1538696-5.1164551-4.5395508,0-2.6113892,1.9433594-4.1600342,3.5374756-5.420166-.9108887.2581177-2.0344238.5313721-3.0516357.774292-1.9282227.4707031-2.4595947.7894897-3.21875,1.2297974-.0910645.06073-.2580566.1517944-.4401855.1517944-.2429199,0-1.0020752-.3947144-1.0020752-1.3208618,0-.2277222.0455322-.3491821.1063232-.5010376.4705811.6376953.5465088.7439575,1.0474854.7439575Zm8.6236572,1.0172729c1.017334.6376343,1.1386719,1.0172119,1.1386719,1.366394,0,.1517944-.0302734.4706421-.3187256.4706421-.1671143,0-.2581787-.1517944-.3643799-.3339844-.5010986-.9261475-1.4575195-1.730835-1.8674316-2.0040894.5009766.0455322.9868164.2429199,1.4118652.5010376Zm2.8999023.7287598c0,.3643799-.1973877.4099121-.2733154.4099121-.1669922,0-.2733154-.1669922-.4250488-.3795776-.5162354-.7439575-1.2449951-1.2753296-1.9737549-1.8067017,1.0020752.1517944,2.6721191.7894897,2.6721191,1.7763672Z"/>
        <path d="m237.266331,141.5813904c3.0061035-2.7329102,4.2662354-5.9819336,4.2662354-6.4070435,0-.5769653-.5009766-.9261475-.9868164-1.1234741.1669922-.0455933.4250488-.1063232.6375732-.1063232.6984863,0,1.6853027.956543,1.6853027,1.1842651,0,.0910645-.0151367.1062622-.2277832.3643799-.1973877.2277222-.3187256.4402466-.4099121.6072998-1.5789795,3.218689-2.9605713,4.5547485-4.8887939,5.6174927l-.0758057-.1365967Zm10.8554688-5.4505615c.652832.7287598,2.0799561,2.4595947,2.0799561,3.9474487,0,.3036499-.1518555.8046875-.5009766.8046875-.3947754,0-.5162354-.3795776-.7895508-1.2449341-.3491211-1.1539307-.9564209-3.09729-3.5374756-5.541626.835083.2580566,1.6700439.8046875,2.7480469,2.0344238Zm1.1386719-2.4443359c.2125244.1821289.4099121.5009766.4099121.8198242,0,.1821899-.0606689.3947754-.2884521.3947754-.2884521,0-.3947754-.182251-.6376953-.6072998-.2277832-.3795776-.9261475-1.0780029-1.5030518-1.5031128,1.0172119.1062622,1.9888916.8806152,2.0192871.895813Zm1.2449951-1.2753906c.2731934.1670532.5617676.3947754.5617676.835083,0,.0910645-.0152588.4099121-.2277832.4099121-.1973877,0-.3188477-.1518555-.6832275-.6072998-.182251-.2429199-.6376953-.7439575-1.5030518-1.2449951.3188477.0151978.9108887.0303955,1.8522949.6072998Z"/>
        <path d="m253.0528301,142.4619446c3.3704834-1.4119873,6.8928223-5.2835083,8.2895508-9.1398315-.4705811.0910645-2.505127.4402466-2.9150391.5313721-.6072998.1517944-1.244873.3188477-1.7459717.5921021-.2125244.12146-.2733154.1517944-.3643799.1517944-.1973877,0-.4554443-.3643799-.6376953-.6224365-.1517334-.2125854-.2731934-.4403076-.2731934-.7287598,0-.2125854.0759277-.4555054.1365967-.6680298.0759277.1366577.1365967.2884521.3188477.5010376.2580566.3035889.3947754.3947144.7438965.3947144.6680908,0,3.7501221-.4251099,4.2055664-.6072998.182251-.0759277.2581787-.12146.6072998-.3491821.12146-.0911255.1669922-.0911255.2126465-.0911255.1517334,0,1.1842041.7894897,1.1842041,1.0324097,0,.1821899-.0911865.2125854-.5770264.3643799-.0758057.0151978-.1213379.12146-.1669922.2125854-.8502197,1.8826294-1.6851807,3.036499-2.140625,3.6437988,1.9888916.9564819,4.463623,2.6265259,4.463623,4.1296387,0,.1062622,0,.5921021-.4555664.5921021-.2276611,0-.3339844-.1518555-.4401855-.3339844-1.0020752-1.6549072-2.0192871-3.0061646-3.7501221-4.1448364-.9412842,1.1994019-3.157959,3.9170532-6.6651611,4.6610107l-.0302734-.12146Z"/>
      </g>
      <g>
        <path d="m127.4220928,142.9828796c-5.4980469-3.5856934-9.7211304-8.7649536-12.1912842-14.8605957-.5975952-1.4741211-1.0358276-2.9481812-1.4740601-4.5019531-3.5458374,11.0756836-11.4342651,18.2470093-18.5259399,20.1593628l-.1593628-.3187256c11.0358887-5.6972046,16.7330933-18.6853027,16.5737305-24.5020142l1.1952515.3187256c-.5578003-3.3864746-.5578003-5.8964233-.5578003-7.4501953h-3.3466187c-1.3944092,0-3.6254883.1593018-5.1394653.4780273l-.9163208-1.7529297c2.9880371.2788696,5.8565674.3187256,6.6135254.3187256h2.0717773l1.4740601-1.3147583c.2788696-.2390747.3984375-.3187256.5578003-.3187256.1992188,0,.5577393.1991577.7171021.2788696l2.0717163,1.3944092c.2390747.1593628.4382324.3585815.4382324.5976562,0,.2390137-.1593018.3983765-.3983765.5178833-.3983765.1992188-2.1912231,1.0757446-2.5498047,1.2350464-.039856.5578003-.1195068,1.2749023-.1195068,2.310791,0,11.3944092,7.3705444,21.5936279,17.4900513,24.7410889v.3187256c-1.1156006.1195068-2.7490234.6772461-3.824707,2.3505859Z"/>
        <path d="m150.0468486,112.664093v4.4621582c0,.3984375.1992188,3.7848511.1992188,4.1434326,0,1.553772-1.4343262,1.6334839-1.5936279,1.6334839-.9163818,0-.796875-.796814-.756958-1.1553955h-7.3306885c0,2.2709351,0,13.4661865.0397949,15.9761353,0,.5179443.1195068,2.9481812.1195068,3.5059814,0,.5975952,0,2.6693115-1.7529297,2.6693115-1.0358887,0-1.0358887-.7171021-1.0358887-1.0358276,0-.039856.1195068-1.3147583.1195068-1.3546143.2789307-3.1075439.3586426-11.8724976.3586426-18.2470093,0-1.3944702,0-10.5578003-.039917-11.1952515-.1195068-1.4741211-.2390137-2.0717163-.3984375-2.8286743l3.1474609,1.513916h6.4940186l.6772461-.8366089c.2391357-.2390747.3188477-.3984375.4781494-.3984375.0797119,0,.3585205.1992188.4781494.2788696l1.7927246,1.1553955c.1992188.1593628.3187256.2390747.3187256.4382324,0,.2788696-.1990967.4382935-1.3146973,1.2749023Zm-2.1115723-.9561768h-7.3704834v3.9442749h7.3704834v-3.9442749Zm0,4.9004517h-7.3704834v4.1832275h7.3704834v-4.1832275Zm10.6773682,10.6374512c-.039917,1.513916-.0797119,4.8206787.0795898,7.6494141,0,.3585205.1992188,2.0717163.1992188,2.4302979,0,1.7131348-1.4741211,1.8326416-1.5537109,1.8326416-1.0756836,0-.9163818-1.4342651-.8765869-1.9522095h-8.2868652c.2391357,2.5099487-1.3944092,2.5498047-1.5936279,2.5498047-.6374512,0-.7967529-.3585815-.7967529-.8366089,0-.3585815.1593018-1.9123535.1593018-2.2310791.1196289-1.7928467.1594238-6.8128052.1594238-8.7650146,0-1.6334229-.0397949-2.31073-.3187256-3.7848511l2.5895996,1.3546143h7.9681396l.5578613-.6773071c.4780273-.4780884.5178223-.5577393.717041-.5577393.2390137,0,.4781494.2390137.5578613.2788696l1.3944092,1.1553345c.2788086.2390747.3585205.3187256.3585205.4781494,0,.3585205-.7171631.756958-1.3146973,1.0756836Zm-2.1115723-.796814h-8.3665771v4.2629395h8.3665771v-4.2629395Zm0,5.2191162h-8.3665771v4.581665h8.3665771v-4.581665Zm10.9561768-18.8844604c0,4.8605347,0,9.8804932.0397949,14.5418091,0,1.6733398.1195068,9.0836792.1195068,10.5578003,0,3.4661255,0,4.3426514-1.5936279,5.418335-.3187256.1593628-1.5537109.9163208-2.6293945,1.0358887-.1195068-.757019-.2789307-1.3147583-.9561768-1.8725586-.5976562-.4780884-1.553833-1.1553955-3.1872559-1.6732788v-.3187256c.756958,0,4.0637207.1991577,4.7409668.1991577.8366699,0,1.3944092-.0397949,1.3944092-1.0756836,0-2.270874-.0397949-6.5338745-.0397949-8.446228,0-1.4740601.0397949-8.6454468.0397949-9.4024048h-8.2469482c.0397949.4780884.0397949.756958-.1594238.9561768-.2788086.3984375-.9561768.5976562-1.1951904.5976562-.6772461,0-.6772461-.6773071-.6772461-.8366699,0-.0797119.0397949-.756958.0397949-.8765259.0397949-.6773071.0397949-3.1473999.0397949-3.9442139,0-5.8167114,0-6.6135864-.2788086-8.3267212l2.6295166,1.4342651h7.4899902l.8764648-1.0358276c.3187256-.3585815.3984375-.4780884.5976562-.4780884.2788086,0,.4382324.1593628.5976562.3187256l1.7131348,1.4342651c.1593018.1593628.2788086.2788696.2788086.5577393,0,.3187256-.1992188.5179443-1.6334229,1.2351074Zm-2.0717773-1.0757446h-8.2469482v3.9442749h8.2469482v-3.9442749Zm0,4.9004517h-8.2469482v4.1832275h8.2469482v-4.1832275Z"/>
        <path d="m210.3210185,115.731842h-18.8446045l3.1474609.9960327c.1992188.0796509.5178223.2390137.5178223.5179443,0,.3585205-.5975342.7967529-1.1552734,1.2350464-.1196289,1.553772-.1594238,2.5099487-.1992188,4.0238647h8.6453857l1.0358887-1.0358276c.0797119-.0796509.3984375-.3983765.6374512-.3983765.1992188,0,.5975342.3585205.6772461.3983765l.9561768.8366699c.6374512.5577393.6773682.5975952.6773682.8366089,0,.3585815-.5976562.8366699-.9960938,1.1156006-.0397949,1.0756836.1992188,10.8366699.1992188,12.9083252,0,1.1952515-.0797119,1.8725586-1.1154785,2.7888794-1.1156006.9960327-2.1115723,1.1952515-2.7889404,1.3147583-.3187256-.756958-.8366699-1.9920654-3.1872559-3.0278931v-.3187256c.6773682.0796509,1.2351074.1593628,2.3505859.1593628,2.4302979,0,2.4302979-.4382324,2.4702148-.9960327.0397949-1.5936279,0-5.7370605,0-8.7649536v-4.8605957h-9.5617676c0,4.4223633,0,6.2948608.1992188,13.864624,0,.8366089.1593018,4.6613159.1593018,5.4581299,0,1.4741211-1.5936279,1.7928467-1.8724365,1.7928467-.9163818,0-.9163818-.5975952-.9163818-1.5936279,0-.1195068.3585205-7.1713257.3585205-8.486084.039917-3.3864746.039917-7.3704834,0-11.0358887h-8.7648926v.5179443l-.039917,7.7689209.1594238,7.2111816c.0397949.9561768,0,2.1115723-1.6733398,2.1115723-.9163818,0-.9163818-.5577393-.9163818-.8366699,0-.3585205.0797119-1.9521484.1196289-2.270874.1195068-3.3864746.1992188-6.8128052.1992188-10.1992188,0-4.1036377-.1196289-5.0199585-.4781494-6.8128052l3.3864746,1.553772h8.0079346c-.0397949-4.7808838-.0397949-5.1394043-.3984375-6.7728882h-10.5975342c-1.3944092,0-3.5856934.1593628-5.0996094.4382324l-.9561768-1.7131348c2.9880371.2390747,5.8963623.3187256,6.6135254.3187256h10.4781494c0-4.581665-.2391357-5.6175537-1.0358887-6.8526001l3.864502.796814c.4382324.0796509.8366699.1992188.8366699.5975952,0,.3984375-.7171631.796814-1.4741211,1.2749023-.0397949,2.1912842-.0397949,3.067749,0,4.1832886h11.5936279l1.5140381-1.9123535c.2390137-.2788696.3983154-.4780884.6374512-.4780884.2390137,0,.6772461.3585815.717041.3984375l2.1514893,1.9123535c.2390137.1991577.3983154.3585205.3983154.5975952,0,.3585815-.3585205.4382324-.6374512.4382324Z"/>
      </g>
      <polyline class="cls-3" points="91.84924 108.5325082 79.834859 108.5325082 79.834859 142.4305792"/>
      <polyline class="cls-3" points="214.5916442 143.8451694 226.6060253 143.8451694 226.6060253 109.9470984"/>
      <g>
        <path class="cls-2" d="m188.6727031,61.587616h-21.3535156v-1.4522705c3.1196289-6.6696167,7.3150635-11.1339111,12.1558838-16.0823669,3.3885498-3.4423828,7.3150635-7.7453613,7.3150635-13.6619568,0-2.796936-.9681396-7.4226379-7.0998535-7.4226379-4.6795654,0-6.9385986,2.5279846-6.9385986,4.249176,0,.5379028.2689209,1.2371216.4841309,1.6136475.6453857,1.45224.6453857,2.0438843.6453857,2.4741821,0,1.8825684-1.1833496,2.7431641-2.635498,2.7431641-1.8825684,0-2.4742432-1.3446655-2.4742432-3.012085,0-4.8946533,4.5718994-9.6817017,11.6717529-9.6817017,6.4007568,0,10.4885254,3.8726807,10.4885254,9.9506226,0,3.6037598-1.2908936,5.755249-3.9802246,8.821106-1.2908936,1.5060425-7.9067383,7.2612915-9.1976318,8.4984131-.6992188.6992188-4.6794434,4.7332764-7.2075195,9.3589478h10.7574463c6.3469238,0,8.0144043-4.6256714,8.9825439-7.2612305l1.0219727.2689209-2.6356201,10.5960693Z"/>
        <path class="cls-2" d="m200.7753642,61.587616v-1.7211914h1.8824463c3.5500488,0,5.2712402-1.6136475,5.2712402-5.2711182v-24.2042847c0-3.4961548-1.2371826-5.0559998-5.3249512-5.0559998h-1.8287354v-1.45224h.8605957c3.2810059,0,7.2073975-1.4522705,8.2293701-2.0439453.3765869-.2151489.8068848-.4840698,1.1295166-.4840698.2689209,0,.3765869.2689209.3765869.5378723v32.7026672c0,3.0658569,1.2370605,5.2711182,4.7332764,5.2711182h2.4204102v1.7211914h-17.7497559Z"/>
      </g>
      <path d="m349.3589824,131.8940125c-1.1235352,2.1558838-2.8391113,4.1599731-4.585083,5.2834473l-.060791-.1062622c.8806152-.9868774,2.322998-2.9150391,3.2491455-4.6002808.5616455-1.0324097.6224365-1.427124.6375732-1.8826294l1.1539307.7590942c.1518555.0911255.2125244.1366577.2125244.2125854,0,.1973877-.3795166.2884521-.6072998.3340454Zm5.9970703,4.5395508c-.0151367.0151367-.1518555.12146-.3339844.2580566-.0303955.5466309-.12146,2.9758301-.1669922,3.4616699-.1973877,1.7763062-.4251709,3.2186279-2.7935791,3.3856812-.0455322-.713562-.5313721-1.1387329-1.1539307-1.3512573v-.1366577c.2277832.0303955.3339844.0455933,1.2145996.1366577.2126465.0303955.3947754.0303955.5010986.0303955.2580566,0,.8653564,0,1.0474854-.5010376.3796387-1.0020752.5162354-3.9474487.5162354-5.0557861,0-.2429199,0-.2732544-.0303955-.5313721h-3.4008789c-.0455322.9412842-.1972656,1.8674316-.4401855,2.7631836-.6984863,2.5810547-2.565918,4.0993042-5.2227783,4.767334l-.0303955-.12146c3.871582-1.7915649,4.6761475-4.5699463,4.7976074-7.4090576h-.2580566c-.5313721,0-1.3815918.0758667-1.9584961.1821899l-.3492432-.652832c1.1386719.0910645,2.2318115.1062622,2.5202637.1062622h4.2510986l.3492432-.3188477c.1063232-.0911255.1518555-.1366577.2276611-.1366577.0759277,0,.121582.0455322.1973877.12146l.5466309.5769653c.0455322.0455322.12146.1366577.12146.2125244,0,.0911255-.0455322.1366577-.1518555.2125854Zm2.383667.1062622c-2.2318115-1.0020142-3.7652588-3.097229-4.6154785-5.602356h-1.6245117c-.2429199,0-.5921631.0303955-.835083.0911255l-.1518555-.5010376c.2733154.0151978.8503418.0455322,1.0780029.0455322h1.4423828l.3491211-.3795166c.1518555-.1670532.2126465-.1670532.2733154-.1670532.1063232,0,.2125244.0911255.2580566.1518555l.5314941.5010376c.0606689.0606689.12146.12146.12146.2277222,0,.2884521-.4251709.3491821-1.0172119.4099121.895752,2.444397,3.8410645,4.0689087,5.6326904,4.1296387v.12146c-.774292.1821899-1.1235352.6072998-1.4423828.9716797Z"/>
      <g>
        <path class="cls-2" d="m291.0061992,143.7001038v-1.7211914h1.8825684c3.5499268,0,5.2711182-1.6135864,5.2711182-5.2711792v-24.2042236c0-3.4961548-1.2371826-5.0560303-5.3249512-5.0560303h-1.8287354v-1.4522095h.8605957c3.2810059,0,7.2073975-1.4522705,8.2293701-2.0439453.3765869-.2151489.8068848-.4840698,1.1295166-.4840698.269043,0,.3765869.2689209.3765869.5378418v32.7026367c0,3.065918,1.2370605,5.2711792,4.7332764,5.2711792h2.4204102v1.7211914h-17.7497559Z"/>
        <path class="cls-2" d="m317.9002422,143.7001038v-1.7211914h1.8825684c3.5499268,0,5.2711182-1.6135864,5.2711182-5.2711792v-24.2042236c0-3.4961548-1.2371826-5.0560303-5.3249512-5.0560303h-1.8287354v-1.4522095h.8605957c3.2810059,0,7.2073975-1.4522705,8.2293701-2.0439453.3765869-.2151489.8068848-.4840698,1.1295166-.4840698.269043,0,.3765869.2689209.3765869.5378418v32.7026367c0,3.065918,1.2370605,5.2711792,4.7332764,5.2711792h2.4204102v1.7211914h-17.7497559Z"/>
      </g>
      <g>
        <path d="m367.8805888,110.8399963h5.0102539v.6072998h-4.4029541v13.2087402h-.6072998v-13.81604Z"/>
        <path d="m378.778416,116.0323792c-1.4423828,2.6721191-2.9454346,4.7976685-4.5852051,5.8148804l-.0606689-.1062622c1.2752686-1.1386719,2.9909668-4.3725586,3.5526123-6.0426025.121582-.3491821.121582-.6224976.1063232-.8806152l1.3664551.6072998q.2884521.12146.2884521.2125854c0,.2580566-.5466309.3795166-.6679688.3947144Zm3.6134033-4.1599731c-.2429199.1973877-.2581787.2125244-.4099121.3491821-.0152588.4099121-.0152588.713562-.0152588,3.4008789v7.0446777c-.0151367.5465698-.0151367,1.487854-1.609375,1.670105-.0455322-.2733154-.0758057-.4555054-.6071777-.7895508-.4403076-.2732544-.9110107-.4402466-1.1387939-.5161743l.0152588-.1366577c.1821289.0151978,1.6851807.0911255,1.8370361.0911255.4251709,0,.5769043-.0911255.6224365-.3188477.0456543-.2581177.0456543-1.8978271.0456543-2.2774048,0-.4858398-.0303955-4.6154785-.0303955-4.706543,0-.3643799.0151367-1.9129639.0151367-2.2166748-.0151367-1.4575195-.0455322-1.7763062-.2276611-2.4595337l1.3511963.3795776c.1973877.06073.2884521.0910645.2884521.2429199,0,.1062622-.0759277.1821899-.1365967.2429199Zm5.1013184,8.8210449c-.4403076,0-.5617676-.3037109-.9261475-1.2753906-.4099121-1.0931396-1.4119873-2.6113281-3.036499-3.8259277l.0455322-.1063232c2.6872559,1.1386719,4.585083,3.036499,4.585083,4.5395508,0,.4858398-.3795166.6680908-.6679688.6680908Z"/>
        <path d="m402.8393291,119.2814636c-2.4747314-.7287598-4.7520752-3.036499-5.7845459-4.8735962-.0910645.0303345-.12146.0303345-.4403076.0759277-1.9433594,2.3380737-4.8583984,4.6913452-7.0294189,5.3745728l-.060791-.1062622c1.548584-.9413452,4.4333496-3.2490845,6.2248535-5.7997437.2580566-.3643799.2884521-.5465088.3339844-.7590942l1.1235352.6376343c.0910645.060791.1669922.12146.1669922.2429199,0,.1518555-.0759277.2125854-.1367188.2581177,1.0780029,1.487915,2.6114502,2.5810547,4.3422852,3.1883545,1.0627441.3643799,1.8522949.4402466,2.4747314.5010376v.0910645c-.7440186.3188477-1.0324707.835022-1.2145996,1.1690674Zm-8.2592773-7.2268677c-1.548584,1.4423218-2.322876,2.0496216-4.3878174,3.0061035l-.0758057-.1366577c1.1386719-.8198242,2.201416-1.7611084,3.1275635-2.8239136.6376953-.7439575.7287598-1.0324097.8046875-1.3967896l1.1082764.8806152c.12146.1062622.182251.1669922.182251.2580566,0,.1973877-.2429199.2429199-.7591553.2125854Zm5.4505615,7.5760498c0,.4706421.0151367.6224976.0455322,1.9130249.0151367.3643799.0758057,1.9736938.0758057,2.2166138,0,.5161743-.4858398.652832-.6375732.652832-.12146,0-.3947754-.0455322-.3947754-.4099121,0-.1366577.0303955-.2732544.0455322-.3947144h-5.0253906q.0303955.1821289.0303955.2429199c0,.4706421-.3037109.5769043-.6376953.5769043-.3492432,0-.4099121-.1973877-.4099121-.3947754,0-.1062622.0151367-.2277222.0151367-.2580566.060791-1.1235352.12146-2.5658569.12146-2.8847046,0-1.3815918-.0606689-1.9585571-.1062012-2.5354614l1.0931396.5617676h4.7216797l.3492432-.3643799c.12146-.1366577.1669922-.1669922.2580566-.1669922.0303955,0,.060791,0,.2126465.12146l.6071777.4402466c.1518555.1062622.1518555.1670532.1518555.2125854,0,.1517944-.0302734.1669922-.5161133.4706421Zm-.835083-.3491821h-5.0861816v3.9626465h5.0861816v-3.9626465Zm2.3381348-5.0253906c-.3947754,0-.5617676-.2429199-.9414062-.8046875-.1669922-.2429199-.9868164-1.3057251-2.7176514-2.3532715l.0455322-.1063232c1.3360596.2429199,4.1448975,1.487915,4.1448975,2.6417847,0,.3339844-.2277832.6224976-.5313721.6224976Z"/>
        <path d="m417.320164,113.0414734c-.0303955.7894287-.0456543,1.4575195-.0456543,2.7176514s.1063232,6.4373779.182251,7.3938599c0,.06073.0151367.1517944.0151367.2125854,0,.5009766-.5465088.6376343-.774292.6376343-.3035889,0-.3035889-.06073-.2884521-.7439575h-9.1854248c.0152588.4099121.0303955.9413452-.6072998.9413452-.3491211,0-.3643799-.1973877-.3643799-.4099731,0-.2277222.1367188-6.7106323.1367188-7.9707642,0-2.4291992-.1063232-3.3098145-.2277832-4.3118286l1.1994629.7287598h8.9272461l.3643799-.3643799c.1518555-.1518555.1669922-.1669922.2277832-.1669922.0759277,0,.1669922.0606689.2429199.12146l.6983643.5009766c.1063232.0759277.1973877.1518555.1973877.2581177,0,.1821899-.2125244.2732544-.6983643.4555054Zm-5.9060059-.4403076h-4.1904297v4.8583984h4.1904297v-4.8583984Zm0,5.2227783h-4.1904297v5.0709229h4.1904297v-5.0709229Zm5.0102539-5.2227783h-4.2208252v4.8583984h4.2208252v-4.8583984Zm0,5.2227783h-4.2208252v5.0709229h4.2208252v-5.0709229Z"/>
        <path d="m425.3787578,124.5345764h-5.0102539v-.6072998h4.4029541v-13.2087402h.6072998v13.81604Z"/>
        <path d="m372.387791,131.0741272c-.1518555.4251099-.4251709,1.1538696-1.0780029,2.3684692l.3947754.1518555c.1517334.0606689.2429199.1821289.2429199.2884521,0,.1669922-.1063232.2277222-.3796387.3947144-.0151367.5162354-.0455322,2.3533325-.0455322,2.8239746,0,.0910645.060791,5.0709229.0910645,5.4960327,0,.0303955.0152588.1973877.0152588.2733154,0,.5161743-.3643799.6376343-.5466309.6376343-.2884521,0-.4250488-.2277222-.4250488-.4402466,0-.1973877.0606689-1.0324707.0606689-1.1994629.0303955-.6224365.1973877-6.1792603.1367188-7.6367798-.4099121.713562-1.4423828,2.3988647-2.4140625,3.2642212l-.12146-.0910645c1.5183105-2.0952148,3.2034912-6.3766479,3.3249512-7.09021.0303955-.182251.0455322-.3340454.060791-.5466309l1.1234131.6224976c.182251.1062622.2429199.12146.2429199.2581177,0,.1973877-.2276611.3036499-.6831055.4251099Zm9.7167969,6.4070435c-.12146,0-.6832275-.0151978-.8046875-.0151978-.12146.0151978-.3339844.1821899-.4555664.3036499-.1213379.1062622-.2429199.1973877-.5465088.4099121l-.0455322-.0303955c.0303955-.0606689.2580566-.6679688.3643799-1.0627441h-7.0446777c0,.2581177-.0303955,1.4575195-.8502197,1.4575195-.4099121,0-.4858398-.3036499-.4858398-.4554443,0-.2125854.0606689-.2733154.592041-.8806152.3947754-.4403076.4100342-.7591553.4251709-.9868774h.0910645c.1063232.1821899.1518555.2733154.1973877.5010376h6.9080811l.5313721-.4099121c.0606689-.06073.1518555-.12146.2277832-.12146.1062012,0,.1517334.0455322.2731934.1517944l.7440186.6376953c.0910645.0758667.12146.1517944.12146.2884521s-.0303955.2125854-.2429199.2125854Zm-.1973877-5.2076416h-7.0599365c-.5465088,0-1.3815918.06073-1.9584961.1669922l-.3643799-.652832c1.1386719.0911255,2.2469482.12146,2.5355225.12146h1.5030518c-.0152588-1.0627441-.1367188-1.7004395-.1973877-2.0951538l1.1690674.2277222c.1669922.0303955.2733154.12146.2733154.2429199,0,.1669922-.3037109.3188477-.4707031.3947754,0,.1973267-.0151367,1.1234741-.0151367,1.2297363h2.8846436l.592041-.6072998c.1671143-.1669922.182251-.1973877.2429199-.1973877.060791,0,.1063232.0151978.2733154.1670532l.6680908.6072998c.0910645.0910645.1517334.1366577.1517334.2277222,0,.1518555-.12146.1669922-.2276611.1669922Zm-1.3209229,6.8624878h-2.9454346v2.3988647c0,1.2297363-.1062012,1.3056641-.4099121,1.5182495-.5009766.3491821-.9564209.3643799-1.2449951.3795776-.0455322-.3188477-.1062012-.7591553-1.2752686-1.2145996v-.060791c.3643799.0303955.8653564.0455933,1.2297363.0455933.8654785,0,.895874-.1062622.895874-.3947754v-2.6721191h-1.2298584c-.5313721,0-1.3815918.0759277-1.9584961.1821899l-.3492432-.652832c1.1386719.0910645,2.2318115.1062622,2.5202637.1062622h3.2036133l.4250488-.4099121c.1518555-.12146.1973877-.1821899.2429199-.1821899.060791,0,.0759277,0,.2884521.1518555l.652832.4554443c.1669922.1062622.182251.1366577.182251.2125244,0,.12146-.1367188.1366577-.2277832.1366577Zm-.9108887-5.1013184c-.0152588.2429199.0151367,1.4119873,0,1.5334473-.060791.2732544-.2429199.3795776-.4707031.3795776-.2429199,0-.2429199-.1518555-.2580566-.4403076h-3.7652588c0,.3036499-.1367188.5769043-.5162354.5769043-.060791,0-.3188477-.0303345-.3188477-.1973267,0-.0759277.0455322-2.444397.0455322-2.7783813,0-.0303955-.0151367-.0455933-.0455322-.1366577l.9716797.3643799h3.5072021l.1973877-.2733154c.0606689-.0758667.1517334-.1669922.2429199-.1669922.0606689,0,.0910645.0151978.2276611.1062622l.4707031.3340454c.0910645.06073.1973877.1517944.1973877.2581177,0,.12146-.0456543.1517944-.4858398.4402466Zm-.7287598-.3339844h-3.7805176v1.4423218h3.7805176v-1.4423218Z"/>
        <path d="m397.1470683,135.3404236h-6.6802979l.4707031.0910645c.1063232.0151978.2429199.06073.2429199.1669922,0,.12146-.2884521.3340454-.3947754.4099731,0,.4858398.0303955,2.6113892.0152588,3.036499-.0303955.895752-.1518555,1.1386719-1.4575195,1.5333862-.0303955-.3187866-.060791-.774292-1.2602539-1.1690063v-.0759277c.182251,0,1.017334.0455322,1.1843262.0455322.6679688,0,.6831055-.06073.713501-.5617065.0303955-.3037109.0152588-.3947754.0152588-3.4768066h-4.0537109c-.5314941,0-1.3817139.06073-1.9586182.1669922l-.3492432-.652832c1.1387939.0910645,2.2319336.12146,2.5203857.12146h.6072998c0-1.4119873,0-1.9585571-.0303955-2.7025146-.0303955-.6072998-.0910645-.8198242-.182251-1.1082764l1.3361816.3643799c.0606689.0151367.2276611.0758667.2276611.2277222,0,.1366577-.0455322.1669922-.4858398.4554443,0,.4706421,0,.6984253-.0303955,2.7632446h2.3989258c.0151367-3.932251-.060791-4.4332886-.182251-5.2987061l1.2298584.3643799c.1062012.0303955.2429199.0910645.2429199.2125244,0,.1063232-.0456543.1973877-.5010986.4403076v1.487915h2.4899902l.5465088-.7439575c.0759277-.0911255.1518555-.1973877.2429199-.1973877.0759277,0,.2125244.1062622.2733154.1670532l.8653564.7438965c.0910645.0759277.1518555.1366577.1518555.2429199,0,.1366577-.12146.1518555-.2277832.1518555h-4.3421631v2.4291992h4.4333496l.6679688-.8046875c.1063232-.1366577.1669922-.1973877.2429199-.1973877.0910645,0,.2277832.1063232.2884521.1669922l.8046875.8046875c.0910645.0911255.1518555.1366577.1518555.2277832,0,.1365967-.12146.1669922-.2277832.1669922Zm-9.2005615,1.9433594c-1.2905273,1.7611694-2.2166748,2.8087158-3.9626465,3.9626465l-.0910645-.0911255c1.0323486-1.0172119,1.8674316-2.2014771,2.6113281-3.4312134.6072998-.9868774.6529541-1.2297974.6832275-1.5941772l1.0324707.5617065c.0910645.0455933.2429199.1366577.2429199.2885132,0,.1517944-.1367188.1973267-.5162354.3036499Zm5.6478271,2.6417236c-.1365967.0303955-.1821289.0303955-.6071777.0455322-2.9909668,2.2926025-4.8887939,3.4160767-8.3049316,3.6437988l-.0455322-.1365967c2.1407471-.5921631,4.4333496-1.4575195,6.1337891-2.8239746.6072998-.4858398,1.487915-1.3056641,1.9584961-2.0344238l.895752.8653564c.0911865.0911255.1518555.1670532.1518555.2733154,0,.12146-.12146.1518555-.182251.1669922Zm2.1862793.5010376c-.3946533,0-.5465088-.2732544-.8045654-.7439575-.3947754-.713562-1.4119873-2.1407471-2.6569824-3.0668335l.0759277-.1062622c.5009766.2429199,1.7915039.835022,2.6568604,1.5637817.3492432.2884521,1.2298584,1.0779419,1.2298584,1.8218994,0,.0455322-.0303955.5313721-.5010986.5313721Z"/>
        <path d="m405.9041484,142.7190857c-2.3989258,0-4.0081787-1.8978271-4.0081787-5.1316528,0-3.3401489,1.8978271-6.5133057,4.7976074-6.5133057,1.1386719,0,2.2015381.3947144,2.2015381,1.2753296,0,.3643799-.2126465.6832275-.6225586.6832275-.5465088,0-.6832275-.4251099-.8198242-.8654175-.12146-.3795776-.5009766-.652832-1.0931396-.652832s-1.1539307.2884521-1.609375.7287598c-1.4422607,1.427124-1.5941162,3.932251-1.6851807,5.3138428.2125244-.3947144.5769043-1.0172119,1.3511963-1.5182495.5921631-.3947144,1.2752686-.6072998,1.9888916-.6072998,1.9737549,0,3.1730957,1.4727173,3.1730957,3.5072021,0,2.3380737-1.5941162,3.7803955-3.6740723,3.7803955Zm.2276611-6.6347656c-1.0627441,0-2.4139404.774353-3.0820312,2.505127.060791.9716797.2125244,3.6286621,2.8239746,3.6286621,2.0799561,0,2.5506592-1.730835,2.5506592-3.2794189,0-.5162354-.0151367-2.8543701-2.2926025-2.8543701Z"/>
        <path d="m418.5478252,131.8940125c-1.1235352,2.1558838-2.8391113,4.1599731-4.585083,5.2834473l-.060791-.1062622c.8806152-.9868774,2.322998-2.9150391,3.2490234-4.6002808.5617676-1.0324097.6225586-1.427124.6376953-1.8826294l1.1539307.7590942c.1517334.0911255.2125244.1366577.2125244.2125854,0,.1973877-.3795166.2884521-.6072998.3340454Zm5.9970703,4.5395508c-.0151367.0151367-.1518555.12146-.3339844.2580566-.0303955.5466309-.12146,2.9758301-.1669922,3.4616699-.1973877,1.7763062-.4251709,3.2186279-2.7935791,3.3856812-.0455322-.713562-.5313721-1.1387329-1.1539307-1.3512573v-.1366577c.2277832.0303955.3341064.0455933,1.2145996.1366577.2125244.0303955.3947754.0303955.5010986.0303955.2580566,0,.8653564,0,1.0476074-.5010376.3795166-1.0020752.5161133-3.9474487.5161133-5.0557861,0-.2429199,0-.2732544-.0302734-.5313721h-3.4008789c-.0456543.9412842-.1973877,1.8674316-.4403076,2.7631836-.6984863,2.5810547-2.565918,4.0993042-5.2227783,4.767334l-.0303955-.12146c3.87146-1.7915649,4.6761475-4.5699463,4.7976074-7.4090576h-.2580566c-.5313721,0-1.3815918.0758667-1.9584961.1821899l-.3492432-.652832c1.1386719.0910645,2.2318115.1062622,2.5202637.1062622h4.2510986l.3492432-.3188477c.1062012-.0911255.1518555-.1366577.2277832-.1366577.0758057,0,.1213379.0455322.1972656.12146l.5466309.5769653c.0455322.0455322.12146.1366577.12146.2125244,0,.0911255-.0455322.1366577-.1518555.2125854Zm2.383667.1062622c-2.2318115-1.0020142-3.7652588-3.097229-4.6154785-5.602356h-1.6245117c-.2429199,0-.5921631.0303955-.835083.0911255l-.1517334-.5010376c.2731934.0151978.8500977.0455322,1.0778809.0455322h1.4423828l.3491211-.3795166c.1518555-.1670532.2126465-.1670532.2733154-.1670532.1063232,0,.2125244.0911255.2581787.1518555l.5313721.5010376c.0606689.0606689.12146.12146.12146.2277222,0,.2884521-.4251709.3491821-1.017334.4099121.895874,2.444397,3.8411865,4.0689087,5.6328125,4.1296387v.12146c-.7744141.1821899-1.1235352.6072998-1.4423828.9716797Z"/>
      </g>
    </g>
  </g>
</svg>