<?xml version="1.0" encoding="UTF-8"?>
<svg id="_レイヤー_1" data-name="レイヤー 1" xmlns="http://www.w3.org/2000/svg" viewBox="0 0 436.4783472 106.4729309">
  <defs>
    <style>
      .cls-1 {
        fill: #d0b580;
      }
    </style>
  </defs>
  <g>
    <path d="m2.997146,20.5479736c-.0202637,1.253479-.5458984,2.1026611-1.0917969,2.4867859-.4650879.3437195-1.1928711.3841248-1.4152832-.0808716-.1416016-.4447937.1010742-.8491516.5053711-1.0917664.7885742-.4447937,1.5163574-1.6174316,1.4152832-2.9922485h.3640137c.1210938.3841553.1616211.7480469.2021484,1.0917664h5.2971191c0-.7278442-.0405273-1.5769958-.1213379-2.2037659,2.0622559.6065674,2.0622559.8087158,1.7387695,1.0311279l-.3034668.2224121v.9502258h5.8227539l.34375-.4447937c.1821289-.2224121.3234863-.4447937.4853516-.4447937.2424316,0,1.4555664,1.1928406,1.4555664,1.4961243-.1616211.1617432-.3637695.1819458-.7277832.2224121-.4853516.6671753-1.2736816,1.5971985-1.9206543,2.1430664l-.2426758-.14151c.2224121-.5661011.4853516-1.5163269.6875-2.2441711H2.997146Zm.6872559,15.3453674c0,.14151-.5256348.4447937-1.0512695.4447937-.2021484,0-.3234863-.202179-.3234863-.4043579.0605469-.7076416.0808105-1.0715332.1213379-2.1633301v-1.2939453c0-1.2939453-.0808105-2.8911438-.2426758-3.9424744l1.6376953.7480774h10.2504883l.3032227-.4043579c.1616211-.2022095.282959-.4043579.4448242-.4043579.2426758,0,1.5163574.9299927,1.5163574,1.2332764-.1416016.1617432-.4245605.343689-.8288574.4245605v1.9207153c.0402832,1.9207153.0605469,2.5474548.1413574,3.7200928-.1413574.2224121-.7883301.5054321-1.1928711.5054321-.1818848,0-.2626953-.2021484-.2626953-.4043579.0402832-.1010742.0402832-.14151.0808105-.3032532v-.3639221H3.6844019v.6874084Zm3.2956543-13.1416321c-1.0515137.0202026-2.0219727.1213074-3.0327148.2830505l-.5256348-1.0108948c.8894043.1010742,1.7790527.1415405,2.6889648.1617432h6.1665039l.3637695-.5054321c.2021484-.2628479.3640137-.5256958.5256348-.5256958.2426758,0,1.4760742.970459,1.4760742,1.2737427-.0405273.2224121-.2224121.3234863-.4853516.3234863h-7.1772461Zm1.3139648,7.1166992H3.6844019v2.0622253h4.6096191v-2.0622253Zm-4.6096191,2.6283264v2.1026611h4.6096191v-2.1026611H3.6844019Zm9.0981445-8.6532593c.1616211-.2223816.282959-.4447937.4448242-.4447937.2424316,0,1.4152832.9906616,1.4152832,1.2939453-.1013184.1415405-.3842773.3032837-.7077637.3639221v.970459c.0405273.970459.0405273,1.2939453.1010742,1.8196106-.1213379.2224121-.7885742.5054321-1.1726074.5054321h-.2021484v-.8289185h-7.3188477v.5661011c0,.1213074-.5458984.4043579-1.0512695.4043579-.1821289,0-.2832031-.202179-.2832031-.4043579.060791-.4043579.060791-.6065369.1010742-1.2130737v-.8087158c0-.8289185-.0402832-1.8196106-.1413574-2.507019l1.4758301.7076416h7.0559082l.2832031-.4245911Zm-7.4401855,3.0933533h7.3188477v-2.0824585h-7.3188477v2.0824585Zm8.9362793,2.9315796h-4.7106934v2.0622253h4.7106934v-2.0622253Zm-4.7106934,4.7309875h4.7106934v-2.1026611h-4.7106934v2.1026611Z"/>
    <path d="m35.6416772,34.1343994c.2424316-.3234863.4245605-.6469727.5861816-.6469727.2426758,0,1.7792969,1.253479,1.7792969,1.5567627-.060791.2224121-.2426758.3234863-.5256348.3234863h-11.6455078c-1.0515137.0202026-2.0219727.1213074-3.0327148.2830505l-.5256348-1.0310974c.8894043.1010742,1.7790527.14151,2.6889648.1617432h4.5288086v-9.2193604h-4.7512207c-1.0515137.0202026-2.0219727.1212769-3.0327148.28302l-.5256348-1.0310974c.8894043.1011047,1.7790527.14151,2.6889648.1617432h5.6206055v-2.7698669c0-1.3748169-.0810547-3.0326538-.2629395-4.1446533,2.3049316.6469727,2.3049316.8491516,1.9611816,1.0715332l-.3234863.2224121v5.620575h5.3779297l.4448242-.6469727c.2426758-.3234863.4448242-.6469727.6064453-.6469727.2426758,0,1.7792969,1.2737122,1.7792969,1.5769958-.060791.2224121-.2426758.3032837-.5256348.3032837h-7.6828613v9.2193604h4.3266602l.4448242-.6469727Z"/>
    <path d="m55.9126733,18.5463867c.1821289-.2426147.3234863-.4852295.4853516-.4852295.2426758,0,1.4960938,1.0917664,1.4960938,1.3950195-.1416016.1617432-.4448242.3234863-.8491211.4245911v5.4588318c.0405273,2.4261475.0808105,3.2348633.1616211,4.7512207-.1818848.2223816-.7680664.5458679-1.2128906.5458679-.2021484,0-.2629395-.202179-.2629395-.4043579.0405273-.0808716.0202637-.14151.060791-.2830505v-.3639221h-1.940918v4.7714233c0,.3032532.0808105.3639221.8085938.3639221h1.9611816c.8693848,0,1.5769043,0,1.8398438-.0202026.2426758-.0202332.3032227-.0808716.3840332-.2830811.1618652-.3638916.3640137-1.5163269.5864258-2.7496338h.282959l.0405273,2.8507385c.4448242.14151.5053711.3032532.5053711.5661011,0,.6065369-.5661621.8491516-3.6594238.8491516h-2.1430664c-1.5366211,0-1.8398438-.3032837-1.8398438-1.3141479v-5.0342712h-2.2038574c-.6064453,4.0840149-2.8100586,5.8631897-7.7636719,6.7527771l-.0808105-.3234863c4.2661133-1.2130737,5.9440918-2.9518127,6.4091797-6.4292908h-1.7792969v.8087158c0,.14151-.5053711.4447937-1.0512695.4447937-.2224121,0-.4245605-.202179-.4245605-.4043579.1010742-1.738739.1616211-2.6080933.2021484-5.216217v-2.8102722c0-1.3748169-.0808105-3.0327148-.2626953-4.1446838l1.6374512.7480774h8.2893066l.3234863-.4650269Zm-.1210938,1.0715332h-8.5927734v2.6687622h8.5927734v-2.6687622Zm0,5.9844971v-2.7294006h-8.5927734v2.7294006h8.5927734Zm-8.5927734.6065674v2.7698364h8.5927734v-2.7698364h-8.5927734Z"/>
    <path d="m69.6538843,21.2353516l-.3842773.1011047c-1.3950195,2.8305054-3.3562012,5.0949097-5.4384766,6.4899597l-.2224121-.2426147c.8693848-.8895874,1.7993164-2.0824585,2.6081543-3.4572754.6872559-1.1524048,1.4555664-3.0326843,1.6577148-4.1446533l1.1726074.6065063c.9907227.3234863.9907227.5256958.6066895.6469727Zm7.4804688,11.8477173c-.8693848-1.4556885-2.0217285-2.911377-2.9921875-3.9627075l.2224121-.1617432c6.7529297,4.1850891,5.8430176,8.4308472,4.1245117,7.0964661-.2021484-.7884827-.5864258-1.6578674-1.1120605-2.5676575-2.8103027.5863037-6.4291992,1.2130737-11.3220215,1.9004517-.1213379.2224121-.34375.3639526-.5256348.4043579l-.7277832-1.880249c.7885742-.0202026,1.9206543-.0606689,3.2751465-.1415405.6875-1.5971985,1.375-3.5178833,1.940918-5.3981628.3842773-1.2737122.7077637-2.8507385.7683105-3.9829407,2.345459.6469727,2.345459.8491821,1.9611816,1.0109253l-.3640137.1617432c-.7883301,2.3856812-2.2036133,5.6003418-3.7402344,8.1680298,2.3857422-.1617432,5.3981934-.3841553,8.4914551-.6469727Zm4.6098633-6.8336792l-.0405273.2224121c-.5661621.1213074-1.0512695.5863037-1.2131348,1.0917664-2.7697754-1.9611511-4.8320312-4.9129333-5.7416992-8.3500061h-1.7792969c-1.0512695.0202332-2.0217285.1213379-3.0327148.2830811l-.5458984-1.0109253c.8896484.1011047,1.7792969.1415405,2.6889648.1617432h2.2038574l.626709-.9906616,1.7185059,1.2535095c-.2021484.2628479-.6872559.3841248-1.3342285.4245911.9702148,2.6485291,3.3964844,5.418396,6.4494629,6.9144897Z"/>
    <path d="m87.2764429,35.8529053c0,.1819458-.4650879.5054321-.9907227.5054321-.2424316,0-.4648438-.2021484-.4648438-.4043579.1213379-1.7387085.1818848-2.6282959.2224121-5.2566528v-8.269104c0-1.3748169-.0810547-3.0326843-.2629395-4.1446533l1.597168.7682495h12.8383789l.3032227-.4245605c.1821289-.202179.3034668-.4245605.4650879-.4245605.2426758,0,1.5163574.9906616,1.5163574,1.2939453-.1416016.1617432-.4650879.3234863-.8491211.4043579v10.8974304c.0402832,2.4261475.0808105,3.2348633.1616211,4.7511902-.2021484.2426147-.7683105.6065674-1.2128906.6065674h-.2023926v-1.0109253h-13.1213379v.7076416Zm0-1.3141479h13.1213379v-14.8803711h-13.1213379v14.8803711Zm9.6237793-13.1820679c.1818848-.2426147.3234863-.4852295.4851074-.4852295.2426758,0,1.3344727.9502258,1.3344727,1.253479-.0405273.2022095-.2426758.3032837-.5053711.3032837h-3.8010254v1.4961243h3.0529785l.3435059-.4852295c.1821289-.2426147.3237305-.5054626.4853516-.5054626.2426758,0,1.3747559.9502563,1.3747559,1.25354-.0605469.2223816-.2224121.3234863-.4851074.3234863h-7.6828613c-1.0512695.0202026-2.0217285.1212769-3.0327148.28302l-.5256348-1.0310974c.8896484.1011047,1.7792969.14151,2.6889648.1617432h2.567627v-1.4961243h-1.314209c-.8491211.0202026-1.6174316.1213074-2.4260254.2830505l-.5053711-1.0310974c.8894043.1010742,1.7790527.14151,2.6889648.1617432h1.5566406c0-.6065674-.0202637-1.3141785-.1010742-1.8398438,1.8601074.6065369,1.8601074.8087158,1.5771484.9906616l-.2629395.1617432v.687439h2.1430664l.34375-.4852295Zm-.1010742,4.0435791c.1616211-.1819763.2626953-.3841553.4245605-.3841553.2426758,0,1.2331543.8289185,1.2331543,1.1322021-.1010742.1213074-.3637695.2830505-.626709.3234863v2.4261475l.2224121-.3234863c1.1525879.970459,1.1525879,1.1726379.8291016,1.1524048l-.3034668-.0404053c-.4245605.3032532-1.1320801.7682495-1.7385254,1.111969.6469727.2628479,1.1726074.5661011,1.597168.9098206,1.0107422.8693542.565918,1.9611206-.3640137,1.253479-.6672363-.8491211-2.1430664-1.9813232-3.6796875-2.5474243v1.0513306c.0405273,1.0310974.0405273,1.3748169.1010742,1.9611206-.1010742.2224121-.5053711.5054321-1.1118164.5054321-.1821289,0-.3034668-.2021484-.3034668-.4043579.060791-.7278442.0810547-1.111969.1213379-2.223938v-1.3344116c-1.2131348,1.3546143-2.8505859,2.4666138-4.670166,3.2955322l-.2224121-.343689c1.7790527-1.0513306,3.3359375-2.507019,4.3466797-4.0840454h-1.7790527v.3841553c0,.1213074-.5256348.3639221-.9907227.3639221-.1616211,0-.2629395-.202179-.2629395-.4043579.060791-.3437195.060791-.5256653.1013184-1.0513306v-.7480774c0-.7480469-.0405273-1.6578369-.1416016-2.3048096l1.3950195.6873779h5.5395508l.2832031-.3638916Zm-5.9238281.9502258v1.8802795h5.7822266v-1.8802795h-5.7822266Zm5.9643555,3.052887h-.1821289v-.5661011h-2.2644043v1.25354c.7277832.1617432,1.4152832.343689,2.0217285.5458679.3842773-.3841248.8291016-.9502258,1.1928711-1.4556885-.2021484.1213074-.5256348.2223816-.7680664.2223816Z"/>
  </g>
  <g>
    <path d="m9.5491479,60.0395203c-.282959.1213379-.626709-.1617432-.8693848-.3840942-.2426758-.2224121-1.0512695-1.0715942-2.1835938-1.7791748-.2021484,1.0513306-.9501953,2.4059448-3.2145996,2.3856812-1.5769043,0-3.0327148-.7278442-3.0327148-2.0015869,0-1.2535095,1.4960938-2.1026917,3.255127-2.082428.4853516,0,1.1523438.0606689,1.9006348.2224121-.1213379-1.1524658-.2023926-2.3048706-.2426758-3.4775391-.9301758.1820068-1.8803711.2830811-2.628418.2022095-1.597168-.1819458-2.2441406-1.1119995-2.4665527-1.5567627-.0808105-.1819458-.0808105-.2628784-.0405273-.3032837.0810547-.0606689.2023926.0404053.3234863.1213379.2021484.1414795,1.3950195.90979,2.8913574.7884521.5256348-.0404053,1.2128906-.1010742,1.9003906-.2224121,0-1.1726074.0202637-2.3452148.1010742-3.5178833-.4851074.0404663-.9501953,0-1.3344727-.1617432-.565918-.2224121-1.2331543-.8087158-1.4758301-1.1322021-.0808105-.1213074-.1818848-.2830505-.1213379-.3639221.0405273-.0404358.1618652-.0808716.3842773.0606384.3032227.2224121.7277832.5661011,1.4758301.62677.282959.0202026.7075195-.0404358,1.1928711-.1415405.1416016-.8895874.3234863-1.8398132-.0405273-2.6687622-.1616211-.3638916-.6872559-.8087158-.6469727-.9906616.0405273-.2224121.34375-.3234863.6875-.2628174.3637695.0808716,1.3544922.5054321,1.3544922,1.3950195,0,.5661011-.3637695,1.597229-.4851074,2.1430969-.0202637.0606384-.0202637.1213074-.0405273.1819763.5256348-.1415405.9907227-.2830811,1.1726074-.3437195.4650879-.14151.7885742,0,.8491211.2426147.0405273.2426147-.0605469.6065369-.5861816.828949-.34375.1415405-.9299316.343689-1.597168.4852295-.0810547.7885132-.1010742,1.7993774-.0810547,3.194397v.2426147c.6066895-.1617432,1.1728516-.3638916,1.5568848-.62677.7277832-.5054321,0-.9906616-.3032227-1.4960938-.0405273-.0606689-.060791-.1213379-.0808105-.2021484-.1416016-.3639526.2021484-.1011353.3637695.0606079.3234863.2830811.6672363.4246216,1.0917969.5256958.3840332.1010742.7277832.0606689.9501953.28302.2224121.2426147.2629395,1.0917969-.6872559,1.5365601-.4853516.2224121-1.5974121.6065674-2.8305664.8895874.1213379,1.6983032.4042969,3.0529175.5053711,3.9627075,1.1928711.3841553,2.4060059,1.0311584,3.1135254,2.0622864.5458984.7884521.0405273,1.2332764-.0808105,1.2736816Zm-4.104248-2.7293701c-.6469727-.2831116-1.3544922-.4650574-2.1228027-.48526-1.5366211-.0202637-2.3452148.6065369-2.3452148,1.4759216,0,.4043579.8288574.9502563,2.0822754.9502563.8291016,0,2.284668-.3639526,2.3857422-1.940918Z"/>
    <path d="m25.5760034,46.4935303c-1.1323242-.1617432-2.284668.2628174-2.4868164.3841553-.3840332.2021484-1.4758301,1.4152222-2.0014648,2.9922485-1.314209,3.8818359-.8896484,6.4494629-.1416016,7.5412903.6875.9906616,2.2644043.6671753,3.1540527.6469727,1.0310059-.0404053,1.9206543.1010742,1.9003906.7480469-.0202637.5863037-1.0917969.7076416-1.4960938.7278442-1.7387695.1213379-3.2348633.1415405-4.2861328-1.1726074-.9301758-1.1524353-1.0715332-2.3655701-1.0917969-3.7807922-.060791-4.791626,3.0932617-7.6019287,3.0327148-7.7232361-.0405273-.1011047-.2832031.0404358-.5056152.0808716-.8491211.2223816-3.8007812,1.5163269-4.6501465,1.8398132-.3637695.1415405-1.192627.7076416-1.6577148.7683105-.9099121.1212769-2.001709-1.2737427-2.0825195-1.3950195-.1010742-.1213379-.1213379-.2830811-.0402832-.3841553.1210938-.1213379.222168-.0606689.4042969.0202026.1818848.0808716.7277832.4852295,1.4353027.3234863.7077637-.1617432,5.6206055-1.9813538,8.8757324-2.4868164.626709-.0808716.9301758-.4043579,1.7993164-.5863037.6269531-.1213074,1.7590332.3841553,1.9611816.76828.2224121.4043579.2629395.7278442-.1616211.9098206-.1416016.0808716-1.314209-.1415405-1.9611816-.2224121Zm2.1835938-2.7900696c.282959.0808716,2.1430664.6469727,2.1633301,1.9004822,0,.4043579-.1213379.5863037-.3640137.6671753s-.7075195-.0404053-.9299316-.5256348c-.2426758-.5256958-.6875-1.3344116-1.1726074-1.6376648-.2023926-.1213074-.4650879-.2628479-.4248047-.4043579.060791-.1617432.4448242-.0606384.7280273,0Zm2.1228027-1.0513306c.282959.0404358,2.223877.5054626,2.2644043,1.799408.0202637.343689-.1616211.4447632-.3032227.5054321-.2426758.1010742-.6469727.0202026-.9301758-.4447937-.282959-.4852295-.7883301-1.2130737-1.2939453-1.4556885-.2021484-.1011047-.5053711-.2223816-.4648438-.3639221.0402832-.1617432.4448242-.1010742.7277832-.0404358Z"/>
    <path d="m35.4951929,54.2369995l-.2224121-.2426147c.970459-1.0917969,1.940918-2.4666138,2.7900391-3.821228.7077637-1.1322021,1.3344727-2.5069885,1.6174316-3.5987549,2.0622559,1.0513306,2.0622559,1.2535095,1.6782227,1.3141479l-.3842773.0606689c-.4245605.7076416-1.0109863,1.5163574-1.657959,2.3452759l.5258789.2224121c-.060791.1819458-.2629395.3032227-.5661621.3638916v5.0545044c.0402832,2.426178.0808105,3.2348938.1616211,4.7511902-.1818848.2224121-.6872559.5661621-1.1726074.5661621-.2426758,0-.4648438-.2022095-.4648438-.4044189.1210938-1.7387085.1818848-2.6282959.222168-5.2566223v-3.7807617c-.7883301.8693848-1.6374512,1.7185059-2.5270996,2.4261475Zm5.4790039-10.3313599l-.3640137.0404358c-1.0915527,1.3141785-3.0324707,3.0933533-4.9936523,4.2053528l-.2021484-.2628784c.626709-.5458679,1.2736816-1.2332764,1.880127-1.9206848.8693848-1.0108948,1.7387695-2.3857117,2.0825195-3.4370422l1.0715332.7278442c.8896484.4043579.8896484.6065369.5256348.6469727Zm9.644043,9.3811035c.2224121-.28302.3840332-.5863037.5458984-.5863037.2424316,0,1.597168,1.1322021,1.597168,1.4354858-.060791.2223511-.2629395.3234863-.5256348.3234863h-4.447998v4.589447c.8896484.2426147,1.9206543.343689,3.1135254.343689.626709,0,1.9814453,0,2.7294922-.0202026v.2830811c-.4448242.0808716-.6672363.5256348-.6875,1.0715332h-2.1835938c-3.7402344,0-5.9035645-1.1322021-7.1367188-5.4588318-.5864258,2.2239685-1.5974121,4.4479065-3.3967285,5.9440613l-.2224121-.2224121c1.1323242-1.3545532,1.8601074-3.2146606,2.284668-5.1758118.3032227-1.2939453.4042969-3.1135254.2626953-4.2255249,2.284668.3841553,2.284668.5863037,1.940918.7683105l-.3435059.1819458c-.1010742.6671753-.2224121,1.3748169-.3842773,2.0824585.6672363,2.0015259,1.5568848,3.2146301,2.7900391,3.9222717v-4.2053528c0-1.3748169-.0808105-3.0327148-.2626953-4.1446533,2.1228027.6065063,2.1228027.8087158,1.7993164,1.0311279l-.3032227.2021484v2.4463501h2.4260254l.404541-.5863037Zm.6469727-4.3063965c.2224121-.2830811.3840332-.5863647.5458984-.5863647.2424316,0,1.597168,1.1524658,1.597168,1.4556885-.0405273.2224121-.2224121.3234863-.5056152.3234863h-8.4106445c-1.0512695.0202637-2.0217285.1213379-3.0324707.2830811l-.5256348-1.0513306c.8894043.1010742,1.7790527.1415405,2.6889648.1617432h2.567627v-3.1337891h-1.3344727c-.8491211.0202332-1.6174316.1213379-2.4260254.2830811l-.5056152-1.0513306c.8896484.1010742,1.7792969.14151,2.6889648.1617432h1.5771484c0-.9906921-.060791-2.2442017-.1821289-3.0731201,2.0825195.6065063,2.0825195.8087158,1.7590332,1.0310974l-.3032227.202179v1.8398438h2.5473633l.404541-.5661011c.2224121-.2830811.4042969-.5863342.565918-.5863342.2426758,0,1.5771484,1.1322021,1.5771484,1.4354553-.060791.2224121-.2224121.3234863-.5056152.3234863h-4.5893555v3.1337891h3.3964844l.404541-.5863037Z"/>
    <path d="m70.0603784,45.1591492c.2426758-.3032532.4245605-.6267395.5864258-.6267395.2426758,0,1.6779785,1.1928406,1.6779785,1.4960938-.0402832.2224121-.2426758.3234863-.5256348.3234863h-5.4992676v2.7698975h5.4387207l.4448242-.62677c.2424316-.3032837.4445801-.62677.6064453-.62677.2426758,0,1.7387695,1.2332764,1.7387695,1.5365601-.060791.2224121-.2426758.3234863-.5256348.3234863h-13.8493652c-1.0512695.0202026-2.0217285.1212769-3.0327148.28302l-.5256348-1.0512695c.8693848.1010742,1.7387695.1414795,2.628418.1617432h1.2736816v-.8289795c0-1.3748169-.0808105-3.0326538-.2629395-4.1446533,2.1230469.6065369,2.1230469.8087158,1.7995605,1.0311279l-.3234863.2021484v3.7403564h3.2954102v-2.3655396c0-1.3748169-.0808105-3.0326538-.2629395-4.1446533,2.2443848.62677,2.2443848.8289185,1.9006348,1.0513306l-.34375.2224121v1.880249h3.3359375l.4245605-.6065369Zm-7.1166992,6.5708313l-.3637695.0404053c-1.1323242,1.597229-3.255127,3.5583496-5.5803223,4.7310181l-.1818848-.2628174c.8693848-.6672363,1.7387695-1.5163574,2.5070801-2.4059448.8693848-1.0109253,1.6577148-2.3857422,1.9812012-3.4572754l1.0917969.7076416c.9099121.3840942.9099121.5863037.5458984.6469727Zm7.9658203,3.133728l-.4042969.0202637c-3.5178223,4.3872986-7.5209961,5.6812439-12.8989258,6.3484192l-.0810547-.3841553c3.5583496-.7277832,6.5708008-1.6982422,9.1386719-3.8616028,1.0310059-.8491821,2.3046875-2.507019,2.7697754-3.5179443l1.0109863.7480469c.8693848.4246216.8693848.62677.4648438.6469727Zm-6.0651855-5.1353149c2.0822754.62677,2.0822754.8289185,1.7587891,1.0311279l-.3032227.1819458v4.164917c0,1.0512695-.2426758,1.6982422-2.0014648,1.880249-.060791-.3841553-.1618652-.7278442-.4245605-.9300537-.2832031-.2224121-.7280273-.3841553-1.5771484-.4852295v-.3032227s1.9206543.1414795,2.3049316.1414795c.3032227,0,.4042969-.1010742.4042969-.3841553v-2.5878906c0-.8693237-.0405273-1.9611206-.1616211-2.7091675Zm3.8615723,1.1524048c6.0046387,1.6376953,5.6608887,5.074707,4.0839844,4.3063965-.7077637-1.4152222-2.7497559-3.133728-4.2661133-4.0839844l.1821289-.2224121Z"/>
  </g>
  <path d="m186.9031519,89.9065247l-.3637695.0809326c-1.1120605,2.1834717-3.1743164,4.9937744-5.8024902,6.7527466l-.2023926-.2426147c1.2131348-1.1119995,2.3049316-2.5878906,3.1743164-4.0839844.6875-1.1524658,1.253418-2.6081543,1.4758301-3.7200928l1.1525879.6065063c.9501953.3234863.9501953.5256958.565918.6065063Zm-.909668,6.1260376c-.8088379.0202026-1.5771484.1213379-2.3452148.2830811l-.5458984-1.0513306c.8894043.1010742,1.7790527.1414795,2.6889648.1617432h7.5412598l.3234863-.4043579c.1818848-.2022095.3234863-.4246216.4851074-.4246216.2426758,0,1.4152832.9907227,1.4152832,1.2939453-.1416016.1415405-.3840332.2628784-.7683105.3032837-.1818848,4.6299438-.6672363,7.8850098-1.5566406,8.7745972-.5256348.5256348-1.2939453.7682495-2.1835938.7682495.0202637-.3840942-.0808105-.7682495-.3840332-.9502563-.34375-.2425537-1.2536621-.4649658-2.0419922-.5863037l.0200195-.3638916c.9099121.1010742,2.5070801.2426147,2.9519043.2426147.3640137,0,.5458984-.0404663.7277832-.2426147.6066895-.5661011,1.0109863-3.6392212,1.1928711-7.8041382h-4.8522949c-.34375,3.2146606-1.3544922,6.9347534-7.015625,9.7247925l-.2224121-.343689c4.9130859-2.9517822,5.6611328-6.5101318,5.8430176-9.3811035h-1.2736816Zm12.7373047-.90979l-.0405273.2022095c-.5661621.1212769-1.0310059.56604-1.1928711,1.0715332-2.5878906-1.8196411-4.6704102-4.6096802-5.6608887-7.6625977h-1.4355469c-.9299316.0202026-1.7790527.1213379-2.6687012.2830811l-.5458984-1.0311279c.8896484.1010742,1.7790527.1414795,2.6889648.1617432h1.4960938l.6064453-.9502563,1.6984863,1.2130737c-.1618652.2426147-.6469727.3841553-1.2739258.4245605,1.0109863,2.3250732,3.4572754,4.8927612,6.3283691,6.2877808Z"/>
  <path d="m424.6511987,89.9065247l-.3642578.0809326c-1.1118164,2.1834717-3.1738281,4.9937744-5.8022461,6.7527466l-.2021484-.2426147c1.2128906-1.1119995,2.3046875-2.5878906,3.1743164-4.0839844.6870117-1.1524658,1.253418-2.6081543,1.4755859-3.7200928l1.1523438.6065063c.9501953.3234863.9501953.5256958.5664062.6065063Zm-.9101562,6.1260376c-.8085938.0202026-1.5766602.1213379-2.3452148.2830811l-.5458984-1.0513306c.8896484.1010742,1.7792969.1414795,2.6889648.1617432h7.5415039l.3232422-.4043579c.1821289-.2022095.3237305-.4246216.4853516-.4246216.2426758,0,1.4155273.9907227,1.4155273,1.2939453-.1416016.1415405-.3842773.2628784-.7685547.3032837-.1816406,4.6299438-.6669922,7.8850098-1.5566406,8.7745972-.5258789.5256348-1.2939453.7682495-2.1835938.7682495.0200195-.3840942-.0810547-.7682495-.3842773-.9502563-.34375-.2425537-1.253418-.4649658-2.0419922-.5863037l.0205078-.3638916c.909668.1010742,2.5068359.2426147,2.9516602.2426147.3637695,0,.5458984-.0404663.7280273-.2426147.6064453-.5661011,1.0107422-3.6392212,1.1928711-7.8041382h-4.8525391c-.34375,3.2146606-1.3544922,6.9347534-7.015625,9.7247925l-.222168-.343689c4.9125977-2.9517822,5.6606445-6.5101318,5.8427734-9.3811035h-1.2739258Zm12.7373047-.90979l-.0400391.2022095c-.5664062.1212769-1.03125.56604-1.1928711,1.0715332-2.5878906-1.8196411-4.6704102-4.6096802-5.6611328-7.6625977h-1.4355469c-.9301758.0202026-1.7792969.1213379-2.6689453.2830811l-.5458984-1.0311279c.8896484.1010742,1.7792969.1414795,2.6889648.1617432h1.4960938l.6069336-.9502563,1.6982422,1.2130737c-.1616211.2426147-.6469727.3841553-1.2739258.4245605,1.0112305,2.3250732,3.4575195,4.8927612,6.328125,6.2877808Z"/>
  <g>
    <path d="m240.0730737,26.8154907c.2021484-.28302.3640137-.5661011.5256348-.5661011.2426758,0,1.5163574,1.0917969,1.5163574,1.39505-.0405273.2223816-.2629395.3234863-.5053711.3234863h-4.0437012v1.3545837c4.9533691,1.1119995,4.3469238,4.2659912,2.8710938,3.4168396-.4248047-1.0917664-1.7387695-2.3250427-2.8710938-3.052887v2.082428c.0405273,2.082428.060791,2.7698669.1416016,4.0435791-.1416016.2628479-.6875.5458679-1.1323242.5458679-.2424316,0-.4042969-.2021484-.4042969-.4043579.0808105-1.2737122.1213379-1.9004517.1618652-3.821167v-2.1228638c-1.1120605,1.9813232-2.6689453,3.6796265-4.5895996,5.0140381l-.2224121-.3032837c1.9006348-1.7791748,3.3562012-4.2255249,4.2255859-6.7527771h-1.253418c-.7683105.0202332-1.5163574.1213074-2.2644043.2830505l-.5256348-1.0311279c.8894043.1011047,1.7790527.1415405,2.6889648.1617432h1.940918c0-.8491211-.0405273-1.9206848-.1618652-2.6485291,2.0825195.6065369,2.0825195.8087158,1.7387695,1.0310974l-.34375.2224121v1.3950195h2.1230469l.3840332-.5661011Zm1.2331543-7.3188477l-.4851074-.0808716c-2.223877.6469727-5.6608887,1.2130737-8.7946777,1.3545837l-.0810547-.3234863c1.6174316-.2426147,3.3562012-.6672058,4.9130859-1.1524353,1.2736816-.3841248,2.4868164-.9299927,3.416748-1.5567627l.7683105,1.0108948c.7480469.6065369.7480469.8087158.2626953.7480774Zm-8.8149414,1.9004517c3.2956543,1.7185364,2.0825195,4.306427.970459,3.2550964,0-1.0310974-.626709-2.3452759-1.2331543-3.1337585l.2626953-.1213379Zm3.0935059-.6065063c3.2145996,1.8398132,1.940918,4.4277039.8693848,3.3359375,0-1.0513306-.5458984-2.3857117-1.0917969-3.2348633l.2224121-.1010742Zm6.328125.8895874l-.3640137.1010742c-.7480469,1.2939453-1.7587891,2.5878906-2.729248,3.4370422l-.2832031-.202179c.1010742-.1617432.2021484-.343689.3234863-.5458984.626709-1.1726074,1.2131348-2.8911438,1.3950195-4.0233459l1.1120605.6065369c.9099121.3234863.9099121.5256653.5458984.62677Zm7.4199219,8.269104l-.3640137.0404358c-2.223877,3.1539917-5.074707,5.1151428-8.6733398,6.388855l-.1416016-.3639221c1.9611816-.970459,3.6999512-2.1835327,5.1960449-3.7605286.9299316-.970459,1.9611816-2.5878906,2.3249512-3.6392212l1.1120605.6874084c.9299316.3841553.9299316.5863037.5458984.6469727Zm-.3840332-5.5801392l-.3640137.0404358c-1.7993164,2.0622253-4.2255859,3.7605286-6.8537598,4.8927307l-.2023926-.3639221c1.1928711-.7278442,2.345459-1.5769958,3.3967285-2.5878906.9501953-.9300232,2.0217285-2.365509,2.4665527-3.3966064l1.0512695.7480774c.8896484.4245605.8896484.6267395.5056152.6671753Zm-.2426758-5.0342407l-.3640137.0202026c-1.7387695,1.7589722-4.104248,3.3561707-6.5100098,4.4277344l-.2021484-.3437195c1.0107422-.6469727,2.0217285-1.4152527,2.9719238-2.2846375.9907227-.90979,2.0825195-2.2644043,2.567627-3.2955017l1.03125.7884827c.8691406.4448242.8691406.6469727.5053711.687439Z"/>
    <path d="m268.4116968,28.109436c-.6872559,6.5101929-8.5925293,6.5708313-9.0373535,6.6314697-.6469727.0606689-1.0109863.0606689-1.0310059-.0808716-.0405273-.1212769.5256348-.1819458.7883301-.2223816,2.2443848-.3639221,7.4401855-1.9004822,7.8447266-6.6112366.4245605-4.7107849-2.9316406-6.6112671-5.762207-6.7730103-.2629395-.0202026-.5256348-.0202026-.7885742,0,.3234863.6671753,1.1928711,2.7900696-.282959,6.2675476-1.6376953,3.8616028-4.0031738,5.6812439-4.8320312,5.5801392-.8491211-.1011047-2.284668-1.6983032-2.4465332-4.2053223-.3435059-5.0746765,3.8618164-7.7434387,6.7731934-8.2084656,3.2548828-.5256653,9.4416504,1.0715332,8.7744141,7.6221313Zm-8.3295898-7.0358276c-2.4868164.2830811-4.9333496,1.9207153-5.8835449,4.8118896-1.0917969,3.3359375.6064453,5.1353149,1.0109863,5.3375244.3840332.2021484.8894043-.2022095.8894043-.2022095,2.345459-1.7185059,3.6594238-5.0342407,3.9223633-5.9642639.2629395-.9502258.4042969-2.8507385.060791-3.9829407Z"/>
    <path d="m278.5137476,28.0690308c.1818848-.2628479.3234863-.5458984.4851074-.5458984.2426758,0,1.3950195,1.0513306,1.3950195,1.3546143-.0605469.2021484-.2424316.3032532-.4648438.3032532h-3.1540527v.7278442c4.0031738.9300232,3.1943359,3.477478,1.940918,2.6889954-.3032227-.7683105-1.1726074-1.7589722-1.940918-2.365509v1.9004822c.0402832,1.880249.0605469,2.507019.1416016,3.6594238-.1416016.2426147-.6269531.5458984-1.0717773.5458984-.222168,0-.3840332-.202179-.3840332-.4043579.0808105-1.0513306.1213379-1.5769958.1618652-3.1741943v-1.799408c-.9504395,1.5971985-2.1835938,2.9922485-3.7607422,4.1042175l-.2224121-.3234863c1.5771484-1.4960938,2.7700195-3.477478,3.4978027-5.559906h-1.0310059c-.6469727.0202332-1.2131348.1213074-1.8198242.2830505l-.5256348-1.0311279c.8693848.1011047,1.7387695.1415405,2.628418.1617432h1.2333984c0-.970459-.060791-2.1228638-.1821289-2.9315796,2.0622559.6065369,2.0622559.8087158,1.6982422,1.0311279l-.3637695.2223816v1.6780701h1.3950195l.34375-.5256348Zm8.0466309-8.3297729c.2224121-.2830811.3840332-.5863342.5458984-.5863342.2426758,0,1.5568848,1.1322021,1.5568848,1.4354553-.0405273.2224121-.2426758.3234863-.5056152.3234863h-6.2270508c1.7790527,1.8196411,4.8117676,3.3562012,7.298584,4.0435791l-.0200195.2022095c-.4853516.0808716-.9099121.4245605-1.03125,1.0108643-2.5273438-1.0108643-5.2565918-2.9315796-6.7932129-5.2566528h-.1213379v1.8196411c.0405273,1.8195801.060791,2.4261475.1213379,3.5178833-.1213379.2426147-.6875.4852295-1.1726074.4852295-.2426758,0-.3842773-.2021484-.3842773-.4043579.0810547-1.0310974.1013184-1.5567627.1416016-3.1135254v-1.7589722c-1.7790527,2.1633301-4.4074707,3.8009644-7.4804688,4.8724976l-.2023926-.3638916c2.7092285-1.1928711,5.0546875-3.0327148,6.5507812-5.0545044h-2.5476074c-1.0512695.0202332-2.0217285.1213379-3.0327148.2830811l-.5256348-1.0311279c.8896484.1010742,1.7792969.1415405,2.6889648.1617432h4.5490723c0-.8491516-.0402832-1.8600464-.1616211-2.567688,2.1430664.62677,2.1430664.828949,1.7993164,1.0513306l-.34375.2224121v1.2939453h4.9130859l.3840332-.5863037Zm.9299316,8.269104c.2023926-.2830505.3640137-.5863037.5258789-.5863037.2424316,0,1.536377,1.1524048,1.536377,1.4556885-.0402832.2021484-.2224121.3032532-.4851074.3032532h-3.5583496c.9907227,2.0420227,2.729248,3.7807312,4.387207,4.6299133l-.0202637.1819458c-.4851074.0808716-.8491211.4447937-1.0310059,1.0513306-1.5769043-1.2130737-2.9316406-3.2146606-3.7402344-5.7216797v2.223999c.0402832,2.2037354.0605469,2.9517822.1413574,4.3063965-.1413574.2628174-.6469727.5054321-1.1118164.5054321-.2629395,0-.4248047-.2021484-.4248047-.4043579.0810547-1.1726074.1213379-1.7589417.1618652-3.5178833v-1.9611511c-1.253418,2.0217896-3.072998,3.6594543-5.3779297,4.8725281l-.1818848-.3437195c2.1630859-1.4759216,3.8818359-3.5381165,4.9128418-5.8227539h-.9299316c-.5661621.0202332-1.0515137.1213074-1.5771484.2830505l-.5053711-1.0311279c.8085938.1011047,1.6174316.1415405,2.4665527.1617432h1.1928711c0-.9299927-.0605469-2.1026611-.1818848-2.8911438,2.1228027.6267395,2.1228027.828949,1.7587891,1.0513306l-.3435059.202179v1.6376343h2.0014648l.3840332-.5863037Z"/>
    <path d="m298.9671167,21.2353516l-.3842773.1011047c-1.3950195,2.8305054-3.3562012,5.0949097-5.4384766,6.4899597l-.2224121-.2426147c.8693848-.8895874,1.7993164-2.0824585,2.6081543-3.4572754.6872559-1.1524048,1.4555664-3.0326843,1.6577148-4.1446533l1.1726074.6065063c.9907227.3234863.9907227.5256958.6066895.6469727Zm7.4804688,11.8477173c-.8693848-1.4556885-2.0217285-2.911377-2.9921875-3.9627075l.2224121-.1617432c6.7529297,4.1850891,5.8430176,8.4308472,4.1245117,7.0964661-.2021484-.7884827-.5864258-1.6578674-1.1120605-2.5676575-2.8103027.5863037-6.4291992,1.2130737-11.3220215,1.9004517-.1213379.2224121-.34375.3639526-.5256348.4043579l-.7277832-1.880249c.7885742-.0202026,1.9206543-.0606689,3.2751465-.1415405.6875-1.5971985,1.375-3.5178833,1.940918-5.3981628.3842773-1.2737122.7077637-2.8507385.7683105-3.9829407,2.345459.6469727,2.345459.8491821,1.9611816,1.0109253l-.3640137.1617432c-.7883301,2.3856812-2.2036133,5.6003418-3.7402344,8.1680298,2.3857422-.1617432,5.3981934-.3841553,8.4914551-.6469727Zm4.6096191-6.8336792l-.0400391.2224121c-.5664062.1213074-1.0517578.5863037-1.2133789,1.0917664-2.7697754-1.9611511-4.8320312-4.9129333-5.7416992-8.3500061h-1.7792969c-1.0512695.0202332-2.0217285.1213379-3.0327148.2830811l-.5458984-1.0109253c.8896484.1011047,1.7792969.1415405,2.6889648.1617432h2.2038574l.626709-.9906616,1.7185059,1.2535095c-.2021484.2628479-.6872559.3841248-1.3342285.4245911.9702148,2.6485291,3.3964844,5.418396,6.4492188,6.9144897Z"/>
    <path d="m316.5889429,35.8529053c0,.1819458-.4648438.5054321-.9907227.5054321-.2426758,0-.4648438-.2021484-.4648438-.4043579.1210938-1.7387085.1821289-2.6282959.222168-5.2566528v-8.269104c0-1.3748169-.0805664-3.0326843-.2626953-4.1446533l1.597168.7682495h12.8383789l.3032227-.4245605c.1821289-.202179.3032227-.4245605.465332-.4245605.2421875,0,1.5161133.9906616,1.5161133,1.2939453-.1416016.1617432-.4648438.3234863-.8491211.4043579v10.8974304c.0405273,2.4261475.0810547,3.2348633.1616211,4.7511902-.2021484.2426147-.7680664.6065674-1.2128906.6065674h-.2021484v-1.0109253h-13.121582v.7076416Zm0-1.3141479h13.121582v-14.8803711h-13.121582v14.8803711Zm9.6235352-13.1820679c.1821289-.2426147.3237305-.4852295.4853516-.4852295.2426758,0,1.3344727.9502258,1.3344727,1.253479-.0405273.2022095-.2426758.3032837-.5053711.3032837h-3.8012695v1.4961243h3.0532227l.34375-.4852295c.1816406-.2426147.3232422-.5054626.4848633-.5054626.2426758,0,1.375.9502563,1.375,1.25354-.0605469.2223816-.222168.3234863-.4853516.3234863h-7.6826172c-1.0512695.0202026-2.0219727.1212769-3.0327148.28302l-.5258789-1.0310974c.8896484.1011047,1.7792969.14151,2.6894531.1617432h2.5673828v-1.4961243h-1.3139648c-.8491211.0202026-1.6176758.1213074-2.4262695.2830505l-.5053711-1.0310974c.8896484.1010742,1.7792969.14151,2.6889648.1617432h1.5566406c0-.6065674-.0200195-1.3141785-.1010742-1.8398438,1.8598633.6065369,1.8598633.8087158,1.5771484.9906616l-.2631836.1617432v.687439h2.1435547l.3432617-.4852295Zm-.1010742,4.0435791c.1621094-.1819763.2631836-.3841553.4248047-.3841553.2426758,0,1.2333984.8289185,1.2333984,1.1322021-.1010742.1213074-.3642578.2830505-.6269531.3234863v2.4261475l.2226562-.3234863c1.1523438.970459,1.1523438,1.1726379.8286133,1.1524048l-.3032227-.0404053c-.4243164.3032532-1.1323242.7682495-1.7387695,1.111969.6469727.2628479,1.1728516.5661011,1.597168.9098206,1.0112305.8693542.5664062,1.9611206-.3637695,1.253479-.6669922-.8491211-2.1430664-1.9813232-3.6796875-2.5474243v1.0513306c.0405273,1.0310974.0405273,1.3748169.1010742,1.9611206-.1010742.2224121-.5053711.5054321-1.1118164.5054321-.1821289,0-.3032227-.2021484-.3032227-.4043579.0605469-.7278442.0805664-1.111969.1210938-2.223938v-1.3344116c-1.2128906,1.3546143-2.8505859,2.4666138-4.6704102,3.2955322l-.222168-.343689c1.7792969-1.0513306,3.3359375-2.507019,4.3466797-4.0840454h-1.7792969v.3841553c0,.1213074-.5253906.3639221-.9902344.3639221-.1621094,0-.2631836-.202179-.2631836-.4043579.0605469-.3437195.0605469-.5256653.1010742-1.0513306v-.7480774c0-.7480469-.0405273-1.6578369-.1416016-2.3048096l1.3950195.6873779h5.5400391l.2827148-.3638916Zm-5.9238281.9502258v1.8802795h5.7827148v-1.8802795h-5.7827148Zm5.9643555,3.052887h-.1816406v-.5661011h-2.2646484v1.25354c.7280273.1617432,1.4155273.343689,2.0219727.5458679.3837891-.3841248.8286133-.9502258,1.1928711-1.4556885-.2021484.1213074-.5258789.2223816-.7685547.2223816Z"/>
  </g>
  <g>
    <path d="m241.1663354,60.0395203c-.282959.1213379-.626709-.1617432-.8693848-.3840942-.2426758-.2224121-1.0512695-1.0715942-2.1835938-1.7791748-.2021484,1.0513306-.9501953,2.4059448-3.2145996,2.3856812-1.5769043,0-3.0327148-.7278442-3.0327148-2.0015869,0-1.2535095,1.4960938-2.1026917,3.255127-2.082428.4853516,0,1.1523438.0606689,1.9003906.2224121-.1210938-1.1524658-.2021484-2.3048706-.2424316-3.4775391-.9301758.1820068-1.8803711.2830811-2.628418.2022095-1.597168-.1819458-2.2441406-1.1119995-2.4665527-1.5567627-.0808105-.1819458-.0808105-.2628784-.0405273-.3032837.0810547-.0606689.2021484.0404053.3234863.1213379.2023926.1414795,1.3950195.90979,2.8913574.7884521.5256348-.0404053,1.2128906-.1010742,1.9003906-.2224121,0-1.1726074.0202637-2.3452148.1010742-3.5178833-.4853516.0404663-.9501953,0-1.3344727-.1617432-.565918-.2224121-1.2331543-.8087158-1.4758301-1.1322021-.0808105-.1213074-.1818848-.2830505-.1213379-.3639221.0405273-.0404358.1618652-.0808716.3842773.0606384.3032227.2224121.7277832.5661011,1.4758301.62677.282959.0202026.7075195-.0404358,1.1928711-.1415405.1416016-.8895874.3234863-1.8398132-.0405273-2.6687622-.1616211-.3638916-.6872559-.8087158-.6469727-.9906616.0405273-.2224121.34375-.3234863.6875-.2628174.3640137.0808716,1.3544922.5054321,1.3544922,1.3950195,0,.5661011-.3637695,1.597229-.4851074,2.1430969-.0202637.0606384-.0202637.1213074-.0405273.1819763.5256348-.1415405.9907227-.2830811,1.1726074-.3437195.4650879-.14151.7885742,0,.8491211.2426147.0405273.2426147-.0605469.6065369-.5861816.828949-.34375.1415405-.9301758.343689-1.597168.4852295-.0810547.7885132-.1010742,1.7993774-.0810547,3.194397v.2426147c.6066895-.1617432,1.1728516-.3638916,1.5568848-.62677.7277832-.5054321,0-.9906616-.3032227-1.4960938-.0405273-.0606689-.060791-.1213379-.0808105-.2021484-.1416016-.3639526.2021484-.1011353.3637695.0606079.3234863.2830811.6672363.4246216,1.0917969.5256958.3842773.1010742.7277832.0606689.9501953.28302.2224121.2426147.2629395,1.0917969-.6872559,1.5365601-.4853516.2224121-1.5974121.6065674-2.8305664.8895874.1213379,1.6983032.4042969,3.0529175.5053711,3.9627075,1.1928711.3841553,2.4060059,1.0311584,3.1135254,2.0622864.5458984.7884521.0405273,1.2332764-.0808105,1.2736816Zm-4.104248-2.7293701c-.6469727-.2831116-1.3544922-.4650574-2.1228027-.48526-1.5366211-.0202637-2.3452148.6065369-2.3452148,1.4759216,0,.4043579.8288574.9502563,2.0822754.9502563.8291016,0,2.284668-.3639526,2.3857422-1.940918Z"/>
    <path d="m257.1931909,46.4935303c-1.1323242-.1617432-2.284668.2628174-2.4868164.3841553-.3840332.2021484-1.4758301,1.4152222-2.0014648,2.9922485-1.314209,3.8818359-.8896484,6.4494629-.1416016,7.5412903.6872559.9906616,2.2644043.6671753,3.1540527.6469727,1.0310059-.0404053,1.9206543.1010742,1.9003906.7480469-.0202637.5863037-1.0917969.7076416-1.4960938.7278442-1.7387695.1213379-3.2348633.1415405-4.2861328-1.1726074-.9301758-1.1524353-1.0715332-2.3655701-1.0917969-3.7807922-.060791-4.791626,3.0932617-7.6019287,3.0327148-7.7232361-.0405273-.1011047-.2832031.0404358-.5056152.0808716-.8491211.2223816-3.8007812,1.5163269-4.6501465,1.8398132-.3637695.1415405-1.1928711.7076416-1.6577148.7683105-.9099121.1212769-2.001709-1.2737427-2.0825195-1.3950195-.1010742-.1213379-.1213379-.2830811-.0405273-.3841553.1213379-.1213379.2224121-.0606689.404541.0202026.1818848.0808716.7277832.4852295,1.4353027.3234863.7077637-.1617432,5.6206055-1.9813538,8.8757324-2.4868164.626709-.0808716.9299316-.4043579,1.7993164-.5863037.6269531-.1213074,1.7590332.3841553,1.9611816.76828.2224121.4043579.2629395.7278442-.1616211.9098206-.1416016.0808716-1.314209-.1415405-1.9611816-.2224121Zm2.1835938-2.7900696c.282959.0808716,2.1430664.6469727,2.1633301,1.9004822,0,.4043579-.1213379.5863037-.3640137.6671753s-.7075195-.0404053-.9299316-.5256348c-.2426758-.5256958-.6875-1.3344116-1.1728516-1.6376648-.2021484-.1213074-.4648438-.2628479-.4245605-.4043579.060791-.1617432.4448242-.0606384.7280273,0Zm2.1228027-1.0513306c.282959.0404358,2.223877.5054626,2.2644043,1.799408.0202637.343689-.1618652.4447632-.3032227.5054321-.2426758.1010742-.6469727.0202026-.9301758-.4447937-.282959-.4852295-.7883301-1.2130737-1.2939453-1.4556885-.2021484-.1011047-.5053711-.2223816-.4648438-.3639221.0402832-.1617432.4448242-.1010742.7277832-.0404358Z"/>
    <path d="m267.1123804,54.2369995l-.2224121-.2426147c.970459-1.0917969,1.940918-2.4666138,2.7900391-3.821228.7077637-1.1322021,1.3344727-2.5069885,1.6174316-3.5987549,2.0622559,1.0513306,2.0622559,1.2535095,1.6782227,1.3141479l-.3842773.0606689c-.4245605.7076416-1.0107422,1.5163574-1.6577148,2.3452759l.5256348.2224121c-.060791.1819458-.2629395.3032227-.5661621.3638916v5.0545044c.0405273,2.426178.0808105,3.2348938.1616211,4.7511902-.1818848.2224121-.6872559.5661621-1.1726074.5661621-.2424316,0-.4648438-.2022095-.4648438-.4044189.1210938-1.7387085.1818848-2.6282959.2224121-5.2566223v-3.7807617c-.7885742.8693848-1.6376953,1.7185059-2.5273438,2.4261475Zm5.4790039-10.3313599l-.3637695.0404358c-1.0917969,1.3141785-3.0327148,3.0933533-4.9938965,4.2053528l-.2021484-.2628784c.626709-.5458679,1.2736816-1.2332764,1.880127-1.9206848.8693848-1.0108948,1.7387695-2.3857117,2.0825195-3.4370422l1.0715332.7278442c.8896484.4043579.8896484.6065369.5256348.6469727Zm9.644043,9.3811035c.2224121-.28302.3840332-.5863037.5458984-.5863037.2424316,0,1.597168,1.1322021,1.597168,1.4354858-.060791.2223511-.2629395.3234863-.5256348.3234863h-4.447998v4.589447c.8896484.2426147,1.9206543.343689,3.1135254.343689.626709,0,1.9814453,0,2.7294922-.0202026v.2830811c-.4448242.0808716-.6672363.5256348-.6875,1.0715332h-2.1835938c-3.7402344,0-5.9035645-1.1322021-7.1367188-5.4588318-.5864258,2.2239685-1.5974121,4.4479065-3.3967285,5.9440613l-.2224121-.2224121c1.1323242-1.3545532,1.8601074-3.2146606,2.284668-5.1758118.3032227-1.2939453.4042969-3.1135254.2629395-4.2255249,2.2844238.3841553,2.2844238.5863037,1.940918.7683105l-.34375.1819458c-.1010742.6671753-.2224121,1.3748169-.3842773,2.0824585.6672363,2.0015259,1.5568848,3.2146301,2.7900391,3.9222717v-4.2053528c0-1.3748169-.0808105-3.0327148-.2626953-4.1446533,2.1228027.6065063,2.1228027.8087158,1.7993164,1.0311279l-.3032227.2021484v2.4463501h2.4260254l.404541-.5863037Zm.6469727-4.3063965c.2224121-.2830811.3840332-.5863647.5458984-.5863647.2424316,0,1.597168,1.1524658,1.597168,1.4556885-.0405273.2224121-.2224121.3234863-.5053711.3234863h-8.4106445c-1.0515137.0202637-2.0219727.1213379-3.0327148.2830811l-.5258789-1.0513306c.8896484.1010742,1.7792969.1415405,2.689209.1617432h2.567627v-3.1337891h-1.3344727c-.8491211.0202332-1.6174316.1213379-2.4260254.2830811l-.5056152-1.0513306c.8896484.1010742,1.7792969.14151,2.6889648.1617432h1.5771484c0-.9906921-.060791-2.2442017-.1821289-3.0731201,2.0825195.6065063,2.0825195.8087158,1.7590332,1.0310974l-.3032227.202179v1.8398438h2.5473633l.404541-.5661011c.222168-.2830811.4042969-.5863342.565918-.5863342.2426758,0,1.5771484,1.1322021,1.5771484,1.4354553-.060791.2224121-.2224121.3234863-.5056152.3234863h-4.5893555v3.1337891h3.3964844l.404541-.5863037Z"/>
    <path d="m301.6775659,45.1591492c.2426758-.3032532.4245605-.6267395.5864258-.6267395.2424316,0,1.6779785,1.1928406,1.6779785,1.4960938-.0402832.2224121-.2426758.3234863-.5256348.3234863h-5.4992676v2.7698975h5.4387207l.4445801-.62677c.2426758-.3032837.4448242-.62677.6066895-.62677.2426758,0,1.7387695,1.2332764,1.7387695,1.5365601-.060791.2224121-.2426758.3234863-.5256348.3234863h-13.8493652c-1.0512695.0202026-2.0217285.1212769-3.0327148.28302l-.5256348-1.0512695c.8693848.1010742,1.7387695.1414795,2.628418.1617432h1.2736816v-.8289795c0-1.3748169-.0808105-3.0326538-.2629395-4.1446533,2.1230469.6065369,2.1230469.8087158,1.7995605,1.0311279l-.3234863.2021484v3.7403564h3.2954102v-2.3655396c0-1.3748169-.0808105-3.0326538-.2626953-4.1446533,2.2441406.62677,2.2441406.8289185,1.9003906,1.0513306l-.34375.2224121v1.880249h3.3359375l.4245605-.6065369Zm-7.1166992,6.5708313l-.3637695.0404053c-1.1323242,1.597229-3.255127,3.5583496-5.5803223,4.7310181l-.1818848-.2628174c.8693848-.6672363,1.7387695-1.5163574,2.5070801-2.4059448.8693848-1.0109253,1.6577148-2.3857422,1.9812012-3.4572754l1.0917969.7076416c.9099121.3840942.9099121.5863037.5458984.6469727Zm7.9658203,3.133728l-.4042969.0202637c-3.5178223,4.3872986-7.5209961,5.6812439-12.8989258,6.3484192l-.0810547-.3841553c3.5583496-.7277832,6.5710449-1.6982422,9.1386719-3.8616028,1.0310059-.8491821,2.3046875-2.507019,2.7697754-3.5179443l1.0109863.7480469c.8693848.4246216.8693848.62677.4648438.6469727Zm-6.0651855-5.1353149c2.0822754.62677,2.0822754.8289185,1.7587891,1.0311279l-.3032227.1819458v4.164917c0,1.0512695-.2426758,1.6982422-2.0014648,1.880249-.060791-.3841553-.1618652-.7278442-.4245605-.9300537-.2832031-.2224121-.7280273-.3841553-1.5771484-.4852295v-.3032227s1.9206543.1414795,2.3049316.1414795c.3032227,0,.4042969-.1010742.4042969-.3841553v-2.5878906c0-.8693237-.0405273-1.9611206-.1616211-2.7091675Zm3.8615723,1.1524048c6.0046387,1.6376953,5.6608887,5.074707,4.0839844,4.3063965-.7077637-1.4152222-2.7497559-3.133728-4.2661133-4.0839844l.1821289-.2224121Z"/>
  </g>
  <path class="cls-1" d="m178.1970972,0c1.0012207,0,1.8356934.6675415,1.8356934,1.335083,0,2.0026245-2.8371582,6.5085449-6.1748047,9.1787109-.8344727.5006409-2.670166,1.0012817-4.5058594,1.0012817-4.1721191,0-19.692627.3338013-24.3652344.3338013-1.0014648,0-2.1696777,1.1681824-2.503418,1.8357239-4.1721191,6.1747742-7.8435059,12.6832886-8.010498,14.6859131,0,1.0013123,1.8356934,2.3363953,3.3376465,3.1708069,7.0092773,4.3390503,12.1826172,7.3429565,17.6899414,11.3482056,10.5136719,7.5098572,16.3547363,15.8541565,16.3547363,26.8685608,0,6.675415-2.670166,15.6872559-12.015625,23.864624-6.6755371,6.1748047-18.5244141,12.8502197-31.8752441,12.8502197-4.6728516,0-9.0117188-.8344727-11.6818848-3.3377686-1.5019531-1.335083-2.3364258-4.1721191-2.3364258-6.3416138,0-.8344116.6674805-1.5019531.8344727-1.5019531.6674805,0,1.5019531.5006714,3.3376465,1.6688232,5.340332,4.3390503,11.3481445,5.340332,16.5217285,5.340332,10.8474121,0,26.7016602-7.3429565,26.7016602-27.3692017,0-12.5164185-9.0119629-21.6950989-24.1984863-30.3731384-7.6767578-4.6727905-8.6779785-6.675415-8.6779785-7.6767578,0-1.1681824.3337402-3.3377075,2.0026855-6.8422852,2.670166-6.1747437,8.5109863-17.5229492,12.5163574-22.6964111,2.0026855-2.5032959,4.005127-3.8383789,5.8408203-4.1721191,8.1774902-1.5019836,25.5336914-3.1708374,29.3720703-3.1708374Z"/>
  <path class="cls-1" d="m413.5386499,25.7003479c0,15.3534546-7.1762695,30.7069092-16.8554688,43.5571289-12.6831055,16.3547363-25.5336914,25.3665771-37.7163086,32.8764038-5.5068359,3.1708374-9.0117188,3.8383789-9.512207,3.8383789-.6674805,0-1.6689453,0-1.8359375-.6675415,0-.3338013.6674805-.8344727,1.168457-1.1682129,13.8515625-7.8436279,33.2099609-27.5360718,43.2231445-45.2259521.3339844-.6675415.3339844-1.6688232-.3334961-1.335083-7.5102539,3.6715088-12.0161133,4.6727905-17.3564453,4.6727905-8.1772461,0-17.0219727-7.1760864-17.0219727-21.8619995,0-9.0118103,4.8393555-20.8606873,12.6831055-29.0380554,8.1772461-8.010498,16.3549805-11.3482056,23.8647461-11.3482056,14.3520508,0,19.6923828,14.1852417,19.6923828,25.7003479Zm-34.7124023-14.5190125c-6.0078125,7.3429565-10.1796875,21.1944275-10.1796875,30.0393677,0,11.1813049,5.0063477,17.0223083,11.6816406,17.0223083,4.1723633,0,8.0107422-1.0012817,10.8476562-3.1708374,2.0029297-1.335083,3.5048828-2.8370667,4.5058594-4.6727905,3.1708984-5.6741028,8.3442383-21.0275574,8.3442383-32.2088928,0-7.5098267-2.3364258-16.0209961-11.1811523-16.0209961-2.8369141,0-8.5112305,2.3364258-14.0185547,9.0118408Z"/>
</svg>