<?xml version="1.0" encoding="UTF-8"?>
<svg id="_レイヤー_2" data-name="レイヤー 2" xmlns="http://www.w3.org/2000/svg" viewBox="0 0 794.1609628 122.8232422">
  <defs>
    <style>
      .cls-1 {
        fill: none;
      }

      .cls-2 {
        fill: #606060;
      }
    </style>
  </defs>
  <g id="_レイヤー_1-2" data-name="レイヤー 1">
    <g>
      <rect class="cls-1" width="794.1609628" height="122.8232422"/>
      <g>
        <g>
          <path d="m16.3361816,1.2929688c.2382812-.3183594.4375-.6367188.5966797-.6367188.2392578,0,1.7109375,1.2148438,1.7109375,1.5126953-.0390625.21875-.2382812.3183594-.4970703.3183594h-6.0292969v3.3427734h4.0390625l.2792969-.4179688c.1591797-.1992188.2783203-.4179688.4375-.4179688.2382812,0,1.3925781.8955078,1.3925781,1.1943359-.1386719.1591797-.3779297.2783203-.7958984.3583984v6.5654297c.0400391,2.3876953.0800781,3.1835938.1591797,4.6767578-.1591797.1787109-.6162109.5166016-1.2138672.5166016-.1787109,0-.2587891-.1982422-.2587891-.3974609.0400391-.2792969.0400391-.4375.0800781-.8759766v-.6367188H3.7404785v.5175781c.0400391.5166016.0400391.6962891.0800781.9345703-.0800781.1992188-.4775391.5175781-1.0947266.5175781-.1787109,0-.3974609-.1992188-.3974609-.3974609.1191406-1.7119141.1787109-2.5869141.21875-5.1738281v-3.6210938c0-1.3525391-.0800781-2.984375-.2587891-4.0791016l1.6914062.7363281h3.3027344v-3.3427734h-2.6259766c-1.0351562.0205078-1.9902344.1191406-2.984375.2783203l-.5175781-1.0146484c.875.0996094,1.7509766.1396484,2.6464844.1591797h12.0976562l.4375-.6171875ZM3.7404785,6.4072266v9.4306641h12.4960938V6.4072266h-4.1191406v4.3974609c0,.2988281.0605469.3574219.4384766.3574219h.8349609c.3984375,0,.6767578,0,.8359375-.0195312.1191406-.0195312.1992188-.0390625.2587891-.1787109.0996094-.2587891.3378906-1.4326172.4775391-2.4072266h.2587891l.0595703,2.4863281c.3378906.1191406.4580078.2792969.4580078.5371094,0,.5175781-.4980469.7763672-2.3681641.7763672h-1.1142578c-1.1142578,0-1.3330078-.3583984-1.3330078-1.2333984v-4.7158203h-2.4472656c-.0800781,2.6064453-.6767578,5.4316406-4.4179688,7.2626953l-.21875-.2792969c2.8261719-2.0097656,3.3828125-4.4570312,3.4423828-6.9833984h-3.5419922Zm4.7363281-.5771484h2.4472656v-3.3427734h-2.4472656v3.3427734Z"/>
          <path d="m36.3518066,4.7363281c.21875-.2988281.3984375-.5976562.5576172-.5976562.2382812,0,1.6513672,1.1542969,1.6513672,1.453125-.0595703.21875-.21875.3183594-.4980469.3183594h-5.2128906c.3583984,4.3369141,1.453125,8.2167969,3.9599609,10.2265625.2978516.2988281.4179688.2792969.5771484-.0996094.2578125-.4765625.5966797-1.4316406.8154297-2.2285156l.2587891.0400391-.3378906,3.0244141c.5566406.7763672.5966797,1.1142578.4169922,1.3330078-.4775391.5966797-1.6113281,0-2.4267578-.7353516-2.8261719-2.4277344-4.0791016-6.5664062-4.5566406-11.5605469h-7.0439453c-1.0341797.0195312-1.9892578.1191406-2.984375.2783203l-.5175781-1.0146484c.8759766.0996094,1.7509766.1386719,2.6464844.1582031h7.859375c-.1191406-1.5917969-.1787109-3.2822266-.1787109-5.0136719,2.0292969.1591797,2.0292969.3583984,1.6708984.5976562l-.3378906.21875c-.0205078,1.4121094.0195312,2.8251953.1191406,4.1972656h3.1435547l.4179688-.5957031Zm-6.6259766,5.0136719c.1992188-.2792969.3583984-.5771484.5175781-.5771484.2392578,0,1.4521484,1.1142578,1.4521484,1.4130859-.0595703.21875-.21875.3183594-.4970703.3183594h-3.5214844v4.6152344c1.3720703-.2578125,2.8447266-.5566406,4.3173828-.875l.0595703.3378906c-2.2480469.7568359-5.3320312,1.7119141-9.6103516,2.8857422-.0996094.2392578-.2783203.3974609-.4580078.4580078l-.8554688-1.5917969c.4980469-.0605469,1.1542969-.1796875,1.9501953-.3183594v-3.9404297c0-1.3134766-.0800781-2.9638672-.2587891-4.0390625,2.0292969.5966797,2.0292969.7958984,1.7314453.9951172l-.2792969.1787109v6.5869141c.6572266-.1396484,1.4130859-.2792969,2.1894531-.4384766v-5.3330078c0-1.3525391-.0800781-2.984375-.2587891-4.078125,2.0888672.5966797,2.0888672.7958984,1.7705078,1.0146484l-.2978516.1982422v2.7666016h1.6708984l.3779297-.5771484Zm-1.2734375-8.078125c.21875-.2792969.3779297-.5771484.5371094-.5771484.2392578,0,1.5126953,1.0947266,1.5126953,1.3925781-.0595703.21875-.2392578.3183594-.5175781.3183594h-3.640625c-1.0351562.0205078-1.9902344.1191406-2.9853516.2783203l-.5166016-1.0146484c.875.0996094,1.75.1396484,2.6455078.1591797h2.5869141l.3779297-.5566406Zm5.4326172-.5976562c4.1777344.4980469,3.5410156,3.34375,2.2080078,2.5869141-.3779297-.8554688-1.4716797-1.8701172-2.3476562-2.4072266l.1396484-.1796875Z"/>
          <path d="m41.0861816,5.1933594c4.0390625.5175781,3.2832031,3.3828125,1.9101562,2.5869141-.2783203-.8759766-1.2529297-1.8505859-2.0888672-2.3876953l.1787109-.1992188Zm1.0751953,7.7792969c.21875,0,.2978516-.0195312.4775391-.3974609q.3183594-.7158203,3.6806641-8.7744141l.3583984.0996094c-.8164062,2.4863281-2.4277344,7.1826172-2.6865234,8.1376953-.1787109.6367188-.2978516,1.2333984-.2978516,1.7314453.0195312.875.5566406,1.7910156.4970703,3.4023438-.0400391.8554688-.4179688,1.3730469-1.0742188,1.3730469-.3388672,0-.5576172-.3583984-.5976562-.9951172.2587891-2.0302734.1591797-3.5615234-.2587891-3.8603516-.2578125-.1787109-.5371094-.2382812-.9550781-.2783203v-.4384766h.8564453Zm.3574219-12.4746094c4.1386719.6367188,3.4033203,3.5810547,1.9902344,2.7851562-.2783203-.9150391-1.3134766-2.0292969-2.1689453-2.5869141l.1787109-.1982422Zm13.8291016,3.5605469c.1787109-.21875.2988281-.4570312.4580078-.4570312.2382812,0,1.3525391,1.0351562,1.3525391,1.3330078-.1386719.1591797-.3583984.2392578-.7363281.2988281-.0595703,4.8740234-.2382812,6.8046875-.8359375,7.4814453-.3974609.4179688-.9941406.5966797-1.5712891.5966797,0-.3583984-.0595703-.6962891-.2587891-.8759766-.1992188-.1982422-.6367188-.3378906-1.0947266-.4179688l.0205078-.3574219c.4570312.0390625,1.2138672.1191406,1.5517578.1191406.2587891,0,.3779297-.0390625.4970703-.1787109.3388672-.3984375.4580078-2.2880859.4980469-6.5068359l-3.1640625,1.234375v3.2226562c.0400391,2.3876953.0800781,3.1835938.1591797,4.6757812-.1591797.2587891-.6767578.5576172-1.1142578.5576172-.21875,0-.4179688-.1992188-.4179688-.3984375.0996094-1.6318359.1591797-2.4472656.1992188-4.9150391v-2.6660156l-2.8652344,1.1347656v7.8789062c0,.6171875.21875.8554688,1.4921875.8554688h3.0449219c1.4521484,0,2.4863281-.0390625,2.9248047-.0791016.2978516-.0400391.4169922-.1201172.5371094-.3183594.1787109-.3183594.4375-1.4326172.7158203-2.8652344h.2587891l.0595703,2.984375c.4980469.1591797.6171875.3183594.6171875.5966797,0,.6972656-.8359375.9550781-5.1337891.9550781l-3.0839844-.0195312c-1.9892578,0-2.6259766-.3378906-2.6259766-1.7910156v-7.7402344l-1.9101562.7558594-.3583984-.4970703,2.2685547-.8955078v-2.7255859c0-.9345703-.0605469-2.0498047-.1796875-2.8251953,2.0498047.6171875,2.0498047.8154297,1.7109375,1.0341797l-.3378906.2197266v3.8398438l2.8652344-1.1347656v-2.8447266c0-.9550781-.0595703-2.1298828-.1787109-2.9248047,2.0488281.6162109,2.0488281.8154297,1.6904297,1.0341797l-.3378906.21875v4.0595703l2.9648438-1.1738281.0595703-.0205078h-.0400391l.2988281-.4580078Z"/>
          <path d="m76.3244629,9.8691406c.21875-.2988281.3779297-.5966797.5371094-.5966797.2382812,0,1.5917969,1.1337891,1.5917969,1.4326172-.0605469.21875-.2392578.3183594-.4980469.3183594h-7.5410156c.4775391,1.0742188,1.1738281,2.0097656,2.0097656,2.8056641,1.0742188-.7167969,2.2685547-1.890625,2.8251953-2.8251953,1.6914062,1.2333984,1.6914062,1.4316406,1.3330078,1.4521484h-.3378906c-.8359375.5371094-2.1689453,1.2138672-3.4619141,1.7109375,1.5322266,1.3330078,3.5019531,2.2685547,5.6904297,2.8056641l-.0195312.1992188c-.5576172.0996094-.9550781.4775391-1.1542969,1.1337891-3.5214844-1.3134766-6.0683594-3.6015625-7.3222656-7.2822266h-.1591797c-.7558594.7558594-1.671875,1.4521484-2.6865234,2.0488281v3.2636719c1.5322266-.2382812,3.2832031-.5175781,5.09375-.7958984l.0400391.3388672c-1.7109375.5371094-4.1191406,1.2734375-7.5810547,2.1875-.0595703.2392578-.2382812.3789062-.4375.4384766l-.9355469-1.6318359c.6171875-.0595703,1.4921875-.1992188,2.5869141-.3574219v-2.7666016c-1.5126953.7363281-3.203125,1.3330078-5.0146484,1.7705078l-.1386719-.3378906c2.9052734-.9550781,5.4716797-2.4277344,7.2226562-4.1582031h-3.7607422c-1.0341797.0195312-1.9892578.1191406-2.984375.2783203l-.5175781-1.0146484c.8759766.0996094,1.7509766.1386719,2.6464844.1591797h5.6308594c0-.8154297-.0400391-1.7910156-.1396484-2.4677734,2.0097656.5976562,2.0097656.796875,1.7119141,1.015625l-.2988281.1992188v1.2529297h5.6708984l.3984375-.5771484Zm-15.3417969-3.3222656l-.1787109-.2597656c.9550781-.7753906,1.8701172-1.75,2.6660156-2.7851562s1.5322266-2.4277344,1.8310547-3.5019531c2.0097656,1.0546875,2.0097656,1.2539062,1.6308594,1.3134766l-.3574219.0595703c-.4375.6962891-1.0351562,1.4326172-1.7509766,2.1884766.875.6367188.875.8359375.5771484.9755859l-.2792969.1191406v1.1933594c.0400391,1.5917969.0605469,2.1289062.1201172,3.0839844-.1396484.1992188-.6572266.5175781-1.1142578.5175781-.21875,0-.3583984-.1992188-.3583984-.3974609.0791016-.9755859.0996094-1.4521484.1396484-2.9248047v-1.671875c-.8759766.7763672-1.8710938,1.5117188-2.9257812,2.0898438Zm15.0029297-4.0195312c.1992188-.2988281.3388672-.5976562.4970703-.5976562.2392578,0,1.6123047.8759766,1.6123047,1.1738281-.0205078.2197266-.21875.359375-.4580078.3789062l-6.2675781.6757812c.8955078,1.6123047,2.328125,2.9453125,4.6367188,3.5224609.3974609.0996094.5566406.0791016.6757812-.1787109.1591797-.3583984.3984375-1.0947266.5576172-1.7519531l.2587891.0400391-.0996094,2.0693359c.5771484.3789062.6367188.5371094.5566406.8164062-.2382812.6367188-1.2333984.4570312-2.2880859.1582031-2.8056641-.8154297-4.5361328-2.4267578-5.5908203-4.5361328l-3.9599609.4179688-.1992188-.5576172,3.9003906-.4179688c-.4375-1.0537109-.7558594-2.2080078-.9550781-3.4414062,1.9501953.0390625,1.9501953.2382812,1.6708984.4375l-.2578125.1992188c.1582031.8945312.4169922,1.8105469.8154297,2.6660156l4.5566406-.4980469.3378906-.5761719Zm-4.1982422-1.8710938c4.0390625-.1787109,3.8398438,2.3886719,2.546875,1.9902344-.5566406-.6767578-1.7509766-1.4121094-2.6865234-1.7509766l.1396484-.2392578Z"/>
          <path d="m82.3518066,4c.4980469-1.2148438.9550781-2.8261719,1.0947266-3.9404297,2.1083984.8154297,2.1083984,1.0146484,1.7509766,1.1337891l-.3583984.1201172c-.6367188,1.0546875-1.3925781,2.2080078-2.109375,3.0634766,1.3730469,1.1748047.6367188,2.5673828-.2783203,1.890625-.21875-.8945312-1.0351562-1.9892578-1.7509766-2.6259766l.1992188-.1591797c.5966797.1787109,1.0546875.3779297,1.4121094.6171875.0205078-.0410156.0205078-.0605469.0400391-.0996094Zm.8955078,8.2373047l-.3183594.1591797c-.4375,1.6308594-1.0742188,3.3427734-1.8701172,4.4570312l-.3183594-.1591797c.1191406-.3388672.2382812-.7167969.3574219-1.1142578.3583984-1.2734375.5771484-3.0644531.5380859-4.1787109l1.09375.3388672c.8554688.1191406.8554688.3183594.5175781.4970703Zm2.984375-3.4824219c-.2783203-.65625-.6162109-1.2929688-.9150391-1.7705078l.2382812-.1191406c3.3232422,1.96875,2.1689453,4.4365234,1.0751953,3.421875-.0400391-.3378906-.1201172-.7167969-.2392578-1.09375-.4179688.0791016-.8554688.1787109-1.3525391.2773438v3.8203125c.0400391,2.3886719.0791016,3.1835938.1591797,4.6767578-.1591797.1982422-.5771484.4970703-1.1542969.4970703-.1787109,0-.3984375-.1992188-.3984375-.3984375.1201172-1.7109375.1796875-2.5859375.2197266-5.1728516v-3.203125c-.6171875.1191406-1.2939453.2382812-2.0302734.3583984-.1386719.2578125-.2978516.3769531-.4970703.4179688l-.5371094-1.5126953c.4179688,0,1.0341797-.0205078,1.7910156-.0400391.4775391-.8554688,1.0146484-1.8300781,1.5322266-2.8251953.6162109-1.1542969,1.2529297-2.6669922,1.53125-3.7412109,1.9707031.9550781,1.9707031,1.1542969,1.5917969,1.2539062l-.3779297.0800781c-.9150391,1.4521484-2.3671875,3.5410156-3.7607422,5.2128906.9355469-.0400391,2.0097656-.0800781,3.1240234-.1396484Zm-.3183594,2.5869141c2.9453125,2.2480469,1.7119141,4.65625.6767578,3.5820312,0-1.0947266-.4970703-2.546875-.9355469-3.4824219l.2587891-.0996094Zm3.3632812.3378906c-.5175781.0195312-.9951172.1191406-1.4726562.2792969l-.5371094-1.015625c.6367188.0996094,1.2734375.1396484,1.9101562.1601562h.875l.3183594-.359375c.1796875-.1787109.2988281-.3769531.4580078-.3769531.2382812,0,1.2539062.875,1.2539062,1.1738281-.1601562.1787109-.3388672.21875-.7568359.2382812-.65625,2.2480469-2.0292969,4.3769531-4.4570312,5.6914062l-.1787109-.2988281c1.7910156-1.3339844,2.9248047-3.3828125,3.421875-5.4921875h-.8349609Zm6.7246094-9.5703125c.1591797-.21875.2587891-.4580078.4179688-.4580078.2392578,0,1.2734375.9355469,1.2734375,1.2333984-.1191406.1396484-.2978516.2392578-.7158203.3183594v1.9902344c.0390625,1.9697266.0595703,2.6269531.1386719,3.8398438-.1386719.1992188-.5761719.4785156-1.1337891.4785156h-.1992188v-.7568359h-2.2880859c.2988281,1.5126953.7763672,2.7460938,1.3730469,3.7412109.7363281-.9160156,1.5322266-2.1689453,1.8701172-3.0839844,1.6513672,1.2333984,1.6513672,1.4316406,1.2939453,1.4716797l-.3388672.0205078c-.5966797.5175781-1.6513672,1.3125-2.6464844,1.9101562,1.0146484,1.5517578,2.3085938,2.5068359,3.6611328,3.203125l-.0390625.2382812c-.4775391.0996094-.8164062.5175781-1.015625,1.1347656-2.1884766-1.6914062-3.6601562-3.8398438-4.3574219-8.1582031v7.3027344c0,1.0146484-.1982422,1.7304688-1.8105469,1.9296875-.0195312-.3779297-.1191406-.7363281-.3378906-.9355469-.2783203-.21875-.7363281-.3974609-1.5126953-.4970703v-.2978516s1.7509766.1386719,2.109375.1386719c.3183594,0,.3984375-.0996094.3984375-.3779297v-7.7402344h-2.3085938v.5371094c0,.1201172-.3974609.3779297-1.0146484.3779297-.1591797,0-.2783203-.1992188-.2783203-.3974609.0595703-.7158203.0791016-1.0947266.1191406-2.1884766v-1.2939453c0-1.2929688-.0791016-2.9248047-.2587891-3.9794922l1.6513672.7363281h1.3535156c.1787109-.7558594.3183594-1.7509766.3583984-2.4277344,2.1083984.4375,2.1083984.6367188,1.75.8164062l-.3378906.1591797c-.2988281.4169922-.7363281.9746094-1.09375,1.4521484h3.640625l.2783203-.4375Zm-.21875.9941406h-5.9492188v2.2490234h5.9492188v-2.2490234Zm-5.9492188,5.0742188h5.9492188v-2.2480469h-5.9492188v2.2480469Z"/>
        </g>
        <g>
          <path d="m192.1604004,71.2421875c1.6074219,7.8701172-2.9375,7.0390625-1.6347656,4.9335938.7480469-.9150391,1.1914062-2.6884766,1.21875-4.9335938h.4160156Zm7.6474609-7.7861328c.25-.3320312.4433594-.6650391.6650391-.6650391.3330078,0,1.8291016,1.3027344,1.8291016,1.71875-.0830078.3046875-.3320312.4433594-.6650391.4433594h-3.9902344v3.0478516h2.328125l.4150391-.4990234c.2216797-.25.3876953-.5263672.6103516-.5263672.3320312,0,1.8007812,1.1914062,1.8007812,1.6064453-.1943359.2226562-.4990234.3330078-1.0253906.4160156-.2773438,5.4589844-.9697266,8.2851562-2.0224609,9.2275391-.6376953.5820312-1.46875.8037109-2.3837891.8037109,0-.4433594-.0830078-.8867188-.3320312-1.1367188-.2773438-.2490234-.9980469-.4433594-1.6904297-.5810547v-.4716797c.8037109.0556641,2.0507812.1660156,2.5214844.1660156.4433594,0,.6376953-.0546875.8867188-.2490234.6650391-.609375,1.1914062-3.1865234,1.46875-7.9521484h-6.6777344v.8867188c0,.1386719-.4990234.5820312-1.3027344.5820312-.2490234,0-.4990234-.2773438-.4990234-.5546875.1386719-1.8007812.1943359-2.7158203.25-5.4316406v-3.0195312c0-1.8847656-.1113281-4.15625-.3603516-5.6806641l2.2441406.9697266h5.6533203l.5263672-.7207031c.2763672-.3603516.4990234-.7207031.7197266-.7207031.3330078,0,2.0507812,1.4140625,2.0507812,1.8291016-.0830078.3046875-.3320312.4433594-.6923828.4433594h-4.4892578v2.9375h1.8291016l.4150391-.6650391c.25-.3320312.4160156-.6933594.6376953-.6933594.3330078,0,1.8564453,1.3027344,1.8564453,1.71875-.0546875.3046875-.3320312.4433594-.6650391.4433594h-4.0732422v2.9921875h1.7177734l.4433594-.6650391Zm-6.0683594,7.5097656c2.5498047,3.546875.9150391,6.5117188-.1660156,5.1259766.2773438-1.6074219.0830078-3.6855469-.2490234-5.015625l.4150391-.1103516Zm2.3837891-13.578125h-2.5771484v2.9375h2.5771484v-2.9375Zm0,6.7333984v-2.9921875h-2.5771484v2.9921875h2.5771484Zm-2.5771484.8320312v3.0478516h2.5771484v-3.0478516h-2.5771484Zm1.7451172,5.5410156c3.4082031,2.7158203,2.0507812,5.4873047.8867188,4.2675781,0-1.2744141-.6650391-3.0195312-1.21875-4.1005859l.3320312-.1669922Zm1.6904297-.609375c3.7128906,1.3574219,2.5771484,4.15625,1.3300781,3.1308594-.1660156-.96875-.9423828-2.2167969-1.6621094-2.9091797l.3320312-.2216797Zm15.2958984-13.8828125c.25-.3046875.4160156-.6367188.6376953-.6367188.3320312,0,1.9951172,1.4404297,1.9951172,1.8564453-.1386719.2216797-.5820312.4433594-1.1083984.5263672v3.1591797c.0556641,3.1308594.1103516,4.1845703.2216797,6.1240234-.25.3046875-1.1083984.7207031-1.6347656.7207031-.25,0-.3603516-.2773438-.3603516-.5546875.0556641-.1386719.0556641-.2216797.1103516-.4707031v-.5273438h-4.2119141c1.1367188,5.1542969,3.5751953,9.8925781,7.3984375,11.8320312l-.0546875.3046875c-.6650391.1386719-1.2470703.6933594-1.4970703,1.6074219-3.6855469-2.7431641-5.4589844-7.453125-6.3730469-13.7441406h-1.6621094c-.1113281,4.7109375-.7763672,10.0585938-4.7382812,13.7724609l-.4160156-.2773438c3.1035156-4.15625,3.4638672-9.4492188,3.4638672-14.7412109v-4.6279297c0-1.5517578-.0830078-3.4638672-.3046875-4.7382812l2.2998047,1.0244141h5.8183594l.4160156-.609375Zm-6.5390625,8.9228516v.4433594h6.4003906v-7.9521484h-6.4003906v7.5087891Z"/>
          <path d="m235.8283691,78.3085938c-.3876953.1660156-.859375-.2216797-1.1914062-.5263672-.3330078-.3046875-1.4414062-1.46875-2.9931641-2.4384766-.2763672,1.4414062-1.3017578,3.2978516-4.4052734,3.2695312-2.1621094,0-4.1572266-.9970703-4.1572266-2.7431641,0-1.7177734,2.0507812-2.8818359,4.4619141-2.8544922.6650391,0,1.5791016.0839844,2.6044922.3056641-.1660156-1.5791016-.2773438-3.1591797-.3330078-4.7666016-1.2744141.25-2.5761719.3886719-3.6015625.2773438-2.1894531-.25-3.0761719-1.5234375-3.3808594-2.1337891-.1113281-.2490234-.1113281-.3603516-.0556641-.4150391.1113281-.0839844.2773438.0546875.4433594.1660156.2773438.1933594,1.9121094,1.2460938,3.9628906,1.0800781.7207031-.0546875,1.6621094-.1386719,2.6044922-.3046875,0-1.6074219.0273438-3.2138672.1386719-4.8212891-.6650391.0556641-1.3027344,0-1.8291016-.2216797-.7753906-.3046875-1.6904297-1.1083984-2.0224609-1.5517578-.1113281-.1660156-.25-.3876953-.1660156-.4990234.0546875-.0546875.2216797-.1103516.5263672.0839844.4150391.3046875.9970703.7753906,2.0224609.8583984.3876953.0283203.9697266-.0556641,1.6347656-.1943359.1943359-1.21875.4433594-2.5214844-.0546875-3.6572266-.2226562-.4990234-.9423828-1.1083984-.8867188-1.3583984.0546875-.3046875.4707031-.4433594.9414062-.359375.4990234.1103516,1.8564453.6923828,1.8564453,1.9121094,0,.7753906-.4980469,2.1884766-.6650391,2.9365234-.0273438.0830078-.0273438.1669922-.0546875.2490234.7197266-.1933594,1.3574219-.3867188,1.6064453-.4707031.6376953-.1933594,1.0810547,0,1.1640625.3330078.0556641.3320312-.0830078.8310547-.8037109,1.1357422-.4707031.1943359-1.2744141.4707031-2.1884766.6650391-.1113281,1.0810547-.1386719,2.4658203-.1113281,4.3779297v.3330078c.8310547-.2216797,1.6074219-.4990234,2.1337891-.859375.9980469-.6923828,0-1.3574219-.4160156-2.0498047-.0546875-.0839844-.0830078-.1669922-.1103516-.2773438-.1943359-.4990234.2773438-.1386719.4990234.0830078.4433594.3876953.9140625.5820312,1.4960938.7197266.5263672.1386719.9970703.0839844,1.3027344.3886719.3046875.3320312.359375,1.4960938-.9423828,2.1054688-.6650391.3046875-2.1894531.8320312-3.8798828,1.2197266.1660156,2.3271484.5546875,4.1845703.6933594,5.4306641,1.6347656.5273438,3.296875,1.4140625,4.2666016,2.8261719.7490234,1.0810547.0556641,1.6914062-.1103516,1.7460938Zm-5.625-3.7402344c-.8867188-.3886719-1.8564453-.6376953-2.9101562-.6660156-2.1054688-.0273438-3.2138672.8320312-3.2138672,2.0234375,0,.5546875,1.1357422,1.3027344,2.8544922,1.3027344,1.1357422,0,3.1308594-.4990234,3.2695312-2.6601562Z"/>
          <path d="m262.8146973,59.7431641c-1.5517578-.2216797-3.1308594.3603516-3.4082031.5263672-.5263672.2773438-2.0224609,1.9394531-2.7431641,4.1015625-1.8017578,5.3203125-1.2197266,8.8388672-.1943359,10.3359375.9423828,1.3574219,3.1035156.9140625,4.3232422.8867188,1.4130859-.0556641,2.6318359.1386719,2.6044922,1.0253906-.0273438.8027344-1.4960938.96875-2.0507812.9970703-2.3828125.1660156-4.4335938.1943359-5.8740234-1.6074219-1.2744141-1.5791016-1.46875-3.2421875-1.4970703-5.1816406-.0830078-6.5673828,4.2402344-10.4189453,4.1572266-10.5849609-.0556641-.1386719-.3876953.0546875-.6933594.1103516-1.1630859.3056641-5.2089844,2.0791016-6.3730469,2.5224609-.4990234.1933594-1.6347656.96875-2.2724609,1.0527344-1.2460938.1660156-2.7431641-1.7460938-2.8535156-1.9121094-.1386719-.1660156-.1660156-.3886719-.0556641-.5273438.1660156-.1660156.3046875-.0820312.5537109.0283203.25.1103516.9980469.6650391,1.9677734.4433594s7.703125-2.7158203,12.1650391-3.4082031c.8583984-.1103516,1.2744141-.5537109,2.4658203-.8037109.859375-.1660156,2.4111328.5263672,2.6884766,1.0527344.3046875.5546875.359375.9980469-.2226562,1.2470703-.1933594.1103516-1.8007812-.1943359-2.6875-.3046875Zm2.9931641-3.8242188c.3876953.1113281,2.9365234.8867188,2.9648438,2.6044922,0,.5546875-.1669922.8046875-.4990234.9150391s-.9697266-.0556641-1.2744141-.7207031c-.3330078-.7197266-.9423828-1.8291016-1.6074219-2.2441406-.2773438-.1669922-.6376953-.3603516-.5820312-.5546875.0830078-.2216797.609375-.0830078.9980469,0Zm2.9091797-1.4404297c.3876953.0546875,3.0478516.6923828,3.1035156,2.4658203.0273438.4716797-.2216797.6103516-.4160156.6923828-.3320312.1386719-.8867188.0283203-1.2744141-.609375-.3876953-.6650391-1.0810547-1.6621094-1.7734375-1.9951172-.2773438-.1376953-.6923828-.3046875-.6376953-.4990234.0556641-.2207031.6103516-.1386719.9980469-.0546875Z"/>
          <path d="m273.3693848,74.2080078c-.2216797.1103516-.4707031.1943359-.5546875.0273438-.0830078-.1386719.1669922-.3330078.4160156-.4990234,3.4082031-2.2167969,7.7871094-6.4277344,8.1464844-8.8671875.0556641-.4150391-.3876953-.7207031-.6650391-.8583984-.3320312-.1386719-.6650391-.1943359-.6650391-.3876953,0-.2226562.2216797-.25.6650391-.3046875.4433594-.0566406,1.7460938-.25,2.6884766.4150391.8867188.6376953,1.21875,1.4404297.7207031,2.1064453-2.1894531,2.9091797-6.484375,6.3457031-10.7519531,8.3681641Zm23.5253906-4.6005859c.4990234.9150391-.0830078,2.4111328-.7197266,2.578125-.6376953.1660156-.9150391-.0839844-1.3857422-1.0810547-.9697266-2.0791016-2.8261719-4.9326172-6.4013672-7.2880859-.1386719-.0830078-.2763672-.1933594-.2490234-.3320312.0273438-.1660156.2216797-.1386719.4707031-.0556641,2.328125.7763672,6.9277344,3.6025391,8.2851562,6.1787109Zm-5.015625-8.921875c.0556641-.25.5273438-.1660156.9980469-.0839844.4433594.0839844,3.4355469.9707031,3.5742188,2.6601562.0556641.5546875-.0830078.8320312-.4150391.9707031-.3330078.1386719-.9697266.0273438-1.3300781-.6376953-.4160156-.6923828-1.2744141-1.8564453-2.2167969-2.4111328-.2773438-.1660156-.6650391-.3046875-.6103516-.4980469Zm7.1777344.1103516c.0830078.5263672-.0556641.8037109-.3603516.9697266-.3330078.1660156-.9697266.0839844-1.3857422-.5263672-.4433594-.6923828-1.3857422-1.8007812-2.3554688-2.2724609-.2773438-.1386719-.6923828-.2763672-.6367188-.4707031.0273438-.2490234.5263672-.1933594.9697266-.1386719.4707031.0556641,3.4912109.7207031,3.7685547,2.4384766Z"/>
          <path d="m322.1359863,76.3417969c-.6650391.6367188-1.2744141,0-1.9121094-1.1367188-1.0253906-1.7734375-1.9951172-3.0195312-3.1035156-4.0732422-1.0253906-.9697266-2.5488281-1.8291016-3.3808594-2.2167969-3.1035156,3.3525391-7.09375,6.7333984-11.0556641,8.4238281-.1943359.1103516-.3603516.0283203-.3886719-.0830078-.0830078-.1933594.1943359-.25.3056641-.3046875,5.4580078-2.9921875,12.8017578-11.5830078,13.9658203-15.2402344.1386719-.4716797-.1669922-.4160156-.4433594-.4433594-1.6074219-.1386719-6.1796875,1.46875-6.5400391,1.5507812-.3320312.1113281-.7480469.4160156-1.1914062.3056641-1.3857422-.3330078-1.9394531-1.46875-2.0224609-1.8564453-.0839844-.3330078-.0556641-.6933594.0546875-.7480469.2773438-.1386719.3886719.3046875.9980469.5253906.4707031.1943359.9697266.3056641,2.1611328.1113281.5546875-.0830078,5.875-.9414062,6.4560547-1.0800781.4160156-.0839844.4716797-.1113281.7490234-.2773438.2763672-.1386719.6367188-.3330078.8037109-.3330078.1660156,0,.4150391.1386719.7197266.3330078.3046875.2216797,1.1640625.7207031,1.4414062,1.4130859.1103516.2490234.1660156.6650391-.1669922.8583984-.1933594.0839844-1.0244141.7480469-1.21875,1.0537109-.9980469,1.5517578-2.5214844,3.5185547-4.3505859,5.5146484,1.5244141.4433594,5.4033203,2.0224609,7.703125,4.8769531.859375,1.0800781,1.1083984,2.1601562.4160156,2.8261719Z"/>
        </g>
        <g>
          <path d="m613.279541,68.6660156l-.3876953-.2773438c1.4130859-2.078125,2.8818359-4.9326172,4.1015625-8.0917969.6650391-1.6894531,1.3847656-4.4052734,1.4960938-5.9296875,3.0751953,1.0253906,3.0751953,1.3027344,2.5488281,1.4960938l-.5263672.1669922c-.7207031,2.078125-1.5517578,4.0732422-2.5214844,5.9013672.9697266.8046875.9697266,1.0810547.5546875,1.2753906l-.3886719.1660156v9.3105469c.0556641,3.3251953.1113281,4.4335938.2216797,6.5117188-.2490234.2773438-.9697266.7480469-1.6347656.7480469-.3320312,0-.6367188-.2773438-.6367188-.5537109.1660156-2.3837891.2490234-3.6025391.3046875-7.2041016v-7.5654297c-.9697266,1.5517578-2.0507812,2.9091797-3.1318359,4.0458984Zm8.4521484-.4433594c-.0556641.9697266-.3330078,1.6894531-.7207031,2.1328125s-1.2744141.5820312-1.6074219-.0273438c-.3046875-.5263672,0-1.1083984.4716797-1.5234375.4980469-.4160156,1.1914062-1.5527344,1.2744141-2.3554688l.4990234.0273438c.0273438.3320312.0830078.6376953.0830078.9423828h13.3564453l.4707031-.5537109c.2490234-.2773438.4433594-.5546875.6650391-.5546875.3320312,0,1.8291016,1.5234375,1.8291016,1.9394531-.1943359.1943359-.4716797.2216797-.9980469.2773438-.5263672.4980469-1.46875,1.2744141-2.0507812,1.6904297l-.359375-.1669922c.1376953-.4150391.3320312-1.1914062.4980469-1.828125h-13.4111328Zm12.7744141-11.2226562c.3046875-.4160156.5537109-.8320312.7753906-.8320312.3330078,0,2.2441406,1.6357422,2.2441406,2.0507812-.0830078.2773438-.3320312.4160156-.6923828.4160156h-11.5273438c-1.4404297.0273438-2.7705078.1660156-4.15625.3876953l-.7207031-1.4130859c1.2197266.1386719,2.4384766.1943359,3.6855469.2216797h3.6855469c0-1.0810547-.0556641-2.4384766-.1943359-3.3798828,2.7714844.8300781,2.7714844,1.1074219,2.3554688,1.4121094l-.4160156.2773438v1.6904297h4.40625l.5546875-.8310547Zm-8.6181641,14.6582031c-1.3300781.0273438-2.6044922.1660156-3.8798828.3886719l-.6923828-1.4140625c1.2197266.1386719,2.4384766.1943359,3.6855469.2226562h7.7587891l.4990234-.6660156c.2763672-.3320312.4707031-.6923828.6923828-.6923828.3330078,0,2.078125,1.3017578,2.078125,1.7177734-.0830078.3046875-.3320312.4433594-.6923828.4433594h-5.6533203v5.6533203c0,1.4677734-.3320312,2.4658203-2.8261719,2.7158203-.0273438-.5546875-.2216797-1.0537109-.5263672-1.3300781-.4160156-.3330078-1.1640625-.5546875-2.4111328-.7207031v-.4160156s2.8544922.2216797,3.4365234.2216797c.4707031,0,.609375-.1386719.609375-.5263672v-5.5976562h-2.078125Zm7.2597656-11.6103516c.2216797-.2763672.3876953-.5820312.6103516-.5820312.3320312,0,1.9111328,1.3300781,1.9111328,1.7460938-.1376953.1943359-.5263672.4150391-.9697266.4990234v1.21875c.0556641,1.21875.0556641,1.6074219.1113281,2.2724609-.1386719.3330078-1.0253906.7480469-1.6074219.7480469h-.2216797v-.8310547h-8.4511719v.6650391c0,.1376953-.7763672.5263672-1.46875.5263672-.25,0-.3876953-.2773438-.3876953-.5546875.0830078-.5263672.0830078-.8027344.1376953-1.6074219v-1.1074219c0-1.0810547-.0546875-2.4394531-.1933594-3.3808594l2.0498047.9697266h8.0644531l.4150391-.5820312Zm-8.6171875,4.2949219h8.4511719v-2.8818359h-8.4511719v2.8818359Z"/>
          <path d="m659.1096191,57.9140625c.3320312-.4160156.5820312-.859375.8027344-.859375.3330078,0,2.3007812,1.6357422,2.3007812,2.0507812-.0556641.3046875-.3330078.4433594-.7207031.4433594h-7.5371094v3.796875h7.4541016l.609375-.859375c.3330078-.4160156.609375-.859375.8310547-.859375.3330078,0,2.3828125,1.6914062,2.3828125,2.1064453-.0830078.3046875-.3320312.4433594-.7197266.4433594h-18.9814453c-1.4414062.0283203-2.7714844.1660156-4.15625.3876953l-.7207031-1.4404297c1.1914062.1376953,2.3828125.1943359,3.6025391.2216797h1.7451172v-1.1367188c0-1.8837891-.1103516-4.15625-.3603516-5.6796875,2.9101562.8310547,2.9101562,1.1074219,2.4667969,1.4121094l-.4433594.2773438v5.1269531h4.5166016v-3.2421875c0-1.8847656-.1113281-4.15625-.3603516-5.6806641,3.0761719.8583984,3.0761719,1.1357422,2.6044922,1.4404297l-.4707031.3046875v2.578125h4.5722656l.5820312-.8320312Zm-9.7539062,9.0058594l-.4990234.0556641c-1.5517578,2.1884766-4.4619141,4.8769531-7.6484375,6.4833984l-.2490234-.359375c1.1914062-.9140625,2.3828125-2.078125,3.4355469-3.2978516,1.1923828-1.3857422,2.2724609-3.2695312,2.7158203-4.7382812l1.4970703.9697266c1.2460938.5263672,1.2460938.8037109.7480469.8867188Zm10.9169922,4.2949219l-.5537109.0273438c-4.8212891,6.0136719-10.3085938,7.7871094-17.6787109,8.7011719l-.1113281-.5263672c4.8769531-.9970703,9.0058594-2.3271484,12.5253906-5.2919922,1.4130859-1.1640625,3.1582031-3.4365234,3.7958984-4.8222656l1.3857422,1.0253906c1.1914062.5820312,1.1914062.859375.6367188.8867188Zm-8.3125-7.0380859c2.8544922.8583984,2.8544922,1.1357422,2.4111328,1.4130859l-.4160156.25v5.7080078c0,1.4404297-.3330078,2.3271484-2.7431641,2.5771484-.0830078-.5273438-.2216797-.9980469-.5820312-1.2753906-.3876953-.3046875-.9980469-.5263672-2.1611328-.6640625v-.4160156s2.6318359.1933594,3.1582031.1933594c.4160156,0,.5546875-.1386719.5546875-.5263672v-3.546875c0-1.1914062-.0556641-2.6875-.2216797-3.7128906Zm5.2919922,1.5791016c8.2304688,2.2451172,7.7597656,6.9550781,5.5976562,5.9023438-.9697266-1.9394531-3.7685547-4.2949219-5.8466797-5.5976562l.2490234-.3046875Z"/>
        </g>
        <path d="m399.1662598,58.2470703l-.4990234.1103516c-1.5234375,2.9931641-4.3505859,6.8447266-7.9521484,9.2558594l-.2773438-.3330078c1.6621094-1.5244141,3.1591797-3.546875,4.3505859-5.5976562.9423828-1.5791016,1.7177734-3.5742188,2.0224609-5.0986328l1.5800781.8320312c1.3017578.4433594,1.3017578.7197266.7753906.8310547Zm-1.2470703,8.3955078c-1.1083984.0283203-2.1611328.1660156-3.2138672.3886719l-.7480469-1.4414062c1.21875.1386719,2.4384766.1943359,3.6855469.2216797h10.3349609l.4433594-.5537109c.25-.2773438.4433594-.5820312.6650391-.5820312.3330078,0,1.9404297,1.3574219,1.9404297,1.7734375-.1943359.1933594-.5263672.359375-1.0537109.4160156-.2490234,6.3447266-.9140625,10.8066406-2.1328125,12.0253906-.7207031.7207031-1.7734375,1.0527344-2.9931641,1.0527344.0273438-.5263672-.1103516-1.0527344-.5263672-1.3017578-.4707031-.3330078-1.7177734-.6376953-2.7988281-.8037109l.0273438-.4990234c1.2470703.1386719,3.4365234.3330078,4.0458984.3330078.4990234,0,.7480469-.0556641.9980469-.3330078.8310547-.7763672,1.3847656-4.9873047,1.6347656-10.6962891h-6.6503906c-.4716797,4.40625-1.8564453,9.5048828-9.6152344,13.3291016l-.3056641-.4716797c6.734375-4.0449219,7.7597656-8.921875,8.0087891-12.8574219h-1.7460938Zm17.4580078-1.2460938l-.0556641.2763672c-.7763672.1669922-1.4130859.7763672-1.6347656,1.46875-3.546875-2.4931641-6.4013672-6.3173828-7.7587891-10.5019531h-1.9677734c-1.2744141.0283203-2.4384766.1660156-3.6572266.3876953l-.7490234-1.4130859c1.2197266.1386719,2.4384766.1943359,3.6855469.2216797h2.0507812l.8310547-1.3027344,2.328125,1.6630859c-.2216797.3330078-.8867188.5263672-1.7460938.5820312,1.3857422,3.1865234,4.7382812,6.7060547,8.6738281,8.6181641Z"/>
        <path d="m723.7209473,58.2470703l-.4990234.1103516c-1.5234375,2.9931641-4.3505859,6.8447266-7.9521484,9.2558594l-.2773438-.3330078c1.6621094-1.5244141,3.1591797-3.546875,4.3505859-5.5976562.9423828-1.5791016,1.7177734-3.5742188,2.0224609-5.0986328l1.5800781.8320312c1.3017578.4433594,1.3017578.7197266.7753906.8310547Zm-1.2470703,8.3955078c-1.1083984.0283203-2.1611328.1660156-3.2138672.3886719l-.7480469-1.4414062c1.21875.1386719,2.4384766.1943359,3.6855469.2216797h10.3349609l.4433594-.5537109c.25-.2773438.4433594-.5820312.6650391-.5820312.3330078,0,1.9404297,1.3574219,1.9404297,1.7734375-.1943359.1933594-.5263672.359375-1.0537109.4160156-.2490234,6.3447266-.9140625,10.8066406-2.1328125,12.0253906-.7207031.7207031-1.7734375,1.0527344-2.9931641,1.0527344.0273438-.5263672-.1103516-1.0527344-.5263672-1.3017578-.4707031-.3330078-1.7177734-.6376953-2.7988281-.8037109l.0273438-.4990234c1.2470703.1386719,3.4365234.3330078,4.0458984.3330078.4990234,0,.7480469-.0556641.9980469-.3330078.8310547-.7763672,1.3847656-4.9873047,1.6347656-10.6962891h-6.6503906c-.4716797,4.40625-1.8564453,9.5048828-9.6152344,13.3291016l-.3056641-.4716797c6.734375-4.0449219,7.7597656-8.921875,8.0087891-12.8574219h-1.7460938Zm17.4580078-1.2460938l-.0556641.2763672c-.7763672.1669922-1.4130859.7763672-1.6347656,1.46875-3.546875-2.4931641-6.4013672-6.3173828-7.7587891-10.5019531h-1.9677734c-1.2744141.0283203-2.4384766.1660156-3.6572266.3876953l-.7490234-1.4130859c1.2197266.1386719,2.4384766.1943359,3.6855469.2216797h2.0507812l.8310547-1.3027344,2.328125,1.6630859c-.2216797.3330078-.8867188.5263672-1.7460938.5820312,1.3857422,3.1865234,4.7382812,6.7060547,8.6738281,8.6181641Z"/>
        <g>
          <path d="m7.2619629,39.984375h14.1572266v1.6201172h-12.4453125v28.4521484h-1.7119141v-30.0722656Z"/>
          <path d="m26.3742676,82.5947266l-.4619141-.6943359c9.8535156-5.4589844,17.3486328-16.7011719,18.7832031-32.9394531v-3.4707031h-3.4238281c-2.1279297.046875-4.1640625.2773438-6.1992188.6484375l-1.203125-2.359375c2.0351562.2304688,4.0712891.3232422,6.1533203.3691406h3.7470703l1.8505859-2.9609375,4.9501953,3.7939453c-.6933594.8789062-2.3125,1.3876953-4.5332031,1.5732422l.0458984,2.2666016c1.5263672,14.4814453,8.3271484,25.3076172,20.7724609,30.6279297l-.1386719.5546875c-1.5263672.046875-2.4521484.9257812-3.1455078,2.6367188-7.4492188-4.3027344-15.2675781-13.2773438-17.2568359-25.1210938-2.8681641,11.7509766-9.8085938,20.2636719-19.9404297,25.0751953Z"/>
          <path d="m87.1252441,42.2050781c.3701172-.4619141.6474609-.9707031,1.0175781-.9707031.5546875,0,3.1455078,2.2207031,3.1455078,2.9140625-.2773438.3242188-.8789062.6943359-1.6191406.8330078v4.1640625c.0927734,4.1630859.1386719,5.5517578.3242188,8.0966797-.3701172.5078125-1.8046875,1.15625-2.7294922,1.15625h-.3701172v-2.0820312h-9.3457031v13.9257812c.0927734,5.5517578.1845703,7.4023438.3701172,10.8720703-.3701172.6474609-1.3417969,1.4345703-2.6367188,1.4345703-.5556641,0-1.0644531-.4628906-1.0644531-.9257812.2773438-3.9785156.4160156-6.0136719.5087891-12.0292969v-18.6445312c0-3.1455078-.1845703-6.9394531-.6015625-9.484375l3.6552734,1.7128906h8.6972656l.6484375-.9726562Zm-.2314453,2.3603516h-9.3457031v4.4414062h9.3457031v-4.4414062Zm-9.3457031,10.4091797h9.3457031v-4.6269531h-9.3457031v4.6269531Zm9.484375,22.8085938c0,.2773438-1.1572266.9716797-2.3134766.9716797-.4628906,0-.7402344-.4628906-.7402344-.9248047.1386719-1.8046875.1855469-2.6835938.2773438-5.4140625v-3.1914062c0-3.1464844-.1845703-6.9394531-.6015625-9.484375l3.5625,1.6650391h10.2246094l.6484375-.8789062c.3691406-.4160156.6005859-.8789062.9707031-.8789062.5556641,0,3.1923828,1.9433594,3.1923828,2.6376953-.2773438.3691406-.8789062.7402344-1.6191406.8789062v4.71875c.0927734,4.71875.1386719,6.2919922.3242188,9.1601562-.3701172.5546875-1.8046875,1.2949219-2.7294922,1.2949219-.4169922,0-.6015625-.4619141-.6015625-.9248047.0917969-.2314453.0917969-.3701172.1845703-.7402344v-.8330078h-10.7792969v1.9433594Zm10.7792969-15.0820312h-10.7792969v5.0429688h10.7792969v-5.0429688Zm-10.7792969,11.7509766h10.7792969v-5.3203125h-10.7792969v5.3203125Zm10.7333984-17.1181641c0,.2773438-1.2490234.9257812-2.4521484.9257812-.3701172,0-.6474609-.4628906-.6474609-.9257812.1386719-1.4804688.1845703-2.2666016.2773438-4.5332031v-2.7763672c0-2.7294922-.1386719-6.1533203-.5087891-8.4199219l3.515625,1.5732422h9.0683594l.6474609-.9257812c.3701172-.4628906.6015625-.9716797.9716797-.9716797.5556641,0,3.6083984,2.2207031,3.6083984,2.9150391-.2773438.3701172-1.0634766.7861328-1.9433594.9707031v32.9414062c0,2.4511719-.4619141,4.0244141-4.671875,4.4873047-.0927734-.9716797-.3242188-1.8037109-.8789062-2.2666016-.6943359-.5097656-1.8046875-.8789062-3.8408203-1.203125v-.7402344s4.4882812.3701172,5.4599609.3701172c.8320312,0,1.1103516-.2783203,1.1103516-1.0185547v-21.4199219h-9.7158203v1.0175781Zm9.7158203-12.7685547h-9.7158203v4.4414062h9.7158203v-4.4414062Zm-9.7158203,10.4091797h9.7158203v-4.6269531h-9.7158203v4.6269531Z"/>
          <path d="m150.9748535,54.1884766c.3701172-.5087891.6015625-1.0644531.9716797-1.0644531.5556641,0,3.6083984,2.4990234,3.6083984,3.1923828-.2773438.3701172-.9716797.7871094-1.8964844.9257812v15.7294922c0,2.3134766-.5556641,3.8857422-4.8574219,4.2568359-.1855469-.8789062-.4628906-1.6191406-1.0185547-2.0820312-.6933594-.5097656-1.9423828-.9716797-4.0712891-1.203125v-.6943359s4.765625.3242188,5.8759766.3242188c.8789062,0,1.15625-.2783203,1.15625-.9248047v-16.0078125h-10.4560547v13.1855469c.0927734,5.5507812.1855469,7.4023438.3710938,10.8710938-.3710938.6943359-1.7587891,1.5273438-2.8222656,1.5273438-.6015625,0-1.1103516-.4628906-1.1103516-.9257812.2773438-3.9785156.4160156-6.0136719.5087891-12.0283203v-12.6298828h-10.3173828v8.6513672c.0927734,5.5517578.1855469,7.4023438.3701172,10.8720703-.3701172.5546875-1.5263672,1.2490234-2.7753906,1.2490234-.5097656,0-.8789062-.4628906-.8789062-.9248047.1845703-2.8691406.2773438-4.3027344.3691406-8.6523438v-4.8105469c0-3.1464844-.1845703-6.9404297-.6005859-9.484375l3.7470703,1.7109375h10.0859375v-6.8466797h-10.8720703c-2.40625.0458984-4.6269531.2773438-6.9404297.6474609l-1.2021484-2.40625c2.0351562.2324219,4.0712891.3242188,6.1533203.3710938h12.8613281c0-2.359375-.1386719-5.1816406-.4169922-7.125,4.9970703,1.4335938,4.9970703,1.8964844,4.2099609,2.4521484l-.7402344.5087891v4.1640625h12.3535156l1.0175781-1.4345703c.5546875-.7402344,1.0175781-1.4804688,1.3876953-1.4804688.5556641,0,4.0712891,2.8681641,4.0712891,3.5625-.1386719.5087891-.6015625.7402344-1.203125.7402344h-18.2744141c1.9892578.9248047,1.9892578,1.3876953,1.2958984,1.8964844l-.6484375.4628906v4.4873047h10.0400391l.6474609-1.0634766Z"/>
          <path d="m177.8137207,82.8261719h-14.1572266v-1.6191406h12.4453125v-28.453125h1.7119141v30.0722656Z"/>
        </g>
        <g>
          <path d="m430.0412598,39.984375h14.1572266v1.6201172h-12.4453125v28.4521484h-1.7119141v-30.0722656Z"/>
          <path d="m461.9230957,54.4199219l-.8789062.2304688c-2.1289062,5.5058594-6.1533203,12.7695312-12.1220703,17.3037109l-.4160156-.5556641c2.6367188-2.9609375,4.8574219-6.8466797,6.5693359-10.7333984,1.2490234-2.7753906,2.2207031-6.2919922,2.40625-8.8828125l2.9140625,1.2958984c2.40625.6474609,2.40625,1.1103516,1.5273438,1.3417969Zm5.7363281-4.3496094c0-3.0527344-.1845703-6.9394531-.6015625-9.484375,5.3671875,1.5273438,5.3671875,1.9902344,4.5341797,2.453125l-.7861328.4619141v34.0966797c0,2.6835938-.6015625,4.3955078-5.5517578,4.9511719-.1386719-1.1113281-.5087891-1.8974609-1.2490234-2.4521484-.8798828-.6015625-2.3134766-1.0644531-4.9042969-1.3876953v-.7402344s6.1064453.4619141,7.3095703.4619141c.9716797,0,1.2490234-.2773438,1.2490234-1.1103516v-27.25Zm18.1357422,20.4033203c-.7402344-5.7832031-5.7363281-13.1396484-9.9003906-17.6728516l.6015625-.4169922c15.6376953,10.2705078,13.2314453,21.4667969,9.2988281,18.0898438Z"/>
          <path d="m523.8303223,63.3945312c.4160156-.5546875.7402344-1.109375,1.109375-1.109375.5556641,0,3.4238281,2.4980469,3.4238281,3.1914062-.2773438.3701172-.9716797.7871094-1.8505859.9716797v4.9970703c.0927734,4.9960938.1386719,6.6621094.3242188,9.7617188-.3701172.5087891-1.8505859,1.203125-2.8222656,1.203125-.4160156,0-.6015625-.4628906-.6015625-.9257812.0927734-.3701172.0927734-.6015625.1855469-1.203125v-1.1103516h-16.5634766v.7861328c.0927734.7871094.046875,1.0644531.1386719,1.3417969-.1386719.5556641-1.3408203,1.25-2.4980469,1.25-.5087891,0-.9716797-.4628906-.9716797-.9257812.2314453-3.9785156.3701172-5.9677734.4628906-11.9355469v-6.4316406c-2.8222656,2.0820312-5.8759766,3.8867188-8.9755859,5.1816406l-.2773438-.6474609c5.0429688-2.8222656,10.5947266-7.6796875,14.4345703-12.5839844,1.8974609-2.4052734,3.2851562-5.1357422,3.7470703-7.7255859l5.8300781,1.7578125c-.1386719.5546875-.6943359.7861328-1.8046875.8789062,3.8398438,5.8291016,11.1962891,10.5019531,18.8759766,13.4160156l-.0927734.6943359c-1.2949219.2314453-2.359375,1.3876953-2.6826172,2.5908203-7.3105469-3.6083984-13.8798828-9.3916016-16.9335938-16.0996094-2.5908203,4.2099609-6.8935547,8.6513672-11.84375,12.3525391l2.8222656,1.3876953h15.8232422l.7402344-1.0644531Zm-13.3710938-20.2167969l-.8330078.1386719c-2.4980469,3.9785156-6.9853516,9.2060547-12.1210938,12.5371094l-.5087891-.5546875c2.0351562-1.9433594,3.9785156-4.3496094,5.6904297-6.8476562,1.6660156-2.5449219,3.2382812-5.7363281,3.7939453-8.3271484l2.6367188,1.5732422c2.2207031.8789062,2.2207031,1.3417969,1.3417969,1.4804688Zm13.1396484,22.6230469h-16.5634766v11.9824219h16.5634766v-11.9824219Zm-3.4238281-24.5205078c15.359375,5.4599609,14.0644531,14.3886719,10.0859375,12.1679688-1.7587891-3.8867188-6.7548828-8.8828125-10.5488281-11.6591797l.4628906-.5087891Z"/>
          <path d="m548.0314941,78.7089844c.0917969.9248047.0458984,1.2480469.1386719,1.6191406-.1386719.6015625-1.1572266,1.3876953-2.4980469,1.3876953-.4628906,0-.9716797-.4628906-.9716797-.9248047.2773438-3.9794922.4160156-6.015625.5087891-12.0292969v-15.8222656c0-3.1464844-.1855469-6.9394531-.6015625-9.484375l3.7470703,1.8046875h26.6484375l.7402344-.9726562c.4169922-.5078125.6943359-1.0175781,1.0644531-1.0175781.5546875,0,3.4697266,2.3134766,3.4697266,3.0078125-.3242188.3691406-1.0644531.7402344-1.9433594.9248047v22.0224609c.0927734,5.5507812.1855469,7.4023438.3701172,10.8720703-.4160156.5546875-1.8037109,1.3408203-2.8222656,1.3408203-.4160156,0-.6005859-.4619141-.6005859-.9248047.0917969-.4619141.0917969-.7402344.1845703-1.4804688v-1.2490234h-27.4345703v.9257812Zm12.0283203-32.1083984h-12.0283203v13.8798828h12.0283203v-13.8798828Zm-12.0283203,15.1748047v14.6660156h12.0283203v-14.6660156h-12.0283203Zm27.4345703-15.1748047h-12.4453125v13.8798828h12.4453125v-13.8798828Zm-12.4453125,29.8408203h12.4453125v-14.6660156h-12.4453125v14.6660156Z"/>
          <path d="m600.5930176,82.8261719h-14.1572266v-1.6191406h12.4453125v-28.453125h1.7119141v30.0722656Z"/>
        </g>
        <g>
          <path d="m345.0402832,44.3056641c0-1.1523438-.1152344-1.84375-.8632812-1.84375-1.4404297,0-5.2998047,1.7861328-5.5878906,1.7861328-.1728516,0-.5185547-.0576172-.5185547-.2880859,0-.1728516.1728516-.4033203.4033203-.5761719,3.6865234-2.4765625,5.875-3.8017578,9.5615234-6.2783203.5185547-.3457031.9794922-.6914062,1.3828125-.6914062.4609375,0,.4609375.6337891.4609375,1.2099609,0,.1728516-.3457031,12.4990234-.3457031,25.6328125,0,5.7597656.1152344,10.8867188.2880859,13.4208984.1152344,1.7851562.5185547,2.7646484,2.4189453,2.9375.6914062.0576172,1.1523438.1152344,1.5556641.1728516.5761719.0576172.921875.2304688.921875.5761719,0,.2880859-.2880859.4033203-.9794922.4033203-4.3203125,0-6.2783203-.1728516-6.5664062-.1728516s-3.3984375.1728516-7.0849609.1728516c-.6337891,0-.9794922-.1152344-.9794922-.4033203,0-.2304688.2304688-.4609375.8066406-.4609375.9208984,0,1.5546875-.1152344,2.1884766-.1728516,2.1318359-.1728516,2.5917969-1.1523438,2.7646484-3.3984375.1728516-2.5341797.1728516-7.3154297.1728516-13.0751953v-18.9511719Z"/>
          <path d="m368.1359863,44.3056641c0-1.1523438-.1152344-1.84375-.8632812-1.84375-1.4404297,0-5.2998047,1.7861328-5.5878906,1.7861328-.1728516,0-.5185547-.0576172-.5185547-.2880859,0-.1728516.1728516-.4033203.4033203-.5761719,3.6865234-2.4765625,5.875-3.8017578,9.5615234-6.2783203.5185547-.3457031.9794922-.6914062,1.3828125-.6914062.4609375,0,.4609375.6337891.4609375,1.2099609,0,.1728516-.3457031,12.4990234-.3457031,25.6328125,0,5.7597656.1152344,10.8867188.2880859,13.4208984.1152344,1.7851562.5185547,2.7646484,2.4189453,2.9375.6914062.0576172,1.1523438.1152344,1.5556641.1728516.5761719.0576172.921875.2304688.921875.5761719,0,.2880859-.2880859.4033203-.9794922.4033203-4.3203125,0-6.2783203-.1728516-6.5664062-.1728516s-3.3984375.1728516-7.0849609.1728516c-.6337891,0-.9794922-.1152344-.9794922-.4033203,0-.2304688.2304688-.4609375.8066406-.4609375.9208984,0,1.5546875-.1152344,2.1884766-.1728516,2.1318359-.1728516,2.5917969-1.1523438,2.7646484-3.3984375.1728516-2.5341797.1728516-7.3154297.1728516-13.0751953v-18.9511719Z"/>
        </g>
        <path d="m676.4025879,65.2724609c0-13.8818359,10.5986328-24.6533203,22.4072266-28.4550781.6914062-.2304688,1.3251953-.4033203,1.6123047-.4033203.2880859,0,.5185547.1728516.5185547.3457031,0,.3457031-.7480469.7490234-1.4970703,1.09375-8.3525391,3.8027344-18.0292969,12.3271484-18.0292969,26.7851562,0,7.9492188,3.3408203,14.7460938,9.7919922,14.7460938,4.4931641,0,8.0644531-3.7441406,8.0644531-10.1953125,0-6.6816406-4.2050781-11.9238281-8.9863281-11.9238281-2.015625,0-3.2832031.2880859-4.7226562.9794922-.4033203.1728516-.6337891,0-.6337891-.1728516s.1728516-.4609375.5761719-.7490234c1.1513672-.8056641,3.4560547-2.2460938,7.2578125-2.2460938,7.4306641,0,11.2900391,6.2207031,11.2900391,11.8662109,0,8.2363281-5.5878906,14.6308594-13.7675781,14.6308594-9.1005859,0-13.8818359-6.796875-13.8818359-16.3017578Z"/>
        <g>
          <path class="cls-2" d="m9.5568848,101.5283203l.3867188.4550781c-2.6386719,2.1386719-5.0048828,5.4150391-5.0048828,10.1923828s2.3662109,8.0537109,5.0048828,10.1923828l-.3867188.4550781c-3.0712891-1.9570312-6.1201172-5.1650391-6.1201172-10.6474609s3.0488281-8.6914062,6.1201172-10.6474609Z"/>
          <path class="cls-2" d="m28.5090332,107.125c.2041016-.2734375.3632812-.5458984.5458984-.5458984.2724609,0,1.6601562,1.2509766,1.6601562,1.5927734-.1357422.1816406-.5.3632812-.9326172.4316406v2.4345703c.0458984,2.4345703.0683594,3.2529297.1591797,4.7548828-.1816406.25-.8867188.6142578-1.3652344.6142578h-.2041016v-1.0458984h-4.9375v2.7070312h6.1435547l.5224609-.7285156c.2734375-.3632812.5009766-.7275391.6826172-.7275391.2734375,0,1.9794922,1.4101562,1.9794922,1.7519531-.0683594.25-.2724609.3642578-.5683594.3642578h-8.7597656v1.1142578c.0458984,1.0917969.0458984,1.4560547.1142578,2.0703125-.1142578.3183594-.7509766.6826172-1.296875.6826172-.3183594,0-.4550781-.2275391-.4550781-.4550781.0683594-.7050781.0908203-1.046875.1367188-2.1162109v-1.2958984h-5.3242188c-1.1826172.0224609-2.2744141.1357422-3.4121094.3183594l-.5917969-1.1601562c1.0009766.1132812,2.0019531.1582031,3.0263672.1816406h6.3017578v-2.7070312h-4.8232422v.9101562c0,.1357422-.5917969.5-1.1601562.5-.2275391,0-.3867188-.2275391-.3867188-.4550781.0908203-1.0234375.1132812-1.5244141.1591797-3.0712891v-1.7744141c0-1.546875-.0908203-3.4130859-.2958984-4.6640625l1.8427734.8417969h4.6640625v-2.2753906h-4.7324219c-1.1826172.0234375-2.2753906.1367188-3.4130859.3183594l-.6142578-1.1601562c1.0019531.1142578,2.0029297.1591797,3.0263672.1816406h5.7333984c0-1.0234375-.0458984-2.2519531-.1826172-3.09375,2.4345703.7285156,2.4345703.9560547,2.0478516,1.2285156l-.3642578.25v1.6152344h5.5058594l.5009766-.7050781c.2724609-.3408203.5-.7050781.6826172-.7050781.2724609,0,2.0244141,1.3652344,2.0244141,1.7070312-.0683594.25-.2958984.3632812-.5917969.3632812h-8.1220703v2.2753906h4.7099609l.3642578-.5234375Zm-6.5751953,1.2060547h-4.8232422v2.7529297h4.8232422v-2.7529297Zm-4.8232422,6.3701172h4.8232422v-2.9355469h-4.8232422v2.9355469Zm11.2617188-6.3701172h-4.9375v2.7529297h4.9375v-2.7529297Zm-4.9375,6.3701172h4.9375v-2.9355469h-4.9375v2.9355469Z"/>
          <path class="cls-2" d="m49.3029785,105.9873047c-1.2744141-.1816406-2.5712891.2958984-2.7988281.4326172-.4316406.2275391-1.6601562,1.5917969-2.2519531,3.3671875-1.4785156,4.3681641-1.0009766,7.2578125-.1591797,8.4863281.7734375,1.1142578,2.5478516.75,3.5488281.7275391,1.1601562-.0458984,2.1621094.1142578,2.1386719.8417969-.0224609.6591797-1.2285156.7958984-1.6835938.8193359-1.9560547.1367188-3.6396484.1591797-4.8232422-1.3203125-1.0458984-1.296875-1.2050781-2.6611328-1.2285156-4.2539062-.0683594-5.3925781,3.4814453-8.5546875,3.4130859-8.6914062-.0458984-.1132812-.3183594.0458984-.5693359.0917969-.9550781.25-4.2763672,1.7060547-5.2324219,2.0703125-.4091797.1591797-1.3417969.7958984-1.8652344.8642578-1.0244141.1367188-2.2529297-1.4335938-2.34375-1.5693359-.1132812-.1367188-.1367188-.3183594-.0449219-.4326172.1357422-.1367188.25-.0683594.4550781.0224609.2041016.0917969.8183594.5458984,1.6152344.3642578.7958984-.1826172,6.3242188-2.2294922,9.9873047-2.7978516.7050781-.0917969,1.046875-.4550781,2.0244141-.6601562.7060547-.1367188,1.9794922.4316406,2.2070312.8642578.25.4550781.2958984.8193359-.1816406,1.0244141-.1591797.0908203-1.4785156-.1601562-2.2070312-.2509766Zm2.4570312-3.1396484c.3183594.0917969,2.4121094.7285156,2.4345703,2.1386719,0,.4550781-.1367188.6601562-.4091797.7509766-.2734375.0908203-.796875-.0458984-1.046875-.5917969-.2734375-.5908203-.7734375-1.5009766-1.3193359-1.8427734-.2275391-.1367188-.5234375-.2958984-.4785156-.4550781.0683594-.1816406.5009766-.0683594.8193359,0Zm2.3886719-1.1826172c.3183594.0458984,2.5029297.5683594,2.5488281,2.0244141.0224609.3867188-.1826172.5009766-.3417969.5683594-.2734375.1142578-.7275391.0234375-1.046875-.5-.3183594-.5458984-.8867188-1.3652344-1.4560547-1.6376953-.2275391-.1142578-.5683594-.2509766-.5224609-.4091797.0449219-.1826172.5-.1142578.8183594-.0458984Z"/>
          <path class="cls-2" d="m75.2619629,112.9042969c.3408203.6591797.3408203,2.7753906-1.7519531,4.5498047-1.8427734,1.5693359-3.7314453,2.2744141-4.8916016,1.5009766-.7509766-.4775391-1.296875-1.9101562.4101562-4.4589844,0,0,.2949219-.3632812.4091797-.1816406.0449219.0683594-.1367188.4091797-.25.6367188-.0683594.1367188-1.0693359,2.5253906,0,3.0029297.3632812.1591797,1.7509766-.1132812,2.9804688-1.2285156,1.2050781-1.1142578,2.6611328-2.8896484,1.4785156-4.0947266-1.2285156-1.2285156-3.5498047-.1816406-5.3007812.5234375-.7509766.2949219-1.5927734.75-2.4804688,1.296875.0458984.9101562.0683594,1.7060547.1367188,2.2519531.0908203.8417969-.1591797,2.2978516-.3183594,2.5478516-.1591797.2734375-.6142578.6826172-.7509766.6826172-.1591797,0-.3642578-.0224609-.5458984-.4775391-.2050781-.4775391-.5234375-1.0244141-.9101562-1.4560547-.3642578-.4101562-1.3876953-.8876953-1.3876953-.8876953-.7050781.4326172-1.0234375.7509766-1.3193359.7509766-1.1376953.0458984-1.9335938-1.9794922-.7285156-2.2519531.1591797-.0458984.5234375.1132812.8876953.2949219.9550781-.25,2.4570312-1.0917969,3.9355469-1.8876953.0224609-1.2744141.0224609-2.7070312.0224609-3.7998047-.8642578.2958984-1.6376953.5693359-1.9101562.6376953-.4550781.1132812-1.3203125-.0458984-1.6835938-.3193359-.5693359-.3867188-1.0927734-.9091797-1.1835938-1.0234375-.1132812-.1132812-.2050781-.25-.1591797-.3408203.0683594-.1591797.5917969.1357422.7734375.2041016.3183594.1367188,1.1601562.3417969,2.0019531.2509766.4550781-.0458984,1.3652344-.3193359,2.1611328-.5917969-.0224609-.3408203-.0224609-.5693359-.0224609-.6601562-.0449219-.6591797.0224609-1.6826172-.25-2.4111328-.2734375-.7050781-1.046875-.9101562-1.4785156-1.0917969-.1367188-.0683594-.2958984-.0917969-.2958984-.1826172,0-.1357422.25-.25.4091797-.2958984.8417969-.3183594,1.9335938.0917969,2.4121094.4785156.5.3867188.3867188,1.2734375.3408203,1.4785156-.0224609.0908203-.0224609.1816406-.0224609.4550781.1367188.2050781.3183594.4091797.5234375.5458984.4316406.2958984.7958984.5009766,1.1142578.5693359.2958984.0449219.8417969.0673828.8193359.5224609-.0224609.4326172-.1591797.5458984-.5234375.6826172-.1591797.0683594-1.0693359.3867188-2.0703125.7509766-.0224609,1.0458984-.0224609,2.3662109,0,3.6171875.7509766-.3867188,1.4560547-.7509766,2.0244141-.9550781,1.4794922-.5693359,5.9160156-2.6396484,7.3945312.3642578Zm-10.3974609,2.2060547c-.7958984.5234375-1.5693359,1.0693359-2.3427734,1.6376953.7734375.4101562,1.7060547.8876953,1.8652344.9335938.2734375.0683594.3408203-.0234375.4091797-.2734375.0234375-.0683594.0458984-1.0234375.0683594-2.2978516Zm1.0009766-6.4609375c.2050781-.0908203.3417969-.1591797.3867188-.2050781.2509766-.2275391.3417969-.3183594.0234375-.6142578-.1142578-.1132812-.2275391-.2949219-.3193359-.4775391l-.0673828,1.0234375c0,.0908203,0,.1826172-.0234375.2734375Zm12.1035156,1.6611328c-.3867188.2949219-.9785156.0908203-1.1601562-.1142578-.5458984-.6826172-1.0693359-1.2060547-1.9335938-1.3652344-.8642578-.1816406-1.6835938.6826172-1.7744141.7509766-.0917969.0458984-.1591797.0458984-.2509766-.0224609-.0673828-.0458984-.0224609-.2050781.0683594-.3183594.7050781-.8417969,1.3203125-1.4335938,2.6396484-1.5244141,1.3193359-.1142578,2.1835938.7050781,2.4570312,1.0693359.2724609.3642578.3408203,1.2285156-.0458984,1.5244141Z"/>
          <path class="cls-2" d="m96.7160645,120.5019531c-.2734375.3642578-.7050781.4326172-1.5244141-.1582031-.9785156-.6835938-1.8886719-1.2285156-2.7070312-1.6386719-.0234375.1367188-.0234375.25-.0458984.3867188-.2724609,2.59375-3.4355469,2.3886719-4.3222656,2.4121094-.8876953.0224609-4.1640625-.5917969-4.1640625-2.3886719,0-1.8203125,2.2978516-2.4121094,3.8681641-2.5029297,1.1142578-.0908203,2.1835938.0224609,3.1621094.2275391-.2050781-1.4560547-.8642578-4.2548828-.8417969-7.2578125.0224609-2.1152344.5009766-3.9355469.3417969-4.9589844-.1826172-1.0244141-.7060547-1.1152344-1.3652344-1.3427734-.2050781-.0683594-.4775391-.0908203-.3642578-.3183594.0908203-.2050781.8876953-.2050781,1.1601562-.2050781.8642578.0458984,1.7744141.1367188,2.1611328,1.1601562.3867188.9560547-.3632812,1.6835938-.6142578,2.7763672-.0449219.25-.1357422.8417969-.2041016,1.5234375.8417969.0458984,2.4570312-.1367188,3.09375-.3867188.7050781-.2949219,1.5927734-.0908203,1.7978516.4785156.2041016.5683594-.2509766.75-.6376953.8642578-.3867188.1132812-2.4345703.7275391-4.3222656-.3417969,0,.3193359-.0224609.6601562-.0224609.9785156.0449219,1.296875.1591797,2.4794922.5224609,4.1865234.2509766,1.1601562.5693359,2.1386719.7285156,3.2070312,1.7744141.546875,3.0712891,1.3203125,3.5712891,1.6152344.8417969.546875,1.0244141,1.3203125.7285156,1.6835938Zm-5.6875-2.3886719c-1.4111328-.5-2.5253906-.5908203-3.1855469-.5458984-.7958984.0458984-3.0488281.2509766-3.0029297,1.4111328s2.4794922,1.4101562,3.2080078,1.3876953c3.0253906-.0683594,2.9570312-1.3652344,2.9804688-2.2529297Z"/>
          <path class="cls-2" d="m109.411377,103.8945312c.1132812-.1367188.2958984-.0234375.5908203.1367188.2958984.1591797.7285156.2265625,1.1835938.1367188.4550781-.1142578,2.2978516-.9101562,2.7529297-1.1611328.4550781-.2724609.9550781-.3183594,1.5693359-.0224609.8193359.4091797,1.5019531,1.2060547,1.5244141,1.796875.0458984.5693359-.5234375.8876953-.9785156,1.3427734s-6.8017578,6.2333984-7.5527344,7.5302734c-.1142578.2050781-.25.4101562-.1142578.6367188.1142578.1601562.2958984.3193359.9560547.0234375.6367188-.2958984,4.3457031-2.1611328,5.8466797-2.9355469,1.0693359-.5908203,2.3886719-1.1826172,3.2539062-1.0917969.8642578.0683594,1.8193359.5234375,1.7285156,1.2285156-.0683594.6826172-1.046875.546875-1.5244141.5234375-.5-.0224609-3.7539062.1367188-5.2324219,1.6835938-1.5019531,1.546875-1.5693359,2.59375-1.5019531,3.6630859.0917969,1.0917969,1.3427734,2.2070312,4.7783203,2.4794922,1.0234375.0683594,1.5009766.6826172,1.3652344,1.2519531-.1367188.5458984-.9785156.5-1.7519531.3632812-.796875-.1367188-5.1416016-.7050781-5.2558594-3.8447266-.0449219-1.3642578.6601562-3.1621094,1.6835938-4.2763672,0,0-3.2529297,2.1152344-3.6396484,2.3886719-.5693359.4316406-1.1835938.25-1.5703125-.1142578-.5-.4775391-.6601562-1.0917969-.2050781-1.8427734.546875-.9101562,5.8925781-5.9833984,7.3720703-8.5996094.3408203-.5683594.5-1.1601562.1816406-1.4335938-.3408203-.2734375-1.0009766.1367188-1.3876953.4326172s-.8193359.8417969-1.3876953,1.2734375c-.2734375.2275391-.8652344.4775391-1.5244141.0683594-.4091797-.2275391-.8193359-.7275391-1.0917969-1.1826172-.1591797-.2734375-.0917969-.4326172-.0683594-.4550781Z"/>
          <path class="cls-2" d="m141.6945801,120.0927734v.7285156h-8.9863281v-.7285156l3.5947266-.4326172c.0224609-1.3642578.0449219-2.7070312.0449219-4.0488281v-9.328125l-3.4121094.3867188v-.8183594l4.9140625-1.2744141.3408203.2724609-.0908203,3.5263672v7.2353516c0,1.3417969.0224609,2.6845703.0458984,4.0488281l3.5488281.4326172Z"/>
          <path class="cls-2" d="m154.3215332,119.1152344v1.7060547h-10.0332031v-1.3652344c1.4101562-1.4560547,2.8212891-2.9804688,3.9130859-4.140625,2.5019531-2.7080078,3.5039062-4.5732422,3.5039062-6.484375,0-2.0478516-1.1835938-3.4345703-3.1396484-3.4345703-.4326172,0-.9560547.0449219-1.5019531.2041016l-.5683594,1.7519531c-.2734375.9785156-.6142578,1.4111328-1.2060547,1.4111328-.5009766,0-.8417969-.2734375-1.0917969-.7060547.3867188-2.3886719,2.5019531-3.5947266,4.8681641-3.5947266,3.0712891,0,4.5048828,1.7070312,4.5048828,4.2089844,0,2.09375-1.0917969,3.7314453-4.7324219,7.3710938-.6367188.6826172-1.796875,1.84375-3.0488281,3.0722656h8.5322266Z"/>
          <path class="cls-2" d="m169.4729004,104.7587891l-.4091797.0908203c-1.2519531,2.4570312-3.5722656,5.6201172-6.5292969,7.5996094l-.2275391-.2734375c1.3642578-1.2519531,2.5927734-2.9121094,3.5712891-4.5957031.7734375-1.296875,1.4111328-2.9345703,1.6611328-4.1865234l1.296875.6826172c1.0693359.3642578,1.0693359.5917969.6367188.6826172Zm-1.0234375,6.8935547c-.9101562.0234375-1.7744141.1367188-2.6396484.3183594l-.6142578-1.1826172c1.0009766.1132812,2.0019531.1591797,3.0263672.1816406h8.4863281l.3632812-.4550781c.2050781-.2275391.3642578-.4775391.5458984-.4775391.2734375,0,1.5927734,1.1152344,1.5927734,1.4560547-.1591797.1591797-.4316406.2958984-.8642578.3408203-.2050781,5.2109375-.7509766,8.8730469-1.7519531,9.8740234-.5917969.5917969-1.4560547.8642578-2.4570312.8642578.0224609-.4316406-.0908203-.8642578-.4326172-1.0683594-.3867188-.2734375-1.4101562-.5234375-2.2978516-.6601562l.0234375-.4091797c1.0234375.1132812,2.8203125.2724609,3.3212891.2724609.4091797,0,.6142578-.0449219.8193359-.2724609.6826172-.6376953,1.1376953-4.0957031,1.3417969-8.7822266h-5.4599609c-.3867188,3.6171875-1.5244141,7.8037109-7.8945312,10.9433594l-.25-.3867188c5.5283203-3.3222656,6.3701172-7.3261719,6.5742188-10.5566406h-1.4326172Zm14.3330078-1.0234375l-.0458984.2275391c-.6367188.1357422-1.1601562.6367188-1.3417969,1.2060547-2.9121094-2.0478516-5.2558594-5.1875-6.3701172-8.6230469h-1.6162109c-1.0458984.0224609-2.0019531.1367188-3.0029297.3183594l-.6142578-1.1601562c1.0009766.1132812,2.0019531.1591797,3.0263672.1816406h1.6835938l.6826172-1.0683594,1.9111328,1.3642578c-.1826172.2734375-.7285156.4326172-1.4335938.4775391,1.1376953,2.6171875,3.890625,5.5058594,7.1210938,7.0761719Z"/>
          <path class="cls-2" d="m185.6037598,101.5283203c3.0712891,1.9560547,6.1201172,5.1650391,6.1201172,10.6474609s-3.0488281,8.6904297-6.1201172,10.6474609l-.3867188-.4550781c2.6386719-2.1386719,5.0048828-5.4150391,5.0048828-10.1923828s-2.3662109-8.0537109-5.0048828-10.1923828l.3867188-.4550781Z"/>
        </g>
      </g>
    </g>
  </g>
</svg>