<?xml version="1.0" encoding="UTF-8"?>
<svg id="_レイヤー_2" data-name="レイヤー 2" xmlns="http://www.w3.org/2000/svg" viewBox="0 0 122.1816406 40.7270508">
  <defs>
    <style>
      .cls-1 {
        fill: #cfb480;
      }
    </style>
  </defs>
  <g id="_レイヤー_3" data-name="レイヤー 3">
    <g>
      <path class="cls-1" d="m32.9589844,2.1245117h-6.1582031v3.0610352h3.1523438l.5214844-.5400391c.0175781-.0180664.1269531-.1081543.1972656-.1081543.0371094,0,.0722656.0180664.2519531.144043l.8300781.5942383c.0351562.0358887.1972656.1618652.1972656.2880859,0,.0720215-.0351562.1259766-.1269531.197998-.1425781.1079102-.3945312.3061523-.5390625.4140625-.0371094.6123047-.0546875,1.2243652-.0546875,2.232666,0,2.0166016.0898438,4.4294434.1992188,6.4460449,0,.0898438.0175781.4680176.0175781.5581055,0,.6481934-.703125.6662598-.8105469.6662598-.3964844,0-.4316406-.2702637-.4316406-.4682617v-.4680176h-10.3886719c0,.1621094,0,.5942383-.0371094.7202148-.0722656.2338867-.4140625.4501953-.7558594.4501953-.3964844,0-.3964844-.2880859-.3964844-.3962402,0-.0539551.1074219-1.3144531.1269531-1.5664062.0351562-1.0083008.0527344-4.4833984.0527344-5.4196777,0-2.7907715,0-3.4208984-.2695312-4.5732422l1.5117188.828125h2.5761719v-3.0610352h-3.0078125c-.359375,0-1.4589844.0361328-2.3046875.2163086l-.4316406-.7924805c.9355469.0900879,2.0527344.144043,2.9882812.144043h10.9296875l.6484375-.828125c.1445312-.197998.2148438-.2341309.2695312-.2341309.0898438,0,.2695312.144043.3417969.197998l1.0097656.8283691c.0703125.0720215.1796875.144043.1796875.2700195,0,.197998-.1992188.197998-.2890625.197998Zm-2.7539062,3.4931641h-3.4042969v4.5192871c0,.342041,0,.3781738.0371094.4321289.0898438.197998.6289062.2160645.828125.2160645.6113281,0,.8457031,0,1.0078125-.3601074.1992188-.4499512.2890625-1.1342773.3417969-1.5124512h.1621094c.2167969,1.1704102.234375,1.2963867.5039062,1.6206055.1992188.2338867.2519531.342041.2519531.4321289,0,.197998-.2148438.4501953-.4140625.5581055-.484375.2519531-1.3144531.2519531-1.6015625.2519531-1.9082031,0-2.125-.2338867-2.125-.9902344v-5.1674805h-2.1601562c-.0722656,3.3850098-.9179688,5.2036133-3.2773438,6.7700195l-.1445312-.1259766c1.6386719-1.6206055,2.4140625-3.3310547,2.4140625-6.644043h-2.8085938v9.0927734h10.3886719V5.6176758Zm-4.4121094-3.4931641h-2.1601562v3.0610352h2.1601562v-3.0610352Z"/>
      <path class="cls-1" d="m50.8339844,16.4570312c-.5410156,0-2-.7382812-2.9355469-1.8366699-2.4492188-2.8088379-2.8808594-5.9416504-3.1152344-8.8586426h-3.8164062l.5039062.1079102c.1445312.0361328.2519531.0722656.2519531.1801758,0,.197998-.2890625.3959961-.5039062.4501953v2.7548828h1.4042969l.4316406-.7563477c.1074219-.1801758.1621094-.2160645.234375-.2160645.0898438,0,.1269531.0180664.359375.2341309l.7753906.7021484c.1074219.1079102.1796875.1621094.1796875.2880859,0,.1621094-.1621094.1801758-.2890625.1801758h-3.0957031v4.4831543c.125-.0178223.2148438-.0358887.5585938-.0900879,1.2421875-.2338867,2.484375-.4680176,3.7265625-.684082v.1079102c-.9003906.4501953-7.0410156,2.034668-8.4804688,2.3769531-.1796875.3779297-.1992188.4140625-.3964844.4140625-.0898438,0-.1796875-.0361328-.234375-.144043l-.7910156-1.3864746c.2519531.0539551.359375.0720215.6113281.0720215.2890625,0,.5410156-.0180664,1.2070312-.1079102-.0546875-3.0429688-.0546875-3.3491211-.0722656-6.1938477,0-.6303711-.0546875-.8283691-.1621094-1.1704102l1.5292969.5041504c.1816406.0539551.2539062.0720215.2539062.1799316,0,.0541992-.0917969.3422852-.6308594.4682617-.0175781.3239746-.0175781.5761719-.0175781.7561035,0,.6123047-.0195312,5.1677246-.0195312,5.3476562.3066406-.0358887.828125-.1081543,2.0175781-.2880859V5.7617188h-2.3046875c-.6308594,0-1.6210938.0720215-2.3046875.2160645l-.4316406-.7922363c1.3496094.1259766,2.6640625.144043,2.9882812.144043h6.4824219c-.109375-1.3325195-.1992188-2.4848633-.2519531-3.5471191-.0371094-.8820801-.109375-1.170166-.1621094-1.4042969l1.7285156.486084c.1074219.0361328.234375.0900879.234375.2519531,0,.2341309-.2714844.3781738-.6308594.5583496-.0371094.4140625-.0546875.9902344-.0546875,1.8005371,0,.9001465.0371094,1.5483398.0546875,1.8544922h3.3496094l.5039062-.9003906c.0527344-.0898438.1425781-.2338867.2519531-.2338867.1445312,0,.234375.0898438.359375.2160645l.9003906.8642578c.1445312.144043.1796875.2160645.1796875.2880859,0,.197998-.1972656.197998-.2695312.197998h-5.2402344c.2519531,3.1870117.7929688,5.2575684,2.0351562,7.1481934.828125,1.2602539,1.9082031,1.7285156,2.2148438,1.7285156.2167969,0,.3242188-.1801758.4492188-.3962402.0371094-.0898438.5410156-1.0263672.7207031-1.4763184l.1269531.0178223c-.1269531.9365234-.1992188,1.9807129-.1992188,2.1247559,0,.2341309.0195312.2521973.2167969.5581055.0722656.1081543.1621094.342041.1621094.4682617,0,.0178223,0,.5222168-.59375.5222168Zm-7.4902344-13.486084h-3.6015625c-.6484375,0-1.6386719.0720215-2.3222656.197998l-.4335938-.7741699c1.3515625.1079102,2.6660156.144043,3.0078125.144043h1.65625l.46875-.6123047c.1621094-.2160645.1796875-.2341309.2695312-.2341309s.2695312.1262207.3417969.1801758l.703125.630127c.1074219.0900879.1796875.144043.1796875.2702637,0,.1618652-.1445312.197998-.2695312.197998Zm5.5449219.8103027c-.2871094,0-.5214844-.2341309-.8105469-.7202148-.3769531-.6123047-.7207031-1.1164551-1.4042969-1.6206055v-.1079102c1.8554688.2158203,2.71875,1.0800781,2.71875,1.800293,0,.3242188-.1796875.6484375-.5039062.6484375Z"/>
      <path class="cls-1" d="m54.8613281,7.0942383c-.3964844,0-.4511719-.144043-.7558594-.8642578-.46875-1.0625-.6660156-1.206543-1.1171875-1.548584v-.1259766c.6132812.1259766,2.4667969.5939941,2.4667969,1.8544922,0,.2341309-.1074219.6843262-.59375.6843262Zm.9550781,3.3308105c-.4335938,1.2785645-.4863281,1.404541-.4863281,1.9265137,0,.4501953.0351562.6662598.2519531,1.5126953.1425781.5400391.3046875,1.2062988.3046875,1.6923828,0,.828125-.59375.9362793-.7558594.9362793-.2519531,0-.6835938-.1799316-.6835938-1.0263672,0-.2880859.1445312-1.5483398.1445312-1.8186035,0-.9541016-.1269531-1.5302734-1.4042969-1.9804688v-.1079102c.2871094-.0361328.6289062-.1081543.9355469-.1801758.2871094-.0720215.5410156-.4682617.9179688-1.2062988.5761719-1.1345215,1.2597656-2.8808594,2.4667969-5.8879395l.0898438.0722656c-.3417969,1.3322754-.9179688,3.5649414-1.78125,6.067627Zm.5761719-7.328125c-.34375,0-.3789062-.0358887-.9550781-1.1704102-.4316406-.828125-.59375-.972168-.9550781-1.3322754l.0371094-.0900879c.7734375.2160645,2.484375.7561035,2.484375,1.890625,0,.3239746-.1621094.7021484-.6113281.7021484Zm10.765625,12.7839355c-.6289062.0717773-1.8183594.0717773-4.5.0717773h-1.0097656c-2.4667969,0-2.6289062-.8820801-2.6289062-3.1328125,0-.5222168.0195312-2.8989258.0195312-3.3669434,0-.3061523.0175781-1.9086914.0175781-2.1066895-.5585938.2341309-.7207031.3061523-1.2070312.5761719l-.6484375-.5942383c.8476562-.2160645,1.7285156-.4680176,1.8554688-.5041504,0-.5041504.0175781-2.7006836,0-3.1508789-.0722656-1.0622559-.1269531-1.2963867-.234375-1.5664062l1.6386719.5581055c.1445312.0539551.234375.0900879.234375.2341309,0,.197998-.109375.2700195-.5761719.630127,0,.486084-.0546875,2.5568848-.0546875,2.9890137l2.484375-.8283691c0-.630127.0195312-3.6010742,0-3.9973145-.0351562-.9182129-.1074219-1.170166-.2148438-1.4943848l1.6386719.5041504c.1796875.0541992.2871094.0900879.2871094.2160645,0,.1801758-.4140625.486084-.6308594.630127-.0175781.4321289-.0175781.5222168-.0175781,1.3686523v2.4125977l2.5039062-.8461914.4140625-.5942383c.1074219-.144043.1796875-.2519531.2519531-.2519531.0898438,0,.234375.0898438.2871094.1259766l.828125.5041504c.109375.0539551.1992188.1259766.1992188.2341309,0,.0898438-.0898438.1799316-.1445312.2338867-.0722656.0900879-.3242188.3061523-.4316406.4321289,0,.1081543.0898438,4.0151367-.0898438,5.1315918-.0898438.486084-.3242188,1.0441895-.7207031,1.4223633-.2519531.2341309-.3964844.3061523-.9550781.5761719-.3769531-.7561035-.9003906-1.1882324-1.4765625-1.4223633v-.1259766c.3242188.0539551,1.0449219.0900879,1.3867188.0900879.2695312,0,.6132812,0,.7753906-.7382812.1621094-.6662598.1425781-2.3947754.1425781-3.2050781,0-1.3322754-.0175781-1.6923828-.0527344-2.088623l-2.9179688.9724121c0,.144043-.0175781,1.4223633-.0175781,1.6203613,0,.3242188.0898438,4.9335938.0898438,5.2575684,0,.6662598-.8105469.7922363-.8457031.7922363-.3066406,0-.3789062-.2880859-.3789062-.5581055,0-.1081543.0175781-.3061523.0371094-.4680176.0527344-.7202148.0527344-2.1428223.0527344-2.9169922v-3.3669434l-2.5019531.828125c-.0546875,2.2145996-.0722656,3.1149902-.0722656,3.7990723,0,2.4128418.0351562,3.0070801.0898438,3.3310547.1074219.5581055.3242188.7382812.7207031.8103027.3242188.0720215,3.1328125.0900879,3.6015625.0900879,2.2851562,0,2.7714844-.1259766,3.1855469-.5761719.3613281-.3962402.46875-.8103027.9375-2.5927734h.1074219c.1796875,1.6743164.234375,2.2145996.359375,2.3227539.2890625.2519531.34375.3239746.34375.5039062,0,.4321289-.8105469,1.0625-2.1621094,1.2246094Z"/>
      <path class="cls-1" d="m76.3007812,1.6564941c-.3613281.4680176-.8105469,1.0622559-1.296875,1.6384277l.46875.1982422c.2148438.0898438.2695312.144043.2695312.2158203,0,.0900879-.0371094.1262207-.4511719.5043945v1.9985352c0,.3239746.0371094,1.8183594,0,2.0166016-.0351562.3061523-.3417969.486084-.6464844.486084-.34375,0-.34375-.2341309-.34375-.3239746,0-.2341309.0546875-1.890625.0722656-2.2507324.0195312-.3781738.0195312-.7202148.0195312-2.1247559-.8476562.9543457-1.765625,1.8366699-3.4042969,2.7910156l-.0722656-.1801758c.7929688-.7021484,2.0898438-1.9445801,3.4570312-4.0151367,1.1523438-1.7104492,1.171875-1.9626465,1.2246094-2.2866211l1.2246094.7202148c.1269531.0717773.234375.144043.234375.2700195,0,.2338867-.2167969.2519531-.7558594.342041Zm11.2519531,13.3601074c-.8808594.3779297-1.1875.5039062-1.5117188,1.0800781-3.7089844-1.458252-5.7617188-3.4929199-6.6621094-6.1938477h-.5214844c-.3964844.3962402-.8105469.8103027-1.4589844,1.3505859v3.5830078c1.6386719-.2880859,2.8984375-.5400391,4.484375-.9362793v.144043c-.6308594.2880859-1.2246094.486084-3.5117188,1.1882324-.1269531.0361328-3.5117188,1.0983887-3.5644531,1.1164551-.0371094.2700195-.0917969.4140625-.1992188.4140625-.0898438,0-.2148438-.144043-.3066406-.2880859l-.6835938-1.2062988c1.0273438.0361328,1.1523438.0180664,2.7734375-.2341309v-2.9887695c-1.421875,1.0803223-3.2597656,2.232666-5.3476562,2.8986816l-.0546875-.1618652c1.9082031-.8642578,5.546875-3.5290527,6.4101562-4.8796387h-3.4570312c-.5761719,0-1.5839844.0541992-2.3222656.1982422l-.3417969-.7744141c.9707031.1081543,1.9433594.144043,2.9160156.144043h4.2675781c.0722656-1.6384277-.0175781-2.0524902-.3242188-2.6645508l1.6210938.3959961c.125.0361328.2695312.0720215.2695312.2519531,0,.1801758-.2167969.3422852-.5585938.5942383.0175781.2341309.0175781,1.2243652.0175781,1.4223633h5.2949219l.4316406-.5939941c.0898438-.1262207.1621094-.2702637.2871094-.2702637.1269531,0,.2539062.1081543.34375.1801758l.7910156.6481934c.0722656.0720215.1796875.144043.1796875.2700195,0,.1621094-.1621094.197998-.2871094.197998h-6.8417969c.1621094.3962402.5585938,1.3325195,1.6015625,2.3588867.3417969-.2521973.6660156-.5222168.9902344-.8103027.8476562-.7922363.9003906-.9543457.9726562-1.1882324l1.0625.9360352c.1074219.0900879.1972656.1621094.1972656.2880859,0,.144043-.1425781.1801758-.2519531.1801758-.1621094,0-.3769531,0-.6113281-.0180664-.2167969.0900879-1.1875.4321289-1.3867188.5041504-.5039062.197998-.5761719.2160645-.7929688.2880859,1.3144531,1.1884766,3.3496094,2.1606445,6.1054688,2.4848633l-.0195312.0900879Zm-1.0429688-6.8242188c-.3242188,0-1.6933594-.1259766-2.9902344-.7922363-1.3320312-.7021484-2.375-1.8544922-2.9707031-3.2409668l-1.3671875.0900879c-.7558594.0539551-1.7285156.2160645-2.2871094.3601074l-.4863281-.7382812c1.6738281.0180664,2.8632812-.0720215,3.0078125-.0720215l.953125-.0539551c-.1972656-.5400391-.2519531-.8461914-.8828125-3.6010742l1.4765625.342041c.1621094.0361328.3242188.0900879.3242188.2702637,0,.1799316-.1796875.2880859-.5214844.4499512.0546875.486084.1445312,1.3684082.5585938,2.4667969l3.7441406-.2521973.3964844-.6660156c.0898438-.1621094.1972656-.2341309.2695312-.2341309.0898438,0,.1992188.0539551.3417969.1621094l.8300781.5939941c.0898438.0722656.1972656.144043.1972656.2880859,0,.1621094-.1972656.1801758-.2695312.1801758l-5.3300781.3601074c.3417969.6843262.6835938,1.2062988,1.2070312,1.6745605,1.2421875,1.1342773,2.7363281,1.2602539,2.9160156,1.2602539.4140625,0,.5410156-.2160645.7558594-.7741699.1621094-.3962402.2519531-.6481934.3613281-.9724121h.1972656c0,.1982422-.0175781,1.1164551,0,1.3144531.0175781.1081543.0351562.4682617.1445312.5402832.2148438.1799316.3046875.2519531.3046875.4321289,0,.1618652-.1796875.6120605-.8808594.6120605Zm-2.7910156-5.5095215c-.234375,0-.2890625-.0900879-.5234375-.4501953-.2519531-.3962402-.6835938-.8283691-1.2226562-1.260498l.0703125-.144043c1.6035156.0722656,2.234375.7563477,2.234375,1.3144531,0,.3242188-.3066406.5402832-.5585938.5402832Z"/>
      <path class="cls-1" d="m91.203125,10.9833984c-.8828125,2.5927734-1.296875,3.4929199-2.2871094,4.753418l-.1425781-.0541992c.6835938-1.6203613,1.3847656-4.4111328,1.3847656-5.3835449,0-.1621094-.0351562-.4140625-.0703125-.5761719l1.4394531.5581055c.1269531.0539551.1972656.1262207.1972656.2341309,0,.2341309-.2148438.3242188-.5214844.4682617Zm4.0507812-7.1481934c-.953125,1.4404297-3.078125,3.9250488-3.2050781,4.0690918.2519531-.0180664,2.0351562-.144043,2.4863281-.1799316-.2890625-.8464355-.5234375-1.1884766-.6679688-1.3864746l.0722656-.0900879c.3964844.2160645,2,1.0622559,2,2.088623,0,.3781738-.234375.7202148-.5410156.7202148-.4492188,0-.5585938-.3601074-.7929688-1.1162109l-1.5292969.3601074c-.0371094,1.7824707-.0175781,2.6286621-.0175781,3.1149902.0175781.6479492.1074219,4.0690918.1074219,4.2490234,0,.6843262-.4140625.8642578-.703125.8642578-.3945312,0-.3945312-.2880859-.3945312-.4140625,0-.6481934.0898438-3.4389648.0898438-4.0151367s.0527344-3.0788574.0722656-3.6010742c-1.0996094.2519531-1.8007812.3781738-2.359375.4321289-.1621094.2880859-.234375.3781738-.3964844.3781738-.0722656,0-.2167969-.0539551-.2519531-.2160645l-.3066406-1.3864746c.8105469.2880859,1.8730469.2521973,2.828125.2160645,1.1152344-1.6025391,2.8808594-4.8254395,2.6992188-5.5275879l1.3867188.8461914c.1445312.0900879.1621094.1799316.1621094.2700195,0,.197998-.1796875.2521973-.7382812.3242188Zm-2.1054688-2.2145996c-.8652344,1.2241211-1.1523438,1.6203613-1.6757812,2.2866211.3789062.2880859.7578125.5761719.7578125,1.0803223,0,.3601074-.2167969.7380371-.5585938.7380371s-.5039062-.2519531-.9179688-1.0622559c-.34375-.6481934-.5234375-.972168-1.1894531-1.458252l.0371094-.0722656c.2519531.0361328.7734375.1081543,1.6738281.6484375.1621094-.4143066.9550781-2.3227539.9550781-3.151123,0-.1259766-.0371094-.3239746-.0546875-.4499512l1.5292969.7741699c.109375.0539551.1816406.1259766.1816406.2519531,0,.1801758-.1269531.2521973-.7382812.4143066Zm1.9628906,11.0913086c-.4140625,0-.4863281-.2163086-.7207031-.9904785-.0371094-.1259766-.2890625-.9001465-.6855469-1.4404297l.0371094-.0720215c1.0253906.5761719,1.9082031,1.1164551,1.9082031,1.8725586,0,.3061523-.1796875.6303711-.5390625.6303711Zm3.2578125-1.8725586c-1.3144531,2.71875-2.4667969,3.9431152-4.015625,4.6633301l-.0175781-.1262207c1.4589844-1.170166,2.6660156-3.3308105,3.1152344-5.095459h-.9902344c-.2890625,0-.703125.0361328-.9902344.0900879l-.1796875-.5942383c.3242188.0361328,1.0078125.0720215,1.2773438.0720215h.8652344l.1972656-.2880859c.0546875-.0900879.1269531-.144043.1992188-.144043.0898438,0,.1621094.0720215.2148438.1081543l.8105469.684082c.0898438.0720215.1269531.144043.1269531.2341309,0,.3239746-.3613281.3781738-.6132812.3962402Zm5.9609375,4.807373c-1.890625-1.5305176-3.1152344-3.0788574-3.8535156-5.4377441,0,.3061523.0175781.6481934.0175781.9543457.0175781.5761719.0898438,3.5830078.0898438,3.6369629,0,.7563477-.3242188,1.0444336-.5214844,1.1884766-.234375.197998-.5761719.4321289-1.0996094.5222168-.2148438-.486084-.3769531-.8823242-1.8359375-1.4943848l.0351562-.0722656c.34375.0180664,1.5136719.0541992,1.6757812.0541992.5585938,0,.7734375,0,.7734375-.3781738v-5.7617188c0-.6481934,0-.7202148-.0175781-.8642578h-1.8183594c0,.197998.0175781.5761719-.6132812.5761719-.4316406,0-.4492188-.197998-.4492188-.3601074,0-.4140625.0546875-2.2866211.0546875-2.6647949,0-.4680176-.0371094-2.4846191-.0371094-2.8989258,0-.2700195-.0175781-.7021484-.0722656-1.0083008l1.2421875.6481934h1.4238281c.125-.5041504.1796875-1.1523438.1796875-1.4763184,0-.2702637-.0371094-.5942383-.1074219-.8103027l1.5839844.4501953c.1621094.0539551.234375.1621094.234375.2880859,0,.3061523-.3242188.342041-.7207031.3779297-.1269531.1801758-.7207031,1.0083008-.8457031,1.1704102h2.6289062l.5039062-.5400391c.0722656-.0720215.1972656-.1621094.3046875-.1621094.109375,0,.1992188.0539551.2714844.1079102l.7382812.5402832c.1074219.0720215.1796875.1799316.1796875.3061523,0,.2160645-.234375.342041-.6308594.5581055,0,.1799316.0371094,2.2866211.0371094,2.3405762.0175781.3781738.0898438,2.1247559.0898438,2.3588867,0,.5400391-.3242188.7382812-.703125.7382812-.3242188,0-.4140625-.1621094-.3417969-.5402832h-2.484375l.3066406.0720215c.1972656.0539551.3242188.1621094.3242188.2519531,0,.1801758-.2167969.3422852-.4140625.4501953,0,.1259766.2695312,1.3505859,1.0078125,2.6108398.3046875-.2519531,1.2773438-1.3503418,1.5488281-2.2507324l1.1328125.7741699c.1445312.0900879.1816406.1801758.1816406.3242188,0,.2341309-.2890625.2519531-.703125.2160645-.6835938.3781738-1.3867188.7382812-2.0703125,1.0803223.1445312.2519531.4492188.7382812,1.0253906,1.2783203.9902344.9362793,2.0527344,1.4404297,3.4765625,1.8005371v.0720215c-1.2617188.1801758-1.53125.6303711-1.7285156.9724121Zm-1.5859375-12.9279785h-4.96875v2.232666h4.96875v-2.232666Zm0,2.6647949h-4.96875v2.1787109h4.96875v-2.1787109Z"/>
      <path class="cls-1" d="m0,24.3061523h5.9414062v.7202148H.7207031v15.6645508h-.7207031v-16.3847656Z"/>
      <path class="cls-1" d="m15.3339844,29.1315918h-2.5195312v4.0510254c1.1347656-.5039062,1.6191406-.7202148,2.0878906-.9541016l.0722656.144043c-.3964844.3239746-1.421875.9362793-2.1601562,1.3684082.0175781,3.9970703.0175781,4.4291992.0722656,5.3654785,0,.1081543.0175781.5942383.0175781.6843262,0,.342041-.2519531.828125-.7753906.828125-.2148438,0-.359375-.0720215-.359375-.342041,0-.2519531.0722656-1.3864746.0722656-1.6206055.0351562-.9902344.0546875-2.9887695.0546875-4.3571777-.1816406.1081543-2.1074219,1.2243652-2.3769531,1.3864746-.1445312.0898438-.2714844.144043-.4316406.2338867-.0722656.1982422-.234375.5942383-.4335938.5942383-.1621094,0-.2519531-.2338867-.2871094-.3061523l-.59375-1.4042969c.484375,0,.6835938-.0361328,1.1152344-.1621094.1445312-.0539551,1.3867188-.4321289,3.0078125-1.0803223.0175781-2.9348145.0175781-3.2409668.0175781-4.4291992h-2.1972656c-.3066406,1.0622559-.7734375,2.6467285-1.4042969,3.5471191l-.1621094-.0900879c.703125-2.2687988,1.1523438-5.4558105,1.0625-7.1662598l1.5117188.4863281c.1621094.0539551.2890625.1079102.2890625.2700195,0,.2160645-.234375.3239746-.7207031.4501953-.0722656.4140625-.1621094.9182129-.4492188,2.0705566h2.0703125c0-.5041504-.0371094-2.9890137-.0371094-3.0969238-.0351562-.7021484-.1796875-1.0625-.3046875-1.3684082l1.65625.4680176c.125.0361328.234375.1081543.234375.2160645,0,.2160645-.1269531.2702637-.6308594.6481934,0,.6843262-.0175781,2.5388184-.0175781,3.1330566h.8828125l.4316406-.5761719c.0898438-.1081543.1621094-.2160645.2871094-.2160645.109375,0,.2167969.0898438.3242188.1799316l.6855469.5761719c.0898438.0720215.1796875.144043.1796875.2702637,0,.1618652-.1445312.197998-.2714844.197998Zm8.734375,1.8005371h-7.6347656c-.5585938,0-1.5664062.0720215-2.3046875.2160645l-.4316406-.7741699c.9902344.0717773,1.9980469.1259766,2.9882812.1259766h1.3496094v-3.2770996h-.953125c-.5585938,0-1.5664062.0720215-2.3046875.2160645l-.4335938-.7922363c.9902344.0900879,2,.144043,2.9902344.144043h.7011719c-.0175781-1.2783203-.0527344-1.4042969-.3417969-2.5927734l1.765625.5222168c.1601562.0539551.2519531.0900879.2519531.2160645,0,.2880859-.5234375.5581055-.6855469.630127-.0175781.2880859-.0175781.8103027-.0175781,1.2243652h2.2324219l.6132812-.7380371c.1074219-.1262207.1972656-.2163086.3046875-.2163086.109375,0,.2167969.0900879.3242188.1982422l.7382812.7202148c.109375.1079102.1621094.1621094.1621094.2700195,0,.1801758-.1621094.197998-.2695312.197998h-4.1054688c0,.5222168.0175781,2.8088379,0,3.2770996h3.2402344l.5410156-.7744141c.0898438-.144043.1972656-.2158203.3066406-.2158203.1074219,0,.2148438.0539551.3242188.1799316l.7382812.7741699c.125.1259766.1796875.1982422.1796875.3061523,0,.144043-.1621094.1621094-.2695312.1621094Zm-.34375,3.2949219h-3.0234375c.0175781.4501953.0175781,1.1884766.0351562,1.6564941,0,.2160645.0898438,2.4306641.0898438,2.862793,0,.8823242-.1972656,1.548584-1.7460938,1.9807129-.1621094-.4321289-.3789062-.9724121-2.0351562-1.6025391l.0175781-.1079102c.5761719.0358887,1.4238281.0898438,2.0722656.0898438.6113281,0,.6660156-.0720215.6660156-.5219727,0-.6843262-.0722656-3.7451172-.0722656-4.3574219h-2.7363281c-.5585938,0-1.5664062.0539551-2.3046875.197998l-.4335938-.7741699c.9902344.0900879,2,.144043,2.9902344.144043h2.4667969c-.0195312-1.6564941-.0722656-1.8725586-.2167969-2.4125977l1.4042969.2880859c.1972656.0358887.3417969.0717773.3417969.2880859,0,.1259766-.0527344.2519531-.5761719.4680176,0,.2160645.0175781,1.1704102.0371094,1.3684082h1.3671875l.4316406-.7202148c.0917969-.1621094.1816406-.2341309.2890625-.2341309.1269531,0,.1972656.0720215.3242188.197998l.7011719.7023926c.1269531.1259766.1816406.1799316.1816406.2880859,0,.1618652-.1621094.197998-.2714844.197998Zm-6.4804688,3.1328125c-.4140625,0-.4863281-.197998-.8105469-.972168-.0898438-.2341309-.3789062-.9003906-.9726562-1.2424316l.0722656-.1259766c1.0976562.197998,2.25.8283691,2.25,1.7644043,0,.4682617-.3769531.5761719-.5390625.5761719Z"/>
      <path class="cls-1" d="m26.5644531,39.5026855c-.3417969,0-.6484375-.3061523-.6484375-.6123047,0-.3781738.3066406-.630127.7382812-.9902344.3789062-.3239746,1.0273438-.8823242,1.4042969-2.034668h.0898438c.0195312.1621094.0546875.3781738.0546875.6123047,0,1.0083008-.5214844,3.0249023-1.6386719,3.0249023Zm13.828125-10.4611816c-.2519531.144043-.2695312.1621094-.3964844.2700195-.0175781.3242188-.0175781.6662598.0195312,1.8005371.0175781.2702637.125,2.3947754.125,2.4848633,0,.5400391-.4492188.6662598-.7558594.6662598-.4140625,0-.4316406-.2521973-.4140625-.6303711h-8.4453125c-.6289062,0-1.6191406.0720215-2.3046875.2160645l-.4316406-.7741699c1.3496094.1079102,2.6640625.1259766,2.9882812.1259766h8.1933594v-1.890625h-8.1933594c-.6289062,0-1.6386719.0722656-2.3222656.1982422l-.4140625-.7744141c1.3515625.1081543,2.6464844.144043,2.9882812.144043h7.9414062v-1.8544922h-10.4785156c-.9726562.8283691-1.7480469,1.2963867-2.2695312,1.6025391l-.0722656-.1259766c2.7011719-2.2866211,4.5371094-4.9516602,4.6816406-6.4460449l1.3691406.6662598c.1796875.0900879.2695312.1621094.2695312.2880859,0,.2160645-.1972656.2700195-.703125.3601074-.1621094.197998-.3769531.4680176-.4667969.5942383h4.4648438l.5410156-.5041504c.1972656-.1801758.2519531-.1982422.3046875-.1982422.109375,0,.1621094.0541992.3613281.1982422l.7558594.5942383c.0722656.0717773.125.1259766.125.2338867,0,.144043-.125.2160645-.1796875.2160645-.1445312.0539551-.7910156.1801758-.9179688.2160645-.3417969.2880859-1.8730469,1.6206055-2.1972656,1.8725586h4.1054688l.6132812-.5041504c.1972656-.1618652.2148438-.1799316.3046875-.1799316.109375,0,.2519531.1259766.2714844.1621094l.5039062.4321289c.1621094.144043.2148438.197998.2148438.2880859,0,.1079102-.0527344.1799316-.1796875.2519531Zm-9.4335938-2.6467285c-.9550781,1.170166-1.4238281,1.6745605-1.9824219,2.1965332h5.2226562c.1796875-.2700195.9550781-1.5124512,1.0449219-1.6564941.125-.2160645.1621094-.2880859.2871094-.5400391h-4.5722656Zm6.7519531,13.6120605c-.3066406.0539551-.5234375.0898438-.9902344.0898438-1.4414062.0361328-2.8632812.0361328-4.3046875.0361328-1.421875,0-1.9082031-.0720215-1.9082031-1.6384277,0-.2880859.0371094-1.548584.0371094-1.8005371,0-1.0983887-.0722656-1.6206055-.1816406-2.034668l1.4238281.4140625c.2871094.0900879.3046875.1801758.3046875.2341309,0,.144043-.1796875.2521973-.234375.2700195-.1972656.1262207-.2148438.1262207-.359375.2702637v2.71875c0,.486084.1992188.5581055.3964844.6120605.1621094.0361328,2.4296875.0539551,2.7910156.0539551,2.1425781,0,2.3769531-.2880859,2.5742188-.8461914.1074219-.2880859.3417969-1.1523438.4511719-1.8725586h.1425781c.0722656.3061523.2890625,1.6386719.3964844,1.890625.0546875.1801758.0898438.197998.3964844.4140625.1074219.0900879.1796875.1801758.1796875.3061523,0,0-.0175781.684082-1.1152344.8823242Zm-2.5566406-2.9709473c-.3789062,0-.4335938-.144043-.7382812-.8283691-.4863281-1.0622559-.7929688-1.3322754-1.0820312-1.5844727l.0371094-.0898438c1.4765625.2519531,2.3769531,1.2243652,2.3769531,1.8544922,0,.2341309-.0898438.6481934-.59375.6481934Zm6.4082031,1.4763184c-.4492188,0-.5390625-.2158203-.8085938-.7919922-.46875-1.0625-.703125-1.6025391-1.53125-2.1967773l.0546875-.1079102c2.0878906.5939941,2.8613281,1.7824707,2.8613281,2.3945312,0,.4321289-.2148438.7021484-.5761719.7021484Z"/>
      <path class="cls-1" d="m48.0390625,39.6826172c4.484375-1.9624023,7.2929688-6.5178223,7.7246094-9.1826172-1.3867188.1079102-6.5351562.5942383-7.3457031,1.1162109-.3417969.2341309-.3789062.2521973-.5039062.2521973-.46875,0-1.6933594-1.0444336-1.6933594-1.9987793,0-.144043.0195312-.2880859.0898438-.5581055.4335938.6843262,1.0996094,1.1704102,1.9453125,1.1704102.6660156,0,6.6796875-.486084,7.1484375-.5942383.1621094-.0358887.3242188-.0898438.7734375-.486084.109375-.1081543.1796875-.144043.2519531-.144043.1992188,0,1.4238281.9001465,1.4238281,1.2424316,0,.1799316-.0546875.197998-.5761719.4501953-.3613281.1799316-.3789062.2158203-.5957031.7919922-.1621094.3962402-1.5664062,3.8173828-4.1757812,5.9599609-1.2792969,1.0622559-2.7910156,1.8183594-4.4296875,2.1064453l-.0371094-.1259766Zm1.8378906-12.6757812c.9003906,0,3.671875-.2880859,4.3925781-.5400391.5761719-.2160645.6484375-.2341309.828125-.2341309.2890625,0,1.2597656.1081543,1.2597656.5761719,0,.4501953-.5039062.486084-1.890625.5761719-.8457031.0539551-4.9511719.486084-5.3652344.486084-.359375,0-1.2246094-.3959961-1.3671875-1.7104492.8105469.684082,1.0800781.8461914,2.1425781.8461914Z"/>
      <path class="cls-1" d="m73.4765625,28.7353516c0-.197998-.6855469-.8100586-.703125-.8100586.4316406-.0361328.6308594-.0541992,1.2792969.3059082.953125.5402832,1.0800781,1.2424316,1.0800781,1.3684082,0,.1801758-.0371094.1982422-.46875.3061523-.234375.0539551-.5390625.1621094-.7382812.2519531-3.90625,1.9086914-4.3398438,2.1066895-5.2578125,2.4128418-.9003906.2880859-1.6015625.3962402-1.9082031.4501953-.0351562.684082-.0546875,1.3684082-.0546875,2.0524902,0,.9543457.0546875,1.4404297.5585938,1.7827148.6855469.4680176,2.2695312.5581055,3.1523438.5581055,1.3671875,0,2.0703125-.1801758,3.4375-.5402832.3417969-.0900879.46875-.1259766.6484375-.1259766.2167969,0,.6484375.0900879.9550781.2341309.2148438.0898438.3066406.2700195.3066406.4140625,0,.2700195-.2890625.4321289-.3613281.4501953-.4863281.197998-3.7988281.3779297-4.5722656.3779297-.2890625,0-3.3496094-.0178223-4.25-.8820801-.6308594-.5942383-.7207031-1.3684082-.7207031-2.8449707,0-.6481934.109375-3.5109863.1269531-4.1052246.0175781-.7202148.0175781-1.4404297.0175781-2.1606445,0-.5939941,0-.7741699-.234375-1.0441895-.234375-.2880859-.7207031-.5581055-1.2421875-.7382812.4316406-.2160645.5214844-.2700195.7382812-.2700195.4316406,0,2.1601562.5400391,2.1601562,1.1162109,0,.144043-.0527344.2160645-.2695312.5942383-.0722656.1079102-.1269531.2160645-.1445312.5400391-.0898438,1.1884766-.1796875,3.0791016-.234375,4.267334,2.6289062-.7021484,6.6992188-3.4570312,6.6992188-3.9611816Zm1.65625-2.7368164c.2695312.1259766.8828125.3781738.8828125,1.0983887,0,.3781738-.1992188.5402832-.3613281.5402832-.1796875,0-.2148438-.0541992-.7011719-.6662598-.1992188-.2521973-.3789062-.486084-2-1.5666504.7578125.0722656,1.4765625.2880859,2.1796875.5942383Zm-.1074219-1.4584961c.59375,0,2.8808594.3962402,2.8808594,1.6025391,0,.2341309-.0917969.4682617-.3066406.4682617-.1796875,0-.2519531-.0541992-.8105469-.5761719-.1445312-.1081543-.703125-.5402832-.9355469-.7202148-.5957031-.4140625-1.0097656-.5942383-1.296875-.7202148.2519531-.0361328.3066406-.0541992.46875-.0541992Z"/>
      <path class="cls-1" d="m92.015625,36.2436523c.1445312-.0180664.8105469-.144043.9375-.144043.234375,0,1.3320312.4501953,1.3320312.9182129,0,.1621094-.1269531.4501953-.4316406.4501953-.1621094,0-.3066406-.0539551-.703125-.2160645-.4140625-.1801758-1.2597656-.342041-2.1777344-.342041-1.9101562,0-5.5820312.2880859-7.0761719.8103027-.1445312.0539551-.7382812.342041-.8652344.342041-.1972656,0-.9355469-.3962402-1.1152344-.8103027-.1621094-.3601074-.1621094-.828125-.1621094-.9543457,0-.0720215,0-.144043.0527344-.342041.4511719.6481934.6660156.9543457,1.3515625.9543457.234375,0,2.1953125-.2160645,2.5742188-.2521973.6308594-.0720215,2.25-.197998,3.0058594-.2519531.0722656-.4501953.4511719-2.376709.5234375-2.7729492.2695312-1.7104492.3242188-1.9624023.3964844-2.4487305-1.4765625.144043-3.6386719.6123047-3.6914062.6303711-.1445312.0358887-.7207031.2700195-.8457031.2700195-.1992188,0-.3613281-.2160645-.4863281-.3962402-.3964844-.5222168-.4335938-.7021484-.4335938-1.026123,0-.1621094.0195312-.2702637.0546875-.3962402.359375.6481934.8457031.8103027,1.2421875.8103027.1621094,0,3.8164062-.3061523,4.1054688-.6123047.2871094-.2880859.3417969-.342041.4140625-.342041.2519531,0,1.2792969.8823242,1.2792969,1.1342773,0,.1081543-.0371094.144043-.4511719.3781738-.2871094.1621094-.3242188.197998-.3964844.486084-.1621094.6481934-.234375.9724121-.4492188,2.0166016-.1445312.7202148-.1796875.8642578-.46875,2.2145996.3964844-.0358887,2.125-.0539551,2.484375-.1079102Z"/>
      <path class="cls-1" d="m100.4375,31.9404297c.2519531.0720215.4316406.0720215,2.015625.0720215.3242188,0,6.2851562-.0361328,7.5449219-.1801758.3417969-.0358887.359375-.0358887.5761719-.1259766.1074219-.0358887.2167969-.0539551.3417969-.0539551.0898438,0,1.6757812.1799316,1.6757812.7021484,0,.4321289-.46875.4321289-.9550781.4321289-.2695312,0-1.9628906-.1079102-2.3398438-.1079102-1.0820312,0-6.1757812.0898438-7.0585938.1799316-.2167969.0180664-.7382812.0720215-1.2421875.2521973-.3417969.1259766-.4335938.1618652-.5585938.1618652-.1269531,0-.234375,0-.6660156-.5222168-.1269531-.144043-.5234375-.6120605-.5234375-1.2963867,0-.2519531.0195312-.4680176.1445312-.7021484.234375.6481934.6308594,1.0803223,1.0449219,1.1884766Z"/>
      <path class="cls-1" d="m122.1816406,40.546875h-5.9414062v-.7202148h5.2226562v-15.6645508h.71875v16.3847656Z"/>
    </g>
  </g>
</svg>