<?xml version="1.0" encoding="UTF-8"?>
<svg id="_レイヤー_2" data-name="レイヤー 2" xmlns="http://www.w3.org/2000/svg" viewBox="0 0 236.2213135 150.6912479">
  <defs>
    <style>
      .cls-1 {
        fill: #e40012;
      }

      .cls-2 {
        fill: #b1a595;
        font-family: RyuminPr6N-Light-90ms-RKSJ-H, 'A-OTF Ryumin Pr6N';
        font-size: 16.9533806px;
        font-weight: 300;
      }

      .cls-3 {
        fill: #1d2086;
      }

      .cls-4 {
        letter-spacing: .2499998em;
      }

      .cls-5 {
        font-size: 36.4150391px;
      }

      .cls-5, .cls-6 {
        font-family: ShipporiMincho-Regular, 'Shippori Mincho';
      }

      .cls-6 {
        font-size: 24.2766991px;
      }
    </style>
  </defs>
  <g id="_レイヤー_3" data-name="レイヤー 3">
    <g>
      <g>
        <g>
          <path class="cls-3" d="m69.9724809,24.1623873h2.3870476c.7807586,0,1.7695159.134365,1.7695159,1.0423901v8.1752465s-2.6804946.9710896-7.5365.9710896c-4.8507051,0-11.3542535-2.6309979-11.3542535-9.9217943,0-7.2672035,6.7698869-10.1180011,11.7826365-10.1180011,2.2462179,0,5.0657799.1337536,5.0657799,1.3782488v2.4347911c-1.9062232-1.5314595-2.6746054-1.8031027-5.5678192-1.8031027-2.8932183,0-8.068008,1.8755721-8.068008,7.9371945,0,6.069265,6.9454835,9.6737081,12.7118831,7.3927211v-4.6474087c0-.9734453-.0565684-2.8413748-1.1902825-2.8413748"/>
          <path class="cls-3" d="m106.269193,33.8640222h6.1358631c-1.6993978-.6222476-2.3953016-2.6274553-2.9515534-4.0888011-.5762844-1.4566164-5.0127496-12.0613491-5.5106664-13.5315243-.4896628-1.4495493-1.1985319-1.4495493-1.7594952-1.4495493h-3.5278378c1.6999822.5556585.773678,1.7388693.4943742,2.5626465-.2816595.8396737-6.2106836,15.2615642-6.2106836,15.2615642-2.0488242-.5509471-7.1841334-7.9819709-7.1841334-7.9819709,6.8476678-1.9409923,5.7840719-9.8422399-.9021403-9.8422399h-7.6861771c1.5444248.3352832,1.4047729,1.943348,1.4047729,3.1813515v13.1225849c0,1.8042896-.5662681,2.2815804-1.4707686,2.7659383h5.6255699c-1.5438359-.6888187-1.1348964-2.2868672-1.1348964-3.0399373v-14.1549587h3.0399373c1.6169032,0,2.8142573,1.9445349,2.8142573,3.2679911,0,2.1360302-1.6905549,2.9739416-3.3828811,3.601494-1.6870213.6163493-.7725046,2.0052077,0,3.1236098.7901859,1.1054367,3.0381705,4.224335,4.3757699,5.7498962,1.3446665,1.5202744,2.5237549,1.451905,3.1754667,1.451905h5.077563c-1.9686853-.6222476-.9209994-2.1436908-.646407-2.9002854.2816595-.7801517,1.5603348-4.0310594,1.5603348-4.0310594h7.6024957s.9186437,2.3534743,1.7636222,4.43883c.848521,2.0888802.2133081,2.3587612-.7023865,2.4925148m-7.8953493-9.1486918l2.9026411-7.4286681,3.0859005,7.4286681h-5.9885416Z"/>
          <path class="cls-3" d="m167.9858007,33.8640222h6.1452859c-1.6929151-.6222476-2.3988351-2.6274553-2.95096-4.0888011-.5656837-1.4566164-5.0109784-12.0613491-5.501828-13.5315243-.4979167-1.4495493-1.1985319-1.4495493-1.7648-1.4495493h-3.5213551c1.6952708.5556585.773687,1.7388693.4967389,2.5626465-.2910913.8396737-6.2053923,15.2615642-6.2053923,15.2615642-.3971519.8991957-.9763854.9209904-1.328761,1.245664h5.0622464c-1.9739812-.6222476-.9092119-2.1436908-.6369752-2.9002854.2716433-.7801517,1.5485428-4.0310594,1.5485428-4.0310594h7.6225372s.9198216,2.3534743,1.7600886,4.43883c.8337934,2.0888802.2026985,2.3587612-.7253681,2.4925148m-7.8764947-9.1486918l2.8802439-7.4286681,3.1112468,7.4286681h-5.9914908Z"/>
          <path class="cls-3" d="m146.300474,34.2256497c.7070979-.6369752,1.3440731-1.1177906,1.3440731-3.3392736v-13.1090261c0-1.0400344-.0542082-2.2185338-1.3440731-2.6475058h5.438179c-.5609633.4926119-1.2303519,1.1136726-1.2303519,2.5043113v13.2522205c0,1.1808552-.2575,2.9185556,1.3163891,3.3392736h-5.5242162Z"/>
          <path class="cls-3" d="m117.1165183,19.2331393s-.0695382,10.4715725-.0695382,11.6530031c0,1.1808731.1555664,2.9185556,1.7011691,3.3392916h-5.1541728c.7112248-.6369932,1.2757307-1.1178086,1.2757307-3.3392916,0-2.2126176.1325758-12.0766702.1325758-13.1090261,0-1.039441-.1325758-2.2179404-1.4083065-2.6475058h3.954454l11.8344912,14.6458084v-11.9340872c0-.7624749.1479059-2.2191093-1.4719375-2.7741743h5.2855617c-.6369752.4920185-1.5650417.6905989-1.5650417,2.7099589v17.2137417s-1.4601589.2675253-3.8619432-2.5791364c-2.4006064-2.8395946-10.6530427-13.1785823-10.6530427-13.1785823"/>
          <path class="cls-1" d="m150.7992755,48.9845319c-15.5037522-12.8562464-21.427476-27.992293-.2280448-48.6555228.6593724-.6352129,1.2957632-.2557288.7725091.3364701-9.3007156,10.4473861-19.6514819,27.1803124-.2162572,47.6761883.305819.3276227.1838438.9893508-.3282071.6428645"/>
          <path class="cls-3" d="m178.3771624,34.0298565c-1.4366019,0-2.6056785-1.1684832-2.6056785-2.6056606,0-1.4365839,1.1690766-2.6056606,2.6056785-2.6056606,1.4365839,0,2.6056606,1.1690766,2.6056606,2.6056606,0,1.4371773-1.1690766,2.6056606-2.6056606,2.6056606m0-4.8801738c-1.2545293,0-2.2745133,1.0200019-2.2745133,2.2745133s1.0199839,2.2750887,2.2745133,2.2750887c1.2545114,0,2.2744953-1.0205774,2.2744953-2.2750887s-1.0199839-2.2745133-2.2744953-2.2745133"/>
          <path class="cls-3" d="m179.0053981,32.8383737c-.0571483-.0541992-.0919084-.0960444-.0919084-.2993363v-.3376389c0-.1991559-.0618777-.4602075-.3606205-.4602075h-.7171231v1.0971827h-.5173558v-2.7995116h1.3187268c.5214918,0,.8632487.3223179.8632487.7589503,0,.1838348-.0612663.3535534-.1726497.4790531-.1078229.123162-.1997493.1726497-.4372079.2262735.2722187.0388961.5367948.119026.5367948.6446357v.2834398c0,.2804727.1037049.35296.1803103.4071592h-.6022151Zm-.4372079-2.3623037h-.7324442v.8279131h.6481783c.2875398,0,.4643255-.1496861.4643255-.4366504,0-.2533731-.1496681-.3912627-.3800596-.3912627"/>
        </g>
        <g>
          <text class="cls-5" transform="translate(.0000114 89.5720462)"><tspan x="0" y="0">入間市</tspan></text>
          <text class="cls-6" transform="translate(114.8376579 84.285181)"><tspan x="0" y="0">小谷田９期</tspan></text>
        </g>
      </g>
      <text class="cls-2" transform="translate(50.2969475 124.5151615)"><tspan x="0" y="0">新築分譲住</tspan><tspan class="cls-4" x="84.7668457" y="0">宅2</tspan><tspan x="118.673584" y="0">棟</tspan><tspan x="-16.9533691" y="21.1917114">建築条件付土</tspan><tspan class="cls-4" x="84.7668457" y="21.1917114">地7</tspan><tspan x="118.673584" y="21.1917114">区画</tspan></text>
    </g>
  </g>
</svg>