<?xml version="1.0" encoding="UTF-8"?>
<svg id="_レイヤー_2" data-name="レイヤー 2" xmlns="http://www.w3.org/2000/svg" viewBox="0 0 157.8203125 22.2956645">
  <defs>
    <style>
      .cls-1 {
        fill: none;
        stroke: #fff;
        stroke-linecap: round;
        stroke-linejoin: round;
      }

      .cls-2 {
        fill: #606060;
      }
    </style>
  </defs>
  <g id="_レイヤー_1-2" data-name="レイヤー 1">
    <g>
      <path class="cls-2" d="m32.9648438,17.6835289c3.4277344-1.1540527,5.0537109-3.0600586,5.4560547-5.7705078-.6826172.6994629-1.5742188,1.0493164-2.6230469,1.0493164-2.0634766,0-3.6894531-1.434082-3.671875-3.7597656,0-2.3081055,1.6259766-3.8818359,3.9335938-3.8818359,2.3789062,0,3.8828125,1.9060059,3.8828125,4.9660645,0,3.6022949-2.0458984,6.7497559-6.8378906,7.9562988l-.1396484-.5595703Zm5.5253906-6.557373c.0175781-.1923828.0175781-.3847656.0175781-.5944824,0-3.0600586-1.0488281-4.4941406-2.5175781-4.4941406-1.3291016,0-2.4658203,1.0317383-2.4658203,3.0251465,0,2.0285645,1.171875,2.9902344,2.7099609,2.9902344.8925781,0,1.609375-.2971191,2.2558594-.9267578Z"/>
      <path class="cls-2" d="m49.6455078,6.4398766c.6474609,0,1.1542969.5070801,1.1542969,1.1540527s-.5068359,1.1540527-1.1542969,1.1540527c-.6464844,0-1.1542969-.5070801-1.1542969-1.1540527s.5078125-1.1540527,1.1542969-1.1540527Zm0,8.5158691c.6474609,0,1.1542969.5246582,1.1542969,1.1716309s-.5068359,1.1540527-1.1542969,1.1540527c-.6464844,0-1.1542969-.5070801-1.1542969-1.1540527s.5078125-1.1716309,1.1542969-1.1716309Z"/>
      <path class="cls-2" d="m66.9902344,11.7557945c0,4.6689453-1.8886719,6.3825684-3.8642578,6.3825684-1.9941406,0-3.8994141-1.713623-3.8994141-6.3825684,0-4.6865234,1.9052734-6.4350586,3.8994141-6.4350586,1.9755859,0,3.8642578,1.7485352,3.8642578,6.4350586Zm-3.8642578,5.6831055c1.2236328,0,2.4130859-1.2590332,2.4130859-5.6831055,0-4.4765625-1.1894531-5.7182617-2.4130859-5.7182617-1.2597656,0-2.4306641,1.2241211-2.4306641,5.7182617,0,4.4414062,1.1708984,5.6831055,2.4306641,5.6831055Z"/>
      <path class="cls-2" d="m76.4140625,11.7557945c0,4.6689453-1.8886719,6.3825684-3.8642578,6.3825684-1.9941406,0-3.8994141-1.713623-3.8994141-6.3825684,0-4.6865234,1.9052734-6.4350586,3.8994141-6.4350586,1.9755859,0,3.8642578,1.7485352,3.8642578,6.4350586Zm-3.8642578,5.6831055c1.2236328,0,2.4130859-1.2590332,2.4130859-5.6831055,0-4.4765625-1.1894531-5.7182617-2.4130859-5.7182617-1.2597656,0-2.4306641,1.2241211-2.4306641,5.7182617,0,4.4414062,1.1708984,5.6831055,2.4306641,5.6831055Z"/>
      <path class="cls-2" d="m86.5195312,10.4616051c-1.5917969,0-2.7636719.7346191-3.7597656,1.7836914l-.2802734-.262207c1.1191406-1.5739746,2.7109375-2.4482422,4.3720703-2.4482422,1.3984375,0,2.4482422.4196777,3.7773438,1.2241211,1.3632812.8393555,2.2900391,1.2414551,3.5498047,1.2414551,1.5908203,0,2.7802734-.7519531,3.7587891-1.8010254l.2802734.262207c-1.1015625,1.5739746-2.7109375,2.4655762-4.3720703,2.4655762-1.3984375,0-2.4472656-.4194336-3.7763672-1.223877-1.3642578-.8393555-2.2910156-1.2416992-3.5498047-1.2416992Z"/>
      <path class="cls-2" d="m112.0996094,16.5819664v1.3115234h-7.7119141v-1.0493164c1.0839844-1.1191406,2.1679688-2.2905273,3.0078125-3.182373,1.9238281-2.0810547,2.6923828-3.5148926,2.6923828-4.9836426,0-1.5739746-.9091797-2.640625-2.4130859-2.640625-.3320312,0-.734375.0351562-1.1533203.1574707l-.4375,1.3464355c-.2099609.7519531-.4726562,1.0842285-.9267578,1.0842285-.3847656,0-.6474609-.2099609-.8398438-.5422363.2978516-1.8359375,1.9238281-2.7626953,3.7421875-2.7626953,2.3613281,0,3.4628906,1.3115234,3.4628906,3.2348633,0,1.6088867-.8398438,2.8679199-3.6376953,5.6657715-.4892578.5246582-1.3808594,1.4162598-2.3427734,2.3605957h6.5576172Z"/>
      <path class="cls-2" d="m121.2431641,17.3339195v.5595703h-6.9072266v-.5595703l2.7626953-.3322754c.0175781-1.0490723.0351562-2.0808105.0351562-3.1125488v-7.1694336l-2.6230469.2971191v-.6293945l3.7773438-.979248.2626953.2097168-.0703125,2.7104492v5.560791c0,1.0317383.0175781,2.0634766.0351562,3.1125488l2.7275391.3322754Z"/>
      <path class="cls-2" d="m131.0517578,6.4398766c.6474609,0,1.1542969.5070801,1.1542969,1.1540527s-.5068359,1.1540527-1.1542969,1.1540527c-.6464844,0-1.1542969-.5070801-1.1542969-1.1540527s.5078125-1.1540527,1.1542969-1.1540527Zm0,8.5158691c.6474609,0,1.1542969.5246582,1.1542969,1.1716309s-.5068359,1.1540527-1.1542969,1.1540527c-.6464844,0-1.1542969-.5070801-1.1542969-1.1540527s.5078125-1.1716309,1.1542969-1.1716309Z"/>
      <path class="cls-2" d="m148.3964844,11.7557945c0,4.6689453-1.8886719,6.3825684-3.8642578,6.3825684-1.9941406,0-3.8994141-1.713623-3.8994141-6.3825684,0-4.6865234,1.9052734-6.4350586,3.8994141-6.4350586,1.9755859,0,3.8642578,1.7485352,3.8642578,6.4350586Zm-3.8642578,5.6831055c1.2236328,0,2.4130859-1.2590332,2.4130859-5.6831055,0-4.4765625-1.1894531-5.7182617-2.4130859-5.7182617-1.2597656,0-2.4306641,1.2241211-2.4306641,5.7182617,0,4.4414062,1.1708984,5.6831055,2.4306641,5.6831055Z"/>
      <path class="cls-2" d="m157.8203125,11.7557945c0,4.6689453-1.8886719,6.3825684-3.8642578,6.3825684-1.9941406,0-3.8994141-1.713623-3.8994141-6.3825684,0-4.6865234,1.9052734-6.4350586,3.8994141-6.4350586,1.9755859,0,3.8642578,1.7485352,3.8642578,6.4350586Zm-3.8642578,5.6831055c1.2236328,0,2.4130859-1.2590332,2.4130859-5.6831055,0-4.4765625-1.1894531-5.7182617-2.4130859-5.7182617-1.2597656,0-2.4306641,1.2241211-2.4306641,5.7182617,0,4.4414062,1.1708984,5.6831055,2.4306641,5.6831055Z"/>
    </g>
    <g>
      <circle class="cls-2" cx="11.1478323" cy="11.1478323" r="11.1478323"/>
      <polyline class="cls-1" points="11.1478323 4.6232151 11.1478323 12.33644 15.4873493 9.6234498"/>
    </g>
  </g>
</svg>