<?xml version="1.0" encoding="UTF-8"?>
<svg id="_レイヤー_2" data-name="レイヤー 2" xmlns="http://www.w3.org/2000/svg" viewBox="0 0 89.1777344 16.7629395">
  <defs>
    <style>
      .cls-1 {
        fill: #cfb480;
      }
    </style>
  </defs>
  <g id="_レイヤー_3" data-name="レイヤー 3">
    <g>
      <path class="cls-1" d="m16.0791016,2.1245117h-6.1582031v3.0610352h3.1513672l.5224609-.5400391c.0175781-.0180664.1259766-.1081543.1972656-.1081543.0361328,0,.0722656.0180664.2519531.144043l.8291016.5942383c.0361328.0358887.1972656.1618652.1972656.2880859,0,.0720215-.0351562.1259766-.1259766.197998-.1435547.1079102-.3955078.3061523-.5400391.4140625-.0361328.6123047-.0537109,1.2243652-.0537109,2.232666,0,2.0166016.0898438,4.4294434.1982422,6.4460449,0,.0898438.0175781.4680176.0175781.5581055,0,.6481934-.7021484.6662598-.8095703.6662598-.3964844,0-.4326172-.2702637-.4326172-.4682617v-.4680176H2.9355469c0,.1621094,0,.5942383-.0361328.7202148-.0722656.2338867-.4140625.4501953-.7568359.4501953-.3955078,0-.3955078-.2880859-.3955078-.3962402,0-.0539551.1074219-1.3144531.1259766-1.5664062.0361328-1.0083008.0537109-4.4833984.0537109-5.4196777,0-2.7907715,0-3.4208984-.2695312-4.5732422l1.5117188.828125h2.5751953v-3.0610352h-3.0068359c-.3603516,0-1.4589844.0361328-2.3046875.2163086l-.4326172-.7924805c.9365234.0900879,2.0527344.144043,2.9892578.144043h10.9287109l.6484375-.828125c.1445312-.197998.2158203-.2341309.2705078-.2341309.0898438,0,.2695312.144043.3417969.197998l1.0087891.8283691c.0712891.0720215.1796875.144043.1796875.2700195,0,.197998-.1982422.197998-.2880859.197998Zm-2.7548828,3.4931641h-3.4033203v4.5192871c0,.342041,0,.3781738.0361328.4321289.0898438.197998.6298828.2160645.828125.2160645.6123047,0,.8466797,0,1.0087891-.3601074.1982422-.4499512.2880859-1.1342773.3417969-1.5124512h.1621094c.2158203,1.1704102.234375,1.2963867.5039062,1.6206055.1982422.2338867.2519531.342041.2519531.4321289,0,.197998-.2158203.4501953-.4140625.5581055-.4853516.2519531-1.3144531.2519531-1.6025391.2519531-1.9082031,0-2.1240234-.2338867-2.1240234-.9902344v-5.1674805h-2.1611328c-.0712891,3.3850098-.9179688,5.2036133-3.2763672,6.7700195l-.1445312-.1259766c1.6386719-1.6206055,2.4130859-3.3310547,2.4130859-6.644043h-2.8085938v9.0927734h10.3886719V5.6176758Zm-4.4111328-3.4931641h-2.1611328v3.0610352h2.1611328v-3.0610352Z"/>
      <path class="cls-1" d="m33.953125,16.4570312c-.5400391,0-1.9990234-.7382812-2.9345703-1.8366699-2.4492188-2.8088379-2.8808594-5.9416504-3.1152344-8.8586426h-3.8173828l.5039062.1079102c.1445312.0361328.2529297.0722656.2529297.1801758,0,.197998-.2890625.3959961-.5048828.4501953v2.7548828h1.4042969l.4326172-.7563477c.1074219-.1801758.1621094-.2160645.234375-.2160645.0898438,0,.1259766.0180664.359375.2341309l.7744141.7021484c.1083984.1079102.1806641.1621094.1806641.2880859,0,.1621094-.1621094.1801758-.2890625.1801758h-3.0966797v4.4831543c.1259766-.0178223.2158203-.0358887.5585938-.0900879,1.2421875-.2338867,2.484375-.4680176,3.7265625-.684082v.1079102c-.8994141.4501953-7.0400391,2.034668-8.4804688,2.3769531-.1796875.3779297-.1982422.4140625-.3955078.4140625-.0898438,0-.1806641-.0361328-.234375-.144043l-.7919922-1.3864746c.2519531.0539551.3603516.0720215.6123047.0720215.2880859,0,.5400391-.0180664,1.2060547-.1079102-.0537109-3.0429688-.0537109-3.3491211-.0722656-6.1938477,0-.6303711-.0537109-.8283691-.1621094-1.1704102l1.5302734.5041504c.1806641.0539551.2529297.0720215.2529297.1799316,0,.0541992-.0908203.3422852-.6308594.4682617-.0175781.3239746-.0175781.5761719-.0175781.7561035,0,.6123047-.0185547,5.1677246-.0185547,5.3476562.3066406-.0358887.828125-.1081543,2.0166016-.2880859V5.7617188h-2.3046875c-.6298828,0-1.6201172.0720215-2.3046875.2160645l-.4316406-.7922363c1.3505859.1259766,2.6650391.144043,2.9892578.144043h6.4814453c-.1083984-1.3325195-.1982422-2.4848633-.2519531-3.5471191-.0361328-.8820801-.1083984-1.170166-.1621094-1.4042969l1.7285156.486084c.1083984.0361328.234375.0900879.234375.2519531,0,.2341309-.2705078.3781738-.6308594.5583496-.0361328.4140625-.0537109.9902344-.0537109,1.8005371,0,.9001465.0361328,1.5483398.0537109,1.8544922h3.3496094l.5039062-.9003906c.0537109-.0898438.1435547-.2338867.2519531-.2338867.1445312,0,.234375.0898438.3603516.2160645l.9003906.8642578c.1435547.144043.1796875.2160645.1796875.2880859,0,.197998-.1982422.197998-.2695312.197998h-5.2402344c.2519531,3.1870117.7919922,5.2575684,2.0351562,7.1481934.828125,1.2602539,1.9082031,1.7285156,2.2138672,1.7285156.2167969,0,.3242188-.1801758.4501953-.3962402.0361328-.0898438.5410156-1.0263672.7207031-1.4763184l.1259766.0178223c-.1259766.9365234-.1982422,1.9807129-.1982422,2.1247559,0,.2341309.0185547.2521973.2158203.5581055.0722656.1081543.1621094.342041.1621094.4682617,0,.0178223,0,.5222168-.59375.5222168Zm-7.4902344-13.486084h-3.6015625c-.6474609,0-1.6376953.0720215-2.3222656.197998l-.4326172-.7741699c1.3505859.1079102,2.6650391.144043,3.0078125.144043h1.65625l.4677734-.6123047c.1621094-.2160645.1806641-.2341309.2705078-.2341309s.2695312.1262207.3417969.1801758l.7021484.630127c.1083984.0900879.1796875.144043.1796875.2702637,0,.1618652-.1435547.197998-.2695312.197998Zm5.5458984.8103027c-.2880859,0-.5224609-.2341309-.8105469-.7202148-.3779297-.6123047-.7207031-1.1164551-1.4042969-1.6206055v-.1079102c1.8544922.2158203,2.71875,1.0800781,2.71875,1.800293,0,.3242188-.1796875.6484375-.5039062.6484375Z"/>
      <path class="cls-1" d="m37.9804688,7.0942383c-.3955078,0-.4501953-.144043-.7558594-.8642578-.4677734-1.0625-.6660156-1.206543-1.1162109-1.548584v-.1259766c.6123047.1259766,2.4667969.5939941,2.4667969,1.8544922,0,.2341309-.1083984.6843262-.5947266.6843262Zm.9550781,3.3308105c-.4326172,1.2785645-.4863281,1.404541-.4863281,1.9265137,0,.4501953.0361328.6662598.2519531,1.5126953.1435547.5400391.3056641,1.2062988.3056641,1.6923828,0,.828125-.59375.9362793-.7558594.9362793-.2519531,0-.6845703-.1799316-.6845703-1.0263672,0-.2880859.1445312-1.5483398.1445312-1.8186035,0-.9541016-.1259766-1.5302734-1.4042969-1.9804688v-.1079102c.2880859-.0361328.6298828-.1081543.9355469-.1801758.2880859-.0720215.5410156-.4682617.9189453-1.2062988.5761719-1.1345215,1.2597656-2.8808594,2.4667969-5.8879395l.0898438.0722656c-.3417969,1.3322754-.9179688,3.5649414-1.7822266,6.067627Zm.5761719-7.328125c-.3427734,0-.3789062-.0358887-.9550781-1.1704102-.4316406-.828125-.59375-.972168-.9541016-1.3322754l.0361328-.0900879c.7744141.2160645,2.484375.7561035,2.484375,1.890625,0,.3239746-.1611328.7021484-.6113281.7021484Zm10.7666016,12.7839355c-.6298828.0717773-1.8183594.0717773-4.5009766.0717773h-1.0087891c-2.4667969,0-2.6289062-.8820801-2.6289062-3.1328125,0-.5222168.0185547-2.8989258.0185547-3.3669434,0-.3061523.0175781-1.9086914.0175781-2.1066895-.5576172.2341309-.7197266.3061523-1.2060547.5761719l-.6484375-.5942383c.8466797-.2160645,1.7285156-.4680176,1.8544922-.5041504,0-.5041504.0185547-2.7006836,0-3.1508789-.0712891-1.0622559-.1259766-1.2963867-.2333984-1.5664062l1.6376953.5581055c.1445312.0539551.234375.0900879.234375.2341309,0,.197998-.1083984.2700195-.5761719.630127,0,.486084-.0537109,2.5568848-.0537109,2.9890137l2.484375-.8283691c0-.630127.0185547-3.6010742,0-3.9973145-.0361328-.9182129-.1074219-1.170166-.2158203-1.4943848l1.6386719.5041504c.1796875.0541992.2880859.0900879.2880859.2160645,0,.1801758-.4140625.486084-.6308594.630127-.0175781.4321289-.0175781.5222168-.0175781,1.3686523v2.4125977l2.5029297-.8461914.4140625-.5942383c.1083984-.144043.1796875-.2519531.2519531-.2519531.0898438,0,.234375.0898438.2880859.1259766l.828125.5041504c.1083984.0539551.1982422.1259766.1982422.2341309,0,.0898438-.0898438.1799316-.1445312.2338867-.0712891.0900879-.3232422.3061523-.4316406.4321289,0,.1081543.0898438,4.0151367-.0898438,5.1315918-.0898438.486084-.3242188,1.0441895-.7207031,1.4223633-.2519531.2341309-.3955078.3061523-.9541016.5761719-.3779297-.7561035-.9003906-1.1882324-1.4765625-1.4223633v-.1259766c.3242188.0539551,1.0449219.0900879,1.3867188.0900879.2695312,0,.6123047,0,.7744141-.7382812.1621094-.6662598.1435547-2.3947754.1435547-3.2050781,0-1.3322754-.0175781-1.6923828-.0537109-2.088623l-2.9169922.9724121c0,.144043-.0175781,1.4223633-.0175781,1.6203613,0,.3242188.0898438,4.9335938.0898438,5.2575684,0,.6662598-.8105469.7922363-.8466797.7922363-.3056641,0-.3779297-.2880859-.3779297-.5581055,0-.1081543.0175781-.3061523.0361328-.4680176.0537109-.7202148.0537109-2.1428223.0537109-2.9169922v-3.3669434l-2.5029297.828125c-.0537109,2.2145996-.0712891,3.1149902-.0712891,3.7990723,0,2.4128418.0351562,3.0070801.0898438,3.3310547.1074219.5581055.3242188.7382812.7197266.8103027.3242188.0720215,3.1328125.0900879,3.6015625.0900879,2.2861328,0,2.7724609-.1259766,3.1865234-.5761719.3603516-.3962402.46875-.8103027.9365234-2.5927734h.1083984c.1796875,1.6743164.2333984,2.2145996.359375,2.3227539.2880859.2519531.3427734.3239746.3427734.5039062,0,.4321289-.8105469,1.0625-2.1611328,1.2246094Z"/>
      <path class="cls-1" d="m59.4199219,1.6564941c-.3603516.4680176-.8105469,1.0622559-1.296875,1.6384277l.46875.1982422c.2158203.0898438.2695312.144043.2695312.2158203,0,.0900879-.0361328.1262207-.4501953.5043945v1.9985352c0,.3239746.0361328,1.8183594,0,2.0166016-.0351562.3061523-.3417969.486084-.6474609.486084-.3427734,0-.3427734-.2341309-.3427734-.3239746,0-.2341309.0546875-1.890625.0722656-2.2507324.0185547-.3781738.0185547-.7202148.0185547-2.1247559-.8466797.9543457-1.7646484,1.8366699-3.4033203,2.7910156l-.0722656-.1801758c.7919922-.7021484,2.0888672-1.9445801,3.4570312-4.0151367,1.1523438-1.7104492,1.1708984-1.9626465,1.2246094-2.2866211l1.2246094.7202148c.1259766.0717773.2333984.144043.2333984.2700195,0,.2338867-.2158203.2519531-.7558594.342041Zm11.2529297,13.3601074c-.8818359.3779297-1.1875.5039062-1.5117188,1.0800781-3.7089844-1.458252-5.7617188-3.4929199-6.6621094-6.1938477h-.5224609c-.3964844.3962402-.8105469.8103027-1.4580078,1.3505859v3.5830078c1.6376953-.2880859,2.8984375-.5400391,4.4833984-.9362793v.144043c-.6308594.2880859-1.2246094.486084-3.5117188,1.1882324-.1259766.0361328-3.5107422,1.0983887-3.5644531,1.1164551-.0361328.2700195-.0908203.4140625-.1982422.4140625-.0898438,0-.2158203-.144043-.3066406-.2880859l-.6835938-1.2062988c1.0263672.0361328,1.1523438.0180664,2.7724609-.2341309v-2.9887695c-1.421875,1.0803223-3.2587891,2.232666-5.3476562,2.8986816l-.0537109-.1618652c1.9082031-.8642578,5.5458984-3.5290527,6.4101562-4.8796387h-3.4570312c-.5761719,0-1.5849609.0541992-2.3232422.1982422l-.3417969-.7744141c.9716797.1081543,1.9443359.144043,2.9169922.144043h4.2666016c.0722656-1.6384277-.0175781-2.0524902-.3232422-2.6645508l1.6201172.3959961c.1259766.0361328.2705078.0720215.2705078.2519531,0,.1801758-.2167969.3422852-.5585938.5942383.0175781.2341309.0175781,1.2243652.0175781,1.4223633h5.2939453l.4326172-.5939941c.0898438-.1262207.1611328-.2702637.2871094-.2702637.1269531,0,.2529297.1081543.3427734.1801758l.7919922.6481934c.0722656.0720215.1796875.144043.1796875.2700195,0,.1621094-.1621094.197998-.2880859.197998h-6.8417969c.1621094.3962402.5585938,1.3325195,1.6025391,2.3588867.3417969-.2521973.6660156-.5222168.9902344-.8103027.8466797-.7922363.9003906-.9543457.9726562-1.1882324l1.0625.9360352c.1074219.0900879.1972656.1621094.1972656.2880859,0,.144043-.1435547.1801758-.2519531.1801758-.1621094,0-.3779297,0-.6123047-.0180664-.2158203.0900879-1.1875.4321289-1.3857422.5041504-.5039062.197998-.5761719.2160645-.7929688.2880859,1.3144531,1.1884766,3.3496094,2.1606445,6.1044922,2.4848633l-.0185547.0900879Zm-1.0439453-6.8242188c-.3242188,0-1.6923828-.1259766-2.9892578-.7922363-1.3320312-.7021484-2.3759766-1.8544922-2.9707031-3.2409668l-1.3681641.0900879c-.7558594.0539551-1.7285156.2160645-2.2871094.3601074l-.4853516-.7382812c1.6738281.0180664,2.8623047-.0720215,3.0068359-.0720215l.9541016-.0539551c-.1982422-.5400391-.2519531-.8461914-.8828125-3.6010742l1.4765625.342041c.1621094.0361328.3242188.0900879.3242188.2702637,0,.1799316-.1796875.2880859-.5224609.4499512.0546875.486084.1445312,1.3684082.5585938,2.4667969l3.7451172-.2521973.3964844-.6660156c.0898438-.1621094.1972656-.2341309.2695312-.2341309.0898438,0,.1982422.0539551.3417969.1621094l.8291016.5939941c.0898438.0722656.1972656.144043.1972656.2880859,0,.1621094-.1972656.1801758-.2695312.1801758l-5.3300781.3601074c.3427734.6843262.6845703,1.2062988,1.2070312,1.6745605,1.2421875,1.1342773,2.7363281,1.2602539,2.9169922,1.2602539.4140625,0,.5400391-.2160645.7558594-.7741699.1621094-.3962402.2519531-.6481934.3603516-.9724121h.1982422c0,.1982422-.0185547,1.1164551,0,1.3144531.0175781.1081543.0351562.4682617.1435547.5402832.2158203.1799316.3056641.2519531.3056641.4321289,0,.1618652-.1796875.6120605-.8818359.6120605Zm-2.7910156-5.5095215c-.2333984,0-.2880859-.0900879-.5224609-.4501953-.2519531-.3962402-.6835938-.8283691-1.2236328-1.260498l.0712891-.144043c1.6025391.0722656,2.2333984.7563477,2.2333984,1.3144531,0,.3242188-.3066406.5402832-.5585938.5402832Z"/>
      <path class="cls-1" d="m74.3232422,10.9833984c-.8828125,2.5927734-1.296875,3.4929199-2.2871094,4.753418l-.1435547-.0541992c.6835938-1.6203613,1.3857422-4.4111328,1.3857422-5.3835449,0-.1621094-.0361328-.4140625-.0712891-.5761719l1.4404297.5581055c.1259766.0539551.1972656.1262207.1972656.2341309,0,.2341309-.2158203.3242188-.5214844.4682617Zm4.0507812-7.1481934c-.9541016,1.4404297-3.0791016,3.9250488-3.2050781,4.0690918.2519531-.0180664,2.0351562-.144043,2.4853516-.1799316-.2880859-.8464355-.5224609-1.1884766-.6669922-1.3864746l.0722656-.0900879c.3964844.2160645,1.9990234,1.0622559,1.9990234,2.088623,0,.3781738-.234375.7202148-.5400391.7202148-.4501953,0-.5585938-.3601074-.7929688-1.1162109l-1.5302734.3601074c-.0361328,1.7824707-.0175781,2.6286621-.0175781,3.1149902.0175781.6479492.1074219,4.0690918.1074219,4.2490234,0,.6843262-.4140625.8642578-.7021484.8642578-.3955078,0-.3955078-.2880859-.3955078-.4140625,0-.6481934.0898438-3.4389648.0898438-4.0151367s.0537109-3.0788574.0722656-3.6010742c-1.0986328.2519531-1.8007812.3781738-2.359375.4321289-.1621094.2880859-.2333984.3781738-.3955078.3781738-.0722656,0-.2167969-.0539551-.2519531-.2160645l-.3066406-1.3864746c.8105469.2880859,1.8730469.2521973,2.8271484.2160645,1.1162109-1.6025391,2.8808594-4.8254395,2.7001953-5.5275879l1.3867188.8461914c.1445312.0900879.1621094.1799316.1621094.2700195,0,.197998-.1796875.2521973-.7382812.3242188Zm-2.1064453-2.2145996c-.8642578,1.2241211-1.1523438,1.6203613-1.6748047,2.2866211.3779297.2880859.7568359.5761719.7568359,1.0803223,0,.3601074-.2167969.7380371-.5585938.7380371s-.5039062-.2519531-.9179688-1.0622559c-.3427734-.6481934-.5224609-.972168-1.1884766-1.458252l.0361328-.0722656c.2519531.0361328.7744141.1081543,1.6738281.6484375.1621094-.4143066.9550781-2.3227539.9550781-3.151123,0-.1259766-.0361328-.3239746-.0546875-.4499512l1.5302734.7741699c.1083984.0539551.1806641.1259766.1806641.2519531,0,.1801758-.1259766.2521973-.7382812.4143066Zm1.9628906,11.0913086c-.4140625,0-.4863281-.2163086-.7207031-.9904785-.0361328-.1259766-.2880859-.9001465-.6845703-1.4404297l.0361328-.0720215c1.0263672.5761719,1.9091797,1.1164551,1.9091797,1.8725586,0,.3061523-.1806641.6303711-.5400391.6303711Zm3.2587891-1.8725586c-1.3144531,2.71875-2.4667969,3.9431152-4.015625,4.6633301l-.0175781-.1262207c1.4580078-1.170166,2.6650391-3.3308105,3.1152344-5.095459h-.9912109c-.2880859,0-.7021484.0361328-.9902344.0900879l-.1796875-.5942383c.3242188.0361328,1.0087891.0720215,1.2783203.0720215h.8642578l.1982422-.2880859c.0537109-.0900879.1259766-.144043.1982422-.144043.0898438,0,.1621094.0720215.2158203.1081543l.8105469.684082c.0898438.0720215.1259766.144043.1259766.2341309,0,.3239746-.3603516.3781738-.6123047.3962402Zm5.9599609,4.807373c-1.890625-1.5305176-3.1152344-3.0788574-3.8535156-5.4377441,0,.3061523.0175781.6481934.0175781.9543457.0185547.5761719.0908203,3.5830078.0908203,3.6369629,0,.7563477-.3242188,1.0444336-.5224609,1.1884766-.234375.197998-.5761719.4321289-1.0986328.5222168-.2158203-.486084-.3779297-.8823242-1.8359375-1.4943848l.0351562-.0722656c.3427734.0180664,1.5126953.0541992,1.6748047.0541992.5585938,0,.7744141,0,.7744141-.3781738v-5.7617188c0-.6481934,0-.7202148-.0175781-.8642578h-1.8193359c0,.197998.0185547.5761719-.6123047.5761719-.4316406,0-.4492188-.197998-.4492188-.3601074,0-.4140625.0537109-2.2866211.0537109-2.6647949,0-.4680176-.0361328-2.4846191-.0361328-2.8989258,0-.2700195-.0175781-.7021484-.0722656-1.0083008l1.2421875.6481934h1.4228516c.1259766-.5041504.1796875-1.1523438.1796875-1.4763184,0-.2702637-.0361328-.5942383-.1074219-.8103027l1.5839844.4501953c.1621094.0539551.234375.1621094.234375.2880859,0,.3061523-.3242188.342041-.7207031.3779297-.1259766.1801758-.7197266,1.0083008-.8457031,1.1704102h2.6289062l.5039062-.5400391c.0722656-.0720215.1982422-.1621094.3056641-.1621094.1083984,0,.1982422.0539551.2705078.1079102l.7382812.5402832c.1083984.0720215.1796875.1799316.1796875.3061523,0,.2160645-.2333984.342041-.6298828.5581055,0,.1799316.0361328,2.2866211.0361328,2.3405762.0175781.3781738.0898438,2.1247559.0898438,2.3588867,0,.5400391-.3242188.7382812-.7021484.7382812-.3242188,0-.4140625-.1621094-.3417969-.5402832h-2.4853516l.3066406.0720215c.1982422.0539551.3242188.1621094.3242188.2519531,0,.1801758-.2167969.3422852-.4140625.4501953,0,.1259766.2695312,1.3505859,1.0078125,2.6108398.3056641-.2519531,1.2783203-1.3503418,1.5488281-2.2507324l1.1337891.7741699c.1445312.0900879.1806641.1801758.1806641.3242188,0,.2341309-.2880859.2519531-.7021484.2160645-.6845703.3781738-1.3867188.7382812-2.0712891,1.0803223.1445312.2519531.4501953.7382812,1.0263672,1.2783203.9902344.9362793,2.0527344,1.4404297,3.4755859,1.8005371v.0720215c-1.2607422.1801758-1.53125.6303711-1.7285156.9724121Zm-1.5849609-12.9279785h-4.9697266v2.232666h4.9697266v-2.232666Zm0,2.6647949h-4.9697266v2.1787109h4.9697266v-2.1787109Z"/>
    </g>
  </g>
</svg>