<?xml version="1.0" encoding="UTF-8"?>
<svg id="_レイヤー_2" data-name="レイヤー 2" xmlns="http://www.w3.org/2000/svg" viewBox="0 0 348.7369629 247.2442025">
  <defs>
    <style>
      .cls-1, .cls-2 {
        fill: none;
        stroke: #000;
        stroke-miterlimit: 10;
      }

      .cls-2 {
        stroke-width: .5px;
      }
    </style>
  </defs>
  <g id="_レイヤー_1-2" data-name="レイヤー 1">
    <rect class="cls-2" x=".25" y=".25" width="348.2369629" height="246.7442025"/>
    <g>
      <path d="m243.3440674,83.9965529c-.0839844-.2241211-.1962891-.4760742-.3222656-.7563477l-1.5683594.0839844v5.9956055h-.8544922v-5.9536133c-.7988281.0283203-1.5273438.0703125-2.1015625.0844727-.0136719.1118164-.0976562.1538086-.1962891.1821289l-.2519531-1.0507812h1.0644531c.3085938-.3642578.6308594-.784668.9384766-1.21875-.4199219-.6303711-1.1904297-1.456543-1.8623047-2.0449219l.4755859-.6162109c.140625.1118164.2802734.237793.4208984.3779297.4902344-.8261719,1.0644531-1.9609375,1.3867188-2.7734375l1.0224609.434082c-.0566406.0839844-.140625.1123047-.2939453.1123047-.3789062.8125-1.0234375,1.9609375-1.5693359,2.7456055.3642578.3637695.6865234.7421875.9248047,1.050293.6298828-.9384766,1.2324219-1.9331055,1.6669922-2.7456055l.9941406.4765625c-.0419922.0698242-.1542969.1118164-.3076172.1118164-.7285156,1.2045898-1.8779297,2.8574219-2.8857422,4.0761719l2.6191406-.0419922c-.2802734-.4760742-.5878906-.9663086-.8964844-1.3867188l.7001953-.3359375c.6582031.8681641,1.3730469,2.0449219,1.6386719,2.8154297l-.7421875.3779297Zm-3.3476562.6445312c-.0283203.0839844-.1123047.1401367-.265625.1401367-.1962891,1.1904297-.5185547,2.5351562-.953125,3.3618164-.1816406-.1259766-.4902344-.2661133-.7001953-.3642578.40625-.7841797.7138672-2.1289062.8964844-3.4038086l1.0224609.2661133Zm2.8291016-.3081055c.4208984.8544922.8125,1.9609375.9667969,2.6894531-.1679688.0698242-.3359375.1259766-.7841797.2802734-.1259766-.7426758-.5039062-1.8769531-.9101562-2.7314453l.7275391-.2382812Zm7.3544922,3.6977539h1.0644531v.8686523h-8.2226562v-.8686523h1.4570312v-11.0517578h5.7011719v11.0517578Zm-.9521484-10.1831055h-3.8388672v2.7871094h3.8388672v-2.7871094Zm0,6.4433594v-2.7875977h-3.8388672v2.7875977h3.8388672Zm-3.8388672.8681641v2.871582h3.8388672v-2.871582h-3.8388672Z"/>
      <path d="m264.0540283,78.4916701c-.0419922.0703125-.0986328.1259766-.1826172.1542969-1.1064453,5.3085938-3.8515625,8.4604492-8.4326172,10.0712891-.1533203-.2382812-.4619141-.6162109-.6435547-.8125,4.3417969-1.4145508,7.0039062-4.5385742,7.84375-8.7827148h-9.1611328v-.9384766h9.5253906l.1962891-.1259766.8544922.434082Z"/>
      <path d="m277.353833,79.0658889c-.0146484.0703125-.0839844.1264648-.1679688.1542969-.5185547,1.7368164-1.21875,3.3339844-2.0595703,4.6367188.6025391.3500977,1.2890625.7841797,1.8066406,1.1625977l-.5878906.9243164c-.5039062-.3920898-1.21875-.8544922-1.8066406-1.21875-1.2890625,1.7929688-2.9423828,3.2358398-5.0576172,4.2583008-.1533203-.2382812-.5175781-.5742188-.7695312-.7285156,2.0449219-.9521484,3.6835938-2.3671875,4.9580078-4.0341797-1.0361328-.5742188-2.0585938-1.0644531-3.0957031-1.456543l.5322266-.784668c1.0224609.3642578,2.0732422.8408203,3.1523438,1.4150391.7285156-1.1489258,1.3027344-2.3671875,1.6943359-3.7119141h-4.7480469c-.8544922,1.4287109-2.0029297,2.8432617-3.2363281,3.8520508-.1816406-.168457-.5595703-.4765625-.7978516-.6303711,1.8349609-1.4008789,3.5712891-3.9223633,4.4121094-6.3173828l1.3310547.3081055c-.0566406.1538086-.1962891.1958008-.3789062.1821289-.1953125.4619141-.5175781,1.1484375-.7841797,1.6669922h4.6503906l.1962891-.0561523.7568359.3779297Z"/>
      <path d="m282.1087158,81.2514358c-.5322266.8823242-1.1210938,1.6665039-1.7089844,2.3388672-.0986328-.2241211-.3359375-.6582031-.4902344-.8823242,1.3447266-1.456543,2.6894531-3.8798828,3.5019531-6.3032227l1.1201172.3779297c-.0556641.0981445-.1542969.1401367-.3222656.1264648-.3642578.9804688-.7978516,1.9609375-1.2880859,2.8994141l.3779297.0981445c-.0283203.0839844-.0976562.1538086-.2802734.1679688v9.2871094h-.9101562v-8.1103516Zm11.0234375,2.9414062h-3.4453125c.9238281,1.5410156,2.4375,3.0258789,3.8378906,3.7822266-.2246094.1821289-.5185547.5180664-.6728516.7563477-1.3583984-.8544922-2.8007812-2.4091797-3.7675781-4.0341797v4.6225586h-.9384766v-4.5527344c-1.0087891,1.625-2.5214844,3.1240234-3.9501953,3.9360352-.1542969-.237793-.4482422-.5742188-.6582031-.7563477,1.484375-.7280273,3.0537109-2.2128906,4.0195312-3.7539062h-3.6416016v-.8823242h4.2304688v-1.625h-3.1513672v-4.706543h7.3671875v4.706543h-3.2773438v1.625h4.0478516v.8823242Zm-7.2275391-6.359375v2.9975586h5.5332031v-2.9975586h-5.5332031Z"/>
      <path d="m294.7073486,80.2426467c.8691406.3642578,1.9335938.9667969,2.4658203,1.4428711l-.5458984.7705078c-.5048828-.4765625-1.5556641-1.1206055-2.4375-1.5126953l.5175781-.7006836Zm-.1816406,8.3066406c.671875-1.1064453,1.625-2.9838867,2.3251953-4.5947266l.7285156.574707c-.6308594,1.484375-1.4853516,3.2353516-2.1015625,4.3139648.0566406.0703125.0703125.1401367.0703125.1962891s-.0136719.1118164-.0419922.1538086l-.9804688-.644043Zm.9248047-12.1166992c.8544922.40625,1.9189453,1.0507812,2.4228516,1.5546875-.3076172.40625-.4345703.5883789-.5605469.7568359-.5039062-.5043945-1.5400391-1.190918-2.4091797-1.625l.546875-.6865234Zm10.7714844,11.6264648h1.0224609v.840332h-10.0849609v-.840332h1.2744141v-4.4545898h7.7880859v4.4545898Zm-.4619141-11.1220703v5.3789062h-6.8642578v-5.3789062h6.8642578Zm-6.4716797,7.4941406v3.6279297h1.4990234v-3.6279297h-1.4990234Zm5.546875-5.1967773v-1.4848633h-5.0429688v1.4848633h5.0429688Zm0,2.2832031v-1.5131836h-5.0429688v1.5131836h5.0429688Zm-1.7929688,2.9135742h-1.4990234v3.6279297h1.4990234v-3.6279297Zm2.2832031,0h-1.5126953v3.6279297h1.5126953v-3.6279297Z"/>
      <path d="m311.8733643,81.6015334c.5039062.4624023,1.9052734,1.9609375,2.2275391,2.3530273l-.6162109.7988281c-.2949219-.4624023-1.0371094-1.387207-1.6113281-2.0732422v6.6113281h-.9101562v-7.171875c-.6308594,1.7509766-1.5126953,3.5019531-2.3818359,4.5244141-.1113281-.2661133-.3642578-.644043-.5322266-.8681641,1.0791016-1.2045898,2.1992188-3.4599609,2.7597656-5.5048828h-2.4375v-.8964844h2.5917969v-3.0820312l1.1904297.0839844c-.0136719.0981445-.0976562.168457-.2802734.1821289v2.815918h2.1855469v.8964844h-2.1855469v1.3305664Zm9.46875-2.2133789v.8964844h-1.5683594v7.6904297c0,1.2744141-.4619141,1.3583984-3.0957031,1.3583984-.0556641-.2661133-.2099609-.7143555-.3505859-1.0083008.5605469.0141602,1.1074219.027832,1.5273438.027832.9101562,0,.9667969,0,.9667969-.3642578v-6.5415039c-1.1347656,2.1293945-2.8300781,4.2583008-4.4550781,5.5048828-.1396484-.237793-.4199219-.5742188-.6445312-.7563477,1.7792969-1.2324219,3.6708984-3.6416016,4.7353516-5.9111328h-4.0488281v-.8964844h4.4130859v-3.0673828l1.2324219.0698242c-.0146484.1123047-.0839844.1679688-.2802734.1962891v2.8012695h1.5683594Z"/>
    </g>
    <g>
      <path d="m270.9309814,228.3193069l3.7207031,3.7211914,3.7216797-3.7211914.3271484.3266602-3.7216797,3.7211914,3.7216797,3.7211914-.3271484.3271484-3.7216797-3.7211914-3.7324219,3.7324219-.3261719-.3271484,3.7324219-3.7324219-3.7216797-3.7211914.3271484-.3266602Zm.5078125,4.8935547c-.4628906,0-.8457031-.3833008-.8457031-.8457031,0-.4619141.3828125-.8457031.8457031-.8457031.4619141,0,.8457031.3837891.8457031.8457031,0,.4848633-.40625.8457031-.8457031.8457031Zm2.3671875-4.059082c0-.4624023.3837891-.8457031.8457031-.8457031.4628906,0,.8457031.3833008.8457031.8457031,0,.4619141-.3828125.8457031-.8457031.8457031-.484375,0-.8457031-.40625-.8457031-.8457031Zm1.6914062,6.4272461c0,.4624023-.3828125.8457031-.8457031.8457031-.4619141,0-.8457031-.3833008-.8457031-.8457031s.3837891-.8457031.8457031-.8457031c.4853516,0,.8457031.4057617.8457031.8457031Zm2.3681641-4.0595703c.4628906,0,.8457031.3837891.8457031.8457031,0,.4624023-.3828125.8457031-.8457031.8457031-.4619141,0-.8457031-.3833008-.8457031-.8457031,0-.4848633.40625-.8457031.8457031-.8457031Z"/>
      <path d="m290.2688721,228.1723342c-.0449219.0566406-.1123047.090332-.2138672.090332-.0341797,0-.0683594,0-.1132812-.0112305-.8681641.8793945-2.1201172,1.9057617-3.2138672,2.6953125.0908203.0336914.2255859.1010742.2705078.1240234-.0224609.0673828-.1240234.1352539-.2480469.1464844v6.0551758h-.8232422v-5.7958984c-1.1953125.8457031-2.7509766,1.7592773-4.2958984,2.5146484-.1123047-.1806641-.3154297-.4624023-.4736328-.6201172,3.078125-1.4208984,6.4501953-3.8339844,8.265625-5.8300781l.8457031.6313477Z"/>
      <path d="m294.5755127,229.85251c1.0595703.4624023,2.1767578,1.0263672,3.2021484,1.6240234.7216797-1.0825195,1.4658203-2.503418,2.0302734-3.9355469l1.1044922.4511719c-.0449219.1015625-.2021484.1577148-.4052734.1352539-.5185547,1.1953125-1.2519531,2.6162109-2.0078125,3.7661133.8681641.5415039,1.7705078,1.1503906,2.4589844,1.7368164l-.5419922.7104492c-.6201172-.5415039-1.4658203-1.1616211-2.4013672-1.7592773-1.1621094,1.6577148-2.8535156,3.3378906-4.7705078,4.6123047-.1347656-.1694336-.4501953-.4399414-.6425781-.5639648,1.8837891-1.2177734,3.6083984-2.8979492,4.7246094-4.4541016-1.0253906-.6088867-2.1191406-1.184082-3.1796875-1.6577148l.4287109-.6655273Z"/>
      <path d="m303.7083252,231.7695022h9.4160156v.8007812h-8.9873047c-.0673828.112793-.2148438.1918945-.3613281.2143555l-.0673828-1.0151367Z"/>
      <path d="m315.4348877,230.7323928c1.0146484.2255859,2.2773438.6538086,3.0332031,1.0146484l-.3378906.7104492c-.7441406-.3608398-2.0410156-.8120117-3.0332031-1.0371094l.3378906-.6879883Zm.6767578,5.5141602c3.6191406-1.2177734,6.1787109-3.2026367,7.6679688-6.5629883.1689453.1464844.5068359.3945312.6875.5073242-1.5107422,3.3266602-4.1835938,5.4467773-7.5888672,6.6533203.0341797.1010742-.0341797.2368164-.1240234.2817383l-.6425781-.8793945Zm.5634766-8.3105469c1.0146484.2705078,2.2558594.7216797,3.0224609,1.1049805l-.3720703.6875c-.8007812-.4057617-1.9736328-.8569336-2.9882812-1.1386719l.3378906-.6538086Zm5.2773438-.3725586c.4619141.3950195,1.1054688,1.0942383,1.4550781,1.6352539l-.4404297.3271484c-.3154297-.4848633-.9697266-1.2407227-1.4316406-1.6464844l.4169922-.315918Zm1.5673828-.6875c.4628906.3945312,1.1054688,1.1049805,1.4658203,1.6235352l-.4394531.3271484c-.3388672-.4960938-.9697266-1.2177734-1.4326172-1.6240234l.40625-.3266602Z"/>
      <path d="m326.2815674,227.6762404h9.5283203v9.9345703h-.7773438v-.5297852h-8.0068359v.5297852h-.7441406v-9.9345703Zm.7441406,8.6713867h8.0068359v-7.9384766h-8.0068359v7.9384766Zm1.3310547-4.6567383c.8457031.3383789,1.7705078.7666016,2.6494141,1.2402344.9921875-1.0375977,1.8154297-2.2666016,2.390625-3.6645508l.8798828.2929688c-.0341797.0791016-.1240234.1240234-.2705078.112793-.5976562,1.3642578-1.3984375,2.5708008-2.3564453,3.6083984,1.0146484.5751953,1.9277344,1.1953125,2.5371094,1.7363281l-.4628906.5976562c-.6083984-.5634766-1.5332031-1.2177734-2.5820312-1.8266602-.9023438.8569336-1.9394531,1.5786133-3.0898438,2.1425781-.1015625-.1577148-.3154297-.4399414-.4619141-.5751953,1.0712891-.4960938,2.0410156-1.1499023,2.9091797-1.9282227-.8457031-.4624023-1.7255859-.890625-2.5488281-1.2290039l.40625-.5073242Zm.1015625-2.4243164c.4736328.6201172.9472656,1.4321289,1.1044922,1.9956055l-.6201172.2822266c-.1464844-.5527344-.6083984-1.3984375-1.0595703-2.0185547l.5751953-.2592773Zm2.2324219-.3608398c.4169922.6762695.7890625,1.5786133.890625,2.1533203l-.6425781.2368164c-.1015625-.574707-.4619141-1.4882812-.8564453-2.1762695l.6083984-.2138672Z"/>
    </g>
    <g>
      <path d="m76.6087158,22.07126c-.5322266.8823242-1.1210938,1.6665039-1.7089844,2.3388672-.0986328-.2241211-.3359375-.6582031-.4902344-.8823242,1.3447266-1.456543,2.6894531-3.8798828,3.5019531-6.3032227l1.1201172.3779297c-.0556641.0981445-.1542969.1401367-.3222656.1264648-.3642578.9804688-.7978516,1.9609375-1.2880859,2.8994141l.3779297.0981445c-.0283203.0839844-.0976562.1538086-.2802734.1679688v9.2871094h-.9101562v-8.1103516Zm11.0234375,2.9414062h-3.4453125c.9238281,1.5410156,2.4375,3.0258789,3.8378906,3.7822266-.2246094.1821289-.5185547.5180664-.6728516.7563477-1.3583984-.8544922-2.8007812-2.4091797-3.7675781-4.0341797v4.6225586h-.9384766v-4.5527344c-1.0087891,1.625-2.5214844,3.1240234-3.9501953,3.9360352-.1542969-.237793-.4482422-.5742188-.6582031-.7563477,1.484375-.7280273,3.0537109-2.2128906,4.0195312-3.7539062h-3.6416016v-.8823242h4.2304688v-1.625h-3.1513672v-4.706543h7.3671875v4.706543h-3.2773438v1.625h4.0478516v.8823242Zm-7.2275391-6.359375v2.9975586h5.5332031v-2.9975586h-5.5332031Z"/>
      <path d="m75.2073486,35.0624709c.8691406.3642578,1.9335938.9667969,2.4658203,1.4428711l-.5458984.7705078c-.5048828-.4765625-1.5556641-1.1206055-2.4375-1.5126953l.5175781-.7006836Zm-.1816406,8.3066406c.671875-1.1064453,1.625-2.9838867,2.3251953-4.5947266l.7285156.574707c-.6308594,1.484375-1.4853516,3.2353516-2.1015625,4.3139648.0566406.0703125.0703125.1401367.0703125.1962891s-.0136719.1118164-.0419922.1538086l-.9804688-.644043Zm.9248047-12.1166992c.8544922.40625,1.9189453,1.0507812,2.4228516,1.5546875-.3076172.40625-.4345703.5883789-.5605469.7568359-.5039062-.5043945-1.5400391-1.190918-2.4091797-1.625l.546875-.6865234Zm10.7714844,11.6264648h1.0224609v.840332h-10.0849609v-.840332h1.2744141v-4.4545898h7.7880859v4.4545898Zm-.4619141-11.1220703v5.3789062h-6.8642578v-5.3789062h6.8642578Zm-6.4716797,7.4941406v3.6279297h1.4990234v-3.6279297h-1.4990234Zm5.546875-5.1967773v-1.4848633h-5.0429688v1.4848633h5.0429688Zm0,2.2832031v-1.5131836h-5.0429688v1.5131836h5.0429688Zm-1.7929688,2.9135742h-1.4990234v3.6279297h1.4990234v-3.6279297Zm2.2832031,0h-1.5126953v3.6279297h1.5126953v-3.6279297Z"/>
      <path d="m79.8440674,52.8163772c-.0839844-.2241211-.1962891-.4760742-.3222656-.7563477l-1.5683594.0839844v5.9956055h-.8544922v-5.9536133c-.7988281.0283203-1.5273438.0703125-2.1015625.0844727-.0136719.1118164-.0976562.1538086-.1962891.1821289l-.2519531-1.0507812h1.0644531c.3085938-.3642578.6308594-.784668.9384766-1.21875-.4199219-.6303711-1.1904297-1.456543-1.8623047-2.0449219l.4755859-.6162109c.140625.1118164.2802734.237793.4208984.3779297.4902344-.8261719,1.0644531-1.9609375,1.3867188-2.7734375l1.0224609.434082c-.0566406.0839844-.140625.1123047-.2939453.1123047-.3789062.8125-1.0234375,1.9609375-1.5693359,2.7456055.3642578.3637695.6865234.7421875.9248047,1.050293.6298828-.9384766,1.2324219-1.9331055,1.6669922-2.7456055l.9941406.4765625c-.0419922.0698242-.1542969.1118164-.3076172.1118164-.7285156,1.2045898-1.8779297,2.8574219-2.8857422,4.0761719l2.6191406-.0419922c-.2802734-.4760742-.5878906-.9663086-.8964844-1.3867188l.7001953-.3359375c.6582031.8681641,1.3730469,2.0449219,1.6386719,2.8154297l-.7421875.3779297Zm-3.3476562.6445312c-.0283203.0839844-.1123047.1401367-.265625.1401367-.1962891,1.1904297-.5185547,2.5351562-.953125,3.3618164-.1816406-.1259766-.4902344-.2661133-.7001953-.3642578.40625-.7841797.7138672-2.1289062.8964844-3.4038086l1.0224609.2661133Zm2.8291016-.3081055c.4208984.8544922.8125,1.9609375.9667969,2.6894531-.1679688.0698242-.3359375.1259766-.7841797.2802734-.1259766-.7426758-.5039062-1.8769531-.9101562-2.7314453l.7275391-.2382812Zm7.3544922,3.6977539h1.0644531v.8686523h-8.2226562v-.8686523h1.4570312v-11.0517578h5.7011719v11.0517578Zm-.9521484-10.1831055h-3.8388672v2.7871094h3.8388672v-2.7871094Zm0,6.4433594v-2.7875977h-3.8388672v2.7875977h3.8388672Zm-3.8388672.8681641v2.871582h3.8388672v-2.871582h-3.8388672Z"/>
      <path d="m86.5540283,61.3114944c-.0419922.0703125-.0986328.1259766-.1826172.1542969-1.1064453,5.3085938-3.8515625,8.4604492-8.4326172,10.0712891-.1533203-.2382812-.4619141-.6162109-.6435547-.8125,4.3417969-1.4145508,7.0039062-4.5385742,7.84375-8.7827148h-9.1611328v-.9384766h9.5253906l.1962891-.1259766.8544922.434082Z"/>
      <path d="m85.853833,75.8857131c-.0146484.0703125-.0839844.1264648-.1679688.1542969-.5185547,1.7368164-1.21875,3.3339844-2.0595703,4.6367188.6025391.3500977,1.2890625.7841797,1.8066406,1.1625977l-.5878906.9243164c-.5039062-.3920898-1.21875-.8544922-1.8066406-1.21875-1.2890625,1.7929688-2.9423828,3.2358398-5.0576172,4.2583008-.1533203-.2382812-.5175781-.5742188-.7695312-.7285156,2.0449219-.9521484,3.6835938-2.3671875,4.9580078-4.0341797-1.0361328-.5742188-2.0585938-1.0644531-3.0957031-1.456543l.5322266-.784668c1.0224609.3642578,2.0732422.8408203,3.1523438,1.4150391.7285156-1.1489258,1.3027344-2.3671875,1.6943359-3.7119141h-4.7480469c-.8544922,1.4287109-2.0029297,2.8432617-3.2363281,3.8520508-.1816406-.168457-.5595703-.4765625-.7978516-.6303711,1.8349609-1.4008789,3.5712891-3.9223633,4.4121094-6.3173828l1.3310547.3081055c-.0566406.1538086-.1962891.1958008-.3789062.1821289-.1953125.4619141-.5175781,1.1484375-.7841797,1.6669922h4.6503906l.1962891-.0561523.7568359.3779297Z"/>
    </g>
    <polyline class="cls-1" points="114.3684814 16.6289601 96.3684814 16.6289601 96.3684814 85.6289601 114.3684814 85.6289601"/>
    <g>
      <path d="m28.8704346,145.6054397c-.3076172-.1962891-.9804688-.4902344-1.8769531-.4902344-1.484375,0-2.0449219.9106445-2.0449219,1.6806641,0,1.0507812.6445312,1.5830078,2.0732422,2.1855469,1.7226562.7280273,2.6054688,1.6108398,2.6054688,3.1376953,0,1.6948242-1.2333984,2.9975586-3.5302734,2.9975586-.9667969,0-2.0166016-.2944336-2.5498047-.6723633l.3222656-.9667969c.5742188.378418,1.4287109.6586914,2.2978516.6586914,1.4287109,0,2.2685547-.7705078,2.2685547-1.9194336,0-1.050293-.5742188-1.6948242-1.9609375-2.2548828-1.6103516-.6025391-2.703125-1.5410156-2.703125-3.0117188,0-1.625,1.3164062-2.8154297,3.2636719-2.8154297,1.0087891,0,1.7792969.2519531,2.1855469.5043945l-.3505859.9663086Z"/>
      <g>
        <path d="m33.0003174,75.8876662h-2.9277344v.9663086c0,2.6757812-.8261719,5.3930664-4.4824219,7.0458984-.1816406-.2241211-.4755859-.5039062-.7285156-.7001953,3.5585938-1.5410156,4.2167969-4.0341797,4.2167969-6.331543v-.9804688h-4.5244141v3.487793h-.9951172v-3.487793h-2.7451172v-.9526367h2.7451172v-3.0395508l1.3447266.0839844c-.0136719.1401367-.1396484.2661133-.3496094.2944336v2.6611328h4.5244141v-3.2216797l1.3447266.0839844c-.0146484.1259766-.1259766.2382812-.3505859.2661133v2.871582h2.9277344v.9526367Z"/>
        <path d="m26.3469971,85.8534865l1.4423828.1118164c-.0136719.1542969-.1396484.2519531-.3779297.2939453v11.4584961h-1.0644531v-11.8642578Z"/>
        <path d="m26.150708,105.9325881v3.1660156c0,.7421875.3505859,1.246582,1.3730469,1.246582h2.5771484c.4902344,0,1.2324219-.027832,1.6953125-.0981445.0136719.2661133.0273438.7426758.0273438.9526367-.4482422.0698242-1.2460938.0839844-1.7226562.0839844h-2.6474609c-1.7089844,0-2.3115234-.8964844-2.3115234-2.1850586v-3.1660156h-4.0058594v-.9243164h4.0058594v-3.4599609h-2.9970703v-.9243164h9.0205078v.9243164h-5.0146484v3.4599609h6.3457031v.9243164h-6.3457031Z"/>
        <path d="m25.1839111,115.8705764c-.0419922.1123047-.1542969.1962891-.3642578.2099609-.5595703,3.3618164-1.7226562,6.9057617-3.3613281,8.9790039-.2519531-.1962891-.6308594-.378418-.9384766-.5043945,1.5683594-1.9047852,2.8017578-5.4628906,3.25-8.9785156l1.4140625.2939453Zm7.0458984,9.1049805c-.6582031-2.4511719-2.2832031-6.4296875-3.7255859-9.0209961l.9101562-.434082c1.4707031,2.5073242,3.109375,6.4575195,3.8378906,9.0488281l-1.0224609.40625Zm-2.03125-11.262207c.6445312.5742188,1.3310547,1.4428711,1.7089844,2.0732422l-.5322266.3920898c-.3916016-.6303711-1.1201172-1.5405273-1.7089844-2.0732422l.5322266-.3920898Zm1.8496094-.7285156c.6298828.5883789,1.3300781,1.4291992,1.7226562,2.059082l-.5458984.40625c-.3925781-.6303711-1.1210938-1.5268555-1.7089844-2.059082l.5322266-.40625Z"/>
        <path d="m30.7034424,129.1279006c-.0283203.0703125-.0986328.1259766-.1826172.1542969-.7558594,1.7788086-1.6523438,3.3198242-2.8017578,4.8183594,1.5273438,1.21875,3.8242188,3.3056641,5.1269531,4.7485352l-.8544922.7426758c-1.2324219-1.4287109-3.4873047-3.5581055-4.9160156-4.706543-1.2333984,1.4985352-3.3623047,3.5439453-5.3935547,4.706543-.1533203-.2104492-.4902344-.5605469-.7285156-.7563477,3.8808594-2.1293945,6.9482422-6.1074219,8.2089844-9.1469727h-6.8779297v-.9526367h7.4238281l.1826172-.0703125.8125.4624023Z"/>
      </g>
    </g>
    <polyline class="cls-1" points="60.0723389 51.1289601 42.0723389 51.1289601 42.0723389 182.6289601 60.0723389 182.6289601"/>
    <g>
      <path d="m75.1936768,152.5766311c.9101562.3500977,2.0449219.9663086,2.6191406,1.4428711l-.5322266.7841797c-.5595703-.4760742-1.6806641-1.1206055-2.5908203-1.5126953l.5039062-.7143555Zm-.1259766,8.2641602c.6298828-1.0083008,1.5546875-2.703125,2.2275391-4.1879883l.7285156.5883789c-.6171875,1.3583984-1.4150391,2.9272461-2.0175781,3.9082031.0556641.0839844.0703125.1538086.0703125.2099609s-.0146484.1118164-.0419922.1538086l-.9667969-.6723633Zm.8828125-12.0883789c.8964844.3920898,2.0029297,1.0366211,2.5488281,1.5410156l-.5458984.7705078c-.5322266-.5185547-1.625-1.2050781-2.5351562-1.625l.5322266-.6865234Zm7.7460938,2.7875977c-.0283203.0981445-.1259766.1679688-.2382812.1962891.9941406,1.5966797,2.8017578,3.3476562,4.3984375,4.2441406-.1962891.2241211-.4208984.5883789-.5605469.8544922-1.6386719-1.0366211-3.4179688-2.7875977-4.3847656-4.3706055-.8544922,1.5410156-2.5205078,3.3481445-4.328125,4.4824219-.1123047-.237793-.3359375-.5742188-.5175781-.7841797,1.8066406-1.0786133,3.5439453-3.0117188,4.3554688-4.6923828l1.2753906.0698242Zm-1.5410156-2.4511719c-.0419922.0976562-.1542969.1259766-.3222656.1259766-.6865234,1.246582-1.7373047,2.6054688-2.7177734,3.4736328-.1816406-.1538086-.5039062-.434082-.7138672-.5742188.9521484-.7983398,1.9892578-2.1430664,2.6474609-3.4316406l1.1064453.40625Zm-2.4794922,12.5507812v-5.3510742h6.6953125v5.2529297h-.9384766v-.5043945h-4.8466797v.6025391h-.9101562Zm5.7568359-4.4824219h-4.8466797v3.0112305h4.8466797v-3.0112305Zm-.8818359-8.4609375c1.0917969.9384766,2.3808594,2.2695312,2.9833984,3.1518555l-.7568359.6025391c-.5742188-.8964844-1.8349609-2.2695312-2.9277344-3.25l.7011719-.5043945Z"/>
      <path d="m77.6868408,166.618135v1.1489258c.3925781.5180664,1.4287109,2.0869141,1.6669922,2.465332l-.5185547.7143555c-.1953125-.4624023-.7275391-1.3867188-1.1484375-2.1010742v6.765625h-.8681641v-6.7519531c-.4619141,1.5830078-1.0927734,3.1240234-1.7373047,4.0625-.1113281-.2524414-.3359375-.6162109-.4902344-.8266602.8408203-1.2045898,1.7236328-3.487793,2.1298828-5.4770508h-1.8496094v-.8823242h1.9472656v-3.1235352l1.1484375.0839844c-.0136719.0839844-.0976562.1538086-.2802734.1821289v2.8574219h1.5966797v.8823242h-1.5966797Zm10.0439453-2.0170898h-2.7041016v.9526367h2.2412109v4.3984375h-7.4658203v-4.3984375h2.1015625v-.9526367h-2.6757812v-.7841797h2.6757812v-1.2045898l1.1201172.0698242c-.0136719.0981445-.0839844.1679688-.265625.1962891v.9384766h1.4287109v-1.2045898l1.1064453.0698242c-.0136719.0981445-.0839844.1679688-.2666016.1962891v.9384766h2.7041016v.7841797Zm-7.4101562,11.0800781v-5.0288086h6.4296875v4.9726562h-.9248047v-.4482422h-4.6083984v.5043945h-.8964844Zm.2802734-9.4267578v1.1484375h1.4003906v-1.1484375h-1.4003906Zm0,1.8349609v1.1625977h1.4003906v-1.1625977h-1.4003906Zm5.2246094,3.3198242h-4.6083984v1.1484375h4.6083984v-1.1484375Zm-4.6083984,3.0253906h4.6083984v-1.1625977h-4.6083984v1.1625977Zm1.5263672-7.0317383h1.4433594v-1.1484375h-1.4433594v1.1484375Zm1.4433594.6865234h-1.4433594v1.1625977h1.4433594v-1.1625977Zm0-2.5356445v-.9526367h-1.4287109v.9526367h1.4287109Zm2.2548828,1.8491211v-1.1484375h-1.4990234v1.1484375h1.4990234Zm0,1.8491211v-1.1625977h-1.4990234v1.1625977h1.4990234Z"/>
      <path d="m76.6087158,181.57126c-.5322266.8823242-1.1210938,1.6665039-1.7089844,2.3388672-.0986328-.2241211-.3359375-.6582031-.4902344-.8823242,1.3447266-1.456543,2.6894531-3.8798828,3.5019531-6.3032227l1.1201172.3779297c-.0556641.0981445-.1542969.1401367-.3222656.1264648-.3642578.9804688-.7978516,1.9609375-1.2880859,2.8994141l.3779297.0981445c-.0283203.0839844-.0976562.1538086-.2802734.1679688v9.2871094h-.9101562v-8.1103516Zm11.0234375,2.9414062h-3.4453125c.9238281,1.5410156,2.4375,3.0258789,3.8378906,3.7822266-.2246094.1821289-.5185547.5180664-.6728516.7563477-1.3583984-.8544922-2.8007812-2.4091797-3.7675781-4.0341797v4.6225586h-.9384766v-4.5527344c-1.0087891,1.625-2.5214844,3.1240234-3.9501953,3.9360352-.1542969-.237793-.4482422-.5742188-.6582031-.7563477,1.484375-.7280273,3.0537109-2.2128906,4.0195312-3.7539062h-3.6416016v-.8823242h4.2304688v-1.625h-3.1513672v-4.706543h7.3671875v4.706543h-3.2773438v1.625h4.0478516v.8823242Zm-7.2275391-6.359375v2.9975586h5.5332031v-2.9975586h-5.5332031Z"/>
      <path d="m75.2073486,194.5624709c.8691406.3642578,1.9335938.9667969,2.4658203,1.4428711l-.5458984.7705078c-.5048828-.4765625-1.5556641-1.1206055-2.4375-1.5126953l.5175781-.7006836Zm-.1816406,8.3066406c.671875-1.1064453,1.625-2.9838867,2.3251953-4.5947266l.7285156.574707c-.6308594,1.484375-1.4853516,3.2353516-2.1015625,4.3139648.0566406.0703125.0703125.1401367.0703125.1962891s-.0136719.1118164-.0419922.1538086l-.9804688-.644043Zm.9248047-12.1166992c.8544922.40625,1.9189453,1.0507812,2.4228516,1.5546875-.3076172.40625-.4345703.5883789-.5605469.7568359-.5039062-.5043945-1.5400391-1.190918-2.4091797-1.625l.546875-.6865234Zm10.7714844,11.6264648h1.0224609v.840332h-10.0849609v-.840332h1.2744141v-4.4545898h7.7880859v4.4545898Zm-.4619141-11.1220703v5.3789062h-6.8642578v-5.3789062h6.8642578Zm-6.4716797,7.4941406v3.6279297h1.4990234v-3.6279297h-1.4990234Zm5.546875-5.1967773v-1.4848633h-5.0429688v1.4848633h5.0429688Zm0,2.2832031v-1.5131836h-5.0429688v1.5131836h5.0429688Zm-1.7929688,2.9135742h-1.4990234v3.6279297h1.4990234v-3.6279297Zm2.2832031,0h-1.5126953v3.6279297h1.5126953v-3.6279297Z"/>
      <path d="m78.3733643,209.9208694c.5039062.4624023,1.9052734,1.9614258,2.2275391,2.3535156l-.6162109.7983398c-.2949219-.4624023-1.0371094-1.3867188-1.6113281-2.0732422v6.6118164h-.9101562v-7.171875c-.6308594,1.7509766-1.5126953,3.5019531-2.3818359,4.5244141-.1113281-.2661133-.3642578-.6445312-.5322266-.8686523,1.0791016-1.2045898,2.1992188-3.4599609,2.7597656-5.5048828h-2.4375v-.8964844h2.5917969v-3.081543l1.1904297.0839844c-.0136719.0981445-.0976562.1679688-.2802734.1821289v2.8154297h2.1855469v.8964844h-2.1855469v1.3305664Zm9.46875-2.2128906v.8964844h-1.5683594v7.6899414c0,1.2749023-.4619141,1.3588867-3.0957031,1.3588867-.0556641-.2661133-.2099609-.7143555-.3505859-1.0087891.5605469.0141602,1.1074219.0283203,1.5273438.0283203.9101562,0,.9667969,0,.9667969-.3642578v-6.5415039c-1.1347656,2.1289062-2.8300781,4.2583008-4.4550781,5.5048828-.1396484-.2382812-.4199219-.5742188-.6445312-.7563477,1.7792969-1.2329102,3.6708984-3.6420898,4.7353516-5.9111328h-4.0488281v-.8964844h4.4130859v-3.0678711l1.2324219.0703125c-.0146484.1118164-.0839844.1679688-.2802734.1958008v2.8017578h1.5683594Z"/>
    </g>
    <polyline class="cls-1" points="114.3684814 148.1289601 96.3684814 148.1289601 96.3684814 217.1289601 114.3684814 217.1289601"/>
  </g>
</svg>