<?xml version="1.0" encoding="UTF-8"?>
<svg id="_レイヤー_2" data-name="レイヤー 2" xmlns="http://www.w3.org/2000/svg" viewBox="0 0 348.7369629 247.2442025">
  <defs>
    <style>
      .cls-1 {
        fill: none;
        stroke: #000;
        stroke-miterlimit: 10;
        stroke-width: .5px;
      }
    </style>
  </defs>
  <g id="_レイヤー_1-2" data-name="レイヤー 1">
    <rect class="cls-1" x=".25" y=".25" width="348.2369629" height="246.7442025"/>
    <g>
      <path d="m228.1573923,215.7292427c-.1503906.6152344-.3300781.8847656-.8105469.8847656-.3144531,0-.5693359-.1347656-.7050781-.5244141.3300781-1.3798828,1.5751953-2.0253906,3-2.0253906,1.8457031,0,3.015625,1.0507812,3.015625,2.5654297,0,1.2294922-.8105469,2.2050781-2.2353516,2.6542969,1.7246094.3007812,2.5800781,1.3056641,2.5800781,2.7001953,0,1.7851562-1.4550781,3.0751953-3.5703125,3.0751953-1.5449219,0-2.7294922-.6601562-3.0595703-2.1904297.1503906-.2998047.3896484-.4648438.7050781-.4648438.4501953,0,.6152344.2998047.8095703.9599609l.2851562.9296875c.375.1201172.7353516.1650391,1.0800781.1650391,1.6650391,0,2.5351562-.9296875,2.5351562-2.4296875,0-1.5146484-.8701172-2.4150391-2.640625-2.4150391h-.7646484v-.6445312h.6455078c1.5,0,2.4599609-.8398438,2.4599609-2.3095703,0-1.2451172-.75-1.9804688-2.0703125-1.9804688-.2998047,0-.6152344.0302734-.9746094.1201172l-.2851562.9296875Z"/>
      <path d="m242.5724314,215.3249458c.1494141-.2099609.2695312-.4355469.3896484-.4355469.1796875,0,1.0947266.8251953,1.0947266,1.0498047-.0449219.1650391-.1796875.2402344-.375.2402344h-1.9345703v1.9052734c2.8349609,1.3798828,2.0244141,3.2548828,1.1396484,2.5048828-.1650391-.6455078-.6894531-1.515625-1.1396484-2.1601562v3.6152344c.0302734,1.7998047.0595703,2.3994141.1201172,3.5244141-.1201172.2246094-.5253906.4345703-.8554688.4345703-.1796875,0-.3447266-.1494141-.3447266-.2998047.0898438-1.2900391.1347656-1.9492188.1650391-3.8994141v-3.0146484c-.5849609,1.4248047-1.3652344,2.6845703-2.3701172,3.7939453l-.2099609-.2099609c1.1845703-1.7246094,1.9345703-3.9589844,2.3701172-6.1943359h-.6904297c-.4199219.0146484-.7792969.0898438-1.1699219.2099609l-.3896484-.7646484c.5546875.0751953,1.1103516.1044922,1.6796875.1201172h.7802734v-.4355469c0-1.0195312-.0605469-2.25-.1953125-3.0742188,1.6201172.4648438,1.6201172.6142578,1.3652344.7949219l-.2548828.1796875v2.5351562h.5400391l.2851562-.4199219Zm7.5146484-.2851562c.1650391-.2255859.2998047-.4648438.4199219-.4648438.1796875,0,1.1699219.8691406,1.1699219,1.0947266-.0302734.1650391-.1650391.2402344-.375.2402344h-1.2597656c-.390625,2.3544922-1.1103516,4.3945312-2.3251953,6.1044922,1.0195312,1.2900391,2.3251953,2.3544922,4.0195312,3.1044922l-.0449219.1503906c-.4199219.0751953-.7646484.3144531-.9150391.7802734-1.5449219-.8701172-2.7001953-1.9951172-3.5849609-3.3457031-1.109375,1.3349609-2.5800781,2.4453125-4.5292969,3.2998047l-.1357422-.1943359c1.8457031-1.0351562,3.2255859-2.3251953,4.2304688-3.8105469-.8398438-1.4990234-1.3798828-3.2246094-1.7402344-5.0996094-.4794922.8398438-1.0195312,1.5751953-1.6347656,2.1455078l-.1953125-.1503906c.6298828-.9150391,1.1855469-2.0849609,1.6201172-3.4199219.3154297-.9443359.5849609-2.4746094.5849609-3.2998047,1.6650391.4199219,1.6650391.5703125,1.4101562.7050781l-.2548828.1201172c-.2402344.8847656-.5097656,1.7246094-.8398438,2.4902344h4.0791016l.3007812-.4501953Zm-4.5605469.8701172c-.0898438.1943359-.1796875.3896484-.2841797.5849609.4199219,1.7695312,1.0498047,3.3896484,1.9648438,4.7998047.9150391-1.5908203,1.484375-3.390625,1.7548828-5.3847656h-3.4355469Z"/>
      <path d="m257.5568064,217.6042427c.0302734.0605469,0,.0898438-.0449219.2402344-.0751953.3144531-1.2451172,3.6152344-1.3496094,4.4248047-.0605469.5996094.2695312,1.7851562.2402344,1.9951172-.015625.2099609-.1357422.4199219-.3007812.4345703-.1650391.0302734-.4951172,0-.7197266-.375-.2099609-.3896484-.9150391-1.3945312-.6298828-4.3046875.0898438-.9150391.2548828-1.8300781.4345703-2.7294922.1503906-.765625.3457031-1.515625.3154297-2.3105469-.0146484-.4042969-.2548828-.734375-.2998047-.8242188-.0605469-.1054688-.0449219-.1953125-.015625-.2255859.0751953-.1044922.2255859-.0449219.3603516.0751953.2246094.2099609,1.0351562,1.0800781.9453125,1.8447266-.0751953.6748047-.4052734,1.3349609-.6152344,1.9648438-.2851562.8105469-.5253906,1.6347656-.5400391,2.5048828,0,.1347656-.0595703,1.1699219.2548828,1.0654297.375-.1201172,1.5898438-3.3447266,1.7705078-3.6601562.0742188-.1201172.1494141-.1796875.1943359-.1201172Zm8.1748047,6.3603516c-.1650391.2246094-.375.2246094-.6445312.0595703-.1357422-.0751953-.4052734-.375-.765625-.7197266-.3300781-.2998047-.734375-.5703125-1.1845703-.7949219,0,.9150391-.2099609,2.0400391-1.8154297,2.0849609-1.7392578.0449219-2.5195312-.6005859-2.5498047-1.5898438-.0449219-.9902344.7949219-1.4853516,1.9951172-1.6503906.5546875-.0751953,1.0498047-.0595703,1.5146484,0-.0146484-.6445312-.0449219-2.2802734-.0742188-3.734375-.5400391.1191406-1.1103516.1796875-1.6357422.0898438-.6298828-.1054688-1.2441406-.8554688-1.3193359-1.0048828-.0751953-.1650391-.0898438-.2255859-.0302734-.2851562.0751953-.0449219.2099609.0751953.2998047.1347656.1054688.0898438.5703125.4648438,1.3349609.4052734.4355469-.0302734.9003906-.1201172,1.3203125-.2402344-.0146484-.8847656-.0302734-1.5751953-.0449219-1.7695312-.0449219-.6308594-.6152344-.8857422-.75-.9453125-.1201172-.0449219-.1347656-.1503906-.1054688-.2099609.0302734-.0751953.1953125-.1796875.8251953-.1650391s1.0205078.5703125,1.0351562.7646484c.0302734.1806641-.1054688.2998047-.2246094.6601562.2246094.2246094.6142578.5703125.9296875.6455078.4648438.1044922.7197266.0898438.7949219.3291016.0751953.2402344.0449219.5556641-.5253906.8554688-.2392578.1347656-.7050781.3603516-1.2597656.5400391,0,.359375.0146484.6748047.0146484.8701172.015625.5097656.1357422,2.1142578.2099609,3.2246094,1.1103516.3300781,1.875.9296875,2.2207031,1.2597656.2099609.1953125.734375.7802734.4345703,1.1855469Zm-3.4199219-1.7851562c-.5244141-.1650391-1.0800781-.2402344-1.6201172-.2402344-1.3496094.0302734-1.4248047.7353516-1.4394531,1.0048828-.1054688.9746094,1.5,1.0048828,1.9501953.9453125.9296875-.1201172,1.0947266-1.0498047,1.109375-1.7099609Zm.5253906-5.6699219c.1650391-.0595703.3144531-.1201172.4345703-.1796875.1347656-.0605469.3447266-.1650391.1953125-.3603516-.0898438-.1054688-.375-.3896484-.6005859-.6298828-.0292969.2695312-.0292969.7050781-.0292969,1.1699219Z"/>
      <path d="m279.2013377,216.8991646c.015625.3300781-.2695312.5849609-.4941406.7802734-.1201172.1044922-.75.4648438-1.5751953.7802734.6152344,1.0644531,1.125,1.9199219,1.2294922,2.1142578.3154297.5253906.4355469.8105469.390625,1.2451172-.0302734.4355469-.4658203.9599609-.6757812,1.0654297-.2099609.1044922-.4199219-.0898438-.6591797-.3300781-1.0654297-.9902344-2.4599609-1.1103516-3.2099609-1.0947266-.75.0292969-2.1005859.5849609-1.7998047,1.7841797.2841797,1.2148438,1.9345703,1.0654297,2.4892578.9755859.5400391-.1054688,1.140625,0,1.4697266.2246094.2851562.1953125.2255859.7646484-.2099609.8251953-3.8242188.4648438-4.3789062-1.3652344-4.4091797-1.8603516-.1347656-1.8144531,1.3798828-2.2197266,2.3701172-2.3701172.9746094-.1347656,1.9492188.1054688,2.3994141.2109375.4501953.1191406.7050781.1347656.9296875.0449219.2255859-.0908203.1201172-.390625.0449219-.6455078-.0292969-.1494141-.4492188-.9453125-.9892578-1.9648438-.5253906.1650391-1.0800781.2998047-1.6347656.3447266-.75.0605469-1.9951172.1503906-3.1503906-.9296875-.2246094-.2099609-.3896484-.4648438-.3896484-.5400391.0292969-.1044922.1943359-.0146484.2998047.0449219.1044922.0751953,1.2451172.765625,2.4296875.7050781.6904297-.0302734,1.4550781-.1953125,2.0400391-.375-.2851562-.5244141-.5703125-1.0800781-.8544922-1.6201172-.0751953-.1201172-.1357422-.2246094-.1953125-.3447266-.6005859.1953125-1.3203125.3603516-1.7548828.2402344-.6904297-.1953125-1.0654297-.6005859-1.3798828-1.0205078-.1054688-.1347656-.1503906-.2246094-.1201172-.2695312.0449219-.0751953.2998047.0898438.4794922.1953125.1201172.0742188.8408203.4941406,1.4853516.359375.2402344-.0449219.5253906-.1494141.8095703-.2402344-.8095703-1.125-1.5595703-1.5449219-1.9345703-1.6796875-.1347656-.0595703-.3896484-.1347656-.4052734-.2998047-.0146484-.1796875.3300781-.2705078.4804688-.2851562.7646484-.1201172,1.125.1650391,1.4101562.4951172.0742188.1054688.4648438.7353516.9746094,1.5751953.2851562-.1201172.5253906-.2099609.6445312-.2255859.2705078-.0292969.5253906.0605469.6601562.2851562.1054688.1953125-.0898438.3300781-.2548828.4355469-.0449219.0292969-.2851562.1494141-.5996094.2695312.1201172.1796875.2246094.375.3447266.5703125.0595703.0146484.1201172.0292969.1650391.0449219.2695312.0751953,1.1699219.2548828,1.8896484.1796875.7050781-.0595703,1.2451172-.0449219,1.2597656.2998047Zm-2.0693359.1054688c-.2255859-.0751953-.6904297-.1953125-1.0654297-.3300781.2099609.3447266.4199219.7050781.6298828,1.0498047.1357422-.0595703.2402344-.1044922.3154297-.1503906.3603516-.2392578.4648438-.4492188.1201172-.5693359Zm3.1796875-1.2753906c.0449219.2998047-.0146484.4648438-.2099609.5400391-.1796875.1054688-.5703125.0605469-.7949219-.2998047-.2548828-.375-.6904297-.9453125-1.125-1.125-.1650391-.0595703-.3896484-.1503906-.375-.2548828.0302734-.1347656.3603516-.1054688.5849609-.0751953.2246094.015625,1.7695312.2548828,1.9199219,1.2148438Zm1.3046875-.6748047c-.1796875.0898438-.5097656.0751953-.7646484-.2402344-.2705078-.3447266-.6455078-.75-1.0947266-.9599609-.1650391-.0742188-.4804688-.1494141-.4648438-.2548828.0146484-.1347656.2998047-.1347656.5546875-.1201172.2246094.015625,1.7695312.1503906,1.9501953,1.1552734.0449219.2548828-.0751953.3603516-.1806641.4199219Z"/>
    </g>
    <g>
      <path d="m73.6593455,223.7243599v1.125h-6.6147461v-.9003906c.9301758-.9599609,1.8598633-1.9648438,2.5800781-2.7294922,1.6499023-1.7851562,2.3095703-3.0146484,2.3095703-4.2753906,0-1.3496094-.7797852-2.2646484-2.0698242-2.2646484-.284668,0-.6298828.0302734-.9897461.1347656l-.375,1.1552734c-.1801758.6445312-.4052734.9296875-.7949219.9296875-.3300781,0-.5551758-.1796875-.7202148-.4648438.2548828-1.5751953,1.6499023-2.3701172,3.2099609-2.3701172,2.0249023,0,2.9697266,1.125,2.9697266,2.7753906,0,1.3798828-.7197266,2.4599609-3.1196289,4.859375-.4199219.4501953-1.1850586,1.2148438-2.0097656,2.0253906h5.6245117Z"/>
      <path d="m83.1695994,215.3249458c.1499023-.2099609.2700195-.4355469.3896484-.4355469.1801758,0,1.0952148.8251953,1.0952148,1.0498047-.0449219.1650391-.1801758.2402344-.375.2402344h-1.9350586v1.9052734c2.8349609,1.3798828,2.0249023,3.2548828,1.1401367,2.5048828-.1650391-.6455078-.6899414-1.515625-1.1401367-2.1601562v3.6152344c.0302734,1.7998047.0600586,2.3994141.1201172,3.5244141-.1201172.2246094-.5249023.4345703-.8549805.4345703-.1801758,0-.3452148-.1494141-.3452148-.2998047.090332-1.2900391.1352539-1.9492188.1650391-3.8994141v-3.0146484c-.5849609,1.4248047-1.3647461,2.6845703-2.3696289,3.7939453l-.2099609-.2099609c1.1845703-1.7246094,1.9345703-3.9589844,2.3696289-6.1943359h-.6899414c-.4199219.0146484-.7797852.0898438-1.1699219.2099609l-.3901367-.7646484c.5551758.0751953,1.1103516.1044922,1.6801758.1201172h.7797852v-.4355469c0-1.0195312-.0600586-2.25-.1948242-3.0742188,1.6201172.4648438,1.6201172.6142578,1.3647461.7949219l-.2548828.1796875v2.5351562h.5400391l.2851562-.4199219Zm7.5146484-.2851562c.1650391-.2255859.2998047-.4648438.4199219-.4648438.1801758,0,1.1699219.8691406,1.1699219,1.0947266-.0297852.1650391-.1650391.2402344-.375.2402344h-1.2597656c-.3901367,2.3544922-1.1103516,4.3945312-2.3251953,6.1044922,1.0200195,1.2900391,2.3251953,2.3544922,4.0200195,3.1044922l-.0449219.1503906c-.4199219.0751953-.7651367.3144531-.9150391.7802734-1.5449219-.8701172-2.7001953-1.9951172-3.5849609-3.3457031-1.1098633,1.3349609-2.5800781,2.4453125-4.5297852,3.2998047l-.1352539-.1943359c1.8452148-1.0351562,3.2250977-2.3251953,4.2299805-3.8105469-.8398438-1.4990234-1.3798828-3.2246094-1.7397461-5.0996094-.4799805.8398438-1.0200195,1.5751953-1.6352539,2.1455078l-.1948242-.1503906c.6298828-.9150391,1.1850586-2.0849609,1.6201172-3.4199219.3149414-.9443359.5849609-2.4746094.5849609-3.2998047,1.6650391.4199219,1.6650391.5703125,1.409668.7050781l-.2548828.1201172c-.2397461.8847656-.5097656,1.7246094-.8398438,2.4902344h4.0795898l.300293-.4501953Zm-4.5600586.8701172c-.0898438.1943359-.1796875.3896484-.284668.5849609.4199219,1.7695312,1.0498047,3.3896484,1.9648438,4.7998047.9150391-1.5908203,1.4848633-3.390625,1.7548828-5.3847656h-3.4350586Z"/>
      <path d="m98.1544627,217.6042427c.0297852.0605469,0,.0898438-.0449219.2402344-.0751953.3144531-1.2451172,3.6152344-1.3500977,4.4248047-.0600586.5996094.2700195,1.7851562.2402344,1.9951172-.0151367.2099609-.1352539.4199219-.300293.4345703-.1650391.0302734-.4951172,0-.7197266-.375-.2099609-.3896484-.9150391-1.3945312-.6298828-4.3046875.0898438-.9150391.2548828-1.8300781.4345703-2.7294922.1503906-.765625.3452148-1.515625.3149414-2.3105469-.0146484-.4042969-.2548828-.734375-.2998047-.8242188-.0600586-.1054688-.0449219-.1953125-.0151367-.2255859.0751953-.1044922.2250977-.0449219.3603516.0751953.2246094.2099609,1.034668,1.0800781.9448242,1.8447266-.0751953.6748047-.4047852,1.3349609-.6152344,1.9648438-.284668.8105469-.5249023,1.6347656-.5395508,2.5048828,0,.1347656-.0600586,1.1699219.2548828,1.0654297.375-.1201172,1.5898438-3.3447266,1.7700195-3.6601562.074707-.1201172.1499023-.1796875.1948242-.1201172Zm8.1748047,6.3603516c-.1650391.2246094-.375.2246094-.6450195.0595703-.1352539-.0751953-.4052734-.375-.7651367-.7197266-.3300781-.2998047-.7348633-.5703125-1.1850586-.7949219,0,.9150391-.2099609,2.0400391-1.8149414,2.0849609-1.7397461.0449219-2.5195312-.6005859-2.5498047-1.5898438-.0449219-.9902344.7949219-1.4853516,1.9951172-1.6503906.5546875-.0751953,1.0498047-.0595703,1.5146484,0-.0146484-.6445312-.0449219-2.2802734-.074707-3.734375-.5400391.1191406-1.1098633.1796875-1.6352539.0898438-.6298828-.1054688-1.2446289-.8554688-1.3198242-1.0048828-.074707-.1650391-.0898438-.2255859-.0297852-.2851562.074707-.0449219.2099609.0751953.2998047.1347656.1049805.0898438.5698242.4648438,1.3349609.4052734.4350586-.0302734.8999023-.1201172,1.3198242-.2402344-.0146484-.8847656-.0297852-1.5751953-.0449219-1.7695312-.0449219-.6308594-.6147461-.8857422-.75-.9453125-.1201172-.0449219-.1347656-.1503906-.1049805-.2099609.0302734-.0751953.1953125-.1796875.8251953-.1650391s1.0200195.5703125,1.034668.7646484c.0302734.1806641-.1049805.2998047-.2246094.6601562.2246094.2246094.6147461.5703125.9296875.6455078.4648438.1044922.7202148.0898438.7949219.3291016.0751953.2402344.0449219.5556641-.5249023.8554688-.2397461.1347656-.7050781.3603516-1.2597656.5400391,0,.359375.0146484.6748047.0146484.8701172.0151367.5097656.1352539,2.1142578.2099609,3.2246094,1.1103516.3300781,1.875.9296875,2.2202148,1.2597656.2099609.1953125.7348633.7802734.4350586,1.1855469Zm-3.4199219-1.7851562c-.5249023-.1650391-1.0800781-.2402344-1.6201172-.2402344-1.3500977.0302734-1.4248047.7353516-1.4399414,1.0048828-.1049805.9746094,1.5,1.0048828,1.9501953.9453125.9296875-.1201172,1.0947266-1.0498047,1.1098633-1.7099609Zm.5249023-5.6699219c.1650391-.0595703.3149414-.1201172.4350586-.1796875.1347656-.0605469.3447266-.1650391.1948242-.3603516-.0898438-.1054688-.375-.3896484-.6000977-.6298828-.0297852.2695312-.0297852.7050781-.0297852,1.1699219Z"/>
      <path d="m119.7989939,216.8991646c.0151367.3300781-.2700195.5849609-.4946289.7802734-.1201172.1044922-.75.4648438-1.5751953.7802734.6152344,1.0644531,1.125,1.9199219,1.2299805,2.1142578.3149414.5253906.4350586.8105469.3901367,1.2451172-.0302734.4355469-.465332.9599609-.675293,1.0654297-.2099609.1044922-.4199219-.0898438-.659668-.3300781-1.0649414-.9902344-2.4599609-1.1103516-3.2099609-1.0947266-.75.0292969-2.1000977.5849609-1.7998047,1.7841797.284668,1.2148438,1.9345703,1.0654297,2.4897461.9755859.5400391-.1054688,1.1401367,0,1.4697266.2246094.2851562.1953125.2250977.7646484-.2099609.8251953-3.824707.4648438-4.3793945-1.3652344-4.409668-1.8603516-.1347656-1.8144531,1.3798828-2.2197266,2.3701172-2.3701172.9746094-.1347656,1.949707.1054688,2.3999023.2109375.449707.1191406.7045898.1347656.9296875.0449219.2250977-.0908203.1201172-.390625.0449219-.6455078-.0297852-.1494141-.449707-.9453125-.9897461-1.9648438-.5249023.1650391-1.0800781.2998047-1.6347656.3447266-.75.0605469-1.9951172.1503906-3.1499023-.9296875-.2250977-.2099609-.3901367-.4648438-.3901367-.5400391.0297852-.1044922.1948242-.0146484.2998047.0449219.1049805.0751953,1.2451172.765625,2.4301758.7050781.6899414-.0302734,1.4550781-.1953125,2.0400391-.375-.2851562-.5244141-.5703125-1.0800781-.8549805-1.6201172-.0751953-.1201172-.1352539-.2246094-.1953125-.3447266-.6000977.1953125-1.3198242.3603516-1.7548828.2402344-.6899414-.1953125-1.0649414-.6005859-1.3798828-1.0205078-.1049805-.1347656-.1499023-.2246094-.1201172-.2695312.0449219-.0751953.300293.0898438.4799805.1953125.1201172.0742188.840332.4941406,1.4848633.359375.2402344-.0449219.5253906-.1494141.8100586-.2402344-.8100586-1.125-1.5595703-1.5449219-1.9345703-1.6796875-.1352539-.0595703-.3901367-.1347656-.4052734-.2998047-.0151367-.1796875.3300781-.2705078.4799805-.2851562.7651367-.1201172,1.125.1650391,1.4101562.4951172.074707.1054688.4648438.7353516.9746094,1.5751953.2851562-.1201172.5253906-.2099609.6450195-.2255859.2700195-.0292969.5249023.0605469.6601562.2851562.1049805.1953125-.0898438.3300781-.2548828.4355469-.0449219.0292969-.2851562.1494141-.6000977.2695312.1201172.1796875.2250977.375.3452148.5703125.0595703.0146484.1196289.0292969.1645508.0449219.2700195.0751953,1.1699219.2548828,1.8901367.1796875.7050781-.0595703,1.2451172-.0449219,1.2597656.2998047Zm-2.0698242.1054688c-.2250977-.0751953-.6899414-.1953125-1.0649414-.3300781.2099609.3447266.4199219.7050781.6298828,1.0498047.1352539-.0595703.2402344-.1044922.3149414-.1503906.3603516-.2392578.465332-.4492188.1201172-.5693359Zm3.1801758-1.2753906c.0449219.2998047-.0151367.4648438-.2104492.5400391-.1796875.1054688-.5698242.0605469-.7949219-.2998047-.2548828-.375-.6899414-.9453125-1.125-1.125-.1645508-.0595703-.3896484-.1503906-.3745117-.2548828.0297852-.1347656.3598633-.1054688.5849609-.0751953.2246094.015625,1.7695312.2548828,1.9199219,1.2148438Zm1.3046875-.6748047c-.1801758.0898438-.5097656.0751953-.7651367-.2402344-.2700195-.3447266-.6450195-.75-1.0947266-.9599609-.1650391-.0742188-.4799805-.1494141-.4648438-.2548828.0146484-.1347656.2998047-.1347656.5546875-.1201172.2250977.015625,1.7700195.1503906,1.9501953,1.1552734.0449219.2548828-.0751953.3603516-.1801758.4199219Z"/>
    </g>
  </g>
</svg>