<?xml version="1.0" encoding="UTF-8"?>
<svg id="_レイヤー_2" data-name="レイヤー 2" xmlns="http://www.w3.org/2000/svg" viewBox="0 0 15.0707334 24.5294996">
  <g id="_レイヤー_3" data-name="レイヤー 3">
    <path d="m15.0059043,23.4620765l-2.0875391-4.7304048c.6735124-.0879887,1.1984233-.6667595,1.1984233-1.3635524V5.5531468c0-.7570599-.6189427-1.3765305-1.3760018-1.3765305h-4.4204973l1.4682688-1.4684326c.1776521-.1776703.1776521-.4658088-.000091-.6434791L7.8569743.133321c-.1775792-.1777613-.4658816-.1777613-.6434608,0l-1.9314019,1.9313837c-.1777431.1776703-.1777431.4658088,0,.6434791l1.4684326,1.4684326H2.3298839c-.7568779,0-1.3761664.6194706-1.3761664,1.3765305v11.8149725c0,.6967929.5248927,1.2755636,1.1985871,1.3635524L.0649294,23.4620765c-.1695703.384482.0044595.8329625.3885775,1.0025328.0998929.0440854.2038812.0648903.3064498.0648903.292052,0,.570598-.1690425.696083-.4534496l.2776541-.6297911h11.6031002l.278.6297911c.1253211.2844071.4038672.4534496.695738.4534496.1023857,0,.2067381-.0208049.306449-.0648903.3843-.1695703.5583307-.6180508.3889233-1.0025328ZM6.2474212,2.3864442l1.2878318-1.2878318,1.2879053,1.2878318-1.2877415,1.2880139-1.2879956-1.2880139Zm-1.0578306,2.8108342c0-.0821277.06702-.1487836.1489662-.1487836h4.3933748c.0819457,0,.1489656.0666559.1489656.1487836v.755804c0,.0815998-.06702.1487836-.1489656.1487836h-4.3933748c-.0819463,0-.1489662-.0671838-.1489662-.1487836v-.755804Zm-1.7654537,11.2669632c-.570234,0-1.0324024-.4625142-1.0324024-1.0325662,0-.5702522.4621684-1.0324024,1.0324024-1.0324024s1.0327482.4621502,1.0327482,1.0324024c0,.570052-.4625142,1.0325662-1.0327482,1.0325662Zm7.8503461,2.2802261c.0103213.0371504.0202771.074319.0362585.1103955l.33277.7543842H3.4269769l.3327694-.7543842c.0159996-.0360765.0261199-.0732451.0362585-.1103955h7.4784782Zm-8.8697704,3.1814645l.3514271-.7961761h9.5585726l.3512451.7961761H2.4047125Zm9.2416384-5.4616906c-.570234,0-1.0325844-.4625142-1.0325844-1.0325662,0-.5702522.4623504-1.0324024,1.0325844-1.0324024s1.0325662.4621502,1.0325662,1.0324024c0,.570052-.4623322,1.0325662-1.0325662,1.0325662Zm1.0867909-4.8827378c0,.2673518-.2186439.4856308-.4859775.4856308H2.8235054c-.2671698,0-.4861587-.2182791-.4861587-.4856308v-4.0959904c0-.2673518.2189889-.4861587.4861587-.4861587h9.423659c.2673336,0,.4859775.2188069.4859775.4861587v4.0959904Z"/>
  </g>
</svg>