<?xml version="1.0" encoding="UTF-8"?>
<svg id="_レイヤー_2" data-name="レイヤー 2" xmlns="http://www.w3.org/2000/svg" viewBox="0 0 251.2128906 40.7990723">
  <defs>
    <style>
      .cls-1 {
        fill: #cfb480;
      }
    </style>
  </defs>
  <g id="_レイヤー_3" data-name="レイヤー 3">
    <g>
      <path class="cls-1" d="m14.9980469,15.6286621c-.7910156-.2880859-2.6113281-1.5483398-2.6113281-1.5483398-1.65625-.9904785-2.71875-2.3769531-3.7441406-3.8532715.0175781.8283691.0351562,4.4294434.0722656,5.1674805,0,.0900879.0175781.486084.0175781.5583496,0,.3059082-.0351562.4680176-.234375.6120605-.234375.1621094-.5039062.2341309-.6113281.2341309-.3066406,0-.3613281-.3242188-.3613281-.5041504,0-.144043.0195312-.7741699.0371094-.9003906,0-.7202148.0722656-3.8710938.0898438-4.5192871C5.2207031,13.5400391,2.015625,15.2685547.0722656,15.7727051l-.0722656-.1259766c2.1425781-.9003906,5.5449219-3.7270508,6.9140625-5.4377441h-2.7734375c0,.4143066-.0351562.5041504-.0898438.5761719-.1621094.2160645-.4140625.3242188-.6835938.3242188-.3066406,0-.3242188-.197998-.3242188-.3061523,0-.0539551.0175781-.2521973.0351562-.3239746.0722656-.8642578.109375-2.5029297.109375-3.3129883,0-1.692627-.0371094-1.9086914-.234375-2.953125l1.3320312.6123047h3.4023438c0-.2700195,0-.7563477-.0175781-1.8364258H2.8261719c-.6289062,0-1.6191406.0717773-2.3046875.197998l-.4316406-.7741699c1.3496094.1079102,2.6640625.144043,2.9882812.144043h4.5742188c-.0371094-.9904785-.0898438-1.7827148-.3789062-2.3227539l1.6933594.4321289c.1074219.0358887.2695312.0720215.2695312.197998,0,.1081543-.0527344.1799316-.2148438.3061523-.1445312.1259766-.2714844.2160645-.3613281.2880859,0,.0720215-.0175781.7380371-.0175781,1.0983887h5.3652344l.59375-.8642578c.0898438-.1262207.1621094-.2163086.2519531-.2163086.1269531,0,.2519531.1081543.34375.1801758l.9707031.8642578c.0898438.0720215.1816406.1621094.1816406.2700195,0,.1621094-.1621094.1982422-.2714844.1982422h-7.4355469v1.8364258h3.3125l.59375-.4682617c.0917969-.0717773.1269531-.0898438.1992188-.0898438.0527344,0,.125.0358887.1796875.0720215l.7734375.5761719c.109375.0900879.1621094.1259766.1621094.2341309,0,.0898438-.0527344.1618652-.1621094.2338867q-.2519531.1621094-.4316406.3061523c0,1.3684082,0,1.4223633.1445312,4.2133789.0175781.1799316.0175781.3598633.0175781.3779297,0,.3061523-.0546875.4321289-.3066406.5581055-.1621094.0900879-.3417969.1262207-.4316406.1262207-.359375,0-.359375-.2521973-.3417969-.7563477h-3.3671875c1.3144531,1.4226074,4.1054688,3.78125,7.796875,3.8891602v.1621094c-1.0078125.2521973-1.2246094.5402832-1.7832031,1.3684082ZM7.6875,5.2575684h-3.546875v1.9445801h3.546875v-1.9445801Zm0,2.376709h-3.546875v2.1425781h3.546875v-2.1425781Zm4.6640625-2.376709h-3.7089844v1.9445801h3.7089844v-1.9445801Zm0,2.376709h-3.7089844v2.1425781h3.7089844v-2.1425781Z"/>
      <path class="cls-1" d="m23.6347656,12.6938477c-2.5195312,2.4306641-3.9238281,3.1508789-5.5625,3.6730957l-.0546875-.1259766c1.7109375-.8283691,4.1054688-3.4931641,4.5371094-4.3034668.0195312-.0178223.1269531-.3059082.2167969-.7380371l1.4042969,1.0083008c.1445312.1079102.234375.1618652.234375.2700195,0,.2519531-.234375.2519531-.7753906.2160645Zm10.5878906-9.3808594h-13.3417969c-.6484375,0-1.6386719.0720215-2.3222656.2160645l-.4335938-.7741699c1.3515625.1079102,2.6660156.1259766,3.0078125.1259766h4.609375c0-.9724121-.0175781-1.9445801-.4140625-2.6647949l1.8730469.4140625c.1796875.0361328.2519531.0541992.2519531.1801758,0,.1079102,0,.2338867-.6660156.5761719v1.4943848h5.0585938l.7382812-.8461914c.1796875-.197998.1992188-.2160645.2695312-.2160645.109375,0,.2714844.1259766.34375.1799316l1.1152344.8464355c.0898438.0717773.1796875.1618652.1796875.2880859,0,.1618652-.1425781.1799316-.2695312.1799316Zm-3.3125,3.0249023c0,.3061523-.0175781.7382812.0175781,1.7824707.0175781.3242188.1074219,1.7285156.1074219,1.9985352,0,.6123047-.6484375.6843262-.7910156.6843262-.3613281,0-.3613281-.1081543-.3417969-.7382812h-2.9902344v1.0444336c0,1.0083008.0371094,2.5927734.0371094,3.5830078,0,.9543457-.1445312,1.2783203-.4863281,1.5844727-.109375.0900879-.5234375.4680176-1.2070312.5942383-.1074219-.3601074-.6835938-1.0983887-1.9628906-1.6206055v-.1618652c.9003906.144043,1.765625.1618652,2.0351562.1618652.6308594,0,.6308594-.0178223.6308594-1.2243652v-3.9611816h-3.4570312c0,.5041504,0,.5761719-.0546875.6662598-.1269531.2160645-.46875.2880859-.7207031.2880859-.3242188,0-.3417969-.1801758-.3417969-.3242188,0-.0539551.0175781-.3059082.0175781-.3598633.0722656-1.2424316.0898438-2.4667969.0898438-3.7092285,0-.8461914,0-1.3144531-.1972656-2.034668l1.4941406.8642578h7.0410156l.3945312-.4680176c.0722656-.0900879.1445312-.1259766.234375-.1259766s.1992188.0539551.234375.0898438l.7929688.5581055c.1074219.0722656.1621094.144043.1621094.2521973,0,.2521973-.3417969.3962402-.7382812.5761719Zm-1.0078125-.4501953h-7.4199219v3.7451172h7.4199219v-3.7451172Zm2.8261719,9.8669434c-.4316406,0-.7382812-.4140625-.9003906-.6660156-.5410156-.7924805-1.8359375-2.7368164-3.078125-3.2231445l.0351562-.1621094c2.2148438.4863281,4.5019531,1.9987793,4.5019531,3.3671875,0,.3779297-.2167969.684082-.5585938.684082Z"/>
      <path class="cls-1" d="m37.6386719,15.0163574c4.5019531-2.3945312,6.3203125-5.1494141,7.2011719-6.5358887-.7558594-.6662598-1.7089844-1.4404297-4.1230469-2.4846191,1.890625.0358887,3.7460938,1.1882324,4.5566406,1.746582.5390625-.918457,1.6738281-3.3310547,1.6738281-3.9433594,0-.5219727-.3789062-.8100586-1.0625-1.3684082.2890625-.0358887.4140625-.0539551.59375-.0539551.3066406,0,.5761719.0539551,1.2246094.5041504.7207031.5041504.9003906.7202148.9003906.9362793,0,.197998-.0898438.2880859-.5039062.630127-.1621094.144043-.2890625.4143066-.46875.8642578-.5390625,1.3684082-1.1875,2.5568848-1.5117188,3.0610352.5039062.4140625,2.25,1.8725586,2.25,3.0427246,0,.0541992,0,.6303711-.4863281.6303711-.2519531,0-.359375-.1982422-.5761719-.5761719-.5214844-.8823242-1.0078125-1.5124512-1.7089844-2.2687988-2.7382812,3.9973145-6.140625,5.5817871-7.9238281,5.9238281l-.0351562-.1081543Z"/>
      <path class="cls-1" d="m66.4589844,8.6965332c.2714844.2521973.4335938.6303711.4335938,1.0263672,0,.4321289-.1621094.684082-.4140625.684082-.234375,0-.4140625-.1799316-.8105469-.5939941-1.296875-1.3684082-2.6464844-2.2145996-3.9804688-2.8630371-.0175781,1.6386719-.0351562,3.3129883-.0351562,4.9516602,0,.3779297.0546875,2.034668.0546875,2.3586426,0,.8642578,0,1.6384277-.5410156,1.6384277-.6113281,0-.7558594-1.1523438-.7558594-1.3503418,0-.0358887.1445312-.9362793.1621094-1.0441895.1445312-.9724121.2695312-7.5444336.2695312-8.2285156,0-.5581055,0-2.4128418-.125-2.862793-.1269531-.4682617-.6132812-.6484375-1.4765625-.9003906.6289062-.3959961,1.1328125-.4140625,1.1699219-.4140625.2695312,0,1.8007812.342041,1.8007812.9541016,0,.0900879-.1796875.6303711-.2714844.9365234-.1972656.6120605-.2148438,2.7727051-.2324219,3.5649414,1.3496094.3061523,3.5996094,1.0444336,4.7519531,2.1425781Z"/>
      <path class="cls-1" d="m74.7734375,3.4929199c.4316406,0,.6835938.144043,1.421875.5583496.2695312.1618652.5390625.197998.8632812.197998.1621094,0,5.7089844-.3781738,6.2675781-.4321289.7734375-.0900879.9707031-.2519531,1.0976562-.342041.234375-.1801758.2519531-.197998.3242188-.197998.234375,0,1.3320312.972168,1.4042969,1.0981445.0175781.0361328.0351562.0900879.0351562.144043,0,.1801758-.0898438.2341309-.3945312.4501953-.3066406.197998-.3964844.3061523-.5761719,1.4404297-.3242188,2.1787109-.3789062,2.4487305-.8105469,4.8254395-.0195312.0358887-.0195312.1081543-.0195312.1799316,0,.1621094.0546875.2163086.3613281.4501953.2519531.2160645.4316406.3781738.4316406.6303711,0,.2880859-.2871094.2880859-.3417969.2880859-.0371094,0-.1621094-.0180664-.3242188-.0361328-.8652344-.144043-1.4589844-.2341309-2.8808594-.2341309-.7929688,0-4.2675781.1801758-4.96875.197998.0175781.4863281.0351562.9724121-.3964844.9724121-.6132812,0-.7558594-1.3144531-.7558594-1.4223633,0-.197998.0898438-1.0444336.0898438-1.2243652,0-1.7646484-.3066406-5.4196777-.4863281-6.2119141-.1621094-.6481934-.46875-.7741699-1.1699219-1.0444336.1972656-.1259766.4667969-.2880859.828125-.2880859Zm1.8007812,8.2285156c0,.0180664.0175781.2521973.0175781.2880859.8105469-.0358887,4.7714844-.1621094,5.671875-.197998.5390625-.0180664.9003906-.0539551,1.2421875-.0900879.1074219-1.0622559.7734375-6.1218262.7734375-6.7700195,0-.4140625-.1621094-.4680176-.4140625-.4680176h-.0898438c-3.5117188,0-3.6367188.197998-5.3828125.342041-.109375,0-1.1347656.0900879-1.1523438.0900879-.1445312,0-.2519531-.0180664-.3789062-.0539551-.1445312-.0541992-.4492188-.144043-.4492188-.144043-.1269531,0-.1269531.1618652-.1269531.2338867l.1796875,3.6911621.109375,3.0788574Z"/>
      <path class="cls-1" d="m99.9746094,2.3405762h-7.0390625c-.6308594,0-1.6210938.0900879-2.3046875.2163086l-.4335938-.7744141c1.3515625.1081543,2.6660156.1259766,2.9902344.1259766h5.0585938l.4140625-.6660156c.1445312-.2160645.2167969-.2521973.2890625-.2521973.1074219,0,.1796875.0539551.3242188.1801758l.7910156.7202148c.1269531.0900879.1796875.144043.1796875.2700195,0,.1621094-.1425781.1799316-.2695312.1799316Zm-.46875,7.4543457c-.0703125.0358887-.3769531.2160645-.4316406.2521973,0,.6120605-.0175781,1.6203613.0371094,2.71875.0175781.5219727.0898438,2.0166016.0898438,2.4667969,0,.3598633,0,.8820801-.6660156.8820801-.3613281,0-.3613281-.144043-.34375-1.0803223h-6.265625c.0195312.5222168.0195312,1.1884766-.7382812,1.1884766-.1425781,0-.3417969-.0361328-.3417969-.2700195,0-.0900879.0175781-.2163086.0371094-.3422852.125-.630127.125-2.9528809.125-3.690918,0-2.8808594,0-3.0070801-.0722656-3.4931641l1.1347656.684082h5.9238281l.4511719-.4140625c.1796875-.1621094.2148438-.1799316.2519531-.1799316.0527344,0,.1074219.0720215.2519531.197998l.6113281.5942383c.1796875.1621094.1796875.197998.1796875.2519531,0,.0900879-.0351562.1081543-.234375.2341309Zm-1.0429688-5.2937012c-.1269531.0900879-.1992188.144043-.3066406.2521973,0,.3781738.0351562,1.9807129.0351562,2.3046875,0,.342041-.1074219.4321289-.2519531.5222168-.1796875.1259766-.3417969.1621094-.3945312.1621094-.234375,0-.2167969-.2521973-.1992188-.5402832h-4.6269531c0,.2341309.0175781.7021484-.6835938.7021484-.2167969,0-.2714844-.0900879-.2714844-.2880859,0-.0900879.0371094-.5041504.0546875-.5939941.0175781-.8103027.0175781-1.4765625.0175781-1.8725586,0-1.404541-.0351562-1.6025391-.0898438-1.9086914l1.1347656.7202148h4.3203125l.34375-.3781738c.0527344-.0539551.1425781-.144043.1972656-.144043s.0898438.0180664.2890625.1621094l.5566406.3781738c.0371094.0180664.1445312.1079102.1445312.2338867,0,.1081543-.0546875.144043-.2695312.2880859Zm-3.8710938,5.0415039h-2.6660156v2.2329102h2.6660156v-2.2329102Zm0,2.6650391h-2.6660156v2.3945312h2.6660156v-2.3945312Zm2.7714844-7.8144531h-4.6445312v2.376709h4.6445312v-2.376709Zm.828125,5.1494141h-2.7539062v2.2329102h2.7539062v-2.2329102Zm0,2.6650391h-2.7539062v2.3945312h2.7539062v-2.3945312Zm3.8730469-8.876709c-.0195312.7561035-.0371094,1.3503418-.0371094,2.4125977,0,1.7824707.0722656,4.6274414.0722656,6.3918457,0,1.0263672-.7207031,1.0263672-.7734375,1.0263672-.1992188,0-.3789062-.1621094-.3789062-.4680176,0-.144043.0722656-.7922363.0898438-.9362793.0722656-2.4848633.1074219-4.9875488.1074219-7.472168,0-1.2785645-.0351562-1.4946289-.2695312-2.2329102l1.4589844.5583496c.0898438.0358887.2148438.0900879.2148438.2341309,0,.1259766-.0703125.1799316-.484375.486084Zm3.1132812-1.4584961c0,.8461914-.0351562,7.0581055-.0351562,8.3725586,0,.6481934.0351562,3.4929199.0351562,4.0690918,0,.7563477-.1425781,1.1523438-.5390625,1.6025391-.4863281.5222168-.9179688.630127-1.2246094.684082-.4316406-.7380371-1.0625-1.0800781-1.9804688-1.512207v-.144043c.6835938.0898438,1.296875.0898438,1.421875.0898438.828125,0,1.3867188-.0180664,1.3867188-1.1882324,0-1.9265137-.0351562-10.4250488-.0351562-12.1716309-.0546875-.5942383-.1269531-.7922363-.234375-1.1342773l1.5839844.5219727c.1445312.0541992.2519531.0900879.2519531.2521973,0,.1618652-.0722656.2880859-.6308594.5581055Z"/>
      <path class="cls-1" d="m117.4355469,6.6079102h-3.6015625c-1.2246094,1.548584-1.3515625,1.7285156-1.9453125,2.3408203l.1445312.0900879h2.8085938l.4511719-.4501953c.1074219-.0900879.1425781-.1081543.2148438-.1081543.0898438,0,.1796875.0539551.234375.0720215l.7207031.4863281c.1621094.1079102.234375.1618652.234375.3059082,0,.1621094-.0722656.197998-.6855469.486084.0371094,1.6206055.0546875,2.5749512.0898438,3.7993164,0,.2700195.0722656,1.5302734.0722656,1.8005371,0,.5761719-.7558594.6120605-.7558594.6120605-.359375,0-.359375-.2160645-.3417969-.8100586h-3.1152344c.0175781.5939941.0175781,1.1523438-.7382812,1.1523438-.2695312,0-.3769531-.0900879-.3769531-.3603516,0-.0898438.0351562-.4680176.0527344-.5581055.0546875-.7382812.234375-3.5649414.1445312-5.7255859-1.6210938,1.4042969-2.7910156,1.9445801-3.4394531,2.232666l-.1074219-.0900879c1.2773438-.8823242,2.6289062-2.2145996,3.4746094-3.0969238,0-.0539551-.0546875-.3962402-.0546875-.4321289l.2890625.1799316c.6308594-.684082,1.2597656-1.4223633,1.6738281-1.9265137h-2.0878906c-.6308594,0-1.6210938.0720215-2.3046875.197998l-.4316406-.7741699c1.3496094.1081543,2.6640625.144043,2.9882812.144043h.7011719v-2.6467285h-1.6738281c-.2871094,0-.7011719.0361328-.9902344.0900879l-.1796875-.5942383c.3242188.0358887,1.0078125.0720215,1.2773438.0720215h1.5664062c0-.2700195.0195312-1.4765625.0195312-1.7285156,0-.5581055-.0546875-.7382812-.1992188-1.0622559l1.4589844.486084c.1445312.0539551.2871094.1079102.2871094.2700195,0,.2521973-.3222656.3781738-.5761719.4682617-.0351562.3239746-.0527344.6660156-.0703125,1.5664062h.5566406l.3066406-.3959961c.1445312-.1801758.1796875-.2163086.2695312-.2163086.109375,0,.2714844.1262207.34375.1801758l.484375.3959961c.109375.0900879.1816406.1621094.1816406.2702637,0,.144043-.109375.197998-.2714844.197998h-1.890625v.486084c0,.7202148-.0175781,1.4404297-.0351562,2.1606445h.6113281c1.6210938-2.0344238,2.5390625-3.7810059,2.7011719-4.1591797.1269531-.2880859.1445312-.4501953.1445312-.630127l1.2246094.8461914c.0527344.0361328.1445312.1079102.1445312.2341309,0,.2341309-.2167969.2700195-.6679688.342041-.4140625.5400391-2.2324219,2.8808594-2.609375,3.3669434h1.5839844l.5039062-.6120605c.1074219-.144043.1796875-.2160645.2695312-.2160645.109375,0,.3242188.1618652.34375.1799316l.6660156.6123047c.0898438.0720215.1796875.1621094.1796875.2700195,0,.1801758-.1621094.197998-.2695312.197998Zm-2.359375,2.8630371h-3.1152344v2.3945312h3.1152344v-2.3945312Zm0,2.8266602h-3.1152344v2.5029297h3.1152344v-2.5029297Zm7.9042969,1.9985352c-.5585938.3242188-.9902344.3603516-1.3320312.4143066-.0898438-.3242188-.4316406-1.1345215-1.3320312-1.5666504l.0527344-.144043c.7382812.144043,1.0800781.2163086,1.6035156.2163086.71875,0,1.1523438-.4321289,1.1523438-1.4404297,0-1.5305176-.6855469-3.0610352-2.7734375-4.7355957.5585938-1.1162109,1.5839844-3.8710938,1.9453125-4.8613281h-2.8808594c0,2.7907715,0,8.2463379.0527344,10.7670898,0,.486084.0722656,2.5568848.0722656,2.9890137,0,.5041504-.3769531.7741699-.8632812.7741699-.3242188,0-.3242188-.2880859-.3242188-.3781738,0-.0898438.0351562-.4501953.0351562-.5219727.1269531-2.7729492.1269531-7.3823242.1269531-10.3352051,0-.8283691,0-3.0249023-.1445312-3.7270508-.0351562-.1801758-.0898438-.342041-.1621094-.6123047l1.4765625.6123047h2.5917969l.3242188-.3061523c.0371094-.0358887.1269531-.1081543.2167969-.1081543s.2167969.1081543.2871094.1621094l.8828125.8283691c.0722656.0720215.1445312.144043.1445312.2700195,0,.3239746-.3066406.3601074-.8457031.4140625-.2167969.3061523-.6484375.9003906-1.3339844,1.9807129-.3945312.6481934-.9902344,1.5664062-1.2226562,1.9265137,1.5664062,1.0083008,3.4746094,2.4667969,3.4746094,5.0773926,0,1.0083008-.2167969,1.7285156-1.2246094,2.3046875Z"/>
      <path class="cls-1" d="m126.7929688,12.3518066c-.3242188,0-.6679688-.2521973-.6679688-.7563477,0-.3242188.1816406-.4682617.5234375-.7202148.5214844-.4140625,1.6914062-1.7646484,1.7636719-3.4389648h.1269531c.0527344.2160645.1796875.684082.1796875,1.4042969,0,1.692627-.7207031,3.5112305-1.9257812,3.5112305Zm10.8027344,3.4570312c-.703125.197998-2.5566406.2158203-3.3496094.2158203-2.2871094,0-2.9882812-.144043-3.0058594-2.1064453-.0195312-4.0874023-.0195312-4.5195312-.0195312-8.3725586,0-.8823242-.0527344-1.0263672-.2148438-1.4943848l1.6914062.6481934c.1992188.0720215.2714844.1079102.2714844.2338867,0,.1801758-.1621094.2521973-.703125.5043945-.0351562.9001465-.0351562,5.3835449-.0351562,6.5717773,0,.4321289-.0195312,2.1787109.0527344,2.4667969.0898438.4140625.2519531.5581055,2.1796875.5581055,2.1425781,0,2.6640625,0,3.2402344-2.9707031l.1269531.0178223c.0175781.2521973.0351562,1.3864746.0722656,1.6025391.0898438.6662598.2324219.8103027.3769531.9362793.1621094.144043.1992188.197998.1992188.342041,0,.3601074-.4863281.7202148-.8828125.8464355Zm-2.2871094-12.1896973c-.3242188,0-.6308594-.144043-.8457031-.9362793-.3066406-1.1164551-.3789062-1.404541-1.0449219-2.1606445l.1269531-.1081543c.4316406.1621094,1.1875.4501953,1.7089844.9543457.7207031.7021484.7578125,1.4042969.7578125,1.4943848,0,.5041504-.34375.7563477-.703125.7563477Zm6.3925781,8.5344238c-.5039062,0-.5957031-.3061523-.8652344-1.0981445-.5214844-1.5844727-1.2421875-2.4128418-2.2871094-3.4211426l.0917969-.144043c1.2050781.630127,2.1425781,1.1704102,2.6992188,1.746582.5585938.5581055,1.0800781,1.3503418,1.0800781,2.1066895,0,.2700195-.1074219.8100586-.71875.8100586Z"/>
      <path class="cls-1" d="m146.359375,11.0554199c-.8828125,2.5927734-1.296875,3.4929199-2.2871094,4.753418l-.1445312-.0541992c.6835938-1.6203613,1.3867188-4.4111328,1.3867188-5.3835449,0-.1621094-.0371094-.4140625-.0722656-.5761719l1.4414062.5581055c.125.0539551.1972656.1262207.1972656.2341309,0,.2341309-.2167969.3242188-.5214844.4682617Zm4.0507812-7.1481934c-.9550781,1.4404297-3.0800781,3.9250488-3.2050781,4.0690918.2519531-.0180664,2.0351562-.144043,2.484375-.1799316-.2871094-.8464355-.5214844-1.1884766-.6660156-1.3864746l.0722656-.0900879c.3964844.2160645,1.9980469,1.0622559,1.9980469,2.088623,0,.3781738-.234375.7202148-.5390625.7202148-.4511719,0-.5585938-.3601074-.7929688-1.1162109l-1.53125.3601074c-.0351562,1.7824707-.0175781,2.6286621-.0175781,3.1149902.0175781.6479492.1074219,4.0690918.1074219,4.2490234,0,.6843262-.4140625.8642578-.7011719.8642578-.3964844,0-.3964844-.2880859-.3964844-.4140625,0-.6481934.0898438-3.4389648.0898438-4.0151367s.0546875-3.0788574.0722656-3.6010742c-1.0976562.2519531-1.8007812.3781738-2.359375.4321289-.1621094.2880859-.2324219.3781738-.3945312.3781738-.0722656,0-.2167969-.0539551-.2519531-.2160645l-.3066406-1.3864746c.8105469.2880859,1.8730469.2521973,2.8261719.2160645,1.1171875-1.6025391,2.8808594-4.8254395,2.7011719-5.5275879l1.3867188.8461914c.1445312.0900879.1621094.1799316.1621094.2700195,0,.197998-.1796875.2521973-.7382812.3242188Zm-2.1074219-2.2145996c-.8632812,1.2241211-1.1523438,1.6203613-1.6738281,2.2866211.3769531.2880859.7558594.5761719.7558594,1.0803223,0,.3601074-.2167969.7380371-.5585938.7380371s-.5039062-.2519531-.9179688-1.0622559c-.3417969-.6481934-.5214844-.972168-1.1875-1.458252l.0351562-.0722656c.2519531.0361328.7753906.1081543,1.6738281.6484375.1621094-.4143066.9550781-2.3227539.9550781-3.151123,0-.1259766-.0351562-.3239746-.0546875-.4499512l1.53125.7741699c.1074219.0539551.1796875.1259766.1796875.2519531,0,.1801758-.125.2521973-.7382812.4143066Zm1.9628906,11.0913086c-.4140625,0-.4863281-.2163086-.7207031-.9904785-.0351562-.1259766-.2871094-.9001465-.6835938-1.4404297l.0351562-.0720215c1.0273438.5761719,1.9101562,1.1164551,1.9101562,1.8725586,0,.3061523-.1816406.6303711-.5410156.6303711Zm3.2597656-1.8725586c-1.3144531,2.71875-2.4667969,3.9431152-4.015625,4.6633301l-.0175781-.1262207c1.4570312-1.170166,2.6640625-3.3308105,3.1152344-5.095459h-.9921875c-.2871094,0-.7011719.0361328-.9902344.0900879l-.1796875-.5942383c.3242188.0361328,1.0097656.0720215,1.2792969.0720215h.8632812l.1992188-.2880859c.0527344-.0900879.125-.144043.1972656-.144043.0898438,0,.1621094.0720215.2167969.1081543l.8105469.684082c.0898438.0720215.125.144043.125.2341309,0,.3239746-.359375.3781738-.6113281.3962402Zm5.9589844,4.807373c-1.890625-1.5305176-3.1152344-3.0788574-3.8535156-5.4377441,0,.3061523.0175781.6481934.0175781.9543457.0195312.5761719.0917969,3.5830078.0917969,3.6369629,0,.7563477-.3242188,1.0444336-.5234375,1.1884766-.234375.197998-.5761719.4321289-1.0976562.5222168-.2167969-.486084-.3789062-.8823242-1.8359375-1.4943848l.0351562-.0722656c.3417969.0180664,1.5117188.0541992,1.6738281.0541992.5585938,0,.7753906,0,.7753906-.3781738v-5.7617188c0-.6481934,0-.7202148-.0175781-.8642578h-1.8203125c0,.197998.0195312.5761719-.6113281.5761719-.4316406,0-.4492188-.197998-.4492188-.3601074,0-.4140625.0527344-2.2866211.0527344-2.6647949,0-.4680176-.0351562-2.4846191-.0351562-2.8989258,0-.2700195-.0175781-.7021484-.0722656-1.0083008l1.2421875.6481934h1.421875c.1269531-.5041504.1796875-1.1523438.1796875-1.4763184,0-.2702637-.0351562-.5942383-.1074219-.8103027l1.5839844.4501953c.1621094.0539551.234375.1621094.234375.2880859,0,.3061523-.3242188.342041-.7207031.3779297-.125.1801758-.71875,1.0083008-.8457031,1.1704102h2.6289062l.5039062-.5400391c.0722656-.0720215.1992188-.1621094.3066406-.1621094s.1972656.0539551.2695312.1079102l.7382812.5402832c.109375.0720215.1796875.1799316.1796875.3061523,0,.2160645-.2324219.342041-.6289062.5581055,0,.1799316.0351562,2.2866211.0351562,2.3405762.0175781.3781738.0898438,2.1247559.0898438,2.3588867,0,.5400391-.3242188.7382812-.7011719.7382812-.3242188,0-.4140625-.1621094-.3417969-.5402832h-2.4863281l.3066406.0720215c.1992188.0539551.3242188.1621094.3242188.2519531,0,.1801758-.2167969.3422852-.4140625.4501953,0,.1259766.2695312,1.3505859,1.0078125,2.6108398.3066406-.2519531,1.2792969-1.3503418,1.5488281-2.2507324l1.1347656.7741699c.1445312.0900879.1796875.1801758.1796875.3242188,0,.2341309-.2871094.2519531-.7011719.2160645-.6855469.3781738-1.3867188.7382812-2.0722656,1.0803223.1445312.2519531.4511719.7382812,1.0273438,1.2783203.9902344.9362793,2.0527344,1.4404297,3.4746094,1.8005371v.0720215c-1.2597656.1801758-1.53125.6303711-1.7285156.9724121Zm-1.5839844-12.9279785h-4.9707031v2.232666h4.9707031v-2.232666Zm0,2.6647949h-4.9707031v2.1787109h4.9707031v-2.1787109Z"/>
      <path class="cls-1" d="m171.4882812,8.4985352c0,.7021484-.5761719,1.2424316-1.2421875,1.2424316-.6835938,0-1.2421875-.5581055-1.2421875-1.2424316,0-.6662598.5410156-1.2424316,1.2421875-1.2424316.6835938,0,1.2421875.5581055,1.2421875,1.2424316Z"/>
      <path class="cls-1" d="m195.9882812,3.9973145h-8.5703125c-.6308594,1.3681641-1.0625,2.0524902-1.3691406,2.5385742l.2714844.2160645h5.2382812l.5058594-.6481934c.0703125-.1079102.1425781-.1799316.2148438-.1799316s.1796875.0900879.2519531.1618652l.8105469.7023926c.1269531.1079102.2167969.1618652.2167969.2880859,0,.197998-.5234375.4499512-.8105469.6120605-.0371094,1.1704102.1445312,7.1662598.1445312,7.4902344,0,.5041504-.0546875,1.1704102-1.7480469,1.5844727-.0527344-.3959961-.125-.6481934-.3046875-.7741699-.4140625-.3061523-1.0097656-.6481934-1.296875-.7922363l.0546875-.144043c.71875.0900879,1.1328125.144043,1.6738281.144043.5761719,0,.6113281-.1079102.6113281-.6662598,0-.5761719-.0351562-1.5305176-.0351562-2.1245117h-5.7988281c0,.5400391.0195312,2.916748.0195312,3.4030762,0,.2158203,0,.4321289-.1992188.5939941-.1796875.144043-.4492188.197998-.5761719.197998-.2695312,0-.4140625-.1259766-.4140625-.3959961,0-.2519531.109375-1.3503418.109375-1.5664062.1074219-2.3947754.0898438-2.7729492.1074219-6.7519531-1.2070312,1.6203613-3.2226562,3.6010742-5.078125,4.7172852l-.0527344-.144043c1.2421875-.9902344,2.84375-3.0249023,3.8164062-4.3212891,1.2421875-1.6564941,1.8730469-2.9348145,2.4492188-4.1411133h-3.0429688c-.6484375,0-1.6386719.0717773-2.3242188.197998l-.4316406-.7741699c1.3515625.1079102,2.6660156.144043,3.0078125.144043h2.9882812c.9550781-2.0708008.9550781-2.7548828.9355469-3.4211426l1.6035156.6843262c.1445312.0717773.3066406.144043.3066406.3059082,0,.144043-.0898438.2160645-.1992188.2702637-.125.0539551-.2148438.0717773-.6835938.2158203-.2167969.5761719-.3964844,1.0444336-.7753906,1.9448242h5.9960938l.7382812-.8464355c.1269531-.144043.1992188-.2341309.2890625-.2341309s.2695312.144043.3417969.1982422l1.0976562.8461914c.0898438.0720215.1796875.1621094.1796875.2700195,0,.1621094-.1601562.1982422-.2695312.1982422Zm-4.140625,3.1867676h-5.8164062v2.1967773h5.8164062v-2.1967773Zm0,2.6289062h-5.8164062v2.1606445h5.8164062v-2.1606445Z"/>
      <path class="cls-1" d="m201.0976562,6.6079102c-.6679688.630127-.9902344.9182129-1.3144531,1.2424316-.0546875.0720215-.2167969.4501953-.2519531.5222168-.0195312.0900879-.1269531.1079102-.1621094.1079102-.0917969,0-.1445312-.0358887-.2714844-.2341309l-.7910156-1.3322754c.4492188.0539551.71875.0358887,1.5292969-.3781738.7929688-.4140625,1.9804688-1.1704102,2.7558594-1.6203613l.0527344.0720215c-.2871094.4140625-.9902344,1.0803223-1.546875,1.6203613Zm12.7109375,4.3034668h-6.5722656c1.65625,1.9804688,4.6640625,3.4929199,6.6445312,3.6010742v.1079102c-.5214844.197998-1.0976562.6481934-1.3691406,1.0803223-2.953125-1.1342773-5.2382812-4.0871582-5.5273438-4.7893066h-.2167969c-.0351562,2.862793-.0351562,3.1867676-.0175781,4.0510254,0,.1801758.0546875.9904785.0546875,1.1523438,0,.4501953-.2695312.6481934-.7734375.6481934-.0917969,0-.3964844,0-.3964844-.3601074,0-.1079102.0722656-.6120605.0722656-.7202148.0898438-2.0166016.125-3.9431152.125-4.3391113-2.015625,2.5385742-5.4199219,4.2670898-6.8964844,4.6452637l-.0527344-.1259766c2.5195312-1.3503418,5.5273438-4.1594238,6.1757812-4.951416h-3.6738281c-.6484375,0-1.6386719.0717773-2.3222656.197998l-.4316406-.7741699c1.3496094.1079102,2.6640625.144043,3.0058594.144043h4.1777344c-.0371094-.5942383-.0371094-.8823242-.234375-1.7285156l1.3867188.3598633c.234375.0541992.2871094.0722656.2871094.2341309,0,.144043-.0527344.1801758-.4667969.4143066,0,.144043-.0195312.6120605-.0195312.7202148h5.0957031l.5957031-.7924805c.0898438-.1079102.1796875-.2158203.2871094-.2158203s.234375.1259766.3242188.197998l.8457031.7561035c.1269531.1081543.1621094.1982422.1621094.2880859,0,.1621094-.1425781.1982422-.2695312.1982422Zm-13.0898438-6.4101562c-.3417969,0-.4316406-.2158203-.6835938-.8642578-.1992188-.5039062-.6132812-1.4943848-1.0800781-1.9265137l.0527344-.0900879c.8457031.3781738,2.3417969,1.0625,2.3417969,2.1066895,0,.4501953-.3066406.7741699-.6308594.7741699Zm8.6777344-1.2783203c-.0527344.0361328-.2871094.2341309-.3417969.2700195l.0371094,2.3769531.0722656,2.2685547c0,.2160645,0,.8461914-.6679688.8461914-.4140625,0-.3945312-.3239746-.3945312-.5041504h-3.78125c.0351562.7382812-.7382812.8283691-.7753906.8283691-.234375,0-.2871094-.1982422-.2871094-.3781738,0-.2341309.0527344-1.2243652.0527344-1.4223633.0371094-.8464355.0917969-2.0527344.0917969-3.1330566,0-1.3503418-.109375-2.034668-.1445312-2.3945312l1.1347656.630127h.5039062c.1621094-.4682617.5390625-1.6745605.5390625-2.0705566,0-.1982422-.0175781-.3422852-.0527344-.5402832l1.6191406.5761719c.1269531.0539551.1992188.144043.1992188.2521973,0,.144043-.109375.197998-.1621094.2158203-.0722656.0361328-.3964844.1262207-.46875.144043-.1972656.1801758-.4863281.4863281-.7558594.7924805-.4511719.5039062-.5039062.5761719-.5585938.630127h2.6464844l.3613281-.3962402c.1074219-.1259766.1796875-.1621094.2695312-.1621094s.1445312.0361328.2695312.144043l.6484375.5402832c.1445312.1259766.1445312.1799316.1445312.2341309,0,.1079102-.0546875.144043-.1992188.2519531Zm-1.2949219-.1799316h-3.78125v2.1965332h3.78125v-2.1965332Zm0,2.6286621h-3.78125v2.376709h3.78125v-2.376709Zm4.6992188,2.4848633c-.3066406,0-.3964844-.1259766-1.0449219-.9543457-.9550781-1.2243652-1.3691406-1.4943848-1.8183594-1.7824707v-.0541992c.4863281.1081543,1.9257812.4321289,2.7363281,1.0083008.109375.0900879.6855469.5043945.6855469,1.0083008,0,.3603516-.2167969.7744141-.5585938.7744141Zm.4316406-5.1674805c-.1269531,0-.1972656-.0180664-.46875-.0900879-.4316406.3781738-2.1054688,1.2963867-2.4296875,1.3864746l-.0898438-.0900879c.7011719-.5402832,1.7089844-2.2145996,1.8359375-2.6828613l1.3867188,1.0083008c.0546875.0361328.0722656.144043.0722656.197998,0,.197998-.1445312.2702637-.3066406.2702637Z"/>
      <path class="cls-1" d="m223.9589844,2.3405762v4.3212891c0,3.4211426.0175781,3.9072266.0898438,5.7617188.0175781.2163086.0175781.3781738.0175781.3962402,0,.1799316,0,.3239746-.2890625.486084-.1425781.0720215-.2871094.0900879-.3769531.0900879-.3613281,0-.3964844-.2160645-.3964844-.3781738s.0175781-.9182129.0175781-1.0622559h-4.6992188v1.8005371c0,.4321289-.5039062.5581055-.7207031.5581055-.3769531,0-.3769531-.3061523-.3769531-.4321289,0-.3959961.1074219-2.3227539.125-2.7548828.0371094-1.7644043.0898438-3.9431152.0898438-5.6894531,0-2.8808594-.0898438-3.583252-.2695312-4.6816406l1.4414062.7202148h4.3027344l.3066406-.3598633c.125-.144043.1796875-.2163086.2519531-.2163086s.1425781.0722656.2695312.1621094l.6660156.5041504c.0898438.0720215.2167969.1621094.2167969.2880859,0,.1262207-.0722656.2341309-.6660156.486084Zm-3.7089844-.4321289h-1.9277344v4.411377h1.9277344V1.9084473Zm0,4.8435059h-1.9277344v4.7714844h1.9277344v-4.7714844Zm2.7890625-4.8435059h-1.9257812v4.411377h1.9257812V1.9084473Zm0,4.8435059h-1.9257812v4.7714844h1.9257812v-4.7714844Zm9.2734375-4.0151367h-3.3671875c0,1.8725586.1269531,10.0649414.1269531,11.739502,0,.5581055,0,1.4223633-1.8730469,1.8544922-.46875-.9902344-1.6738281-1.4042969-2.25-1.4943848v-.144043c.2871094,0,1.5664062.0539551,1.8183594.0539551,1.2050781,0,1.2050781-.0180664,1.2421875-2.1064453.0546875-2.7548828,0-7.1481934,0-9.9030762h-.8828125c-.6308594,0-1.6210938.0900879-2.3046875.2160645l-.4316406-.7741699c1.3496094.1079102,2.6640625.1259766,2.9882812.1259766h2.8808594l.6484375-.8103027c.1445312-.1799316.1972656-.2160645.2695312-.2160645.109375,0,.3242188.1621094.3242188.1801758l.9003906.8103027c.0898438.0898438.1796875.1618652.1796875.2880859,0,.1618652-.1621094.1799316-.2695312.1799316Z"/>
      <path class="cls-1" d="m236.359375,11.0554199c-.8828125,2.5927734-1.296875,3.4929199-2.2871094,4.753418l-.1445312-.0541992c.6835938-1.6203613,1.3867188-4.4111328,1.3867188-5.3835449,0-.1621094-.0371094-.4140625-.0722656-.5761719l1.4414062.5581055c.125.0539551.1972656.1262207.1972656.2341309,0,.2341309-.2167969.3242188-.5214844.4682617Zm4.0507812-7.1481934c-.9550781,1.4404297-3.0800781,3.9250488-3.2050781,4.0690918.2519531-.0180664,2.0351562-.144043,2.484375-.1799316-.2871094-.8464355-.5214844-1.1884766-.6660156-1.3864746l.0722656-.0900879c.3964844.2160645,1.9980469,1.0622559,1.9980469,2.088623,0,.3781738-.234375.7202148-.5390625.7202148-.4511719,0-.5585938-.3601074-.7929688-1.1162109l-1.53125.3601074c-.0351562,1.7824707-.0175781,2.6286621-.0175781,3.1149902.0175781.6479492.1074219,4.0690918.1074219,4.2490234,0,.6843262-.4140625.8642578-.7011719.8642578-.3964844,0-.3964844-.2880859-.3964844-.4140625,0-.6481934.0898438-3.4389648.0898438-4.0151367s.0546875-3.0788574.0722656-3.6010742c-1.0976562.2519531-1.8007812.3781738-2.359375.4321289-.1621094.2880859-.2324219.3781738-.3945312.3781738-.0722656,0-.2167969-.0539551-.2519531-.2160645l-.3066406-1.3864746c.8105469.2880859,1.8730469.2521973,2.8261719.2160645,1.1171875-1.6025391,2.8808594-4.8254395,2.7011719-5.5275879l1.3867188.8461914c.1445312.0900879.1621094.1799316.1621094.2700195,0,.197998-.1796875.2521973-.7382812.3242188Zm-2.1074219-2.2145996c-.8632812,1.2241211-1.1523438,1.6203613-1.6738281,2.2866211.3769531.2880859.7558594.5761719.7558594,1.0803223,0,.3601074-.2167969.7380371-.5585938.7380371s-.5039062-.2519531-.9179688-1.0622559c-.3417969-.6481934-.5214844-.972168-1.1875-1.458252l.0351562-.0722656c.2519531.0361328.7753906.1081543,1.6738281.6484375.1621094-.4143066.9550781-2.3227539.9550781-3.151123,0-.1259766-.0351562-.3239746-.0546875-.4499512l1.53125.7741699c.1074219.0539551.1796875.1259766.1796875.2519531,0,.1801758-.125.2521973-.7382812.4143066Zm1.9628906,11.0913086c-.4140625,0-.4863281-.2163086-.7207031-.9904785-.0351562-.1259766-.2871094-.9001465-.6835938-1.4404297l.0351562-.0720215c1.0273438.5761719,1.9101562,1.1164551,1.9101562,1.8725586,0,.3061523-.1816406.6303711-.5410156.6303711Zm3.2597656-1.8725586c-1.3144531,2.71875-2.4667969,3.9431152-4.015625,4.6633301l-.0175781-.1262207c1.4570312-1.170166,2.6640625-3.3308105,3.1152344-5.095459h-.9921875c-.2871094,0-.7011719.0361328-.9902344.0900879l-.1796875-.5942383c.3242188.0361328,1.0097656.0720215,1.2792969.0720215h.8632812l.1992188-.2880859c.0527344-.0900879.125-.144043.1972656-.144043.0898438,0,.1621094.0720215.2167969.1081543l.8105469.684082c.0898438.0720215.125.144043.125.2341309,0,.3239746-.359375.3781738-.6113281.3962402Zm5.9589844,4.807373c-1.890625-1.5305176-3.1152344-3.0788574-3.8535156-5.4377441,0,.3061523.0175781.6481934.0175781.9543457.0195312.5761719.0917969,3.5830078.0917969,3.6369629,0,.7563477-.3242188,1.0444336-.5234375,1.1884766-.234375.197998-.5761719.4321289-1.0976562.5222168-.2167969-.486084-.3789062-.8823242-1.8359375-1.4943848l.0351562-.0722656c.3417969.0180664,1.5117188.0541992,1.6738281.0541992.5585938,0,.7753906,0,.7753906-.3781738v-5.7617188c0-.6481934,0-.7202148-.0175781-.8642578h-1.8203125c0,.197998.0195312.5761719-.6113281.5761719-.4316406,0-.4492188-.197998-.4492188-.3601074,0-.4140625.0527344-2.2866211.0527344-2.6647949,0-.4680176-.0351562-2.4846191-.0351562-2.8989258,0-.2700195-.0175781-.7021484-.0722656-1.0083008l1.2421875.6481934h1.421875c.1269531-.5041504.1796875-1.1523438.1796875-1.4763184,0-.2702637-.0351562-.5942383-.1074219-.8103027l1.5839844.4501953c.1621094.0539551.234375.1621094.234375.2880859,0,.3061523-.3242188.342041-.7207031.3779297-.125.1801758-.71875,1.0083008-.8457031,1.1704102h2.6289062l.5039062-.5400391c.0722656-.0720215.1992188-.1621094.3066406-.1621094s.1972656.0539551.2695312.1079102l.7382812.5402832c.109375.0720215.1796875.1799316.1796875.3061523,0,.2160645-.2324219.342041-.6289062.5581055,0,.1799316.0351562,2.2866211.0351562,2.3405762.0175781.3781738.0898438,2.1247559.0898438,2.3588867,0,.5400391-.3242188.7382812-.7011719.7382812-.3242188,0-.4140625-.1621094-.3417969-.5402832h-2.4863281l.3066406.0720215c.1992188.0539551.3242188.1621094.3242188.2519531,0,.1801758-.2167969.3422852-.4140625.4501953,0,.1259766.2695312,1.3505859,1.0078125,2.6108398.3066406-.2519531,1.2792969-1.3503418,1.5488281-2.2507324l1.1347656.7741699c.1445312.0900879.1796875.1801758.1796875.3242188,0,.2341309-.2871094.2519531-.7011719.2160645-.6855469.3781738-1.3867188.7382812-2.0722656,1.0803223.1445312.2519531.4511719.7382812,1.0273438,1.2783203.9902344.9362793,2.0527344,1.4404297,3.4746094,1.8005371v.0720215c-1.2597656.1801758-1.53125.6303711-1.7285156.9724121Zm-1.5839844-12.9279785h-4.9707031v2.232666h4.9707031v-2.232666Zm0,2.6647949h-4.9707031v2.1787109h4.9707031v-2.1787109Z"/>
      <path class="cls-1" d="m23.9980469,39.6286621c-.7910156-.2880859-2.6113281-1.5483398-2.6113281-1.5483398-1.65625-.9904785-2.71875-2.3769531-3.7441406-3.8532715.0175781.8283691.0351562,4.4294434.0722656,5.1674805,0,.0900879.0175781.486084.0175781.5583496,0,.3059082-.0351562.4680176-.234375.6120605-.234375.1621094-.5039062.2341309-.6113281.2341309-.3066406,0-.3613281-.3242188-.3613281-.5041504,0-.144043.0195312-.7741699.0371094-.9003906,0-.7202148.0722656-3.8710938.0898438-4.5192871-2.4316406,2.6647949-5.6367188,4.3933105-7.5800781,4.8974609l-.0722656-.1259766c2.1425781-.9003906,5.5449219-3.7270508,6.9140625-5.4377441h-2.7734375c0,.4143066-.0351562.5041504-.0898438.5761719-.1621094.2160645-.4140625.3242188-.6835938.3242188-.3066406,0-.3242188-.197998-.3242188-.3061523,0-.0539551.0175781-.2521973.0351562-.3239746.0722656-.8642578.109375-2.5029297.109375-3.3129883,0-1.692627-.0371094-1.9086914-.234375-2.953125l1.3320312.6123047h3.4023438c0-.2700195,0-.7563477-.0175781-1.8364258h-4.84375c-.6289062,0-1.6191406.0717773-2.3046875.197998l-.4316406-.7741699c1.3496094.1079102,2.6640625.144043,2.9882812.144043h4.5742188c-.0371094-.9904785-.0898438-1.7827148-.3789062-2.3227539l1.6933594.4321289c.1074219.0358887.2695312.0720215.2695312.197998,0,.1081543-.0527344.1799316-.2148438.3061523-.1445312.1259766-.2714844.2160645-.3613281.2880859,0,.0720215-.0175781.7380371-.0175781,1.0983887h5.3652344l.59375-.8642578c.0898438-.1262207.1621094-.2163086.2519531-.2163086.1269531,0,.2519531.1081543.34375.1801758l.9707031.8642578c.0898438.0720215.1816406.1621094.1816406.2700195,0,.1621094-.1621094.1982422-.2714844.1982422h-7.4355469v1.8364258h3.3125l.59375-.4682617c.0917969-.0717773.1269531-.0898438.1992188-.0898438.0527344,0,.125.0358887.1796875.0720215l.7734375.5761719c.109375.0900879.1621094.1259766.1621094.2341309,0,.0898438-.0527344.1618652-.1621094.2338867q-.2519531.1621094-.4316406.3061523c0,1.3684082,0,1.4223633.1445312,4.2133789.0175781.1799316.0175781.3598633.0175781.3779297,0,.3061523-.0546875.4321289-.3066406.5581055-.1621094.0900879-.3417969.1262207-.4316406.1262207-.359375,0-.359375-.2521973-.3417969-.7563477h-3.3671875c1.3144531,1.4226074,4.1054688,3.78125,7.796875,3.8891602v.1621094c-1.0078125.2521973-1.2246094.5402832-1.7832031,1.3684082Zm-7.3105469-10.3710938h-3.546875v1.9445801h3.546875v-1.9445801Zm0,2.376709h-3.546875v2.1425781h3.546875v-2.1425781Zm4.6640625-2.376709h-3.7089844v1.9445801h3.7089844v-1.9445801Zm0,2.376709h-3.7089844v2.1425781h3.7089844v-2.1425781Z"/>
      <path class="cls-1" d="m27.7207031,39.574707c-.3417969,0-.6484375-.3061523-.6484375-.6123047,0-.3781738.3066406-.630127.7382812-.9902344.3769531-.3239746,1.0253906-.8823242,1.4042969-2.034668h.0898438c.0175781.1621094.0546875.3781738.0546875.6123047,0,1.0083008-.5234375,3.0249023-1.6386719,3.0249023Zm13.828125-10.4611816c-.2519531.144043-.2714844.1621094-.3964844.2700195-.0175781.3242188-.0175781.6662598.0175781,1.8005371.0175781.2702637.1269531,2.3947754.1269531,2.4848633,0,.5400391-.4511719.6662598-.7578125.6662598-.4140625,0-.4316406-.2521973-.4140625-.6303711h-8.4433594c-.6308594,0-1.6210938.0720215-2.3046875.2160645l-.4316406-.7741699c1.3496094.1079102,2.6640625.1259766,2.9882812.1259766h8.1914062v-1.890625h-8.1914062c-.6308594,0-1.6386719.0722656-2.3222656.1982422l-.4140625-.7744141c1.3496094.1081543,2.6464844.144043,2.9882812.144043h7.9394531v-1.8544922h-10.4785156c-.9726562.8283691-1.7460938,1.2963867-2.2675781,1.6025391l-.0722656-.1259766c2.6992188-2.2866211,4.5371094-4.9516602,4.6816406-6.4460449l1.3671875.6662598c.1796875.0900879.2695312.1621094.2695312.2880859,0,.2160645-.1972656.2700195-.7011719.3601074-.1621094.197998-.3789062.4680176-.46875.5942383h4.4648438l.5410156-.5041504c.1972656-.1801758.2519531-.1982422.3066406-.1982422.1074219,0,.1621094.0541992.359375.1982422l.7558594.5942383c.0722656.0717773.1269531.1259766.1269531.2338867,0,.144043-.1269531.2160645-.1796875.2160645-.1445312.0539551-.7929688.1801758-.9179688.2160645-.34375.2880859-1.8730469,1.6206055-2.1972656,1.8725586h4.1054688l.6113281-.5041504c.1992188-.1618652.2167969-.1799316.3066406-.1799316.1074219,0,.2519531.1259766.2695312.1621094l.5039062.4321289c.1621094.144043.2167969.197998.2167969.2880859,0,.1079102-.0546875.1799316-.1796875.2519531Zm-9.4355469-2.6467285c-.9550781,1.170166-1.421875,1.6745605-1.9804688,2.1965332h5.2207031c.1816406-.2700195.9550781-1.5124512,1.0449219-1.6564941.1269531-.2160645.1621094-.2880859.2890625-.5400391h-4.5742188Zm6.7519531,13.6120605c-.3066406.0539551-.5214844.0898438-.9902344.0898438-1.4394531.0361328-2.8632812.0361328-4.3027344.0361328-1.421875,0-1.9082031-.0720215-1.9082031-1.6384277,0-.2880859.0351562-1.548584.0351562-1.8005371,0-1.0983887-.0722656-1.6206055-.1796875-2.034668l1.421875.4140625c.2890625.0900879.3066406.1801758.3066406.2341309,0,.144043-.1796875.2521973-.234375.2700195-.1972656.1262207-.2167969.1262207-.359375.2702637v2.71875c0,.486084.1972656.5581055.3945312.6120605.1621094.0361328,2.4316406.0539551,2.7910156.0539551,2.1425781,0,2.3769531-.2880859,2.5761719-.8461914.1074219-.2880859.3417969-1.1523438.4492188-1.8725586h.1445312c.0722656.3061523.2871094,1.6386719.3964844,1.890625.0527344.1801758.0898438.197998.3945312.4140625.109375.0900879.1816406.1801758.1816406.3061523,0,0-.0195312.684082-1.1171875.8823242Zm-2.5566406-2.9709473c-.3789062,0-.4316406-.144043-.7382812-.8283691-.4863281-1.0622559-.7929688-1.3322754-1.0800781-1.5844727l.0351562-.0898438c1.4765625.2519531,2.3769531,1.2243652,2.3769531,1.8544922,0,.2341309-.0898438.6481934-.59375.6481934Zm6.4101562,1.4763184c-.4511719,0-.5410156-.2158203-.8105469-.7919922-.46875-1.0625-.7011719-1.6025391-1.53125-2.1967773l.0546875-.1079102c2.0898438.5939941,2.8632812,1.7824707,2.8632812,2.3945312,0,.4321289-.2167969.7021484-.5761719.7021484Z"/>
      <path class="cls-1" d="m59.9980469,39.6286621c-.7910156-.2880859-2.6113281-1.5483398-2.6113281-1.5483398-1.65625-.9904785-2.71875-2.3769531-3.7441406-3.8532715.0175781.8283691.0351562,4.4294434.0722656,5.1674805,0,.0900879.0175781.486084.0175781.5583496,0,.3059082-.0351562.4680176-.234375.6120605-.234375.1621094-.5039062.2341309-.6113281.2341309-.3066406,0-.3613281-.3242188-.3613281-.5041504,0-.144043.0195312-.7741699.0371094-.9003906,0-.7202148.0722656-3.8710938.0898438-4.5192871-2.4316406,2.6647949-5.6367188,4.3933105-7.5800781,4.8974609l-.0722656-.1259766c2.1425781-.9003906,5.5449219-3.7270508,6.9140625-5.4377441h-2.7734375c0,.4143066-.0351562.5041504-.0898438.5761719-.1621094.2160645-.4140625.3242188-.6835938.3242188-.3066406,0-.3242188-.197998-.3242188-.3061523,0-.0539551.0175781-.2521973.0351562-.3239746.0722656-.8642578.109375-2.5029297.109375-3.3129883,0-1.692627-.0371094-1.9086914-.234375-2.953125l1.3320312.6123047h3.4023438c0-.2700195,0-.7563477-.0175781-1.8364258h-4.84375c-.6289062,0-1.6191406.0717773-2.3046875.197998l-.4316406-.7741699c1.3496094.1079102,2.6640625.144043,2.9882812.144043h4.5742188c-.0371094-.9904785-.0898438-1.7827148-.3789062-2.3227539l1.6933594.4321289c.1074219.0358887.2695312.0720215.2695312.197998,0,.1081543-.0527344.1799316-.2148438.3061523-.1445312.1259766-.2714844.2160645-.3613281.2880859,0,.0720215-.0175781.7380371-.0175781,1.0983887h5.3652344l.59375-.8642578c.0898438-.1262207.1621094-.2163086.2519531-.2163086.1269531,0,.2519531.1081543.34375.1801758l.9707031.8642578c.0898438.0720215.1816406.1621094.1816406.2700195,0,.1621094-.1621094.1982422-.2714844.1982422h-7.4355469v1.8364258h3.3125l.59375-.4682617c.0917969-.0717773.1269531-.0898438.1992188-.0898438.0527344,0,.125.0358887.1796875.0720215l.7734375.5761719c.109375.0900879.1621094.1259766.1621094.2341309,0,.0898438-.0527344.1618652-.1621094.2338867q-.2519531.1621094-.4316406.3061523c0,1.3684082,0,1.4223633.1445312,4.2133789.0175781.1799316.0175781.3598633.0175781.3779297,0,.3061523-.0546875.4321289-.3066406.5581055-.1621094.0900879-.3417969.1262207-.4316406.1262207-.359375,0-.359375-.2521973-.3417969-.7563477h-3.3671875c1.3144531,1.4226074,4.1054688,3.78125,7.796875,3.8891602v.1621094c-1.0078125.2521973-1.2246094.5402832-1.7832031,1.3684082Zm-7.3105469-10.3710938h-3.546875v1.9445801h3.546875v-1.9445801Zm0,2.376709h-3.546875v2.1425781h3.546875v-2.1425781Zm4.6640625-2.376709h-3.7089844v1.9445801h3.7089844v-1.9445801Zm0,2.376709h-3.7089844v2.1425781h3.7089844v-2.1425781Z"/>
      <path class="cls-1" d="m62.9648438,28.5734863c1.0253906.0898438,1.9804688.1259766,2.9882812.144043-.0546875-2.7729492-.1269531-3.1870117-.3789062-4.465332l1.5136719.5400391c.1425781.0361328.2519531.0900879.2519531.2160645,0,.1799316-.1992188.2880859-.5410156.4501953,0,.3239746-.0175781,2.7546387-.0175781,3.2590332h1.0449219l.2695312-.4143066c.0175781-.0178223.1445312-.2160645.2695312-.2160645.1074219,0,.3066406.1621094.3417969.1982422l.4511719.3959961c.1074219.1079102.1796875.1621094.1796875.2700195,0,.1621094-.1621094.1982422-.2695312.1982422h-2.2871094v1.5844727c1.7109375.7202148,2.0703125,1.2241211,2.0703125,1.7463379,0,.4321289-.3242188.5222168-.5039062.5222168-.3066406,0-.46875-.1801758-.6835938-.684082-.34375-.7563477-.4511719-1.0263672-.8828125-1.3864746,0,.7021484.0351562,3.7990723.0351562,4.4472656,0,.7382812.0722656,3.979248.0722656,4.6452637,0,.4682617-.3964844.7023926-.7734375.7023926-.4140625,0-.4140625-.342041-.4140625-.5402832,0-.2338867.234375-4.5192871.234375-4.7714844,0-.5939941.0175781-3.1867676.0175781-3.7270508-.6484375,1.6386719-1.3867188,3.1689453-3.3671875,5.0415039l-.1074219-.1079102c1.5664062-2.0708008,2.8085938-5.2216797,3.3847656-7.472168-1.0273438,0-1.9277344.0898438-2.4667969.197998l-.4316406-.7741699Zm4.6621094,11.9914551c.5585938-.2160645,3.3671875-1.6564941,3.9257812-2.9709473l1.1347656.8461914c.0722656.0541992.1621094.144043.1621094.2521973,0,.2160645-.3066406.2160645-.4335938.2160645-.2324219,0-.2695312,0-.4316406.0180664-1.421875.8461914-2.4492188,1.3684082-4.3398438,1.7285156l-.0175781-.0900879Zm6.9511719-13.630127c0-1.0441895-.0371094-1.5302734-.1816406-2.4667969l1.296875.3781738c.1269531.0361328.3066406.0900879.3066406.2521973,0,.1259766-.0371094.1621094-.5585938.5761719,0,.0898438-.0175781,1.0803223-.0175781,1.2602539h1.5839844l.3417969-.5219727c.0722656-.1081543.1621094-.2341309.2714844-.2341309.1074219,0,.2519531.144043.3242188.2160645l.5566406.5041504c.1269531.1079102.1796875.197998.1796875.2700195,0,.1799316-.1796875.197998-.2871094.197998h-2.9707031c0,.3422852-.0175781,1.9445801,0,2.2148438l2.1425781-.0180664.46875-.5041504c.1796875-.197998.1972656-.2160645.2695312-.2160645.0898438,0,.1796875.0720215.3417969.197998l.59375.5041504c.0371094.0180664.1621094.144043.1621094.2700195,0,.1621094-.125.1801758-.2695312.1801758h-5.0957031v1.6384277h2.1972656l.3964844-.4501953c.1425781-.1799316.2148438-.2341309.3046875-.2341309.109375,0,.1621094.0541992.2890625.1621094l.6660156.5402832c.0898438.0539551.125.1259766.125.1799316,0,.0900879-.5566406.5222168-.6289062.5942383,0,.7382812.1074219,4.0151367.1074219,4.6813965,0,.3781738-.2519531.5942383-.6835938.5942383-.3964844,0-.3613281-.3242188-.3417969-.4501953h-5.7617188c0,.3601074-.2890625.630127-.6679688.630127-.3222656,0-.3945312-.1799316-.3945312-.3601074,0-.1259766.0527344-.6481934.0527344-.7561035.0371094-.8461914.0546875-1.6206055.0546875-3.7451172,0-.9003906-.0175781-1.260498-.2167969-1.9807129l1.3339844.5942383h2.2324219v-1.6384277h-1.8554688c-.6308594,0-1.6386719.0898438-2.3222656.2160645l-.4140625-.7741699c.7207031.0539551,2.0878906.1079102,2.8984375.1259766,0-.4682617-.0175781-1.6564941-.0175781-2.1967773-.1074219.0180664-1.1523438.0541992-1.9628906.2160645l-.4316406-.7922363c1.2597656.1081543,2.1953125.1259766,2.3769531.1259766-.0371094-1.6384277-.0371094-1.8364258-.2167969-2.4306641l1.3691406.4140625c.1621094.0361328.2871094.0722656.2871094.2521973,0,.1081543-.46875.4140625-.59375.5041504.0175781.1259766,0,1.0983887,0,1.2783203h2.359375Zm-1.4765625,7.3103027v-2.1787109h-2.4140625v2.1787109h2.4140625Zm0,2.574707v-2.1425781h-2.4140625v2.1425781h2.4140625Zm-.8828125-9.4528809v2.1967773l2.3398438.0180664c-.0175781-.5043945.0195312-1.6567383.0195312-2.2148438h-2.359375Zm1.8183594,4.6994629v2.1787109h2.4316406v-2.1787109h-2.4316406Zm0,2.6108398v2.1425781h2.4316406v-2.1425781h-2.4316406Zm.9726562,3.3669434c1.2773438.2880859,3.7636719.8461914,3.7636719,1.9626465,0,.3239746-.2519531.6120605-.5957031.6120605-.3242188,0-.4667969-.1621094-.9355469-.7021484-.4492188-.5041504-1.6933594-1.5844727-2.3046875-1.746582l.0722656-.1259766Z"/>
      <path class="cls-1" d="m83.359375,35.0554199c-.8828125,2.5927734-1.296875,3.4929199-2.2871094,4.753418l-.1445312-.0541992c.6835938-1.6203613,1.3867188-4.4111328,1.3867188-5.3835449,0-.1621094-.0371094-.4140625-.0722656-.5761719l1.4414062.5581055c.125.0539551.1972656.1262207.1972656.2341309,0,.2341309-.2167969.3242188-.5214844.4682617Zm4.0507812-7.1481934c-.9550781,1.4404297-3.0800781,3.9250488-3.2050781,4.0690918.2519531-.0180664,2.0351562-.144043,2.484375-.1799316-.2871094-.8464355-.5214844-1.1884766-.6660156-1.3864746l.0722656-.0900879c.3964844.2160645,1.9980469,1.0622559,1.9980469,2.088623,0,.3781738-.234375.7202148-.5390625.7202148-.4511719,0-.5585938-.3601074-.7929688-1.1162109l-1.53125.3601074c-.0351562,1.7824707-.0175781,2.6286621-.0175781,3.1149902.0175781.6479492.1074219,4.0690918.1074219,4.2490234,0,.6843262-.4140625.8642578-.7011719.8642578-.3964844,0-.3964844-.2880859-.3964844-.4140625,0-.6481934.0898438-3.4389648.0898438-4.0151367s.0546875-3.0788574.0722656-3.6010742c-1.0976562.2519531-1.8007812.3781738-2.359375.4321289-.1621094.2880859-.2324219.3781738-.3945312.3781738-.0722656,0-.2167969-.0539551-.2519531-.2160645l-.3066406-1.3864746c.8105469.2880859,1.8730469.2521973,2.8261719.2160645,1.1171875-1.6025391,2.8808594-4.8254395,2.7011719-5.5275879l1.3867188.8461914c.1445312.0900879.1621094.1799316.1621094.2700195,0,.197998-.1796875.2521973-.7382812.3242188Zm-2.1074219-2.2145996c-.8632812,1.2241211-1.1523438,1.6203613-1.6738281,2.2866211.3769531.2880859.7558594.5761719.7558594,1.0803223,0,.3601074-.2167969.7380371-.5585938.7380371s-.5039062-.2519531-.9179688-1.0622559c-.3417969-.6481934-.5214844-.972168-1.1875-1.458252l.0351562-.0722656c.2519531.0361328.7753906.1081543,1.6738281.6484375.1621094-.4143066.9550781-2.3227539.9550781-3.151123,0-.1259766-.0351562-.3239746-.0546875-.4499512l1.53125.7741699c.1074219.0539551.1796875.1259766.1796875.2519531,0,.1801758-.125.2521973-.7382812.4143066Zm1.9628906,11.0913086c-.4140625,0-.4863281-.2163086-.7207031-.9904785-.0351562-.1259766-.2871094-.9001465-.6835938-1.4404297l.0351562-.0720215c1.0273438.5761719,1.9101562,1.1164551,1.9101562,1.8725586,0,.3061523-.1816406.6303711-.5410156.6303711Zm3.2597656-1.8725586c-1.3144531,2.71875-2.4667969,3.9431152-4.015625,4.6633301l-.0175781-.1262207c1.4570312-1.170166,2.6640625-3.3308105,3.1152344-5.095459h-.9921875c-.2871094,0-.7011719.0361328-.9902344.0900879l-.1796875-.5942383c.3242188.0361328,1.0097656.0720215,1.2792969.0720215h.8632812l.1992188-.2880859c.0527344-.0900879.125-.144043.1972656-.144043.0898438,0,.1621094.0720215.2167969.1081543l.8105469.684082c.0898438.0720215.125.144043.125.2341309,0,.3239746-.359375.3781738-.6113281.3962402Zm5.9589844,4.807373c-1.890625-1.5305176-3.1152344-3.0788574-3.8535156-5.4377441,0,.3061523.0175781.6481934.0175781.9543457.0195312.5761719.0917969,3.5830078.0917969,3.6369629,0,.7563477-.3242188,1.0444336-.5234375,1.1884766-.234375.197998-.5761719.4321289-1.0976562.5222168-.2167969-.486084-.3789062-.8823242-1.8359375-1.4943848l.0351562-.0722656c.3417969.0180664,1.5117188.0541992,1.6738281.0541992.5585938,0,.7753906,0,.7753906-.3781738v-5.7617188c0-.6481934,0-.7202148-.0175781-.8642578h-1.8203125c0,.197998.0195312.5761719-.6113281.5761719-.4316406,0-.4492188-.197998-.4492188-.3601074,0-.4140625.0527344-2.2866211.0527344-2.6647949,0-.4680176-.0351562-2.4846191-.0351562-2.8989258,0-.2700195-.0175781-.7021484-.0722656-1.0083008l1.2421875.6481934h1.421875c.1269531-.5041504.1796875-1.1523438.1796875-1.4763184,0-.2702637-.0351562-.5942383-.1074219-.8103027l1.5839844.4501953c.1621094.0539551.234375.1621094.234375.2880859,0,.3061523-.3242188.342041-.7207031.3779297-.125.1801758-.71875,1.0083008-.8457031,1.1704102h2.6289062l.5039062-.5400391c.0722656-.0720215.1992188-.1621094.3066406-.1621094s.1972656.0539551.2695312.1079102l.7382812.5402832c.109375.0720215.1796875.1799316.1796875.3061523,0,.2160645-.2324219.342041-.6289062.5581055,0,.1799316.0351562,2.2866211.0351562,2.3405762.0175781.3781738.0898438,2.1247559.0898438,2.3588867,0,.5400391-.3242188.7382812-.7011719.7382812-.3242188,0-.4140625-.1621094-.3417969-.5402832h-2.4863281l.3066406.0720215c.1992188.0539551.3242188.1621094.3242188.2519531,0,.1801758-.2167969.3422852-.4140625.4501953,0,.1259766.2695312,1.3505859,1.0078125,2.6108398.3066406-.2519531,1.2792969-1.3503418,1.5488281-2.2507324l1.1347656.7741699c.1445312.0900879.1796875.1801758.1796875.3242188,0,.2341309-.2871094.2519531-.7011719.2160645-.6855469.3781738-1.3867188.7382812-2.0722656,1.0803223.1445312.2519531.4511719.7382812,1.0273438,1.2783203.9902344.9362793,2.0527344,1.4404297,3.4746094,1.8005371v.0720215c-1.2597656.1801758-1.53125.6303711-1.7285156.9724121Zm-1.5839844-12.9279785h-4.9707031v2.232666h4.9707031v-2.232666Zm0,2.6647949h-4.9707031v2.1787109h4.9707031v-2.1787109Z"/>
      <path class="cls-1" d="m99.46875,40.6369629l-.3613281-.3601074,15.9179688-15.916748.359375.3601074-15.9160156,15.916748Z"/>
      <path class="cls-1" d="m124.6523438,39.8088379c.9179688-.9543457,2.4667969-2.7009277,3.5820312-5.2578125-1.5117188-.7021484-3.0957031-1.2241211-4.7519531-1.4042969-.234375.4682617-1.3867188,2.6828613-2.4492188,3.8530273-.3964844.4143066-1.1523438,1.0263672-1.7109375,1.0263672-.2871094,0-.4492188-.0720215-.7558594-.5041504-.5214844-.7202148-.6308594-1.1882324-.6308594-1.5664062,0-1.3322754,1.4941406-3.1870117,4.9335938-3.4750977,1.2617188-2.6286621,2.1972656-5.6535645,2.1972656-5.7255859,0-.144043-.0898438-.144043-.1445312-.144043-.3242188,0-1.0800781.2519531-1.890625.7561035-.3046875.1982422-.59375.3781738-.8105469.3781738-.3417969,0-1.1152344-.4321289-1.1152344-1.404541,0-.2158203.0527344-.3239746.1074219-.4680176.2695312.6481934.9003906.6662598,1.0078125.6662598.2519531,0,2.0722656-.4140625,2.9902344-.8103027.1425781-.0539551.2695312-.1081543.3964844-.1081543.2519531,0,1.0253906.5761719,1.0253906.9003906,0,.1801758-.0722656.2700195-.3066406.5581055-.2519531.3242188-.6660156,1.1704102-.9355469,1.7285156-.2695312.5761719-1.4042969,3.1508789-1.6386719,3.6730957,2.015625.144043,4.1953125.9003906,4.8261719,1.1704102.1796875-.5402832.4667969-1.5305176.4667969-2.232666,0-.5761719-.1621094-.9362793-.6835938-1.4765625.1269531-.0358887.1796875-.0358887.234375-.0358887.7558594,0,1.5488281,1.0263672,1.5488281,1.4223633,0,.144043-.2714844,1.4584961-.7382812,2.7189941,1.9433594.9541016,3.3125,1.800293,3.3125,2.5566406,0,.2700195-.1445312.5581055-.5039062.5581055-.1992188,0-.3613281-.1259766-1.0273438-.7021484-.9902344-.8461914-1.6015625-1.2062988-2.1601562-1.5124512-1.3691406,2.8808594-3.0058594,4.3752441-4.3027344,4.9333496l-.0722656-.0717773Zm-4.140625-6.1760254c-.9550781.4501953-1.890625,1.1345215-1.890625,2.1428223,0,.6479492.3945312,1.2963867.8632812,1.2963867.828125,0,2.3769531-2.3227539,3.0605469-3.8713379-.3945312,0-1.0800781,0-2.0332031.4321289Z"/>
      <path class="cls-1" d="m141.6621094,26.0166016c0-.2160645-.2519531-.6120605-1.0800781-.8103027.1621094-.1621094.2871094-.2880859.6835938-.2880859.6835938,0,1.2246094.4321289,1.5839844.7563477.1621094.1621094.2167969.2519531.2167969.4321289,0,.1259766-.0546875.1799316-.4140625.6660156-.234375.3061523-.3066406.3781738-.8457031,1.3325195.4316406-.144043.953125-.3061523,1.6015625-.6123047.5585938-.2519531.6660156-.3059082.8828125-.3059082.1796875,0,.953125.1799316.953125.4680176,0,.2160645-.3417969.3601074-.3769531.3781738-.4140625.1621094-.7207031.2521973-3.546875.9362793-.3964844.7382812-2.2148438,4.5554199-2.3945312,4.8613281-.234375.3962402-1.2617188,2.2148438-1.3691406,2.3046875-.1269531.144043-.2695312.144043-.3066406.144043-.1074219,0-.3417969-.0717773-.3417969-.5581055,0-.5041504.1445312-.684082.5214844-1.1523438.6679688-.828125,1.4765625-2.376709,2.125-3.6369629.3066406-.5942383.6660156-1.3503418.8652344-1.746582-.7207031.1799316-1.2246094.2880859-1.8378906.2880859-1.6015625,0-1.7636719-1.1342773-1.7988281-1.4223633.5390625.5222168.9902344.6662598,1.5839844.6662598.7011719,0,1.7109375-.1801758,2.4296875-.3422852,0-.0539551.8652344-1.9985352.8652344-2.3586426Zm4.6640625,3.5290527c2.0507812,0,3.5996094,1.7646484,3.5996094,2.5566406,0,.2521973-.1972656.3603516-.359375.3603516-.1445312,0-.3789062-.1081543-.4511719-.144043-.5039062-.2880859-.7011719-.3962402-1.3847656-.3962402-.7382812,0-1.6933594.197998-2.1621094.6662598-.2148438.2338867-.359375.5400391-.359375,1.1704102,0,.486084.2167969,2.2685547.2871094,2.7727051,1.7285156.3962402,3.4042969,1.2062988,3.4042969,2.1247559,0,.342041-.1992188.5039062-.3964844.5039062-.1269531,0-.2871094-.0898438-.3964844-.1618652-1.5117188-1.0803223-1.7460938-1.260498-2.5566406-1.5124512-.0546875,2.3586426-2.4296875,2.4846191-2.8632812,2.4846191-1.3496094,0-2.5742188-.7380371-2.5742188-1.7644043,0-1.206543,1.5664062-1.9086914,3.2597656-1.9086914.4667969,0,.7910156.0361328,1.1152344.0720215-.0898438-1.458252-.0898438-1.6203613-.0898438-1.9985352,0-1.8544922,1.1347656-2.4128418,3.0976562-2.9528809.1445312-.0361328.359375-.0900879.359375-.342041,0-.197998-.4316406-.5041504-.6835938-.6662598-.3964844-.2519531-.8105469-.4140625-1.8007812-.7382812.2695312-.0720215.5410156-.1259766.9550781-.1259766Zm-3.0429688,7.4902344c-.6855469,0-2.4863281.2160645-2.4863281,1.1884766,0,.7380371,1.0996094.8820801,1.6210938.8820801.5761719,0,2.2148438-.2160645,2.1425781-1.8903809-.2519531-.0722656-.6660156-.1801758-1.2773438-.1801758Z"/>
      <path class="cls-1" d="m163.875,29.7976074c.3066406-.1079102.4863281-.2158203.4863281-.5039062,0-.1801758-.0546875-.3422852-.1074219-.5043945.7910156.1621094,1.3671875.6303711,1.3671875,1.4404297,0,.3781738-.0898438.3781738-.6289062.4501953-2.3769531.3242188-8.1757812,2.6828613-8.1757812,5.5817871,0,.2700195.0371094.6662598.4335938,1.1342773.71875.8283691,3.2226562.8283691,3.7089844.8283691,1.4765625,0,2.1601562-.1262207,3.6191406-.4143066.3046875-.0539551.59375-.0539551.6464844-.0539551.46875,0,1.1171875.1801758,1.1171875.5942383,0,.2700195-.2871094.4321289-.8632812.5581055-.6132812.144043-2.3417969.197998-3.0078125.197998-2.0351562,0-3.1875-.197998-4.1054688-.3959961-1.3320312-.3061523-2.125-1.3503418-2.125-2.4128418,0-1.4042969,1.1347656-3.1147461,3.4941406-4.5373535-.234375-.3239746-.6855469-.9902344-.703125-1.9445801-.0898438-3.060791-.1074219-3.3850098-.1445312-3.6730957-.0527344-.3601074-.1796875-.5939941-.4492188-.8820801-.0898438-.1081543-.59375-.5043945-.703125-.5761719.1816406-.0541992.3789062-.1262207.6679688-.1262207,1.0605469,0,1.7988281,1.0263672,1.7988281,1.2424316,0,.0900879-.0527344.2700195-.0703125.3601074-.2167969.7561035-.2890625,1.4404297-.2890625,2.2145996,0,.3962402,0,1.9267578.5039062,3.0249023.46875-.2519531,1.7109375-.9182129,3.5292969-1.6025391Z"/>
      <path class="cls-1" d="m178.6523438,39.8088379c.9179688-.9543457,2.4667969-2.7009277,3.5820312-5.2578125-1.5117188-.7021484-3.0957031-1.2241211-4.7519531-1.4042969-.234375.4682617-1.3867188,2.6828613-2.4492188,3.8530273-.3964844.4143066-1.1523438,1.0263672-1.7109375,1.0263672-.2871094,0-.4492188-.0720215-.7558594-.5041504-.5214844-.7202148-.6308594-1.1882324-.6308594-1.5664062,0-1.3322754,1.4941406-3.1870117,4.9335938-3.4750977,1.2617188-2.6286621,2.1972656-5.6535645,2.1972656-5.7255859,0-.144043-.0898438-.144043-.1445312-.144043-.3242188,0-1.0800781.2519531-1.890625.7561035-.3046875.1982422-.59375.3781738-.8105469.3781738-.3417969,0-1.1152344-.4321289-1.1152344-1.404541,0-.2158203.0527344-.3239746.1074219-.4680176.2695312.6481934.9003906.6662598,1.0078125.6662598.2519531,0,2.0722656-.4140625,2.9902344-.8103027.1425781-.0539551.2695312-.1081543.3964844-.1081543.2519531,0,1.0253906.5761719,1.0253906.9003906,0,.1801758-.0722656.2700195-.3066406.5581055-.2519531.3242188-.6660156,1.1704102-.9355469,1.7285156-.2695312.5761719-1.4042969,3.1508789-1.6386719,3.6730957,2.015625.144043,4.1953125.9003906,4.8261719,1.1704102.1796875-.5402832.4667969-1.5305176.4667969-2.232666,0-.5761719-.1621094-.9362793-.6835938-1.4765625.1269531-.0358887.1796875-.0358887.234375-.0358887.7558594,0,1.5488281,1.0263672,1.5488281,1.4223633,0,.144043-.2714844,1.4584961-.7382812,2.7189941,1.9433594.9541016,3.3125,1.800293,3.3125,2.5566406,0,.2700195-.1445312.5581055-.5039062.5581055-.1992188,0-.3613281-.1259766-1.0273438-.7021484-.9902344-.8461914-1.6015625-1.2062988-2.1601562-1.5124512-1.3691406,2.8808594-3.0058594,4.3752441-4.3027344,4.9333496l-.0722656-.0717773Zm-4.140625-6.1760254c-.9550781.4501953-1.890625,1.1345215-1.890625,2.1428223,0,.6479492.3945312,1.2963867.8632812,1.2963867.828125,0,2.3769531-2.3227539,3.0605469-3.8713379-.3945312,0-1.0800781,0-2.0332031.4321289Z"/>
      <path class="cls-1" d="m195.4453125,39.5925293c1.4765625-.2158203,2.71875-.7021484,3.2773438-.9360352,1.8359375-.7744141,3.3125-1.8366699,3.3125-3.6010742,0-1.4226074-1.0625-2.4309082-2.4472656-2.4309082-2.7011719,0-5.4023438,2.3227539-6.1230469,3.5471191-.1621094.2519531-.2148438.3601074-.3769531.3601074-.46875,0-.8105469-.9724121-.8105469-1.404541,0-.1618652.1074219-.630127.1796875-.9902344.1445312-.630127.3964844-2.6647949.3964844-3.9790039,0-1.404541,0-1.548584.2871094-1.9807129.4335938-.6481934.6855469-.7021484,2.8984375-1.1523438.0722656,0,.1621094-.0358887.1621094-.144043,0-.0900879-.0898438-.1259766-.3222656-.2521973-.3789062-.2158203-1.4589844-.9541016-1.4238281-1.8183594.5585938.5219727,1.3515625.9182129,2.6113281,1.4584961,1.0625.4680176,1.1875,1.2241211,1.1875,1.458252,0,.3601074-.1796875.3781738-.3417969.3781738-.234375,0-.4140625-.0720215-.7734375-.2519531-.234375-.1081543-1.0273438-.1801758-1.6035156-.1801758-.7011719,0-2.1601562.0361328-2.1601562,1.1704102,0,.3601074.1445312.8100586.1796875.8823242.0546875.1799316.1992188.630127.1992188.828125,0,.0720215-.1269531.6662598-.1445312.7922363-.0351562.1259766-.359375,1.7104492-.359375,2.8449707,0,.2158203.0703125.4140625.2324219.4140625.0371094,0,.0917969,0,.2167969-.1081543,1.65625-1.4943848,4.1230469-2.4306641,5.9589844-2.4306641,2.2519531,0,3.4042969,1.6745605,3.4042969,3.1330566,0,1.8364258-1.6035156,3.0427246-2.484375,3.4570312-1.3339844.6120605-2.953125,1.026123-5.1328125,1.0622559v-.1262207Z"/>
      <path class="cls-1" d="m215.03125,31.5083008c-.2539062.5041504-2.1621094,4.4291992-2.234375,4.609375-.0703125.2341309-.125.4321289-.125.6662598,0,.1259766.125.7021484.125.828125,0,.197998-.125.3959961-.4492188.3959961s-2.25-.144043-3.1503906-3.9250488c-.1621094-.6481934-.1621094-.9543457-.3613281-3.7451172-.1074219-1.4584961-.1621094-1.9084473-.8632812-3.0068359.953125.0358887,1.9980469,1.0622559,1.9980469,1.8544922,0,.197998,0,.2521973-.1074219.7741699-.109375.6123047-.1269531,1.1164551-.1269531,1.5305176,0,1.0083008.234375,3.5471191,1.3515625,4.4294434.0527344.0358887.2324219.197998.3945312.197998.1992188,0,.3613281-.144043.4335938-.2702637,1.3320312-2.0883789,1.4765625-2.2866211,2.7714844-4.1772461.0195312-.0358887.109375-.1799316.1621094-.2519531l.1816406.0900879Zm4.0859375,2.1965332c.2519531-.0358887,1.421875-.2160645,1.65625-.2519531.1445312-.0180664.46875-.0900879.46875-.4501953,0-.4140625-.7929688-3.3129883-3.3300781-4.267334.0898438-.0358887.3222656-.1079102.5566406-.1079102.3066406,0,1.2421875.197998,2.0527344,1.1162109,1.3691406,1.548584,1.9453125,3.4030762,1.9453125,4.2492676,0,.5402832-.234375,1.0803223-.5039062,1.0803223-.1269531,0-.1796875-.0358887-.6308594-.4140625-.6113281-.5222168-1.0078125-.5942383-2.2148438-.8283691v-.1259766Z"/>
      <path class="cls-1" d="m227.359375,35.0554199c-.8828125,2.5927734-1.296875,3.4929199-2.2871094,4.753418l-.1445312-.0541992c.6835938-1.6203613,1.3867188-4.4111328,1.3867188-5.3835449,0-.1621094-.0371094-.4140625-.0722656-.5761719l1.4414062.5581055c.125.0539551.1972656.1262207.1972656.2341309,0,.2341309-.2167969.3242188-.5214844.4682617Zm4.0507812-7.1481934c-.9550781,1.4404297-3.0800781,3.9250488-3.2050781,4.0690918.2519531-.0180664,2.0351562-.144043,2.484375-.1799316-.2871094-.8464355-.5214844-1.1884766-.6660156-1.3864746l.0722656-.0900879c.3964844.2160645,1.9980469,1.0622559,1.9980469,2.088623,0,.3781738-.234375.7202148-.5390625.7202148-.4511719,0-.5585938-.3601074-.7929688-1.1162109l-1.53125.3601074c-.0351562,1.7824707-.0175781,2.6286621-.0175781,3.1149902.0175781.6479492.1074219,4.0690918.1074219,4.2490234,0,.6843262-.4140625.8642578-.7011719.8642578-.3964844,0-.3964844-.2880859-.3964844-.4140625,0-.6481934.0898438-3.4389648.0898438-4.0151367s.0546875-3.0788574.0722656-3.6010742c-1.0976562.2519531-1.8007812.3781738-2.359375.4321289-.1621094.2880859-.2324219.3781738-.3945312.3781738-.0722656,0-.2167969-.0539551-.2519531-.2160645l-.3066406-1.3864746c.8105469.2880859,1.8730469.2521973,2.8261719.2160645,1.1171875-1.6025391,2.8808594-4.8254395,2.7011719-5.5275879l1.3867188.8461914c.1445312.0900879.1621094.1799316.1621094.2700195,0,.197998-.1796875.2521973-.7382812.3242188Zm-2.1074219-2.2145996c-.8632812,1.2241211-1.1523438,1.6203613-1.6738281,2.2866211.3769531.2880859.7558594.5761719.7558594,1.0803223,0,.3601074-.2167969.7380371-.5585938.7380371s-.5039062-.2519531-.9179688-1.0622559c-.3417969-.6481934-.5214844-.972168-1.1875-1.458252l.0351562-.0722656c.2519531.0361328.7753906.1081543,1.6738281.6484375.1621094-.4143066.9550781-2.3227539.9550781-3.151123,0-.1259766-.0351562-.3239746-.0546875-.4499512l1.53125.7741699c.1074219.0539551.1796875.1259766.1796875.2519531,0,.1801758-.125.2521973-.7382812.4143066Zm1.9628906,11.0913086c-.4140625,0-.4863281-.2163086-.7207031-.9904785-.0351562-.1259766-.2871094-.9001465-.6835938-1.4404297l.0351562-.0720215c1.0273438.5761719,1.9101562,1.1164551,1.9101562,1.8725586,0,.3061523-.1816406.6303711-.5410156.6303711Zm3.2597656-1.8725586c-1.3144531,2.71875-2.4667969,3.9431152-4.015625,4.6633301l-.0175781-.1262207c1.4570312-1.170166,2.6640625-3.3308105,3.1152344-5.095459h-.9921875c-.2871094,0-.7011719.0361328-.9902344.0900879l-.1796875-.5942383c.3242188.0361328,1.0097656.0720215,1.2792969.0720215h.8632812l.1992188-.2880859c.0527344-.0900879.125-.144043.1972656-.144043.0898438,0,.1621094.0720215.2167969.1081543l.8105469.684082c.0898438.0720215.125.144043.125.2341309,0,.3239746-.359375.3781738-.6113281.3962402Zm5.9589844,4.807373c-1.890625-1.5305176-3.1152344-3.0788574-3.8535156-5.4377441,0,.3061523.0175781.6481934.0175781.9543457.0195312.5761719.0917969,3.5830078.0917969,3.6369629,0,.7563477-.3242188,1.0444336-.5234375,1.1884766-.234375.197998-.5761719.4321289-1.0976562.5222168-.2167969-.486084-.3789062-.8823242-1.8359375-1.4943848l.0351562-.0722656c.3417969.0180664,1.5117188.0541992,1.6738281.0541992.5585938,0,.7753906,0,.7753906-.3781738v-5.7617188c0-.6481934,0-.7202148-.0175781-.8642578h-1.8203125c0,.197998.0195312.5761719-.6113281.5761719-.4316406,0-.4492188-.197998-.4492188-.3601074,0-.4140625.0527344-2.2866211.0527344-2.6647949,0-.4680176-.0351562-2.4846191-.0351562-2.8989258,0-.2700195-.0175781-.7021484-.0722656-1.0083008l1.2421875.6481934h1.421875c.1269531-.5041504.1796875-1.1523438.1796875-1.4763184,0-.2702637-.0351562-.5942383-.1074219-.8103027l1.5839844.4501953c.1621094.0539551.234375.1621094.234375.2880859,0,.3061523-.3242188.342041-.7207031.3779297-.125.1801758-.71875,1.0083008-.8457031,1.1704102h2.6289062l.5039062-.5400391c.0722656-.0720215.1992188-.1621094.3066406-.1621094s.1972656.0539551.2695312.1079102l.7382812.5402832c.109375.0720215.1796875.1799316.1796875.3061523,0,.2160645-.2324219.342041-.6289062.5581055,0,.1799316.0351562,2.2866211.0351562,2.3405762.0175781.3781738.0898438,2.1247559.0898438,2.3588867,0,.5400391-.3242188.7382812-.7011719.7382812-.3242188,0-.4140625-.1621094-.3417969-.5402832h-2.4863281l.3066406.0720215c.1992188.0539551.3242188.1621094.3242188.2519531,0,.1801758-.2167969.3422852-.4140625.4501953,0,.1259766.2695312,1.3505859,1.0078125,2.6108398.3066406-.2519531,1.2792969-1.3503418,1.5488281-2.2507324l1.1347656.7741699c.1445312.0900879.1796875.1801758.1796875.3242188,0,.2341309-.2871094.2519531-.7011719.2160645-.6855469.3781738-1.3867188.7382812-2.0722656,1.0803223.1445312.2519531.4511719.7382812,1.0273438,1.2783203.9902344.9362793,2.0527344,1.4404297,3.4746094,1.8005371v.0720215c-1.2597656.1801758-1.53125.6303711-1.7285156.9724121Zm-1.5839844-12.9279785h-4.9707031v2.232666h4.9707031v-2.232666Zm0,2.6647949h-4.9707031v2.1787109h4.9707031v-2.1787109Z"/>
    </g>
  </g>
</svg>